<?xml version="1.0" encoding="iso-8859-1"?>
<!-- Generator: Adobe Illustrator 18.0.0, SVG Export Plug-In . SVG Version: 6.00 Build 0)  -->
<!DOCTYPE svg PUBLIC "-//W3C//DTD SVG 1.1//EN" "http://www.w3.org/Graphics/SVG/1.1/DTD/svg11.dtd">
<svg version="1.1" id="Capa_1" xmlns="http://www.w3.org/2000/svg" xmlns:xlink="http://www.w3.org/1999/xlink" x="0px" y="0px"
	 viewBox="0 0 317.533 317.533" style="enable-background:new 0 0 317.533 317.533;" xml:space="preserve">
<g>
	<g>
		<path d="M281.653,76.69l-56.086-32.747V0L82.682,83.359v29.779l-46.917,28.103v136.777l67.397,39.515l178.606-104.059
			L281.653,76.69z M97.682,91.975l112.886-65.857v10.338L97.682,104.145V91.975z M97.682,121.635l112.886-67.69v15.263
			l-112.886,65.65V121.635z M82.682,130.629v12.951l-13.188,7.67c-0.203,0.118-0.395,0.246-0.583,0.38l-10.716-6.318L82.682,130.629
			z M95.765,295.847l-45-26.416V158.453l45,26.425V295.847z M83.692,160.346l156.074-90.768l19.472,11.347l-156.022,90.877
			L83.692,160.346z M110.765,295.768V184.832l155.885-90.861l0.111,110.889L110.765,295.768z"/>
	</g>
	<path d="M158.272,170.374c-6.007-3.307-12.927-2.84-19.481,1.314c-13.917,8.82-24.818,34.847-24.818,59.251
		c0,16.632,5.067,28.958,13.903,33.818c2.645,1.456,5.468,2.18,8.357,2.18c3.673,0,7.455-1.17,11.123-3.494
		c13.917-8.82,24.819-34.847,24.819-59.252C172.176,187.561,167.108,175.234,158.272,170.374z M138.791,249.929
		c-1.442,0.915-2.521,1.189-3.203,0.811c-1.445-0.795-3.34-3.678-4.517-8.861c1.407,0.135,2.939-0.266,4.544-1.282
		c6.86-4.35,12.422-18.184,12.422-30.903c0-9.755-3.273-16.013-7.894-16.44c2.316-3.714,4.804-6.523,7.213-8.05
		c1.023-0.648,1.863-0.974,2.51-0.974c0.264,0,0.496,0.055,0.694,0.163c2.257,1.242,5.615,7.54,5.615,19.8
		C156.176,224.652,147.015,244.718,138.791,249.929z"/>
	<path d="M250.062,114.21c-6.008-3.306-12.928-2.838-19.481,1.314c-13.917,8.821-24.818,34.848-24.818,59.251
		c0,16.632,5.067,28.958,13.903,33.819c2.646,1.455,5.468,2.18,8.358,2.18c3.673,0,7.455-1.171,11.123-3.495
		c13.917-8.82,24.818-34.848,24.818-59.252C263.965,131.396,258.897,119.07,250.062,114.21z M230.581,193.766
		c-1.442,0.915-2.521,1.184-3.203,0.811c-1.446-0.796-3.341-3.679-4.518-8.861c1.408,0.134,2.939-0.267,4.544-1.283
		c6.86-4.349,12.422-18.184,12.422-30.903c0-9.755-3.273-16.013-7.893-16.44c2.315-3.713,4.804-6.523,7.213-8.05
		c1.023-0.648,1.863-0.974,2.51-0.974c0.264,0,0.496,0.055,0.694,0.163c2.257,1.242,5.615,7.54,5.615,19.8
		C247.965,168.488,238.803,188.554,230.581,193.766z"/>
	<polygon points="175.404,232.121 203.833,215.586 203.833,176.683 175.404,193.221 	"/>
	<polygon points="175.404,171.911 203.833,155.376 203.833,141.766 175.404,158.304 	"/>
</g>
<g>
</g>
<g>
</g>
<g>
</g>
<g>
</g>
<g>
</g>
<g>
</g>
<g>
</g>
<g>
</g>
<g>
</g>
<g>
</g>
<g>
</g>
<g>
</g>
<g>
</g>
<g>
</g>
<g>
</g>
</svg>
