<svg xmlns="http://www.w3.org/2000/svg" xmlns:xlink="http://www.w3.org/1999/xlink" width="250pt" height="232" viewBox="0 0 250 173.8"><g id="graph0" class="graph" transform="scale(1 1) rotate(0) translate(4 169.8)"><title>dependencies</title><polygon fill="#fff" stroke="transparent" points="-4 4 -4 -169.8 246 -169.8 246 4 -4 4"/><text x="121" y="-8.2" font-family="sans-serif" font-size="14" text-anchor="middle">dependencies</text><g id="clust1" class="cluster"><title>cluster_HotkeysModule</title><polygon fill="none" stroke="#000" stroke-dasharray="1 5" points="8 -32.8 8 -157.8 234 -157.8 234 -32.8 8 -32.8"/></g><g id="clust2" class="cluster"><title>cluster_HotkeysModule_declarations</title><polygon fill="none" stroke="#000" points="16 -40.8 16 -92.8 226 -92.8 226 -40.8 16 -40.8"/></g><g id="node1" class="node"><title>HotkeysHelpDialogComponent</title><polygon fill="#ffffb3" stroke="#000" points="217.81 -84.8 24.19 -84.8 24.19 -48.8 217.81 -48.8 217.81 -84.8"/><text x="121" y="-62.6" font-family="Times,serif" font-size="14" text-anchor="middle">HotkeysHelpDialogComponent</text></g><g id="node2" class="node"><title>HotkeysModule</title><polygon fill="#8dd3c7" stroke="#000" points="174.21 -149.8 171.21 -153.8 150.21 -153.8 147.21 -149.8 67.79 -149.8 67.79 -113.8 174.21 -113.8 174.21 -149.8"/><text x="121" y="-127.6" font-family="Times,serif" font-size="14" text-anchor="middle">HotkeysModule</text></g><g id="edge1" class="edge"><title>HotkeysHelpDialogComponent-&gt;HotkeysModule</title><path fill="none" stroke="#000" d="M121,-84.91C121,-84.91 121,-103.79 121,-103.79"/><polygon fill="#000" stroke="#000" points="117.5 -103.79 121 -113.79 124.5 -103.79 117.5 -103.79"/></g></g></svg>