<svg version="1.1" xmlns="http://www.w3.org/2000/svg" xmlns:xlink="http://www.w3.org/1999/xlink" width="48" height="48"><defs><linearGradient x1="11.37378" y1="7.70247" x2="37.9148" y2="41.58611" gradientUnits="userSpaceOnUse" id="color-1"><stop offset="0.44" stop-color="#000000" stop-opacity="0.31"></stop><stop offset="1" stop-color="#000000" stop-opacity="0"></stop></linearGradient><filter id="dropshadow-base"><feColorMatrix type="matrix" values="0 0 0 0 0  0 0 0 0 0  0 0 0 0 0  0 0 0 .8 0"></feColorMatrix> <feOffset dx="0" dy="1"></feOffset> <feGaussianBlur stdDeviation="1"></feGaussianBlur> <feComposite in="SourceGraphic"></feComposite></filter><filter id="dropshadow-banner" x="-10%" y="-10%" width="120%" height="130%"><feColorMatrix type="matrix" values="0 0 0 0 0  0 0 0 0 0  0 0 0 0 0  0 0 0 .4 0"></feColorMatrix> <feOffset dx="0" dy="1"></feOffset> <feGaussianBlur stdDeviation="0.5"></feGaussianBlur> <feComposite in="SourceGraphic"></feComposite></filter></defs><g fill="none" fill-rule="nonzero" stroke="none" stroke-width="none" stroke-linecap="butt" stroke-linejoin="miter" stroke-miterlimit="10" stroke-dasharray="" stroke-dashoffset="0" font-family="none" font-weight="none" font-size="none" text-anchor="none" style="mix-blend-mode: normal"><path d="M2,24c0,-12.15026 9.84974,-22 22,-22c12.15026,0 22,9.84974 22,22c0,12.15026 -9.84974,22 -22,22c-12.15026,0 -22,-9.84974 -22,-22z" id="base 1 6" fill="#383838" stroke-width="1"></path><path d="M12.66236,37.52985l-1.28858,-1.28858v-14.04029l4.81607,-2.88479v-3.05685l14.66727,-8.55687l1.28858,1.28858v3.97458l4.4687,2.60915l1.28858,1.28858l0.01182,14.04099l-18.33407,10.68176zM36.61485,16.11126l-4.46915,-2.60941l-1.28858,-1.28858v-2.47046l-1.37701,0.80334l1.12594,1.12594v1.0612l-1.12231,0.67296l1.12231,1.12231l0,1.30984l1.70862,-0.99368l1.99883,1.16478l1.28858,1.28858l-0.36546,0.21287l1.12631,1.12631l0.01113,11.12542l0.25215,-0.14691zM21.11669,35.00811c0.18502,0.06387 0.37617,0.09569 0.57022,0.09569c0.37704,0 0.76527,-0.1201 1.14179,-0.35866c0.01728,-0.01095 0.03452,-0.02216 0.05171,-0.03363c-0.01851,-0.01313 -0.03758,-0.02938 -0.05699,-0.04879l-1.28858,-1.28858c-0.13159,-0.13159 -0.27922,-0.40851 -0.37779,-0.84258c0.14443,0.01385 0.3017,-0.02731 0.46645,-0.1316c0.70418,-0.44652 1.27514,-1.8666 1.27514,-3.17222c0,-0.40972 -0.05625,-0.75934 -0.1552,-1.03245l-0.54567,-0.54567c-0.89589,1.25311 -1.50728,3.19583 -1.50728,5.04752c0,0.91339 0.14887,1.70027 0.42621,2.31097zM25.37639,28.66287l0,-0.00002c0.00005,-0.91331 -0.14883,-1.70018 -0.4262,-2.31089c-0.54437,-0.18799 -1.14174,-0.0985 -1.71211,0.263c-0.01731,0.01097 -0.03457,0.0222 -0.05178,0.03368c0.01878,0.01327 0.03814,0.02975 0.05786,0.04947l1.28858,1.28858c0.22213,0.22213 0.48983,0.8559 0.48983,1.96494l0.00002,0.00002c0.00004,0.76189 -0.12371,1.51848 -0.32173,2.19887c0.42111,-1.06071 0.67555,-2.29311 0.67555,-3.48765zM23.45123,28.7134l0.27535,0.27535c0.00489,-0.10831 0.00741,-0.21694 0.0074,-0.32567l-0.00002,-0.00002c0,-0.10872 -0.00257,-0.21287 -0.00742,-0.31251c-0.09297,0.10606 -0.18519,0.22769 -0.27532,0.36285zM35.08574,28.73155l-0.00034,-0.33516c-0.08896,0.17382 -0.18262,0.3405 -0.28049,0.49881zM34.79873,22.89757c0,-0.91332 -0.1489,-1.70016 -0.42624,-2.31083c-0.54444,-0.18791 -1.1418,-0.09839 -1.71208,0.26295c-0.01731,0.01097 -0.03457,0.0222 -0.05178,0.03368c0.01878,0.01327 0.03814,0.02975 0.05785,0.04946l1.28858,1.28858c0.22213,0.22213 0.48983,0.8559 0.48983,1.96494l0.00002,0.00002c0,0.76232 -0.12392,1.51932 -0.32216,2.20002c0.42137,-1.06099 0.67598,-2.29386 0.67598,-3.48879zM32.87354,22.94815l0.27537,0.27537c0.0049,-0.10833 0.00742,-0.21697 0.00742,-0.32573l-0.00002,-0.00002c0,-0.10872 -0.00257,-0.21287 -0.00742,-0.31252c-0.093,0.10609 -0.18523,0.22773 -0.27535,0.36289zM30.57928,26.76638c0.14454,0.01376 0.3017,-0.02741 0.46645,-0.1317c0.70418,-0.44642 1.27514,-1.8666 1.27514,-3.17222c0,-0.40979 -0.05627,-0.75947 -0.15526,-1.0326l-0.54549,-0.54549c-0.89591,1.25315 -1.50731,3.19586 -1.50731,5.04749c0,0.91341 0.14888,1.7003 0.42623,2.31101c0.18504,0.06388 0.37617,0.09574 0.5703,0.09574c0.37704,0 0.76527,-0.12019 1.14179,-0.35876c0.01724,-0.01093 0.03444,-0.02211 0.05159,-0.03355c-0.01852,-0.01314 -0.0376,-0.0294 -0.05702,-0.04882l-1.28858,-1.28858c-0.13164,-0.13164 -0.27927,-0.40854 -0.37784,-0.84253zM35.07639,19.38715l-1.03263,0.60189l1.03427,1.03427zM24.4488,25.58167l1.23956,1.23956c0.1433,0.1433 0.27215,0.31154 0.38564,0.50256l2.55211,-1.48464l0.20818,0.20818c-0.00669,-0.1317 -0.01007,-0.26643 -0.01007,-0.40404c0,-0.02288 0.00009,-0.04577 0.00028,-0.06867l-1.82808,1.06326l-1.28858,-1.28858v-0.50148zM29.28262,22.76417l-0.093,0.05421l0.058,0.058c0.01146,-0.03754 0.02313,-0.07495 0.035,-0.1122zM26.99643,30.78045l1.62969,-0.94787v-1.95525l-1.62969,0.94804zM25.61748,34.24925l6.32093,-3.68357c-0.1361,-0.03719 -0.26931,-0.09126 -0.39844,-0.16227c-0.16289,-0.08961 -0.31331,-0.20394 -0.45047,-0.34111c0,0 0,0 0,0c0,0 0,0 0,0l-1.1748,-1.1748l0,2.23365l-2.91827,1.69734l-0.61331,-0.61331c-0.18212,0.73759 -0.44488,1.43695 -0.76564,2.04407zM20.36118,37.3124l1.86657,-1.08776c-0.03702,-0.01733 -0.07373,-0.03602 -0.11012,-0.05605c-0.16292,-0.08961 -0.31336,-0.20395 -0.45054,-0.34113l-1.28858,-1.28858c-0.0058,-0.0058 -0.01158,-0.01164 -0.01733,-0.01752zM19.37215,26.50105l-1.79004,-1.05033l-1.1263,-1.1263l-0.33114,0.19259c-0.02084,0.01211 -0.04055,0.02524 -0.05984,0.039l-1.1,-0.64854l-1.12387,-1.12387l-1.17859,0.70597v13.50721l5.62979,3.30076l1.90485,-1.1098l-1.1244,-1.1244v-11.38769zM33.60325,16.13329l-15.56537,9.05237l0.25981,0.15245l15.55436,-9.05983zM17.72962,21.54577v-1.35736l1.12236,-0.673l-1.12236,-1.12236l0,-0.99167l-0.2512,0.14655v3.05685l-1.12287,0.67259l1.12287,1.12287l0,1.07281l1.37741,-0.80106zM14.20212,36.11624l3.33071,1.95521l0,-10.85918l-3.33071,-1.95586zM18.82141,39.36003l-4.61929,-2.71163l-1.28858,-1.28858v-11.39199l4.61929,2.71254l1.28858,1.28858z" fill="url(#color-1)" stroke-width="1"></path><path d="M36.62622,29.61578l-18.33407,10.68175l-6.91837,-4.05625v-14.04029l4.81607,-2.8848v-3.05684l14.66728,-8.55688v4.51079l5.75728,3.36151zM17.72962,18.39305l11.58785,-6.94834v-1.06121l-11.58785,6.76028zM17.72962,21.54577l11.58785,-6.73903v-1.56676l-11.58785,6.94844zM13.67624,22.61888l1.10001,0.64855c0.0193,-0.01376 0.03901,-0.02689 0.05985,-0.03901l1.35376,-0.78733v-1.32943zM17.53284,26.68037l-4.61929,-2.71255v11.392l4.61929,2.71163zM18.29769,25.33811l16.0158,-9.32861l-1.99882,-1.16478l-16.02114,9.31742zM35.08574,28.73154l-0.01139,-11.38286l-16.00174,9.32697v11.38768zM25.3764,28.66287c0,2.5052 -1.1191,5.17689 -2.54769,6.08227c-0.37652,0.23856 -0.76475,0.35866 -1.14179,0.35866c-0.29656,0 -0.58634,-0.07432 -0.85785,-0.22378c-0.90702,-0.49888 -1.42716,-1.76416 -1.42716,-3.47145c0,-2.50509 1.119,-5.17679 2.54759,-6.08217c0.67277,-0.42641 1.38312,-0.47435 1.99974,-0.13488c0.90702,0.49888 1.42726,1.76426 1.42716,3.47135zM23.73398,28.66307c0,-1.2585 -0.3447,-1.905 -0.57639,-2.03249c-0.02032,-0.01109 -0.04414,-0.01673 -0.07124,-0.01673c-0.06642,0 -0.15264,0.03346 -0.25765,0.09998c-0.24729,0.15675 -0.50268,0.44509 -0.74042,0.82634c0.47435,0.04383 0.81033,0.68622 0.81033,1.68758c0,1.30562 -0.57094,2.72569 -1.27513,3.17222c-0.16475,0.10429 -0.32202,0.14546 -0.46645,0.1316c0.12082,0.53204 0.31534,0.82798 0.46367,0.90959c0.07001,0.0388 0.18077,0.01068 0.32879,-0.08325c0.8442,-0.53491 1.78459,-2.59471 1.78448,-4.69484zM34.79872,22.89758c0,2.50509 -1.119,5.17689 -2.54759,6.08227c-0.37652,0.23856 -0.76475,0.35877 -1.14179,0.35877c-0.29666,0 -0.58634,-0.07442 -0.85796,-0.22378c-0.90702,-0.49899 -1.42716,-1.76426 -1.42716,-3.47155c0,-2.50499 1.119,-5.17669 2.54759,-6.08217c0.67267,-0.42621 1.38302,-0.47425 1.99974,-0.13488c0.90692,0.49888 1.42716,1.76416 1.42716,3.47135zM33.15631,22.89779c0,-1.2585 -0.3447,-1.905 -0.57639,-2.03249c-0.02032,-0.01109 -0.04414,-0.01673 -0.07124,-0.01673c-0.06642,0 -0.15264,0.03346 -0.25765,0.09998c-0.24729,0.15675 -0.50278,0.4452 -0.74042,0.82634c0.47425,0.04383 0.81022,0.68622 0.81022,1.68758c0,1.30562 -0.57094,2.72579 -1.27513,3.17222c-0.16475,0.10429 -0.32191,0.14546 -0.46645,0.1317c0.12082,0.53194 0.31534,0.82788 0.46378,0.90959c0.07001,0.03829 0.18077,0.01068 0.32879,-0.08325c0.844,-0.53502 1.78448,-2.59481 1.78448,-4.69495zM25.70785,27.53679l2.91826,-1.69764v3.99343l-2.91826,1.69733zM25.70785,23.95252l2.91826,-1.69764v1.39708l-2.91826,1.69733z" fill="none" stroke-width="0"></path><path d="M36.62622,29.61578l-18.33407,10.68175l-6.91837,-4.05625v-14.04029l4.81607,-2.8848v-3.05684l14.66728,-8.55688v4.51079l5.75728,3.36151zM17.72962,18.39305l11.58785,-6.94834v-1.06121l-11.58785,6.76028zM17.72962,21.54577l11.58785,-6.73903v-1.56676l-11.58785,6.94844zM13.67624,22.61888l1.10001,0.64855c0.0193,-0.01376 0.03901,-0.02689 0.05985,-0.03901l1.35376,-0.78733v-1.32943zM17.53284,26.68037l-4.61929,-2.71255v11.392l4.61929,2.71163zM18.29769,25.33811l16.0158,-9.32861l-1.99882,-1.16478l-16.02114,9.31742zM35.08574,28.73154l-0.01139,-11.38286l-16.00174,9.32697v11.38768zM25.3764,28.66287c0,2.5052 -1.1191,5.17689 -2.54769,6.08227c-0.37652,0.23856 -0.76475,0.35866 -1.14179,0.35866c-0.29656,0 -0.58634,-0.07432 -0.85785,-0.22378c-0.90702,-0.49888 -1.42716,-1.76416 -1.42716,-3.47145c0,-2.50509 1.119,-5.17679 2.54759,-6.08217c0.67277,-0.42641 1.38312,-0.47435 1.99974,-0.13488c0.90702,0.49888 1.42726,1.76426 1.42716,3.47135zM23.73398,28.66307c0,-1.2585 -0.3447,-1.905 -0.57639,-2.03249c-0.02032,-0.01109 -0.04414,-0.01673 -0.07124,-0.01673c-0.06642,0 -0.15264,0.03346 -0.25765,0.09998c-0.24729,0.15675 -0.50268,0.44509 -0.74042,0.82634c0.47435,0.04383 0.81033,0.68622 0.81033,1.68758c0,1.30562 -0.57094,2.72569 -1.27513,3.17222c-0.16475,0.10429 -0.32202,0.14546 -0.46645,0.1316c0.12082,0.53204 0.31534,0.82798 0.46367,0.90959c0.07001,0.0388 0.18077,0.01068 0.32879,-0.08325c0.8442,-0.53491 1.78459,-2.59471 1.78448,-4.69484zM34.79872,22.89758c0,2.50509 -1.119,5.17689 -2.54759,6.08227c-0.37652,0.23856 -0.76475,0.35877 -1.14179,0.35877c-0.29666,0 -0.58634,-0.07442 -0.85796,-0.22378c-0.90702,-0.49899 -1.42716,-1.76426 -1.42716,-3.47155c0,-2.50499 1.119,-5.17669 2.54759,-6.08217c0.67267,-0.42621 1.38302,-0.47425 1.99974,-0.13488c0.90692,0.49888 1.42716,1.76416 1.42716,3.47135zM33.15631,22.89779c0,-1.2585 -0.3447,-1.905 -0.57639,-2.03249c-0.02032,-0.01109 -0.04414,-0.01673 -0.07124,-0.01673c-0.06642,0 -0.15264,0.03346 -0.25765,0.09998c-0.24729,0.15675 -0.50278,0.4452 -0.74042,0.82634c0.47425,0.04383 0.81022,0.68622 0.81022,1.68758c0,1.30562 -0.57094,2.72579 -1.27513,3.17222c-0.16475,0.10429 -0.32191,0.14546 -0.46645,0.1317c0.12082,0.53194 0.31534,0.82788 0.46378,0.90959c0.07001,0.03829 0.18077,0.01068 0.32879,-0.08325c0.844,-0.53502 1.78448,-2.59481 1.78448,-4.69495zM25.70785,27.53679l2.91826,-1.69764v3.99343l-2.91826,1.69733zM25.70785,23.95252l2.91826,-1.69764v1.39708l-2.91826,1.69733z" fill="#ffffff" stroke-width="0"></path><path d="M2,24c0,-12.15026 9.84974,-22 22,-22c12.15026,0 22,9.84974 22,22c0,12.15026 -9.84974,22 -22,22c-12.15026,0 -22,-9.84974 -22,-22z" id="base 1 1 1" fill="none" stroke-width="1"></path><g id="Capa_1 1 1" fill="#000000" stroke-width="1" font-family="Roboto, sans-serif" font-weight="400" font-size="14" text-anchor="start"><g><g></g></g><g></g><g></g><g></g><g></g><g></g><g></g><g></g><g></g><g></g><g></g><g></g><g></g><g></g><g></g><g></g></g><rect x="2" y="2" width="44" height="22" fill="none" stroke-width="1"></rect><path d="M2,24v-22h44v22z" fill="none" stroke-width="1"></path><path d="M2,24v-22h44v22z" fill="none" stroke-width="1"></path><path d="M2,24v-22h44v22z" fill="none" stroke-width="1"></path><path d="M2,24v-22h44v22z" fill="none" stroke-width="1"></path></g></svg>
