<svg xmlns="http://www.w3.org/2000/svg" xmlns:xlink="http://www.w3.org/1999/xlink" viewBox="0 0 640 640" width="512" height="512"><defs><path d="M321 2c176.18 0 319 142.82 319 319S497.18 640 321 640 2 497.18 2 321 144.82 2 321 2z" id="a"/><path d="M156.6 517.18l-18.68-18.68V294.91l69.83-41.83v-44.32L420.43 84.69l18.68 18.68V161l64.8 37.83 18.68 18.69.17 203.59L256.92 576 156.6 517.18zm347.32-310.57l-64.81-37.83-18.68-18.69v-35.82l-19.97 11.65 16.33 16.33v15.38l-16.28 9.76 16.28 16.27v19l24.77-14.41 28.99 16.89 18.68 18.68-5.3 3.09 16.33 16.33.16 161.32 3.66-2.13-.16-195.82zm-216.46 275.4c5.47 0 11.1-1.75 16.56-5.21.25-.15.5-.32.75-.48-.27-.19-.55-.43-.83-.71l-18.68-18.68c-1.91-1.91-4.05-5.93-5.48-12.22 2.09.2 4.37-.4 6.76-1.91 10.21-6.48 18.49-27.07 18.49-46 0-5.94-.82-11.01-2.25-14.97l-7.91-7.91c-12.99 18.17-21.86 46.34-21.86 73.19 0 13.24 2.16 24.65 6.18 33.51 2.68.92 5.46 1.39 8.27 1.39zm53.5-93.4c0-13.24-2.16-24.65-6.18-33.51-7.9-2.72-16.56-1.42-24.83 3.82-.25.16-.5.32-.75.49.27.19.55.43.84.71 1.87 1.87 16.82 16.82 18.68 18.69 3.23 3.22 7.11 12.41 7.11 28.49 0 11.05-1.8 22.02-4.67 31.88 6.11-15.38 9.8-33.25 9.8-50.57zm-23.92 4.73c.07-1.57.1-3.15.1-4.73 0-1.57-.03-3.08-.11-4.53-1.34 1.54-2.68 3.3-3.99 5.26l4 4zm164.7-3.73v-4.86c-1.29 2.52-2.65 4.93-4.07 7.23.54-.32 1.9-1.11 4.07-2.37zm-10.34-118.1c-7.89-2.73-16.55-1.43-24.82 3.81-.26.16-.51.32-.75.49.27.19.55.43.83.72 1.87 1.86 16.82 16.81 18.69 18.68 3.22 3.22 7.1 12.41 7.1 28.49 0 11.06-1.8 22.03-4.67 31.9 6.11-15.38 9.8-33.26 9.8-50.58 0-13.25-2.16-24.66-6.18-33.51zm-17.74 38.23c.07-1.57.11-3.15.11-4.72 0-1.58-.04-3.09-.11-4.53-1.35 1.53-2.69 3.3-3.99 5.26l3.99 3.99zm-30.5 49.46c10.21-6.47 18.49-27.06 18.49-45.99 0-5.95-.81-11.02-2.25-14.98l-7.91-7.91c-12.99 18.17-21.85 46.34-21.85 73.19 0 13.25 2.15 24.66 6.18 33.51 2.68.93 5.45 1.39 8.27 1.39 5.46 0 11.09-1.74 16.55-5.2.25-.16.5-.32.75-.49-.27-.19-.55-.42-.83-.71-1.87-1.86-16.81-16.81-18.68-18.68-1.91-1.91-4.05-5.92-5.48-12.22 2.1.2 4.37-.39 6.76-1.91zm58.45-105.09l-14.98 8.73 15 15-.02-23.73zm-154.1 89.82c10.78 10.79 16.77 16.78 17.97 17.98 2.08 2.08 3.95 4.52 5.59 7.28 2.47-1.43 14.81-8.61 37.01-21.52l3.02 3.02c-.1-1.91-.15-3.87-.15-5.86 0-.33 0-.67.01-1-1.77 1.03-10.61 6.17-26.51 15.42l-18.69-18.69v-7.27l-18.25 10.64zm68.74-40.06l.84.84c.17-.55.34-1.09.51-1.63 0 0-.45.26-1.35.79zm-31.8 115.45l23.63-13.75v-28.35l-23.63 13.75v28.35zm71.66-3.12c-1.98-.54-3.91-1.32-5.78-2.35-2.36-1.3-4.54-2.96-6.53-4.95-1.14-1.13-6.82-6.81-17.04-17.03v32.39l-42.31 24.61-8.89-8.89c-2.65 10.69-6.46 20.83-11.11 29.63 18.33-10.68 82.49-48.07 91.66-53.41zm-167.87 97.83c16.24-9.46 25.26-14.72 27.06-15.77-.53-.25-1.07-.53-1.59-.82-2.37-1.29-4.55-2.95-6.54-4.94-1.87-1.87-16.81-16.82-18.68-18.69-.09-.08-.17-.17-.25-.25v40.47zM253.9 357.27l-25.96-15.23-16.33-16.34c-2.88 1.68-4.48 2.61-4.8 2.8-.3.17-.59.36-.87.56-1.06-.62-6.38-3.76-15.95-9.4l-16.3-16.3-17.09 10.24v195.85l81.64 47.86 27.62-16.09-16.31-16.3V359.8l4.35-2.53zm206.35-150.34l-225.7 131.26 3.77 2.21 225.53-131.36-3.6-2.11zm-230.17 78.48v-19.68l16.27-9.76-16.27-16.27v-14.38l-3.64 2.12v44.33l-16.28 9.75 16.28 16.28v15.56l19.97-11.62-16.33-16.33zm-51.15 211.28l48.3 28.35V367.58l-48.3-28.36v157.47zm66.98 47.03l-66.98-39.32-18.68-18.68V320.53l66.98 39.34 18.68 18.68v165.17z" id="b"/><path d="M504.08 402.43L238.24 557.31 137.92 498.5V294.91l69.83-41.83v-44.32L420.43 84.69v65.4l83.48 48.74.17 203.6zm-274-162.73L398.1 138.95v-15.39l-168.02 98.02v18.12zm0 45.71L398.1 187.7v-22.72L230.08 265.73v19.68zm-58.77 15.56c9.57 5.65 14.88 8.78 15.95 9.41.28-.2.56-.39.86-.57 1.31-.76 7.86-4.56 19.63-11.41v-19.28l-36.44 21.85zm55.92 58.9l-66.98-39.34v165.19l66.98 39.32V359.87zm11.09-19.47l232.23-135.26-28.99-16.89-232.3 135.1 29.06 17.05zm243.42 49.21l-.16-165.05L249.55 359.8v165.12l232.19-135.31zM304.02 476.8c-5.46 3.46-11.09 5.21-16.56 5.21-4.3 0-8.5-1.08-12.44-3.25-13.15-7.23-20.69-25.58-20.69-50.34 0-36.32 16.22-75.06 36.94-88.19 9.75-6.18 20.05-6.88 28.99-1.95 13.16 7.23 20.7 25.58 20.7 50.33 0 36.33-16.23 75.07-36.94 88.19zm4.77-117.66c-.3-.16-.64-.24-1.04-.24-.96 0-2.21.49-3.73 1.45-3.59 2.27-7.29 6.45-10.74 11.98 6.88.64 11.75 9.95 11.75 24.47 0 18.93-8.28 39.52-18.49 46-2.39 1.51-4.67 2.11-6.76 1.91 1.75 7.71 4.57 12 6.72 13.19 1.02.56 2.62.15 4.77-1.21 12.24-7.76 25.87-37.62 25.87-68.08 0-18.24-5-27.62-8.35-29.47zm131.85 34.07c-5.46 3.46-11.09 5.2-16.55 5.2-4.31 0-8.51-1.08-12.44-3.24-13.16-7.24-20.7-25.59-20.7-50.34 0-36.32 16.23-75.06 36.94-88.19 9.75-6.18 20.06-6.88 29-1.96 13.15 7.23 20.69 25.58 20.69 50.34 0 36.32-16.22 75.06-36.94 88.19zm4.77-117.66c-.3-.16-.64-.25-1.03-.25-.97 0-2.22.49-3.74 1.45-3.59 2.28-7.29 6.46-10.74 11.99 6.88.63 11.75 9.95 11.75 24.47 0 18.93-8.28 39.52-18.49 45.99-2.39 1.52-4.67 2.11-6.76 1.91 1.75 7.72 4.57 12.01 6.72 13.19 1.02.56 2.63.16 4.77-1.21 12.24-7.75 25.88-37.62 25.88-68.07 0-18.25-5-27.62-8.36-29.47zm-99.65 96.73l42.32-24.61v57.9l-42.32 24.61v-57.9zm0-51.97l42.32-24.61v20.25l-42.32 24.61v-20.25z" id="d"/><path d="M504.08 402.43L238.24 557.31 137.92 498.5V294.91l69.83-41.83v-44.32L420.43 84.69v65.4l83.48 48.74.17 203.6zm-274-162.73L398.1 138.95v-15.39l-168.02 98.02v18.12zm0 45.71L398.1 187.7v-22.72L230.08 265.73v19.68zm-58.77 15.56c9.57 5.65 14.88 8.78 15.95 9.41.28-.2.56-.39.86-.57 1.31-.76 7.86-4.56 19.63-11.41v-19.28l-36.44 21.85zm55.92 58.9l-66.98-39.34v165.19l66.98 39.32V359.87zm11.09-19.47l232.23-135.26-28.99-16.89-232.3 135.1 29.06 17.05zm243.42 49.21l-.16-165.05L249.55 359.8v165.12l232.19-135.31zM304.02 476.8c-5.46 3.46-11.09 5.21-16.56 5.21-4.3 0-8.5-1.08-12.44-3.25-13.15-7.23-20.69-25.58-20.69-50.34 0-36.32 16.22-75.06 36.94-88.19 9.75-6.18 20.05-6.88 28.99-1.95 13.16 7.23 20.7 25.58 20.7 50.33 0 36.33-16.23 75.07-36.94 88.19zm4.77-117.66c-.3-.16-.64-.24-1.04-.24-.96 0-2.21.49-3.73 1.45-3.59 2.27-7.29 6.45-10.74 11.98 6.88.64 11.75 9.95 11.75 24.47 0 18.93-8.28 39.52-18.49 46-2.39 1.51-4.67 2.11-6.76 1.91 1.75 7.71 4.57 12 6.72 13.19 1.02.56 2.62.15 4.77-1.21 12.24-7.76 25.87-37.62 25.87-68.08 0-18.24-5-27.62-8.35-29.47zm131.85 34.07c-5.46 3.46-11.09 5.2-16.55 5.2-4.31 0-8.51-1.08-12.44-3.24-13.16-7.24-20.7-25.59-20.7-50.34 0-36.32 16.23-75.06 36.94-88.19 9.75-6.18 20.06-6.88 29-1.96 13.15 7.23 20.69 25.58 20.69 50.34 0 36.32-16.22 75.06-36.94 88.19zm4.77-117.66c-.3-.16-.64-.25-1.03-.25-.97 0-2.22.49-3.74 1.45-3.59 2.28-7.29 6.46-10.74 11.99 6.88.63 11.75 9.95 11.75 24.47 0 18.93-8.28 39.52-18.49 45.99-2.39 1.52-4.67 2.11-6.76 1.91 1.75 7.72 4.57 12.01 6.72 13.19 1.02.56 2.63.16 4.77-1.21 12.24-7.75 25.88-37.62 25.88-68.07 0-18.25-5-27.62-8.36-29.47zm-99.65 96.73l42.32-24.61v57.9l-42.32 24.61v-57.9zm0-51.97l42.32-24.61v20.25l-42.32 24.61v-20.25z" id="e"/><path d="M321 2c176.18 0 319 142.82 319 319S497.18 640 321 640 2 497.18 2 321 144.82 2 321 2z" id="f"/><path d="M640 2v319H2V2h638z" id="g"/><path d="M2 321V2h638v319H2z" id="h"/><path d="M2 321V2h638v319H2z" id="i"/><path d="M2 321V2h638v319H2z" id="j"/><path d="M2 321V2h638v319H2z" id="k"/><linearGradient id="c" gradientUnits="userSpaceOnUse" x1="137.92" y1="84.69" x2="522.76" y2="576"><stop offset="44%" stop-opacity=".31"/><stop offset="100%" stop-opacity="0"/></linearGradient></defs><use xlink:href="#a" fill="#383838"/><use xlink:href="#a" fill-opacity="0" stroke="#000" stroke-opacity="0"/><use xlink:href="#b" fill="url(#c)"/><use xlink:href="#b" fill-opacity="0" stroke="#000" stroke-opacity="0"/><use xlink:href="#d" fill-opacity="0"/><use xlink:href="#d" fill-opacity="0" stroke="#000" stroke-width="0" stroke-opacity="0"/><use xlink:href="#e" fill="#fff"/><use xlink:href="#e" fill-opacity="0" stroke="#000" stroke-width="0" stroke-opacity="0"/><use xlink:href="#f" fill-opacity="0"/><use xlink:href="#f" fill-opacity="0" stroke="#000" stroke-opacity="0"/><g><use xlink:href="#g" fill-opacity="0"/><use xlink:href="#g" fill-opacity="0" stroke="#000" stroke-opacity="0"/></g><g><use xlink:href="#h" fill-opacity="0"/><use xlink:href="#h" fill-opacity="0" stroke="#000" stroke-opacity="0"/></g><g><use xlink:href="#i" fill-opacity="0"/><use xlink:href="#i" fill-opacity="0" stroke="#000" stroke-opacity="0"/></g><g><use xlink:href="#j" fill-opacity="0"/><use xlink:href="#j" fill-opacity="0" stroke="#000" stroke-opacity="0"/></g><g><use xlink:href="#k" fill-opacity="0"/><use xlink:href="#k" fill-opacity="0" stroke="#000" stroke-opacity="0"/></g></svg>