<svg xmlns="http://www.w3.org/2000/svg" xmlns:xlink="http://www.w3.org/1999/xlink" viewBox="0 0 640 640" width="512" height="512"><defs><path d="M0 0h640v640H0V0z" id="a"/><path d="M123.93 534.02l-21.09-21.08V283.18l78.81-47.21v-50.02L421.67 45.92l21.08 21.09v65.04l73.13 42.7 21.09 21.08.19 229.77-300.02 174.8-113.21-66.38zm391.96-350.49l-73.14-42.7-21.08-21.09V79.31l-22.54 13.15 18.43 18.42v17.37l-18.37 11.01 18.37 18.37v21.43l27.96-16.26 32.71 19.06 21.08 21.09-5.98 3.48 18.43 18.43.19 182.06 4.12-2.4-.18-220.99zM271.61 494.32c6.17 0 12.52-1.96 18.68-5.87.28-.18.56-.36.85-.55-.31-.21-.62-.48-.94-.8-2.11-2.1-18.97-18.97-21.08-21.08-2.16-2.16-4.57-6.69-6.19-13.79 2.37.23 4.94-.45 7.64-2.15 11.52-7.31 20.86-30.55 20.86-51.91 0-6.71-.92-12.43-2.54-16.9-.89-.89-8.03-8.04-8.92-8.93-14.67 20.51-24.67 52.3-24.67 82.6 0 14.95 2.44 27.82 6.97 37.82 3.03 1.04 6.16 1.56 9.34 1.56zm60.37-105.4c0-14.94-2.44-27.82-6.97-37.81-8.91-3.08-18.69-1.62-28.02 4.3-.28.18-.57.36-.85.55.31.22.63.49.95.81 2.11 2.11 18.98 18.98 21.08 21.09 3.64 3.63 8.02 14 8.02 32.15 0 12.47-2.02 24.85-5.26 35.98 6.89-17.35 11.05-37.52 11.05-57.07zm-27 5.33c.08-1.77.12-3.55.12-5.32 0-1.78-.04-3.49-.12-5.12-1.52 1.74-3.03 3.73-4.5 5.94l4.5 4.5zm185.88-4.2v-5.49c-1.46 2.85-2.99 5.57-4.59 8.16.61-.35 2.14-1.25 4.59-2.67zm-11.67-133.29c-8.91-3.07-18.68-1.61-28.01 4.31-.29.18-.57.36-.85.55.31.21.62.48.95.81 2.1 2.11 18.97 18.97 21.08 21.08 3.64 3.64 8.02 14.01 8.02 32.16 0 12.47-2.03 24.86-5.27 36 6.89-17.36 11.06-37.54 11.06-57.09 0-14.95-2.44-27.82-6.98-37.82zm-20.02 43.15c.08-1.77.12-3.55.12-5.33 0-1.78-.04-3.48-.12-5.11-1.52 1.73-3.03 3.72-4.51 5.94 0 0 4.06 4.05 4.51 4.5zm-34.42 55.82c11.53-7.3 20.87-30.54 20.87-51.91 0-6.7-.92-12.43-2.54-16.9-.89-.89-8.03-8.03-8.93-8.92-14.66 20.5-24.66 52.3-24.66 82.6 0 14.94 2.43 27.82 6.97 37.81 3.03 1.05 6.16 1.57 9.33 1.57 6.17 0 12.53-1.97 18.69-5.87.28-.18.56-.36.84-.55-.3-.22-.61-.48-.93-.8l-21.09-21.09c-2.15-2.15-4.57-6.68-6.18-13.78 2.37.22 4.94-.45 7.63-2.16zm65.96-118.6l-16.9 9.85 16.93 16.93-.03-26.78zM316.8 338.5l20.29 20.29c2.34 2.34 4.45 5.09 6.31 8.22 2.78-1.62 16.7-9.72 41.76-24.3 2.04 2.05 3.18 3.18 3.41 3.41-.11-2.15-.17-4.36-.17-6.61 0-.38 0-.75.01-1.12-2 1.16-11.97 6.96-29.92 17.39L337.4 334.7v-8.21l-20.6 12.01zm77.58-45.22l.95.95c.19-.61.38-1.23.57-1.83 0 0-.51.29-1.52.88zm-35.89 130.29l26.67-15.51v-31.99l-26.67 15.51v31.99zm80.87-3.51c-2.23-.61-4.41-1.49-6.52-2.66-2.66-1.46-5.13-3.33-7.37-5.58l-19.22-19.22v36.55l-47.76 27.77c-6.02-6.02-9.37-9.36-10.04-10.03-2.98 12.07-7.28 23.51-12.52 33.45 20.68-12.06 93.09-54.25 103.43-60.28zm-189.45 110.4c18.33-10.68 28.51-16.61 30.55-17.8-.61-.28-1.21-.59-1.81-.91-2.66-1.47-5.12-3.34-7.37-5.59-2.11-2.1-18.98-18.97-21.09-21.08-.09-.1-.18-.19-.28-.29v45.67zm-16.18-176.91l-29.3-17.19L186 317.93c-3.25 1.89-5.05 2.94-5.42 3.15-.34.2-.66.41-.97.64-1.2-.71-7.2-4.25-18.01-10.62l-18.39-18.39-19.28 11.56V525.3l92.12 54.01 31.17-18.16-18.4-18.4V356.4l4.91-2.85zM466.6 183.89L211.89 332.02l4.25 2.5 254.54-148.26-4.08-2.37zm-259.75 88.57v-22.21l18.36-11.02-18.36-18.36v-16.23l-4.11 2.4v50.02l-18.38 11.01 18.38 18.37V304l22.54-13.11-18.43-18.43zm-57.73 238.43l54.51 31.99v-177.7l-54.51-32v177.71zm75.59 53.08l-75.59-44.37-21.08-21.09V312.09l75.59 44.39 21.08 21.09v186.4z" id="b"/><path d="M516.07 404.52L216.05 579.31l-113.21-66.37V283.18l78.81-47.21v-50.02L421.67 45.92v73.82l94.21 55.01.19 229.77zM206.85 220.87l189.62-113.71V89.8L206.85 200.42v20.45zm0 51.59l189.62-110.28v-25.64L206.85 250.25v22.21zm-66.33 17.56c10.8 6.37 16.8 9.9 18 10.61.31-.22.64-.44.98-.64 1.48-.86 8.86-5.15 22.15-12.88v-21.76l-41.13 24.67zm63.11 66.46l-75.59-44.39v186.42l75.59 44.37v-186.4zm12.51-21.96l262.09-152.66-32.71-19.06-262.17 152.47 32.79 19.25zm274.72 55.53l-.18-186.27L228.82 356.4v186.35l262.04-152.7zm-200.57 98.4c-6.16 3.91-12.51 5.87-18.68 5.87-4.86 0-9.6-1.21-14.04-3.66-14.85-8.16-23.36-28.87-23.36-56.81 0-40.99 18.31-84.71 41.69-99.53 11.01-6.97 22.64-7.76 32.73-2.2 14.84 8.16 23.35 28.87 23.35 56.8 0 41-18.31 84.72-41.69 99.53zm5.38-132.78c-.33-.19-.72-.28-1.16-.28-1.09 0-2.5.55-4.22 1.64-4.05 2.56-8.23 7.28-12.12 13.52 7.77.72 13.26 11.23 13.26 27.62 0 21.36-9.34 44.6-20.86 51.91-2.7 1.7-5.27 2.38-7.64 2.15 1.98 8.71 5.16 13.55 7.59 14.88 1.15.64 2.96.18 5.38-1.36 13.82-8.75 29.21-42.46 29.2-76.82 0-20.6-5.64-31.18-9.43-33.26zm148.81 38.44c-6.16 3.9-12.52 5.87-18.69 5.87-4.85 0-9.59-1.22-14.04-3.66-14.84-8.17-23.35-28.87-23.35-56.81 0-40.99 18.31-84.71 41.69-99.53 11.01-6.97 22.63-7.76 32.72-2.21 14.84 8.17 23.36 28.87 23.36 56.81 0 40.99-18.31 84.71-41.69 99.53zm5.38-132.79c-.33-.18-.72-.27-1.17-.27-1.08 0-2.49.55-4.21 1.63-4.05 2.57-8.23 7.29-12.12 13.53 7.76.71 13.26 11.23 13.26 27.61 0 21.37-9.34 44.61-20.87 51.91-2.69 1.71-5.26 2.38-7.63 2.16 1.98 8.7 5.16 13.55 7.59 14.88 1.15.63 2.96.18 5.38-1.36 13.81-8.76 29.2-42.46 29.2-76.83 0-20.59-5.64-31.17-9.43-33.26zM337.4 370.49l47.76-27.78v65.35l-47.76 27.78v-65.35zm0-58.65l47.76-27.78v22.86L337.4 334.7v-22.86z" id="d"/><path d="M516.07 404.52L216.05 579.31l-113.21-66.37V283.18l78.81-47.21v-50.02L421.67 45.92v73.82l94.21 55.01.19 229.77zM206.85 220.87l189.62-113.71V89.8L206.85 200.42v20.45zm0 51.59l189.62-110.28v-25.64L206.85 250.25v22.21zm-66.33 17.56c10.8 6.37 16.8 9.9 18 10.61.31-.22.64-.44.98-.64 1.48-.86 8.86-5.15 22.15-12.88v-21.76l-41.13 24.67zm63.11 66.46l-75.59-44.39v186.42l75.59 44.37v-186.4zm12.51-21.96l262.09-152.66-32.71-19.06-262.17 152.47 32.79 19.25zm274.72 55.53l-.18-186.27L228.82 356.4v186.35l262.04-152.7zm-200.57 98.4c-6.16 3.91-12.51 5.87-18.68 5.87-4.86 0-9.6-1.21-14.04-3.66-14.85-8.16-23.36-28.87-23.36-56.81 0-40.99 18.31-84.71 41.69-99.53 11.01-6.97 22.64-7.76 32.73-2.2 14.84 8.16 23.35 28.87 23.35 56.8 0 41-18.31 84.72-41.69 99.53zm5.38-132.78c-.33-.19-.72-.28-1.16-.28-1.09 0-2.5.55-4.22 1.64-4.05 2.56-8.23 7.28-12.12 13.52 7.77.72 13.26 11.23 13.26 27.62 0 21.36-9.34 44.6-20.86 51.91-2.7 1.7-5.27 2.38-7.64 2.15 1.98 8.71 5.16 13.55 7.59 14.88 1.15.64 2.96.18 5.38-1.36 13.82-8.75 29.21-42.46 29.2-76.82 0-20.6-5.64-31.18-9.43-33.26zm148.81 38.44c-6.16 3.9-12.52 5.87-18.69 5.87-4.85 0-9.59-1.22-14.04-3.66-14.84-8.17-23.35-28.87-23.35-56.81 0-40.99 18.31-84.71 41.69-99.53 11.01-6.97 22.63-7.76 32.72-2.21 14.84 8.17 23.36 28.87 23.36 56.81 0 40.99-18.31 84.71-41.69 99.53zm5.38-132.79c-.33-.18-.72-.27-1.17-.27-1.08 0-2.49.55-4.21 1.63-4.05 2.57-8.23 7.29-12.12 13.53 7.76.71 13.26 11.23 13.26 27.61 0 21.37-9.34 44.61-20.87 51.91-2.69 1.71-5.26 2.38-7.63 2.16 1.98 8.7 5.16 13.55 7.59 14.88 1.15.63 2.96.18 5.38-1.36 13.81-8.76 29.2-42.46 29.2-76.83 0-20.59-5.64-31.17-9.43-33.26zM337.4 370.49l47.76-27.78v65.35l-47.76 27.78v-65.35zm0-58.65l47.76-27.78v22.86L337.4 334.7v-22.86z" id="e"/><linearGradient id="c" gradientUnits="userSpaceOnUse" x1="102.84" y1="45.92" x2="537.16" y2="600.4"><stop offset="44%" stop-opacity=".31"/><stop offset="100%" stop-opacity="0"/></linearGradient></defs><use xlink:href="#a" fill="#383838"/><use xlink:href="#b" fill="url(#c)"/><use xlink:href="#b" fill-opacity="0" stroke="#000" stroke-opacity="0"/><use xlink:href="#d" fill-opacity="0"/><use xlink:href="#d" fill-opacity="0" stroke="#000" stroke-width="0" stroke-opacity="0"/><g><use xlink:href="#e" fill="#fff"/><use xlink:href="#e" fill-opacity="0" stroke="#000" stroke-width="0" stroke-opacity="0"/></g></svg>
