<svg xmlns="http://www.w3.org/2000/svg" xmlns:xlink="http://www.w3.org/1999/xlink" viewBox="0 0 640 640" width="512" height="512"><defs><path d="M640 0v640H0V0h640z" id="a"/><path d="M151.02 471.82v-183.8l63.05-37.77v-40.02L406.09 98.21l16.86 16.87v52.03l58.5 34.16 16.88 16.87.15 183.81-240.02 139.84-90.57-53.1-16.87-16.87zm271.93-297.68l-16.86-16.88v-32.34l-18.04 10.52 14.75 14.74v13.89l-14.7 8.81 14.7 14.7v17.14l22.37-13.01 26.16 15.25 16.87 16.87-4.79 2.79 14.75 14.74.15 145.65 3.3-1.92-.15-176.79-58.51-34.16zM300.98 452.23c.23-.14.45-.29.68-.44-.25-.17-.49-.38-.75-.64-1.69-1.68-15.18-15.17-16.86-16.86-1.73-1.73-3.66-5.35-4.96-11.03 1.9.18 3.96-.36 6.12-1.72 9.21-5.85 16.68-24.44 16.68-41.53 0-5.37-.73-9.95-2.03-13.52-.71-.71-6.42-6.43-7.13-7.15-11.74 16.41-19.74 41.84-19.74 66.08 0 11.96 1.95 22.26 5.58 30.26 2.42.83 4.92 1.25 7.47 1.25 4.93 0 10.01-1.57 14.94-4.7zm27.78-109.87c-7.13-2.46-14.95-1.3-22.42 3.44-.22.14-.45.29-.68.44.25.18.51.39.76.65 1.69 1.69 15.19 15.18 16.87 16.87 2.91 2.9 6.41 11.2 6.41 25.72 0 9.98-1.61 19.88-4.21 28.78 5.52-13.88 8.84-30.01 8.84-45.65 0-11.95-1.95-22.26-5.57-30.25zm-15.93 30.26c0-1.43-.03-2.8-.1-4.1-1.21 1.39-2.42 2.98-3.6 4.75l3.6 3.6c.07-1.89.1-3.31.1-4.25zm148.61-3.5c-1.17 2.28-2.39 4.46-3.67 6.53.48-.28 1.71-1 3.67-2.14v-4.39zm-31.75-98.79c-.23.14-.45.29-.68.44.25.17.5.38.76.65 1.68 1.68 15.18 15.17 16.87 16.86 2.91 2.91 6.41 11.21 6.41 25.73 0 9.97-1.62 19.89-4.21 28.8 5.51-13.89 8.85-30.03 8.85-45.67 0-11.96-1.96-22.26-5.59-30.26-7.13-2.46-14.94-1.29-22.41 3.45zm6.49 26.81c0-1.43-.03-2.79-.09-4.09-1.22 1.38-2.43 2.97-3.61 4.75 0 0 3.25 3.24 3.61 3.6.06-1.42.09-2.84.09-4.26zm-10.93 7.39c0-5.36-.74-9.95-2.04-13.52-.71-.71-6.42-6.43-7.14-7.14-11.73 16.4-19.73 41.84-19.73 66.08 0 11.95 1.95 22.26 5.58 30.25 2.42.84 4.93 1.26 7.46 1.26 4.94 0 10.03-1.58 14.95-4.7.23-.14.45-.29.68-.44-.24-.18-.49-.38-.75-.64l-16.87-16.87c-1.72-1.72-3.66-5.35-4.94-11.03 1.89.18 3.95-.36 6.1-1.72 9.22-5.84 16.7-24.44 16.7-41.53zm22.55-45.47l13.54 13.54-.02-21.42-13.52 7.88zM338.42 348.5c1.87 1.88 3.56 4.08 5.05 6.58 2.22-1.3 13.36-7.78 33.41-19.44 1.63 1.64 2.54 2.54 2.73 2.73-.09-1.72-.14-3.49-.14-5.29 0-.3 0-.6.01-.9-1.6.93-9.58 5.57-23.94 13.92-1.12-1.13-6.75-6.75-16.87-16.87v-6.57l-16.48 9.61 16.23 16.23zm46.59-51.64c.16-.49.31-.99.46-1.47 0 0-.41.23-1.22.71.16.15.69.68.76.76zm-8.13 91.06v-25.59l-21.34 12.41v25.59l21.34-12.41zm38.14 7.47c-2.13-1.17-4.1-2.66-5.89-4.46l-15.38-15.38v29.24c-22.92 13.33-35.66 20.74-38.21 22.22-4.81-4.82-7.49-7.49-8.03-8.03-2.38 9.66-5.82 18.81-10.02 26.76 16.55-9.64 74.48-43.4 82.75-48.22-1.79-.49-3.53-1.19-5.22-2.13zm-121.9 76.21c-.49-.22-.97-.47-1.45-.73-2.13-1.17-4.1-2.67-5.9-4.47-1.68-1.68-15.18-15.18-16.87-16.86-.07-.08-.14-.16-.22-.24v36.54c15.2-8.86 23.35-13.61 24.44-14.24zm-60.83-141.04c-8.84-8.85-13.76-13.76-14.74-14.74-2.6 1.51-4.04 2.35-4.34 2.52-.27.16-.52.32-.77.51-.96-.57-5.76-3.4-14.41-8.5l-14.71-14.71-15.43 9.25v176.82l73.7 43.21 24.94-14.53-14.72-14.72V346.59l3.92-2.28-23.44-13.75zm5.97-3.47l3.4 2 203.63-118.61-3.26-1.9-203.77 118.51zm-4.03-65.42l14.69-8.81-14.69-14.69v-12.99l-3.29 1.92v40.02l-14.7 8.81 14.7 14.69v14.05l18.03-10.49-14.74-14.74v-17.77zm-2.58 234.11V353.62l-43.6-25.6v142.16l43.6 25.6zm-43.6-18.63l-16.87-16.87V311.14l60.47 35.52 16.87 16.87v149.12l-60.47-35.5z" id="b"/><path d="M151.02 471.82v-183.8l63.05-37.77v-40.02L406.09 98.21l16.86 16.87v52.03l58.5 34.16 16.88 16.87.15 183.81-240.02 139.84-90.57-53.1-16.87-16.87zm271.93-297.68l-16.86-16.88v-32.34l-18.04 10.52 14.75 14.74v13.89l-14.7 8.81 14.7 14.7v17.14l22.37-13.01 26.16 15.25 16.87 16.87-4.79 2.79 14.75 14.74.15 145.65 3.3-1.92-.15-176.79-58.51-34.16zM300.98 452.23c.23-.14.45-.29.68-.44-.25-.17-.49-.38-.75-.64-1.69-1.68-15.18-15.17-16.86-16.86-1.73-1.73-3.66-5.35-4.96-11.03 1.9.18 3.96-.36 6.12-1.72 9.21-5.85 16.68-24.44 16.68-41.53 0-5.37-.73-9.95-2.03-13.52-.71-.71-6.42-6.43-7.13-7.15-11.74 16.41-19.74 41.84-19.74 66.08 0 11.96 1.95 22.26 5.58 30.26 2.42.83 4.92 1.25 7.47 1.25 4.93 0 10.01-1.57 14.94-4.7zm27.78-109.87c-7.13-2.46-14.95-1.3-22.42 3.44-.22.14-.45.29-.68.44.25.18.51.39.76.65 1.69 1.69 15.19 15.18 16.87 16.87 2.91 2.9 6.41 11.2 6.41 25.72 0 9.98-1.61 19.88-4.21 28.78 5.52-13.88 8.84-30.01 8.84-45.65 0-11.95-1.95-22.26-5.57-30.25zm-15.93 30.26c0-1.43-.03-2.8-.1-4.1-1.21 1.39-2.42 2.98-3.6 4.75l3.6 3.6c.07-1.89.1-3.31.1-4.25zm148.61-3.5c-1.17 2.28-2.39 4.46-3.67 6.53.48-.28 1.71-1 3.67-2.14v-4.39zm-31.75-98.79c-.23.14-.45.29-.68.44.25.17.5.38.76.65 1.68 1.68 15.18 15.17 16.87 16.86 2.91 2.91 6.41 11.21 6.41 25.73 0 9.97-1.62 19.89-4.21 28.8 5.51-13.89 8.85-30.03 8.85-45.67 0-11.96-1.96-22.26-5.59-30.26-7.13-2.46-14.94-1.29-22.41 3.45zm6.49 26.81c0-1.43-.03-2.79-.09-4.09-1.22 1.38-2.43 2.97-3.61 4.75 0 0 3.25 3.24 3.61 3.6.06-1.42.09-2.84.09-4.26zm-10.93 7.39c0-5.36-.74-9.95-2.04-13.52-.71-.71-6.42-6.43-7.14-7.14-11.73 16.4-19.73 41.84-19.73 66.08 0 11.95 1.95 22.26 5.58 30.25 2.42.84 4.93 1.26 7.46 1.26 4.94 0 10.03-1.58 14.95-4.7.23-.14.45-.29.68-.44-.24-.18-.49-.38-.75-.64l-16.87-16.87c-1.72-1.72-3.66-5.35-4.94-11.03 1.89.18 3.95-.36 6.1-1.72 9.22-5.84 16.7-24.44 16.7-41.53zm22.55-45.47l13.54 13.54-.02-21.42-13.52 7.88zM338.42 348.5c1.87 1.88 3.56 4.08 5.05 6.58 2.22-1.3 13.36-7.78 33.41-19.44 1.63 1.64 2.54 2.54 2.73 2.73-.09-1.72-.14-3.49-.14-5.29 0-.3 0-.6.01-.9-1.6.93-9.58 5.57-23.94 13.92-1.12-1.13-6.75-6.75-16.87-16.87v-6.57l-16.48 9.61 16.23 16.23zm46.59-51.64c.16-.49.31-.99.46-1.47 0 0-.41.23-1.22.71.16.15.69.68.76.76zm-8.13 91.06v-25.59l-21.34 12.41v25.59l21.34-12.41zm38.14 7.47c-2.13-1.17-4.1-2.66-5.89-4.46l-15.38-15.38v29.24c-22.92 13.33-35.66 20.74-38.21 22.22-4.81-4.82-7.49-7.49-8.03-8.03-2.38 9.66-5.82 18.81-10.02 26.76 16.55-9.64 74.48-43.4 82.75-48.22-1.79-.49-3.53-1.19-5.22-2.13zm-121.9 76.21c-.49-.22-.97-.47-1.45-.73-2.13-1.17-4.1-2.67-5.9-4.47-1.68-1.68-15.18-15.18-16.87-16.86-.07-.08-.14-.16-.22-.24v36.54c15.2-8.86 23.35-13.61 24.44-14.24zm-60.83-141.04c-8.84-8.85-13.76-13.76-14.74-14.74-2.6 1.51-4.04 2.35-4.34 2.52-.27.16-.52.32-.77.51-.96-.57-5.76-3.4-14.41-8.5l-14.71-14.71-15.43 9.25v176.82l73.7 43.21 24.94-14.53-14.72-14.72V346.59l3.92-2.28-23.44-13.75zm5.97-3.47l3.4 2 203.63-118.61-3.26-1.9-203.77 118.51zm-4.03-65.42l14.69-8.81-14.69-14.69v-12.99l-3.29 1.92v40.02l-14.7 8.81 14.7 14.69v14.05l18.03-10.49-14.74-14.74v-17.77zm-2.58 234.11V353.62l-43.6-25.6v142.16l43.6 25.6zm-43.6-18.63l-16.87-16.87V311.14l60.47 35.52 16.87 16.87v149.12l-60.47-35.5z" id="d"/><path d="M241.59 524.92l-90.57-53.1v-183.8l63.05-37.77v-40.02L406.09 98.21v59.05l75.36 44.01.16 183.82-240.02 139.83zM385.93 147.2v-13.89l-151.7 88.5v16.36l151.7-90.97zm0 44.02V170.7l-151.7 90.97v17.77l151.7-88.22zM195.57 301.98c.24-.18.51-.36.78-.52 1.18-.68 7.09-4.12 17.72-10.3v-17.41l-32.9 19.74c8.96 5.28 13.76 8.11 14.4 8.49zm-24.39 9.16v149.14l60.47 35.5V346.66l-60.47-35.52zm280.15-104.18l-26.16-15.25-209.74 121.98 26.23 15.4 209.67-122.13zm9.96 17.54L251.81 346.59v149.08l209.63-122.16-.15-149.01zM286.04 456.93c-3.89 0-7.68-.97-11.23-2.93-11.88-6.53-18.69-23.1-18.69-45.45 0-32.79 14.65-67.77 33.35-79.62 8.81-5.58 18.11-6.21 26.18-1.76 11.88 6.53 18.68 23.09 18.68 45.44 0 32.8-14.64 67.77-33.35 79.62-4.93 3.13-10.01 4.7-14.94 4.7zm18.32-111.15c-.87 0-2 .44-3.38 1.32-3.24 2.04-6.58 5.82-9.69 10.81 6.21.58 10.6 8.99 10.6 22.1 0 17.09-7.47 35.68-16.68 41.53-2.16 1.36-4.22 1.9-6.12 1.72 1.59 6.96 4.13 10.84 6.08 11.9.92.51 2.36.14 4.3-1.09 11.06-7 23.37-33.97 23.36-61.45 0-16.48-4.51-24.95-7.54-26.61-.27-.15-.58-.23-.93-.23zm105.02 35.68c-3.88 0-7.67-.98-11.23-2.93-11.87-6.54-18.68-23.1-18.68-45.45 0-32.79 14.65-67.77 33.35-79.62 8.81-5.58 18.11-6.21 26.18-1.77 11.87 6.53 18.69 23.09 18.69 45.45 0 32.79-14.65 67.76-33.36 79.62-4.92 3.12-10.01 4.7-14.95 4.7zm18.32-111.15c-.86 0-1.99.44-3.37 1.31-3.24 2.05-6.58 5.83-9.69 10.82 6.21.57 10.61 8.98 10.61 22.09 0 17.09-7.48 35.69-16.7 41.53-2.15 1.36-4.21 1.9-6.1 1.72 1.58 6.96 4.12 10.84 6.07 11.91.92.5 2.37.14 4.3-1.09 11.05-7.01 23.36-33.97 23.36-61.46 0-16.48-4.51-24.94-7.54-26.61-.27-.15-.58-.22-.94-.22zm-50.82 65.33v52.28l-38.21 22.22v-52.28l38.21-22.22zm0-46.92v18.29l-38.21 22.22v-18.29l38.21-22.22z" id="e"/><path d="M241.59 524.92l-90.57-53.1v-183.8l63.05-37.77v-40.02L406.09 98.21v59.05l75.36 44.01.16 183.82-240.02 139.83zM385.93 147.2v-13.89l-151.7 88.5v16.36l151.7-90.97zm0 44.02V170.7l-151.7 90.97v17.77l151.7-88.22zM195.57 301.98c.24-.18.51-.36.78-.52 1.18-.68 7.09-4.12 17.72-10.3v-17.41l-32.9 19.74c8.96 5.28 13.76 8.11 14.4 8.49zm-24.39 9.16v149.14l60.47 35.5V346.66l-60.47-35.52zm280.15-104.18l-26.16-15.25-209.74 121.98 26.23 15.4 209.67-122.13zm9.96 17.54L251.81 346.59v149.08l209.63-122.16-.15-149.01zM286.04 456.93c-3.89 0-7.68-.97-11.23-2.93-11.88-6.53-18.69-23.1-18.69-45.45 0-32.79 14.65-67.77 33.35-79.62 8.81-5.58 18.11-6.21 26.18-1.76 11.88 6.53 18.68 23.09 18.68 45.44 0 32.8-14.64 67.77-33.35 79.62-4.93 3.13-10.01 4.7-14.94 4.7zm18.32-111.15c-.87 0-2 .44-3.38 1.32-3.24 2.04-6.58 5.82-9.69 10.81 6.21.58 10.6 8.99 10.6 22.1 0 17.09-7.47 35.68-16.68 41.53-2.16 1.36-4.22 1.9-6.12 1.72 1.59 6.96 4.13 10.84 6.08 11.9.92.51 2.36.14 4.3-1.09 11.06-7 23.37-33.97 23.36-61.45 0-16.48-4.51-24.95-7.54-26.61-.27-.15-.58-.23-.93-.23zm105.02 35.68c-3.88 0-7.67-.98-11.23-2.93-11.87-6.54-18.68-23.1-18.68-45.45 0-32.79 14.65-67.77 33.35-79.62 8.81-5.58 18.11-6.21 26.18-1.77 11.87 6.53 18.69 23.09 18.69 45.45 0 32.79-14.65 67.76-33.36 79.62-4.92 3.12-10.01 4.7-14.95 4.7zm18.32-111.15c-.86 0-1.99.44-3.37 1.31-3.24 2.05-6.58 5.83-9.69 10.82 6.21.57 10.61 8.98 10.61 22.09 0 17.09-7.48 35.69-16.7 41.53-2.15 1.36-4.21 1.9-6.1 1.72 1.58 6.96 4.12 10.84 6.07 11.91.92.5 2.37.14 4.3-1.09 11.05-7.01 23.36-33.97 23.36-61.46 0-16.48-4.51-24.94-7.54-26.61-.27-.15-.58-.22-.94-.22zm-50.82 65.33v52.28l-38.21 22.22v-52.28l38.21-22.22zm0-46.92v18.29l-38.21 22.22v-18.29l38.21-22.22z" id="f"/><path d="M241.59 524.92l-90.57-53.1v-183.8l63.05-37.77v-40.02L406.09 98.21v59.05l75.36 44.01.16 183.82-240.02 139.83zM385.93 147.2v-13.89l-151.7 88.5v16.36l151.7-90.97zm0 44.02V170.7l-151.7 90.97v17.77l151.7-88.22zM195.57 301.98c.24-.18.51-.36.78-.52 1.18-.68 7.09-4.12 17.72-10.3v-17.41l-32.9 19.74c8.96 5.28 13.76 8.11 14.4 8.49zm-24.39 9.16v149.14l60.47 35.5V346.66l-60.47-35.52zm280.15-104.18l-26.16-15.25-209.74 121.98 26.23 15.4 209.67-122.13zm9.96 17.54L251.81 346.59v149.08l209.63-122.16-.15-149.01zM286.04 456.93c-3.89 0-7.68-.97-11.23-2.93-11.88-6.53-18.69-23.1-18.69-45.45 0-32.79 14.65-67.77 33.35-79.62 8.81-5.58 18.11-6.21 26.18-1.76 11.88 6.53 18.68 23.09 18.68 45.44 0 32.8-14.64 67.77-33.35 79.62-4.93 3.13-10.01 4.7-14.94 4.7zm18.32-111.15c-.87 0-2 .44-3.38 1.32-3.24 2.04-6.58 5.82-9.69 10.81 6.21.58 10.6 8.99 10.6 22.1 0 17.09-7.47 35.68-16.68 41.53-2.16 1.36-4.22 1.9-6.12 1.72 1.59 6.96 4.13 10.84 6.08 11.9.92.51 2.36.14 4.3-1.09 11.06-7 23.37-33.97 23.36-61.45 0-16.48-4.51-24.95-7.54-26.61-.27-.15-.58-.23-.93-.23zm105.02 35.68c-3.88 0-7.67-.98-11.23-2.93-11.87-6.54-18.68-23.1-18.68-45.45 0-32.79 14.65-67.77 33.35-79.62 8.81-5.58 18.11-6.21 26.18-1.77 11.87 6.53 18.69 23.09 18.69 45.45 0 32.79-14.65 67.76-33.36 79.62-4.92 3.12-10.01 4.7-14.95 4.7zm18.32-111.15c-.86 0-1.99.44-3.37 1.31-3.24 2.05-6.58 5.83-9.69 10.82 6.21.57 10.61 8.98 10.61 22.09 0 17.09-7.48 35.69-16.7 41.53-2.15 1.36-4.21 1.9-6.1 1.72 1.58 6.96 4.12 10.84 6.07 11.91.92.5 2.37.14 4.3-1.09 11.05-7.01 23.36-33.97 23.36-61.46 0-16.48-4.51-24.94-7.54-26.61-.27-.15-.58-.22-.94-.22zm-50.82 65.33v52.28l-38.21 22.22v-52.28l38.21-22.22zm0-46.92v18.29l-38.21 22.22v-18.29l38.21-22.22z" id="g"/><path d="M241.59 524.92l-90.57-53.1v-183.8l63.05-37.77v-40.02L406.09 98.21v59.05l75.36 44.01.16 183.82-240.02 139.83zM385.93 147.2v-13.89l-151.7 88.5v16.36l151.7-90.97zm0 44.02V170.7l-151.7 90.97v17.77l151.7-88.22zM195.57 301.98c.24-.18.51-.36.78-.52 1.18-.68 7.09-4.12 17.72-10.3v-17.41l-32.9 19.74c8.96 5.28 13.76 8.11 14.4 8.49zm-24.39 9.16v149.14l60.47 35.5V346.66l-60.47-35.52zm280.15-104.18l-26.16-15.25-209.74 121.98 26.23 15.4 209.67-122.13zm9.96 17.54L251.81 346.59v149.08l209.63-122.16-.15-149.01zM286.04 456.93c-3.89 0-7.68-.97-11.23-2.93-11.88-6.53-18.69-23.1-18.69-45.45 0-32.79 14.65-67.77 33.35-79.62 8.81-5.58 18.11-6.21 26.18-1.76 11.88 6.53 18.68 23.09 18.68 45.44 0 32.8-14.64 67.77-33.35 79.62-4.93 3.13-10.01 4.7-14.94 4.7zm18.32-111.15c-.87 0-2 .44-3.38 1.32-3.24 2.04-6.58 5.82-9.69 10.81 6.21.58 10.6 8.99 10.6 22.1 0 17.09-7.47 35.68-16.68 41.53-2.16 1.36-4.22 1.9-6.12 1.72 1.59 6.96 4.13 10.84 6.08 11.9.92.51 2.36.14 4.3-1.09 11.06-7 23.37-33.97 23.36-61.45 0-16.48-4.51-24.95-7.54-26.61-.27-.15-.58-.23-.93-.23zm105.02 35.68c-3.88 0-7.67-.98-11.23-2.93-11.87-6.54-18.68-23.1-18.68-45.45 0-32.79 14.65-67.77 33.35-79.62 8.81-5.58 18.11-6.21 26.18-1.77 11.87 6.53 18.69 23.09 18.69 45.45 0 32.79-14.65 67.76-33.36 79.62-4.92 3.12-10.01 4.7-14.95 4.7zm18.32-111.15c-.86 0-1.99.44-3.37 1.31-3.24 2.05-6.58 5.83-9.69 10.82 6.21.57 10.61 8.98 10.61 22.09 0 17.09-7.48 35.69-16.7 41.53-2.15 1.36-4.21 1.9-6.1 1.72 1.58 6.96 4.12 10.84 6.07 11.91.92.5 2.37.14 4.3-1.09 11.05-7.01 23.36-33.97 23.36-61.46 0-16.48-4.51-24.94-7.54-26.61-.27-.15-.58-.22-.94-.22zm-50.82 65.33v52.28l-38.21 22.22v-52.28l38.21-22.22zm0-46.92v18.29l-38.21 22.22v-18.29l38.21-22.22z" id="h"/><linearGradient id="c" gradientUnits="userSpaceOnUse" x1="151.02" y1="98.21" x2="498.48" y2="541.79"><stop offset="44%" stop-opacity=".31"/><stop offset="100%" stop-opacity="0"/></linearGradient></defs><use xlink:href="#a" fill="#383838"/><use xlink:href="#a" fill-opacity="0" stroke="#000" stroke-opacity="0"/><use xlink:href="#b" fill="url(#c)"/><use xlink:href="#b" fill-opacity="0" stroke="#000" stroke-opacity="0"/><use xlink:href="#d" fill-opacity="0"/><use xlink:href="#d" fill-opacity="0" stroke="#000" stroke-opacity="0"/><use xlink:href="#e" fill-opacity="0"/><use xlink:href="#e" fill-opacity="0" stroke="#000" stroke-opacity="0"/><g><use xlink:href="#f" fill-opacity="0"/><use xlink:href="#f" fill-opacity="0" stroke="#000" stroke-width="0" stroke-opacity="0"/></g><g><use xlink:href="#g" fill="#fff"/><use xlink:href="#g" fill-opacity="0" stroke="#000" stroke-opacity="0"/></g><g><use xlink:href="#h" fill-opacity="0"/><use xlink:href="#h" fill-opacity="0" stroke="#000" stroke-width="0" stroke-opacity="0"/></g></svg>