<svg xmlns="http://www.w3.org/2000/svg" xmlns:xlink="http://www.w3.org/1999/xlink" viewBox="0 0 640 640" width="48" height="48"><defs><path d="M97.69 521.35V277.58l83.61-50.08v-53.07L435.95 25.86l22.36 22.38v69l77.59 45.31 22.38 22.36.2 243.77-318.31 185.46-120.11-70.43-22.37-22.36zm360.62-394.79l-22.36-22.38V61.29l-23.91 13.95 19.55 19.54v18.43l-19.49 11.68 19.49 19.49v22.74l29.66-17.25 34.71 20.22 22.36 22.37-6.34 3.7 19.55 19.55.2 193.15 4.37-2.54-.19-234.46-77.6-45.3zm-161.75 368.8c.3-.19.6-.38.9-.58-.32-.22-.65-.51-.99-.85-2.24-2.23-20.13-20.12-22.37-22.36-2.29-2.3-4.85-7.1-6.56-14.63 2.51.24 5.24-.48 8.1-2.28 12.22-7.76 22.13-32.42 22.13-55.08 0-7.12-.97-13.19-2.69-17.93-.95-.94-8.52-8.53-9.47-9.47-15.56 21.76-26.17 55.48-26.17 87.63 0 15.86 2.59 29.52 7.4 40.13 3.21 1.1 6.53 1.65 9.9 1.65 6.55 0 13.29-2.08 19.82-6.23zm36.84-145.71c-9.45-3.26-19.83-1.72-29.73 4.57-.3.19-.6.38-.9.58.33.23.67.52 1.01.86 2.24 2.24 20.13 20.14 22.36 22.37 3.86 3.85 8.51 14.86 8.51 34.11 0 13.23-2.14 26.37-5.58 38.18 7.31-18.41 11.72-39.81 11.72-60.55 0-15.85-2.59-29.52-7.39-40.12zm-21.12 40.13c0-1.89-.05-3.7-.13-5.43-1.61 1.84-3.22 3.95-4.78 6.3.32.32 1.91 1.91 4.78 4.77.08-2.51.13-4.39.13-5.64zm197.08-4.64c-1.55 3.03-3.18 5.91-4.87 8.66.64-.37 2.27-1.33 4.87-2.83v-5.83zm-42.1-131.01c-.31.19-.61.38-.9.58.33.22.65.51 1 .86 2.23 2.24 20.13 20.12 22.37 22.36 3.86 3.87 8.51 14.87 8.51 34.12 0 13.23-2.16 26.38-5.59 38.2 7.31-18.42 11.73-39.83 11.73-60.57 0-15.86-2.59-29.52-7.4-40.13-9.46-3.25-19.82-1.7-29.72 4.58zm8.6 35.55c0-1.89-.04-3.69-.13-5.42-1.61 1.83-3.21 3.94-4.78 6.3 0 0 4.31 4.3 4.78 4.77.09-1.87.13-3.76.13-5.65zm-14.5 9.8c0-7.11-.98-13.19-2.7-17.93-.94-.94-8.52-8.52-9.47-9.46-15.55 21.75-26.16 55.49-26.16 87.63 0 15.85 2.58 29.52 7.39 40.12 3.22 1.11 6.54 1.66 9.9 1.66 6.55 0 13.29-2.09 19.83-6.23.3-.19.59-.38.89-.58-.32-.23-.65-.51-.99-.85-2.23-2.24-20.13-20.14-22.37-22.37-2.28-2.28-4.85-7.09-6.56-14.62 2.52.23 5.24-.48 8.1-2.3 12.23-7.74 22.14-32.4 22.14-55.07zm29.91-60.3l17.96 17.96-.03-28.41-17.93 10.45zM346.21 357.8c2.49 2.48 4.73 5.4 6.7 8.72 2.95-1.72 17.72-10.31 44.3-25.78 2.17 2.18 3.38 3.38 3.62 3.62-.11-2.28-.18-4.63-.18-7.01 0-.41 0-.8.01-1.19-2.12 1.23-12.7 7.38-31.74 18.45-1.49-1.49-8.95-8.95-22.38-22.37v-8.71l-21.85 12.74c12.91 12.92 20.09 20.1 21.52 21.53zM408 289.31c.21-.65.41-1.31.61-1.94 0 0-.54.3-1.61.93.2.2.9.91 1 1.01zm-10.79 120.76v-33.94l-28.29 16.46v33.94l28.29-16.46zm50.59 9.91c-2.82-1.55-5.44-3.53-7.82-5.92-1.36-1.36-8.16-8.15-20.39-20.39v38.78c-30.4 17.68-47.29 27.5-50.67 29.46-6.39-6.38-9.94-9.93-10.65-10.64-3.16 12.81-7.73 24.94-13.29 35.49 21.94-12.8 98.77-57.56 109.74-63.95-2.37-.65-4.68-1.59-6.92-2.83zM286.13 521.05c-.64-.3-1.28-.63-1.92-.97-2.82-1.56-5.43-3.54-7.82-5.93-2.23-2.23-20.13-20.12-22.37-22.36-.1-.11-.19-.2-.3-.31v48.45c20.17-11.74 30.97-18.04 32.41-18.88zM205.47 334l-19.55-19.55c-3.45 2.01-5.36 3.12-5.75 3.34-.36.22-.7.44-1.03.68-1.28-.75-7.64-4.51-19.11-11.26-1.3-1.31-7.8-7.81-19.51-19.52l-20.46 12.27v234.5l97.74 57.3 33.07-19.27-19.52-19.52v-197.7l5.21-3.03L205.47 334zm7.91-4.6l4.51 2.65 270.06-157.29-4.33-2.52L213.38 329.4zm-5.34-86.75l19.48-11.7-19.48-19.47v-17.22l-4.36 2.54v53.07l-19.5 11.68 19.5 19.49v18.63l23.91-13.91-19.55-19.55v-23.56zm-3.42 310.46V364.58l-57.83-33.95v188.54l57.83 33.94zm-57.83-24.7l-22.37-22.37V308.26l80.2 47.09 22.37 22.38v197.76l-80.2-47.08z" id="a"/><path d="M97.69 521.35V277.58l83.61-50.08v-53.07L435.95 25.86l22.36 22.38v69l77.59 45.31 22.38 22.36.2 243.77-318.31 185.46-120.11-70.43-22.37-22.36zm360.62-394.79l-22.36-22.38V61.29l-23.91 13.95 19.55 19.54v18.43l-19.49 11.68 19.49 19.49v22.74l29.66-17.25 34.71 20.22 22.36 22.37-6.34 3.7 19.55 19.55.2 193.15 4.37-2.54-.19-234.46-77.6-45.3zm-161.75 368.8c.3-.19.6-.38.9-.58-.32-.22-.65-.51-.99-.85-2.24-2.23-20.13-20.12-22.37-22.36-2.29-2.3-4.85-7.1-6.56-14.63 2.51.24 5.24-.48 8.1-2.28 12.22-7.76 22.13-32.42 22.13-55.08 0-7.12-.97-13.19-2.69-17.93-.95-.94-8.52-8.53-9.47-9.47-15.56 21.76-26.17 55.48-26.17 87.63 0 15.86 2.59 29.52 7.4 40.13 3.21 1.1 6.53 1.65 9.9 1.65 6.55 0 13.29-2.08 19.82-6.23zm36.84-145.71c-9.45-3.26-19.83-1.72-29.73 4.57-.3.19-.6.38-.9.58.33.23.67.52 1.01.86 2.24 2.24 20.13 20.14 22.36 22.37 3.86 3.85 8.51 14.86 8.51 34.11 0 13.23-2.14 26.37-5.58 38.18 7.31-18.41 11.72-39.81 11.72-60.55 0-15.85-2.59-29.52-7.39-40.12zm-21.12 40.13c0-1.89-.05-3.7-.13-5.43-1.61 1.84-3.22 3.95-4.78 6.3.32.32 1.91 1.91 4.78 4.77.08-2.51.13-4.39.13-5.64zm197.08-4.64c-1.55 3.03-3.18 5.91-4.87 8.66.64-.37 2.27-1.33 4.87-2.83v-5.83zm-42.1-131.01c-.31.19-.61.38-.9.58.33.22.65.51 1 .86 2.23 2.24 20.13 20.12 22.37 22.36 3.86 3.87 8.51 14.87 8.51 34.12 0 13.23-2.16 26.38-5.59 38.2 7.31-18.42 11.73-39.83 11.73-60.57 0-15.86-2.59-29.52-7.4-40.13-9.46-3.25-19.82-1.7-29.72 4.58zm8.6 35.55c0-1.89-.04-3.69-.13-5.42-1.61 1.83-3.21 3.94-4.78 6.3 0 0 4.31 4.3 4.78 4.77.09-1.87.13-3.76.13-5.65zm-14.5 9.8c0-7.11-.98-13.19-2.7-17.93-.94-.94-8.52-8.52-9.47-9.46-15.55 21.75-26.16 55.49-26.16 87.63 0 15.85 2.58 29.52 7.39 40.12 3.22 1.11 6.54 1.66 9.9 1.66 6.55 0 13.29-2.09 19.83-6.23.3-.19.59-.38.89-.58-.32-.23-.65-.51-.99-.85-2.23-2.24-20.13-20.14-22.37-22.37-2.28-2.28-4.85-7.09-6.56-14.62 2.52.23 5.24-.48 8.1-2.3 12.23-7.74 22.14-32.4 22.14-55.07zm29.91-60.3l17.96 17.96-.03-28.41-17.93 10.45zM346.21 357.8c2.49 2.48 4.73 5.4 6.7 8.72 2.95-1.72 17.72-10.31 44.3-25.78 2.17 2.18 3.38 3.38 3.62 3.62-.11-2.28-.18-4.63-.18-7.01 0-.41 0-.8.01-1.19-2.12 1.23-12.7 7.38-31.74 18.45-1.49-1.49-8.95-8.95-22.38-22.37v-8.71l-21.85 12.74c12.91 12.92 20.09 20.1 21.52 21.53zM408 289.31c.21-.65.41-1.31.61-1.94 0 0-.54.3-1.61.93.2.2.9.91 1 1.01zm-10.79 120.76v-33.94l-28.29 16.46v33.94l28.29-16.46zm50.59 9.91c-2.82-1.55-5.44-3.53-7.82-5.92-1.36-1.36-8.16-8.15-20.39-20.39v38.78c-30.4 17.68-47.29 27.5-50.67 29.46-6.39-6.38-9.94-9.93-10.65-10.64-3.16 12.81-7.73 24.94-13.29 35.49 21.94-12.8 98.77-57.56 109.74-63.95-2.37-.65-4.68-1.59-6.92-2.83zM286.13 521.05c-.64-.3-1.28-.63-1.92-.97-2.82-1.56-5.43-3.54-7.82-5.93-2.23-2.23-20.13-20.12-22.37-22.36-.1-.11-.19-.2-.3-.31v48.45c20.17-11.74 30.97-18.04 32.41-18.88zM205.47 334l-19.55-19.55c-3.45 2.01-5.36 3.12-5.75 3.34-.36.22-.7.44-1.03.68-1.28-.75-7.64-4.51-19.11-11.26-1.3-1.31-7.8-7.81-19.51-19.52l-20.46 12.27v234.5l97.74 57.3 33.07-19.27-19.52-19.52v-197.7l5.21-3.03L205.47 334zm7.91-4.6l4.51 2.65 270.06-157.29-4.33-2.52L213.38 329.4zm-5.34-86.75l19.48-11.7-19.48-19.47v-17.22l-4.36 2.54v53.07l-19.5 11.68 19.5 19.49v18.63l23.91-13.91-19.55-19.55v-23.56zm-3.42 310.46V364.58l-57.83-33.95v188.54l57.83 33.94zm-57.83-24.7l-22.37-22.37V308.26l80.2 47.09 22.37 22.38v197.76l-80.2-47.08z" id="c"/><path d="M217.8 591.76L97.69 521.35V277.58l83.61-50.08v-53.07L435.95 25.86v78.32l99.95 58.37.2 243.77-318.3 185.44zM409.21 90.84V72.42L208.04 189.78v21.7L409.21 90.84zm0 58.37v-27.2L208.04 242.65v23.56l201.17-117zM156.76 296.1c.33-.24.68-.47 1.04-.68 1.57-.91 9.4-5.47 23.5-13.67v-23.08l-43.63 26.17c11.88 7 18.24 10.75 19.09 11.26zm-32.34 12.16v197.78l80.2 47.07V355.35l-80.2-47.09zm371.54-138.17l-34.71-20.22-278.14 161.76 34.78 20.42 278.07-161.96zm13.21 23.25L231.35 355.27v197.7l278.01-162-.19-197.63zM276.74 501.59c-5.15 0-10.18-1.28-14.89-3.88-15.76-8.66-24.79-30.63-24.79-60.27 0-43.49 19.43-89.88 44.24-105.6 11.68-7.39 24.02-8.23 34.72-2.33 15.74 8.65 24.77 30.63 24.77 60.26 0 43.5-19.42 89.88-44.23 105.59-6.53 4.15-13.27 6.23-19.82 6.23zm24.3-147.4c-1.16 0-2.65.59-4.48 1.74-4.29 2.72-8.73 7.73-12.86 14.35 8.25.76 14.07 11.91 14.07 29.3 0 22.66-9.91 47.32-22.13 55.08-2.86 1.8-5.59 2.52-8.1 2.28 2.1 9.24 5.47 14.37 8.05 15.78 1.22.68 3.14.19 5.71-1.44 14.66-9.28 30.99-45.05 30.98-81.5 0-21.86-5.99-33.08-10.01-35.29-.35-.2-.76-.3-1.23-.3zm139.28 47.31c-5.14 0-10.17-1.29-14.9-3.88-15.74-8.67-24.77-30.63-24.77-60.27 0-43.49 19.43-89.88 44.23-105.6 11.68-7.39 24.01-8.23 34.72-2.34 15.74 8.66 24.78 30.63 24.78 60.27 0 43.49-19.43 89.87-44.23 105.59-6.54 4.14-13.28 6.23-19.83 6.23zm24.3-147.4c-1.15 0-2.65.59-4.47 1.73-4.3 2.73-8.73 7.74-12.86 14.36 8.23.75 14.07 11.91 14.07 29.29 0 22.67-9.91 47.33-22.14 55.07-2.86 1.82-5.58 2.53-8.1 2.3 2.1 9.23 5.48 14.37 8.05 15.78 1.22.67 3.15.19 5.71-1.44 14.65-9.29 30.98-45.05 30.98-81.51 0-21.85-5.98-33.07-10-35.29-.35-.19-.77-.29-1.24-.29zm-67.41 86.64v69.33l-50.67 29.48v-69.34l50.67-29.47zm0-62.22v24.25l-50.67 29.47v-24.25l50.67-29.47z" id="d"/><path d="M217.8 591.76L97.69 521.35V277.58l83.61-50.08v-53.07L435.95 25.86v78.32l99.95 58.37.2 243.77-318.3 185.44zM409.21 90.84V72.42L208.04 189.78v21.7L409.21 90.84zm0 58.37v-27.2L208.04 242.65v23.56l201.17-117zM156.76 296.1c.33-.24.68-.47 1.04-.68 1.57-.91 9.4-5.47 23.5-13.67v-23.08l-43.63 26.17c11.88 7 18.24 10.75 19.09 11.26zm-32.34 12.16v197.78l80.2 47.07V355.35l-80.2-47.09zm371.54-138.17l-34.71-20.22-278.14 161.76 34.78 20.42 278.07-161.96zm13.21 23.25L231.35 355.27v197.7l278.01-162-.19-197.63zM276.74 501.59c-5.15 0-10.18-1.28-14.89-3.88-15.76-8.66-24.79-30.63-24.79-60.27 0-43.49 19.43-89.88 44.24-105.6 11.68-7.39 24.02-8.23 34.72-2.33 15.74 8.65 24.77 30.63 24.77 60.26 0 43.5-19.42 89.88-44.23 105.59-6.53 4.15-13.27 6.23-19.82 6.23zm24.3-147.4c-1.16 0-2.65.59-4.48 1.74-4.29 2.72-8.73 7.73-12.86 14.35 8.25.76 14.07 11.91 14.07 29.3 0 22.66-9.91 47.32-22.13 55.08-2.86 1.8-5.59 2.52-8.1 2.28 2.1 9.24 5.47 14.37 8.05 15.78 1.22.68 3.14.19 5.71-1.44 14.66-9.28 30.99-45.05 30.98-81.5 0-21.86-5.99-33.08-10.01-35.29-.35-.2-.76-.3-1.23-.3zm139.28 47.31c-5.14 0-10.17-1.29-14.9-3.88-15.74-8.67-24.77-30.63-24.77-60.27 0-43.49 19.43-89.88 44.23-105.6 11.68-7.39 24.01-8.23 34.72-2.34 15.74 8.66 24.78 30.63 24.78 60.27 0 43.49-19.43 89.87-44.23 105.59-6.54 4.14-13.28 6.23-19.83 6.23zm24.3-147.4c-1.15 0-2.65.59-4.47 1.73-4.3 2.73-8.73 7.74-12.86 14.36 8.23.75 14.07 11.91 14.07 29.29 0 22.67-9.91 47.33-22.14 55.07-2.86 1.82-5.58 2.53-8.1 2.3 2.1 9.23 5.48 14.37 8.05 15.78 1.22.67 3.15.19 5.71-1.44 14.65-9.29 30.98-45.05 30.98-81.51 0-21.85-5.98-33.07-10-35.29-.35-.19-.77-.29-1.24-.29zm-67.41 86.64v69.33l-50.67 29.48v-69.34l50.67-29.47zm0-62.22v24.25l-50.67 29.47v-24.25l50.67-29.47z" id="e"/><path d="M217.8 591.76L97.69 521.35V277.58l83.61-50.08v-53.07L435.95 25.86v78.32l99.95 58.37.2 243.77-318.3 185.44zM409.21 90.84V72.42L208.04 189.78v21.7L409.21 90.84zm0 58.37v-27.2L208.04 242.65v23.56l201.17-117zM156.76 296.1c.33-.24.68-.47 1.04-.68 1.57-.91 9.4-5.47 23.5-13.67v-23.08l-43.63 26.17c11.88 7 18.24 10.75 19.09 11.26zm-32.34 12.16v197.78l80.2 47.07V355.35l-80.2-47.09zm371.54-138.17l-34.71-20.22-278.14 161.76 34.78 20.42 278.07-161.96zm13.21 23.25L231.35 355.27v197.7l278.01-162-.19-197.63zM276.74 501.59c-5.15 0-10.18-1.28-14.89-3.88-15.76-8.66-24.79-30.63-24.79-60.27 0-43.49 19.43-89.88 44.24-105.6 11.68-7.39 24.02-8.23 34.72-2.33 15.74 8.65 24.77 30.63 24.77 60.26 0 43.5-19.42 89.88-44.23 105.59-6.53 4.15-13.27 6.23-19.82 6.23zm24.3-147.4c-1.16 0-2.65.59-4.48 1.74-4.29 2.72-8.73 7.73-12.86 14.35 8.25.76 14.07 11.91 14.07 29.3 0 22.66-9.91 47.32-22.13 55.08-2.86 1.8-5.59 2.52-8.1 2.28 2.1 9.24 5.47 14.37 8.05 15.78 1.22.68 3.14.19 5.71-1.44 14.66-9.28 30.99-45.05 30.98-81.5 0-21.86-5.99-33.08-10.01-35.29-.35-.2-.76-.3-1.23-.3zm139.28 47.31c-5.14 0-10.17-1.29-14.9-3.88-15.74-8.67-24.77-30.63-24.77-60.27 0-43.49 19.43-89.88 44.23-105.6 11.68-7.39 24.01-8.23 34.72-2.34 15.74 8.66 24.78 30.63 24.78 60.27 0 43.49-19.43 89.87-44.23 105.59-6.54 4.14-13.28 6.23-19.83 6.23zm24.3-147.4c-1.15 0-2.65.59-4.47 1.73-4.3 2.73-8.73 7.74-12.86 14.36 8.23.75 14.07 11.91 14.07 29.29 0 22.67-9.91 47.33-22.14 55.07-2.86 1.82-5.58 2.53-8.1 2.3 2.1 9.23 5.48 14.37 8.05 15.78 1.22.67 3.15.19 5.71-1.44 14.65-9.29 30.98-45.05 30.98-81.51 0-21.85-5.98-33.07-10-35.29-.35-.19-.77-.29-1.24-.29zm-67.41 86.64v69.33l-50.67 29.48v-69.34l50.67-29.47zm0-62.22v24.25l-50.67 29.47v-24.25l50.67-29.47z" id="f"/><path d="M217.8 591.76L97.69 521.35V277.58l83.61-50.08v-53.07L435.95 25.86v78.32l99.95 58.37.2 243.77-318.3 185.44zM409.21 90.84V72.42L208.04 189.78v21.7L409.21 90.84zm0 58.37v-27.2L208.04 242.65v23.56l201.17-117zM156.76 296.1c.33-.24.68-.47 1.04-.68 1.57-.91 9.4-5.47 23.5-13.67v-23.08l-43.63 26.17c11.88 7 18.24 10.75 19.09 11.26zm-32.34 12.16v197.78l80.2 47.07V355.35l-80.2-47.09zm371.54-138.17l-34.71-20.22-278.14 161.76 34.78 20.42 278.07-161.96zm13.21 23.25L231.35 355.27v197.7l278.01-162-.19-197.63zM276.74 501.59c-5.15 0-10.18-1.28-14.89-3.88-15.76-8.66-24.79-30.63-24.79-60.27 0-43.49 19.43-89.88 44.24-105.6 11.68-7.39 24.02-8.23 34.72-2.33 15.74 8.65 24.77 30.63 24.77 60.26 0 43.5-19.42 89.88-44.23 105.59-6.53 4.15-13.27 6.23-19.82 6.23zm24.3-147.4c-1.16 0-2.65.59-4.48 1.74-4.29 2.72-8.73 7.73-12.86 14.35 8.25.76 14.07 11.91 14.07 29.3 0 22.66-9.91 47.32-22.13 55.08-2.86 1.8-5.59 2.52-8.1 2.28 2.1 9.24 5.47 14.37 8.05 15.78 1.22.68 3.14.19 5.71-1.44 14.66-9.28 30.99-45.05 30.98-81.5 0-21.86-5.99-33.08-10.01-35.29-.35-.2-.76-.3-1.23-.3zm139.28 47.31c-5.14 0-10.17-1.29-14.9-3.88-15.74-8.67-24.77-30.63-24.77-60.27 0-43.49 19.43-89.88 44.23-105.6 11.68-7.39 24.01-8.23 34.72-2.34 15.74 8.66 24.78 30.63 24.78 60.27 0 43.49-19.43 89.87-44.23 105.59-6.54 4.14-13.28 6.23-19.83 6.23zm24.3-147.4c-1.15 0-2.65.59-4.47 1.73-4.3 2.73-8.73 7.74-12.86 14.36 8.23.75 14.07 11.91 14.07 29.29 0 22.67-9.91 47.33-22.14 55.07-2.86 1.82-5.58 2.53-8.1 2.3 2.1 9.23 5.48 14.37 8.05 15.78 1.22.67 3.15.19 5.71-1.44 14.65-9.29 30.98-45.05 30.98-81.51 0-21.85-5.98-33.07-10-35.29-.35-.19-.77-.29-1.24-.29zm-67.41 86.64v69.33l-50.67 29.48v-69.34l50.67-29.47zm0-62.22v24.25l-50.67 29.47v-24.25l50.67-29.47z" id="g"/><linearGradient id="b" gradientUnits="userSpaceOnUse" x1="97.69" y1="25.86" x2="558.48" y2="614.14"><stop offset="44%" stop-opacity=".31"/><stop offset="100%" stop-opacity="0"/></linearGradient></defs><use xlink:href="#a" fill="url(#b)"/><use xlink:href="#a" fill-opacity="0" stroke="#000" stroke-opacity="0"/><use xlink:href="#c" fill-opacity="0"/><use xlink:href="#c" fill-opacity="0" stroke="#000" stroke-opacity="0"/><use xlink:href="#d" fill-opacity="0"/><use xlink:href="#d" fill-opacity="0" stroke="#000" stroke-opacity="0"/><g><use xlink:href="#e" fill-opacity="0"/><use xlink:href="#e" fill-opacity="0" stroke="#000" stroke-width="0" stroke-opacity="0"/></g><g><use xlink:href="#f" fill="#fff"/><use xlink:href="#f" fill-opacity="0" stroke="#000" stroke-opacity="0"/></g><g><use xlink:href="#g" fill-opacity="0"/><use xlink:href="#g" fill-opacity="0" stroke="#000" stroke-width="0" stroke-opacity="0"/></g></svg>