<svg xmlns="http://www.w3.org/2000/svg" xmlns:xlink="http://www.w3.org/1999/xlink" width="880" height="247pt" viewBox="0 0 660 246.8"><g id="graph0" class="graph" transform="scale(1 1) rotate(0) translate(4 242.8)"><title>dependencies</title><polygon fill="#fff" stroke="transparent" points="-4 4 -4 -242.8 656 -242.8 656 4 -4 4"/><text x="326" y="-8.2" font-family="sans-serif" font-size="14" text-anchor="middle">dependencies</text><g id="clust1" class="cluster"><title>cluster_AppModule</title><polygon fill="none" stroke="#000" stroke-dasharray="1 5" points="8 -32.8 8 -230.8 644 -230.8 644 -32.8 8 -32.8"/></g><g id="clust2" class="cluster"><title>cluster_AppModule_declarations</title><polygon fill="none" stroke="#000" points="386 -40.8 386 -92.8 636 -92.8 636 -40.8 386 -40.8"/></g><g id="clust7" class="cluster"><title>cluster_AppModule_bootstrap</title><polygon fill="none" stroke="#000" points="307 -170.8 307 -222.8 431 -222.8 431 -170.8 307 -170.8"/></g><g id="clust8" class="cluster"><title>cluster_AppModule_providers</title><polygon fill="none" stroke="#000" points="200 -40.8 200 -92.8 378 -92.8 378 -40.8 200 -40.8"/></g><g id="clust5" class="cluster"><title>cluster_AppModule_imports</title><polygon fill="none" stroke="#000" points="16 -40.8 16 -92.8 192 -92.8 192 -40.8 16 -40.8"/></g><g id="node1" class="node"><title>AppComponent</title><polygon fill="#ffffb3" stroke="#000" points="627.94 -84.8 522.06 -84.8 522.06 -48.8 627.94 -48.8 627.94 -84.8"/><text x="575" y="-62.6" font-family="Times,serif" font-size="14" text-anchor="middle">AppComponent</text></g><g id="node3" class="node"><title>AppModule</title><polygon fill="#8dd3c7" stroke="#000" points="410.66 -149.8 407.66 -153.8 386.66 -153.8 383.66 -149.8 327.34 -149.8 327.34 -113.8 410.66 -113.8 410.66 -149.8"/><text x="369" y="-127.6" font-family="Times,serif" font-size="14" text-anchor="middle">AppModule</text></g><g id="edge1" class="edge"><title>AppComponent-&gt;AppModule</title><path fill="none" stroke="#000" d="M575,-84.91C575,-104.14 575,-131.8 575,-131.8 575,-131.8 420.69,-131.8 420.69,-131.8"/><polygon fill="#000" stroke="#000" points="420.69 -128.3 410.69 -131.8 420.69 -135.3 420.69 -128.3"/></g><g id="node2" class="node"><title>ShellComponent</title><polygon fill="#ffffb3" stroke="#000" points="504.11 -84.8 393.89 -84.8 393.89 -48.8 504.11 -48.8 504.11 -84.8"/><text x="449" y="-62.6" font-family="Times,serif" font-size="14" text-anchor="middle">ShellComponent</text></g><g id="edge2" class="edge"><title>ShellComponent-&gt;AppModule</title><path fill="none" stroke="#000" d="M402.39,-84.91C402.39,-84.91 402.39,-103.79 402.39,-103.79"/><polygon fill="#000" stroke="#000" points="398.89 -103.79 402.39 -113.79 405.89 -103.79 398.89 -103.79"/></g><g id="node5" class="node"><title>AppComponent</title><polygon fill="#80b1d3" stroke="#000" points="423.44 -214.8 314.56 -214.8 314.56 -178.8 423.44 -178.8 423.44 -214.8"/><text x="369" y="-192.6" font-family="Times,serif" font-size="14" text-anchor="middle">AppComponent</text></g><g id="edge4" class="edge"><title>AppModule-&gt;AppComponent</title><path fill="none" stroke="#000" stroke-dasharray="1 5" d="M369,-149.91C369,-149.91 369,-168.79 369,-168.79"/><polygon fill="#000" stroke="#000" points="365.5 -168.79 369 -178.79 372.5 -168.79 365.5 -168.79"/></g><g id="node4" class="node"><title>PromptDialogComponent</title><polygon fill="#8dd3c7" stroke="#000" points="184.16 -84.8 181.16 -88.8 160.16 -88.8 157.16 -84.8 23.84 -84.8 23.84 -48.8 184.16 -48.8 184.16 -84.8"/><text x="104" y="-62.6" font-family="Times,serif" font-size="14" text-anchor="middle">PromptDialogComponent</text></g><g id="edge3" class="edge"><title>PromptDialogComponent-&gt;AppModule</title><path fill="none" stroke="#000" d="M104,-84.91C104,-104.14 104,-131.8 104,-131.8 104,-131.8 317.3,-131.8 317.3,-131.8"/><polygon fill="#000" stroke="#000" points="317.3 -135.3 327.3 -131.8 317.3 -128.3 317.3 -135.3"/></g><g id="node6" class="node"><title>LoaderInterceptor</title><ellipse cx="289" cy="-66.8" fill="#fdb462" stroke="#000" rx="80.98" ry="18"/><text x="289" y="-62.6" font-family="Times,serif" font-size="14" text-anchor="middle">LoaderInterceptor</text></g><g id="edge5" class="edge"><title>LoaderInterceptor-&gt;AppModule</title><path fill="none" stroke="#000" d="M348.45,-79.03C348.45,-79.03 348.45,-103.48 348.45,-103.48"/><polygon fill="#000" stroke="#000" points="344.95 -103.48 348.45 -113.48 351.95 -103.48 344.95 -103.48"/></g></g></svg>