<?xml version="1.0" encoding="UTF-8" standalone="no"?>
<!DOCTYPE svg PUBLIC "-//W3C//DTD SVG 1.1//EN"
 "http://www.w3.org/Graphics/SVG/1.1/DTD/svg11.dtd">
<!-- Generated by graphviz version 5.0.0 (20220707.1540)
 -->
<!-- Title: dependencies Pages: 1 -->
<svg width="753pt" height="247pt"
 viewBox="0.00 0.00 753.00 246.80" xmlns="http://www.w3.org/2000/svg" xmlns:xlink="http://www.w3.org/1999/xlink">
<g id="graph0" class="graph" transform="scale(1 1) rotate(0) translate(4 242.8)">
<title>dependencies</title>
<polygon fill="white" stroke="transparent" points="-4,4 -4,-242.8 749,-242.8 749,4 -4,4"/>
<text text-anchor="middle" x="372.5" y="-8.2" font-family="sans-serif" font-size="14.00">dependencies</text>
<g id="clust1" class="cluster">
<title>cluster_AppModule</title>
<polygon fill="none" stroke="black" stroke-dasharray="1,5" points="8,-32.8 8,-230.8 737,-230.8 737,-32.8 8,-32.8"/>
</g>
<g id="clust8" class="cluster">
<title>cluster_AppModule_providers</title>
<polygon fill="none" stroke="black" points="551,-40.8 551,-92.8 729,-92.8 729,-40.8 551,-40.8"/>
</g>
<g id="clust7" class="cluster">
<title>cluster_AppModule_bootstrap</title>
<polygon fill="none" stroke="black" points="286,-170.8 286,-222.8 410,-222.8 410,-170.8 286,-170.8"/>
</g>
<g id="clust5" class="cluster">
<title>cluster_AppModule_imports</title>
<polygon fill="none" stroke="black" points="274,-40.8 274,-92.8 543,-92.8 543,-40.8 274,-40.8"/>
</g>
<g id="clust2" class="cluster">
<title>cluster_AppModule_declarations</title>
<polygon fill="none" stroke="black" points="16,-40.8 16,-92.8 266,-92.8 266,-40.8 16,-40.8"/>
</g>
<!-- AppComponent -->
<g id="node1" class="node">
<title>AppComponent</title>
<polygon fill="#ffffb3" stroke="black" points="257.94,-84.8 152.06,-84.8 152.06,-48.8 257.94,-48.8 257.94,-84.8"/>
<text text-anchor="middle" x="205" y="-62.6" font-family="Times,serif" font-size="14.00">AppComponent</text>
</g>
<!-- AppModule -->
<g id="node3" class="node">
<title>AppModule</title>
<polygon fill="#8dd3c7" stroke="black" points="389.66,-149.8 386.66,-153.8 365.66,-153.8 362.66,-149.8 306.34,-149.8 306.34,-113.8 389.66,-113.8 389.66,-149.8"/>
<text text-anchor="middle" x="348" y="-127.6" font-family="Times,serif" font-size="14.00">AppModule</text>
</g>
<!-- AppComponent&#45;&gt;AppModule -->
<g id="edge1" class="edge">
<title>AppComponent&#45;&gt;AppModule</title>
<path fill="none" stroke="black" d="M205,-84.82C205,-102.17 205,-125.8 205,-125.8 205,-125.8 296.25,-125.8 296.25,-125.8"/>
<polygon fill="black" stroke="black" points="296.25,-129.3 306.25,-125.8 296.25,-122.3 296.25,-129.3"/>
</g>
<!-- ShellComponent -->
<g id="node2" class="node">
<title>ShellComponent</title>
<polygon fill="#ffffb3" stroke="black" points="134.11,-84.8 23.89,-84.8 23.89,-48.8 134.11,-48.8 134.11,-84.8"/>
<text text-anchor="middle" x="79" y="-62.6" font-family="Times,serif" font-size="14.00">ShellComponent</text>
</g>
<!-- ShellComponent&#45;&gt;AppModule -->
<g id="edge2" class="edge">
<title>ShellComponent&#45;&gt;AppModule</title>
<path fill="none" stroke="black" d="M79,-85.08C79,-106.12 79,-137.8 79,-137.8 79,-137.8 296.26,-137.8 296.26,-137.8"/>
<polygon fill="black" stroke="black" points="296.26,-141.3 306.26,-137.8 296.26,-134.3 296.26,-141.3"/>
</g>
<!-- AppComponent  -->
<g id="node6" class="node">
<title>AppComponent </title>
<polygon fill="#80b1d3" stroke="black" points="402.44,-214.8 293.56,-214.8 293.56,-178.8 402.44,-178.8 402.44,-214.8"/>
<text text-anchor="middle" x="348" y="-192.6" font-family="Times,serif" font-size="14.00">AppComponent </text>
</g>
<!-- AppModule&#45;&gt;AppComponent  -->
<g id="edge5" class="edge">
<title>AppModule&#45;&gt;AppComponent </title>
<path fill="none" stroke="black" stroke-dasharray="1,5" d="M348,-149.91C348,-149.91 348,-168.79 348,-168.79"/>
<polygon fill="black" stroke="black" points="344.5,-168.79 348,-178.79 351.5,-168.79 344.5,-168.79"/>
</g>
<!-- DialogsModule -->
<g id="node4" class="node">
<title>DialogsModule</title>
<polygon fill="#8dd3c7" stroke="black" points="534.6,-84.8 531.6,-88.8 510.6,-88.8 507.6,-84.8 431.4,-84.8 431.4,-48.8 534.6,-48.8 534.6,-84.8"/>
<text text-anchor="middle" x="483" y="-62.6" font-family="Times,serif" font-size="14.00">DialogsModule</text>
</g>
<!-- DialogsModule&#45;&gt;AppModule -->
<g id="edge3" class="edge">
<title>DialogsModule&#45;&gt;AppModule</title>
<path fill="none" stroke="black" d="M483,-84.82C483,-102.17 483,-125.8 483,-125.8 483,-125.8 399.97,-125.8 399.97,-125.8"/>
<polygon fill="black" stroke="black" points="399.97,-122.3 389.97,-125.8 399.97,-129.3 399.97,-122.3"/>
</g>
<!-- MatIconSizeModule -->
<g id="node5" class="node">
<title>MatIconSizeModule</title>
<polygon fill="#8dd3c7" stroke="black" points="413.58,-84.8 410.58,-88.8 389.58,-88.8 386.58,-84.8 282.42,-84.8 282.42,-48.8 413.58,-48.8 413.58,-84.8"/>
<text text-anchor="middle" x="348" y="-62.6" font-family="Times,serif" font-size="14.00">MatIconSizeModule</text>
</g>
<!-- MatIconSizeModule&#45;&gt;AppModule -->
<g id="edge4" class="edge">
<title>MatIconSizeModule&#45;&gt;AppModule</title>
<path fill="none" stroke="black" d="M348,-84.91C348,-84.91 348,-103.79 348,-103.79"/>
<polygon fill="black" stroke="black" points="344.5,-103.79 348,-113.79 351.5,-103.79 344.5,-103.79"/>
</g>
<!-- LoaderInterceptor -->
<g id="node7" class="node">
<title>LoaderInterceptor</title>
<ellipse fill="#fdb462" stroke="black" cx="640" cy="-66.8" rx="80.98" ry="18"/>
<text text-anchor="middle" x="640" y="-62.6" font-family="Times,serif" font-size="14.00">LoaderInterceptor</text>
</g>
<!-- LoaderInterceptor&#45;&gt;AppModule -->
<g id="edge6" class="edge">
<title>LoaderInterceptor&#45;&gt;AppModule</title>
<path fill="none" stroke="black" d="M640,-85.08C640,-106.12 640,-137.8 640,-137.8 640,-137.8 399.84,-137.8 399.84,-137.8"/>
<polygon fill="black" stroke="black" points="399.84,-134.3 389.84,-137.8 399.84,-141.3 399.84,-134.3"/>
</g>
</g>
</svg>
