<?xml version="1.0" encoding="UTF-8" standalone="no"?>
<!DOCTYPE svg PUBLIC "-//W3C//DTD SVG 1.1//EN"
 "http://www.w3.org/Graphics/SVG/1.1/DTD/svg11.dtd">
<!-- Generated by graphviz version 5.0.0 (20220707.1540)
 -->
<!-- Title: dependencies Pages: 1 -->
<svg width="660pt" height="247pt"
 viewBox="0.00 0.00 660.00 246.80" xmlns="http://www.w3.org/2000/svg" xmlns:xlink="http://www.w3.org/1999/xlink">
<g id="graph0" class="graph" transform="scale(1 1) rotate(0) translate(4 242.8)">
<title>dependencies</title>
<polygon fill="white" stroke="transparent" points="-4,4 -4,-242.8 656,-242.8 656,4 -4,4"/>
<text text-anchor="middle" x="326" y="-8.2" font-family="sans-serif" font-size="14.00">dependencies</text>
<g id="clust1" class="cluster">
<title>cluster_AppModule</title>
<polygon fill="none" stroke="black" stroke-dasharray="1,5" points="8,-32.8 8,-230.8 644,-230.8 644,-32.8 8,-32.8"/>
</g>
<g id="clust2" class="cluster">
<title>cluster_AppModule_declarations</title>
<polygon fill="none" stroke="black" points="514,-40.8 514,-92.8 636,-92.8 636,-40.8 514,-40.8"/>
</g>
<g id="clust6" class="cluster">
<title>cluster_AppModule_bootstrap</title>
<polygon fill="none" stroke="black" points="262,-170.8 262,-222.8 386,-222.8 386,-170.8 262,-170.8"/>
</g>
<g id="clust7" class="cluster">
<title>cluster_AppModule_providers</title>
<polygon fill="none" stroke="black" points="328,-40.8 328,-92.8 506,-92.8 506,-40.8 328,-40.8"/>
</g>
<g id="clust4" class="cluster">
<title>cluster_AppModule_imports</title>
<polygon fill="none" stroke="black" points="16,-40.8 16,-92.8 320,-92.8 320,-40.8 16,-40.8"/>
</g>
<!-- AppComponent -->
<g id="node1" class="node">
<title>AppComponent</title>
<polygon fill="#ffffb3" stroke="black" points="627.94,-84.8 522.06,-84.8 522.06,-48.8 627.94,-48.8 627.94,-84.8"/>
<text text-anchor="middle" x="575" y="-62.6" font-family="Times,serif" font-size="14.00">AppComponent</text>
</g>
<!-- AppModule -->
<g id="node2" class="node">
<title>AppModule</title>
<polygon fill="#8dd3c7" stroke="black" points="365.66,-149.8 362.66,-153.8 341.66,-153.8 338.66,-149.8 282.34,-149.8 282.34,-113.8 365.66,-113.8 365.66,-149.8"/>
<text text-anchor="middle" x="324" y="-127.6" font-family="Times,serif" font-size="14.00">AppModule</text>
</g>
<!-- AppComponent&#45;&gt;AppModule -->
<g id="edge1" class="edge">
<title>AppComponent&#45;&gt;AppModule</title>
<path fill="none" stroke="black" d="M575,-84.91C575,-104.14 575,-131.8 575,-131.8 575,-131.8 375.73,-131.8 375.73,-131.8"/>
<polygon fill="black" stroke="black" points="375.73,-128.3 365.73,-131.8 375.73,-135.3 375.73,-128.3"/>
</g>
<!-- AppComponent  -->
<g id="node5" class="node">
<title>AppComponent </title>
<polygon fill="#80b1d3" stroke="black" points="378.44,-214.8 269.56,-214.8 269.56,-178.8 378.44,-178.8 378.44,-214.8"/>
<text text-anchor="middle" x="324" y="-192.6" font-family="Times,serif" font-size="14.00">AppComponent </text>
</g>
<!-- AppModule&#45;&gt;AppComponent  -->
<g id="edge4" class="edge">
<title>AppModule&#45;&gt;AppComponent </title>
<path fill="none" stroke="black" stroke-dasharray="1,5" d="M324,-149.91C324,-149.91 324,-168.79 324,-168.79"/>
<polygon fill="black" stroke="black" points="320.5,-168.79 324,-178.79 327.5,-168.79 320.5,-168.79"/>
</g>
<!-- PromptDialogComponent -->
<g id="node3" class="node">
<title>PromptDialogComponent</title>
<polygon fill="#8dd3c7" stroke="black" points="312.16,-84.8 309.16,-88.8 288.16,-88.8 285.16,-84.8 151.84,-84.8 151.84,-48.8 312.16,-48.8 312.16,-84.8"/>
<text text-anchor="middle" x="232" y="-62.6" font-family="Times,serif" font-size="14.00">PromptDialogComponent</text>
</g>
<!-- PromptDialogComponent&#45;&gt;AppModule -->
<g id="edge2" class="edge">
<title>PromptDialogComponent&#45;&gt;AppModule</title>
<path fill="none" stroke="black" d="M297.25,-84.91C297.25,-84.91 297.25,-103.79 297.25,-103.79"/>
<polygon fill="black" stroke="black" points="293.75,-103.79 297.25,-113.79 300.75,-103.79 293.75,-103.79"/>
</g>
<!-- ShellComponent -->
<g id="node4" class="node">
<title>ShellComponent</title>
<polygon fill="#8dd3c7" stroke="black" points="134.11,-84.8 131.11,-88.8 110.11,-88.8 107.11,-84.8 23.89,-84.8 23.89,-48.8 134.11,-48.8 134.11,-84.8"/>
<text text-anchor="middle" x="79" y="-62.6" font-family="Times,serif" font-size="14.00">ShellComponent</text>
</g>
<!-- ShellComponent&#45;&gt;AppModule -->
<g id="edge3" class="edge">
<title>ShellComponent&#45;&gt;AppModule</title>
<path fill="none" stroke="black" d="M79,-84.91C79,-104.14 79,-131.8 79,-131.8 79,-131.8 272.16,-131.8 272.16,-131.8"/>
<polygon fill="black" stroke="black" points="272.16,-135.3 282.16,-131.8 272.16,-128.3 272.16,-135.3"/>
</g>
<!-- LoaderInterceptor -->
<g id="node6" class="node">
<title>LoaderInterceptor</title>
<ellipse fill="#fdb462" stroke="black" cx="417" cy="-66.8" rx="80.98" ry="18"/>
<text text-anchor="middle" x="417" y="-62.6" font-family="Times,serif" font-size="14.00">LoaderInterceptor</text>
</g>
<!-- LoaderInterceptor&#45;&gt;AppModule -->
<g id="edge5" class="edge">
<title>LoaderInterceptor&#45;&gt;AppModule</title>
<path fill="none" stroke="black" d="M351.05,-77.24C351.05,-77.24 351.05,-103.77 351.05,-103.77"/>
<polygon fill="black" stroke="black" points="347.55,-103.77 351.05,-113.77 354.55,-103.77 347.55,-103.77"/>
</g>
</g>
</svg>
