<?xml version="1.0" encoding="UTF-8" standalone="no"?>
<!DOCTYPE svg PUBLIC "-//W3C//DTD SVG 1.1//EN"
 "http://www.w3.org/Graphics/SVG/1.1/DTD/svg11.dtd">
<!-- Generated by graphviz version 2.40.1 (20161225.0304)
 -->
<!-- Title: dependencies Pages: 1 -->
<svg width="1502pt" height="284pt"
 viewBox="0.00 0.00 1502.00 284.00" xmlns="http://www.w3.org/2000/svg" xmlns:xlink="http://www.w3.org/1999/xlink">
<g id="graph0" class="graph" transform="scale(1 1) rotate(0) translate(4 280)">
<title>dependencies</title>
<polygon fill="#ffffff" stroke="transparent" points="-4,4 -4,-280 1498,-280 1498,4 -4,4"/>
<text text-anchor="start" x="726.0091" y="-42.4" font-family="sans-serif" font-weight="bold" font-size="14.00" fill="#000000">Legend</text>
<polygon fill="#ffffb3" stroke="transparent" points="513,-10 513,-30 533,-30 533,-10 513,-10"/>
<text text-anchor="start" x="536.629" y="-15.4" font-family="sans-serif" font-size="14.00" fill="#000000"> &#160;Declarations</text>
<polygon fill="#8dd3c7" stroke="transparent" points="626,-10 626,-30 646,-30 646,-10 626,-10"/>
<text text-anchor="start" x="649.7251" y="-15.4" font-family="sans-serif" font-size="14.00" fill="#000000"> &#160;Module</text>
<polygon fill="#80b1d3" stroke="transparent" points="712,-10 712,-30 732,-30 732,-10 712,-10"/>
<text text-anchor="start" x="735.7812" y="-15.4" font-family="sans-serif" font-size="14.00" fill="#000000"> &#160;Bootstrap</text>
<polygon fill="#fdb462" stroke="transparent" points="809,-10 809,-30 829,-30 829,-10 809,-10"/>
<text text-anchor="start" x="832.6732" y="-15.4" font-family="sans-serif" font-size="14.00" fill="#000000"> &#160;Providers</text>
<polygon fill="#fb8072" stroke="transparent" points="905,-10 905,-30 925,-30 925,-10 905,-10"/>
<text text-anchor="start" x="928.7258" y="-15.4" font-family="sans-serif" font-size="14.00" fill="#000000"> &#160;Exports</text>
<g id="clust1" class="cluster">
<title>cluster_AppModule</title>
<polygon fill="none" stroke="#000000" stroke-dasharray="1,5" points="8,-70 8,-268 1486,-268 1486,-70 8,-70"/>
</g>
<g id="clust2" class="cluster">
<title>cluster_AppModule_declarations</title>
<polygon fill="none" stroke="#000000" points="713,-78 713,-130 1478,-130 1478,-78 713,-78"/>
</g>
<g id="clust8" class="cluster">
<title>cluster_AppModule_imports</title>
<polygon fill="none" stroke="#000000" points="202,-78 202,-130 705,-130 705,-78 202,-78"/>
</g>
<g id="clust10" class="cluster">
<title>cluster_AppModule_bootstrap</title>
<polygon fill="none" stroke="#000000" points="662,-208 662,-260 786,-260 786,-208 662,-208"/>
</g>
<g id="clust11" class="cluster">
<title>cluster_AppModule_providers</title>
<polygon fill="none" stroke="#000000" points="16,-78 16,-130 194,-130 194,-78 16,-78"/>
</g>
<!-- AppComponent -->
<g id="node1" class="node">
<title>AppComponent</title>
<polygon fill="#ffffb3" stroke="#000000" points="1469.9399,-122 1364.0601,-122 1364.0601,-86 1469.9399,-86 1469.9399,-122"/>
<text text-anchor="middle" x="1417" y="-99.8" font-family="Times,serif" font-size="14.00" fill="#000000">AppComponent</text>
</g>
<!-- AppModule -->
<g id="node6" class="node">
<title>AppModule</title>
<polygon fill="#8dd3c7" stroke="#000000" points="765.6571,-187 762.6571,-191 741.6571,-191 738.6571,-187 682.3429,-187 682.3429,-151 765.6571,-151 765.6571,-187"/>
<text text-anchor="middle" x="724" y="-164.8" font-family="Times,serif" font-size="14.00" fill="#000000">AppModule</text>
</g>
<!-- AppComponent&#45;&gt;AppModule -->
<g id="edge1" class="edge">
<title>AppComponent&#45;&gt;AppModule</title>
<path fill="none" stroke="#000000" d="M1417,-122.0109C1417,-144.4852 1417,-180 1417,-180 1417,-180 775.7896,-180 775.7896,-180"/>
<polygon fill="#000000" stroke="#000000" points="775.7897,-176.5001 765.7896,-180 775.7896,-183.5001 775.7897,-176.5001"/>
</g>
<!-- SettingsComponent -->
<g id="node2" class="node">
<title>SettingsComponent</title>
<polygon fill="#ffffb3" stroke="#000000" points="1346.4468,-122 1219.5532,-122 1219.5532,-86 1346.4468,-86 1346.4468,-122"/>
<text text-anchor="middle" x="1283" y="-99.8" font-family="Times,serif" font-size="14.00" fill="#000000">SettingsComponent</text>
</g>
<!-- SettingsComponent&#45;&gt;AppModule -->
<g id="edge2" class="edge">
<title>SettingsComponent&#45;&gt;AppModule</title>
<path fill="none" stroke="#000000" d="M1283,-122.1289C1283,-142.5724 1283,-173 1283,-173 1283,-173 776.0159,-173 776.0159,-173"/>
<polygon fill="#000000" stroke="#000000" points="776.0159,-169.5001 766.0159,-173 776.0158,-176.5001 776.0159,-169.5001"/>
</g>
<!-- ShellComponent -->
<g id="node3" class="node">
<title>ShellComponent</title>
<polygon fill="#ffffb3" stroke="#000000" points="1202.1109,-122 1091.8891,-122 1091.8891,-86 1202.1109,-86 1202.1109,-122"/>
<text text-anchor="middle" x="1147" y="-99.8" font-family="Times,serif" font-size="14.00" fill="#000000">ShellComponent</text>
</g>
<!-- ShellComponent&#45;&gt;AppModule -->
<g id="edge3" class="edge">
<title>ShellComponent&#45;&gt;AppModule</title>
<path fill="none" stroke="#000000" d="M1147,-122.2667C1147,-140.5552 1147,-166 1147,-166 1147,-166 775.7165,-166 775.7165,-166"/>
<polygon fill="#000000" stroke="#000000" points="775.7166,-162.5001 765.7165,-166 775.7165,-169.5001 775.7166,-162.5001"/>
</g>
<!-- StorageSettingsComponent -->
<g id="node4" class="node">
<title>StorageSettingsComponent</title>
<polygon fill="#ffffb3" stroke="#000000" points="1073.7091,-122 904.2909,-122 904.2909,-86 1073.7091,-86 1073.7091,-122"/>
<text text-anchor="middle" x="989" y="-99.8" font-family="Times,serif" font-size="14.00" fill="#000000">StorageSettingsComponent</text>
</g>
<!-- StorageSettingsComponent&#45;&gt;AppModule -->
<g id="edge4" class="edge">
<title>StorageSettingsComponent&#45;&gt;AppModule</title>
<path fill="none" stroke="#000000" d="M989,-122.0091C989,-138.0494 989,-159 989,-159 989,-159 775.6978,-159 775.6978,-159"/>
<polygon fill="#000000" stroke="#000000" points="775.6978,-155.5001 765.6978,-159 775.6977,-162.5001 775.6978,-155.5001"/>
</g>
<!-- ThemeSettingsComponent -->
<g id="node5" class="node">
<title>ThemeSettingsComponent</title>
<polygon fill="#ffffb3" stroke="#000000" points="886.8187,-122 721.1813,-122 721.1813,-86 886.8187,-86 886.8187,-122"/>
<text text-anchor="middle" x="804" y="-99.8" font-family="Times,serif" font-size="14.00" fill="#000000">ThemeSettingsComponent</text>
</g>
<!-- ThemeSettingsComponent&#45;&gt;AppModule -->
<g id="edge5" class="edge">
<title>ThemeSettingsComponent&#45;&gt;AppModule</title>
<path fill="none" stroke="#000000" d="M743.5845,-122.1061C743.5845,-122.1061 743.5845,-140.991 743.5845,-140.991"/>
<polygon fill="#000000" stroke="#000000" points="740.0846,-140.9909 743.5845,-150.991 747.0846,-140.991 740.0846,-140.9909"/>
</g>
<!-- AppComponent  -->
<g id="node11" class="node">
<title>AppComponent </title>
<polygon fill="#80b1d3" stroke="#000000" points="778.439,-252 669.561,-252 669.561,-216 778.439,-216 778.439,-252"/>
<text text-anchor="middle" x="724" y="-229.8" font-family="Times,serif" font-size="14.00" fill="#000000">AppComponent </text>
</g>
<!-- AppModule&#45;&gt;AppComponent  -->
<g id="edge10" class="edge">
<title>AppModule&#45;&gt;AppComponent </title>
<path fill="none" stroke="#000000" stroke-dasharray="1,5" d="M724,-187.1061C724,-187.1061 724,-205.991 724,-205.991"/>
<polygon fill="#000000" stroke="#000000" points="720.5001,-205.9909 724,-215.991 727.5001,-205.991 720.5001,-205.9909"/>
</g>
<!-- DialogsModule -->
<g id="node7" class="node">
<title>DialogsModule</title>
<polygon fill="#8dd3c7" stroke="#000000" points="696.5968,-122 693.5968,-126 672.5968,-126 669.5968,-122 593.4032,-122 593.4032,-86 696.5968,-86 696.5968,-122"/>
<text text-anchor="middle" x="645" y="-99.8" font-family="Times,serif" font-size="14.00" fill="#000000">DialogsModule</text>
</g>
<!-- DialogsModule&#45;&gt;AppModule -->
<g id="edge6" class="edge">
<title>DialogsModule&#45;&gt;AppModule</title>
<path fill="none" stroke="#000000" d="M689.3601,-122.1061C689.3601,-122.1061 689.3601,-140.991 689.3601,-140.991"/>
<polygon fill="#000000" stroke="#000000" points="685.8602,-140.9909 689.3601,-150.991 692.8602,-140.991 685.8602,-140.9909"/>
</g>
<!-- MatIconSizeModule -->
<g id="node8" class="node">
<title>MatIconSizeModule</title>
<polygon fill="#8dd3c7" stroke="#000000" points="575.5772,-122 572.5772,-126 551.5772,-126 548.5772,-122 444.4228,-122 444.4228,-86 575.5772,-86 575.5772,-122"/>
<text text-anchor="middle" x="510" y="-99.8" font-family="Times,serif" font-size="14.00" fill="#000000">MatIconSizeModule</text>
</g>
<!-- MatIconSizeModule&#45;&gt;AppModule -->
<g id="edge7" class="edge">
<title>MatIconSizeModule&#45;&gt;AppModule</title>
<path fill="none" stroke="#000000" d="M510,-122.0091C510,-138.0494 510,-159 510,-159 510,-159 672.2306,-159 672.2306,-159"/>
<polygon fill="#000000" stroke="#000000" points="672.2307,-162.5001 682.2306,-159 672.2306,-155.5001 672.2307,-162.5001"/>
</g>
<!-- ThemeModule -->
<g id="node9" class="node">
<title>ThemeModule</title>
<polygon fill="#8dd3c7" stroke="#000000" points="426.4231,-122 423.4231,-126 402.4231,-126 399.4231,-122 327.5769,-122 327.5769,-86 426.4231,-86 426.4231,-122"/>
<text text-anchor="middle" x="377" y="-99.8" font-family="Times,serif" font-size="14.00" fill="#000000">ThemeModule</text>
</g>
<!-- ThemeModule&#45;&gt;AppModule -->
<g id="edge8" class="edge">
<title>ThemeModule&#45;&gt;AppModule</title>
<path fill="none" stroke="#000000" d="M377,-122.2667C377,-140.5552 377,-166 377,-166 377,-166 672.1437,-166 672.1437,-166"/>
<polygon fill="#000000" stroke="#000000" points="672.1437,-169.5001 682.1437,-166 672.1437,-162.5001 672.1437,-169.5001"/>
</g>
<!-- UpdateModule -->
<g id="node10" class="node">
<title>UpdateModule</title>
<polygon fill="#8dd3c7" stroke="#000000" points="309.9762,-122 306.9762,-126 285.9762,-126 282.9762,-122 210.0238,-122 210.0238,-86 309.9762,-86 309.9762,-122"/>
<text text-anchor="middle" x="260" y="-99.8" font-family="Times,serif" font-size="14.00" fill="#000000">UpdateModule</text>
</g>
<!-- UpdateModule&#45;&gt;AppModule -->
<g id="edge9" class="edge">
<title>UpdateModule&#45;&gt;AppModule</title>
<path fill="none" stroke="#000000" d="M260,-122.1289C260,-142.5724 260,-173 260,-173 260,-173 672.0047,-173 672.0047,-173"/>
<polygon fill="#000000" stroke="#000000" points="672.0048,-176.5001 682.0047,-173 672.0047,-169.5001 672.0048,-176.5001"/>
</g>
<!-- LoaderInterceptor -->
<g id="node12" class="node">
<title>LoaderInterceptor</title>
<ellipse fill="#fdb462" stroke="#000000" cx="105" cy="-104" rx="80.9775" ry="18"/>
<text text-anchor="middle" x="105" y="-99.8" font-family="Times,serif" font-size="14.00" fill="#000000">LoaderInterceptor</text>
</g>
<!-- LoaderInterceptor&#45;&gt;AppModule -->
<g id="edge11" class="edge">
<title>LoaderInterceptor&#45;&gt;AppModule</title>
<path fill="none" stroke="#000000" d="M105,-122.0109C105,-144.4852 105,-180 105,-180 105,-180 671.9403,-180 671.9403,-180"/>
<polygon fill="#000000" stroke="#000000" points="671.9403,-183.5001 681.9403,-180 671.9402,-176.5001 671.9403,-183.5001"/>
</g>
</g>
</svg>
