<?xml version="1.0" encoding="UTF-8" standalone="no"?>
<!DOCTYPE svg PUBLIC "-//W3C//DTD SVG 1.1//EN"
 "http://www.w3.org/Graphics/SVG/1.1/DTD/svg11.dtd">
<!-- Generated by graphviz version 5.0.0 (20220707.1540)
 -->
<!-- Title: dependencies Pages: 1 -->
<svg width="753pt" height="247pt"
 viewBox="0.00 0.00 753.00 246.80" xmlns="http://www.w3.org/2000/svg" xmlns:xlink="http://www.w3.org/1999/xlink">
<g id="graph0" class="graph" transform="scale(1 1) rotate(0) translate(4 242.8)">
<title>dependencies</title>
<polygon fill="white" stroke="transparent" points="-4,4 -4,-242.8 749,-242.8 749,4 -4,4"/>
<text text-anchor="middle" x="372.5" y="-8.2" font-family="sans-serif" font-size="14.00">dependencies</text>
<g id="clust1" class="cluster">
<title>cluster_AppModule</title>
<polygon fill="none" stroke="black" stroke-dasharray="1,5" points="8,-32.8 8,-230.8 737,-230.8 737,-32.8 8,-32.8"/>
</g>
<g id="clust2" class="cluster">
<title>cluster_AppModule_declarations</title>
<polygon fill="none" stroke="black" points="479,-40.8 479,-92.8 729,-92.8 729,-40.8 479,-40.8"/>
</g>
<g id="clust5" class="cluster">
<title>cluster_AppModule_imports</title>
<polygon fill="none" stroke="black" points="202,-40.8 202,-92.8 471,-92.8 471,-40.8 202,-40.8"/>
</g>
<g id="clust7" class="cluster">
<title>cluster_AppModule_bootstrap</title>
<polygon fill="none" stroke="black" points="349,-170.8 349,-222.8 473,-222.8 473,-170.8 349,-170.8"/>
</g>
<g id="clust8" class="cluster">
<title>cluster_AppModule_providers</title>
<polygon fill="none" stroke="black" points="16,-40.8 16,-92.8 194,-92.8 194,-40.8 16,-40.8"/>
</g>
<!-- AppComponent -->
<g id="node1" class="node">
<title>AppComponent</title>
<polygon fill="#ffffb3" stroke="black" points="720.94,-84.8 615.06,-84.8 615.06,-48.8 720.94,-48.8 720.94,-84.8"/>
<text text-anchor="middle" x="668" y="-62.6" font-family="Times,serif" font-size="14.00">AppComponent</text>
</g>
<!-- AppModule -->
<g id="node3" class="node">
<title>AppModule</title>
<polygon fill="#8dd3c7" stroke="black" points="452.66,-149.8 449.66,-153.8 428.66,-153.8 425.66,-149.8 369.34,-149.8 369.34,-113.8 452.66,-113.8 452.66,-149.8"/>
<text text-anchor="middle" x="411" y="-127.6" font-family="Times,serif" font-size="14.00">AppModule</text>
</g>
<!-- AppComponent&#45;&gt;AppModule -->
<g id="edge1" class="edge">
<title>AppComponent&#45;&gt;AppModule</title>
<path fill="none" stroke="black" d="M668,-85.08C668,-106.12 668,-137.8 668,-137.8 668,-137.8 462.86,-137.8 462.86,-137.8"/>
<polygon fill="black" stroke="black" points="462.86,-134.3 452.86,-137.8 462.86,-141.3 462.86,-134.3"/>
</g>
<!-- ShellComponent -->
<g id="node2" class="node">
<title>ShellComponent</title>
<polygon fill="#ffffb3" stroke="black" points="597.11,-84.8 486.89,-84.8 486.89,-48.8 597.11,-48.8 597.11,-84.8"/>
<text text-anchor="middle" x="542" y="-62.6" font-family="Times,serif" font-size="14.00">ShellComponent</text>
</g>
<!-- ShellComponent&#45;&gt;AppModule -->
<g id="edge2" class="edge">
<title>ShellComponent&#45;&gt;AppModule</title>
<path fill="none" stroke="black" d="M542,-84.82C542,-102.17 542,-125.8 542,-125.8 542,-125.8 462.81,-125.8 462.81,-125.8"/>
<polygon fill="black" stroke="black" points="462.81,-122.3 452.81,-125.8 462.81,-129.3 462.81,-122.3"/>
</g>
<!-- AppComponent  -->
<g id="node6" class="node">
<title>AppComponent </title>
<polygon fill="#80b1d3" stroke="black" points="465.44,-214.8 356.56,-214.8 356.56,-178.8 465.44,-178.8 465.44,-214.8"/>
<text text-anchor="middle" x="411" y="-192.6" font-family="Times,serif" font-size="14.00">AppComponent </text>
</g>
<!-- AppModule&#45;&gt;AppComponent  -->
<g id="edge5" class="edge">
<title>AppModule&#45;&gt;AppComponent </title>
<path fill="none" stroke="black" stroke-dasharray="1,5" d="M411,-149.91C411,-149.91 411,-168.79 411,-168.79"/>
<polygon fill="black" stroke="black" points="407.5,-168.79 411,-178.79 414.5,-168.79 407.5,-168.79"/>
</g>
<!-- DialogsModule -->
<g id="node4" class="node">
<title>DialogsModule</title>
<polygon fill="#8dd3c7" stroke="black" points="462.6,-84.8 459.6,-88.8 438.6,-88.8 435.6,-84.8 359.4,-84.8 359.4,-48.8 462.6,-48.8 462.6,-84.8"/>
<text text-anchor="middle" x="411" y="-62.6" font-family="Times,serif" font-size="14.00">DialogsModule</text>
</g>
<!-- DialogsModule&#45;&gt;AppModule -->
<g id="edge3" class="edge">
<title>DialogsModule&#45;&gt;AppModule</title>
<path fill="none" stroke="black" d="M411,-84.91C411,-84.91 411,-103.79 411,-103.79"/>
<polygon fill="black" stroke="black" points="407.5,-103.79 411,-113.79 414.5,-103.79 407.5,-103.79"/>
</g>
<!-- MatIconSizeModule -->
<g id="node5" class="node">
<title>MatIconSizeModule</title>
<polygon fill="#8dd3c7" stroke="black" points="341.58,-84.8 338.58,-88.8 317.58,-88.8 314.58,-84.8 210.42,-84.8 210.42,-48.8 341.58,-48.8 341.58,-84.8"/>
<text text-anchor="middle" x="276" y="-62.6" font-family="Times,serif" font-size="14.00">MatIconSizeModule</text>
</g>
<!-- MatIconSizeModule&#45;&gt;AppModule -->
<g id="edge4" class="edge">
<title>MatIconSizeModule&#45;&gt;AppModule</title>
<path fill="none" stroke="black" d="M276,-84.82C276,-102.17 276,-125.8 276,-125.8 276,-125.8 359.03,-125.8 359.03,-125.8"/>
<polygon fill="black" stroke="black" points="359.03,-129.3 369.03,-125.8 359.03,-122.3 359.03,-129.3"/>
</g>
<!-- LoaderInterceptor -->
<g id="node7" class="node">
<title>LoaderInterceptor</title>
<ellipse fill="#fdb462" stroke="black" cx="105" cy="-66.8" rx="80.98" ry="18"/>
<text text-anchor="middle" x="105" y="-62.6" font-family="Times,serif" font-size="14.00">LoaderInterceptor</text>
</g>
<!-- LoaderInterceptor&#45;&gt;AppModule -->
<g id="edge6" class="edge">
<title>LoaderInterceptor&#45;&gt;AppModule</title>
<path fill="none" stroke="black" d="M105,-85.08C105,-106.12 105,-137.8 105,-137.8 105,-137.8 359.09,-137.8 359.09,-137.8"/>
<polygon fill="black" stroke="black" points="359.09,-141.3 369.09,-137.8 359.09,-134.3 359.09,-141.3"/>
</g>
</g>
</svg>
