<?xml version="1.0" encoding="UTF-8" standalone="no"?>
<!DOCTYPE svg PUBLIC "-//W3C//DTD SVG 1.1//EN"
 "http://www.w3.org/Graphics/SVG/1.1/DTD/svg11.dtd">
<!-- Generated by graphviz version 5.0.0 (20220707.1540)
 -->
<!-- Title: dependencies Pages: 1 -->
<svg width="796pt" height="247pt"
 viewBox="0.00 0.00 796.00 246.80" xmlns="http://www.w3.org/2000/svg" xmlns:xlink="http://www.w3.org/1999/xlink">
<g id="graph0" class="graph" transform="scale(1 1) rotate(0) translate(4 242.8)">
<title>dependencies</title>
<polygon fill="white" stroke="transparent" points="-4,4 -4,-242.8 792,-242.8 792,4 -4,4"/>
<text text-anchor="middle" x="394" y="-8.2" font-family="sans-serif" font-size="14.00">dependencies</text>
<g id="clust1" class="cluster">
<title>cluster_AppModule</title>
<polygon fill="none" stroke="black" stroke-dasharray="1,5" points="8,-32.8 8,-230.8 780,-230.8 780,-32.8 8,-32.8"/>
</g>
<g id="clust2" class="cluster">
<title>cluster_AppModule_declarations</title>
<polygon fill="none" stroke="black" points="522,-40.8 522,-92.8 772,-92.8 772,-40.8 522,-40.8"/>
</g>
<g id="clust5" class="cluster">
<title>cluster_AppModule_imports</title>
<polygon fill="none" stroke="black" points="202,-40.8 202,-92.8 514,-92.8 514,-40.8 202,-40.8"/>
</g>
<g id="clust7" class="cluster">
<title>cluster_AppModule_bootstrap</title>
<polygon fill="none" stroke="black" points="385,-170.8 385,-222.8 509,-222.8 509,-170.8 385,-170.8"/>
</g>
<g id="clust8" class="cluster">
<title>cluster_AppModule_providers</title>
<polygon fill="none" stroke="black" points="16,-40.8 16,-92.8 194,-92.8 194,-40.8 16,-40.8"/>
</g>
<!-- AppComponent -->
<g id="node1" class="node">
<title>AppComponent</title>
<polygon fill="#ffffb3" stroke="black" points="763.94,-84.8 658.06,-84.8 658.06,-48.8 763.94,-48.8 763.94,-84.8"/>
<text text-anchor="middle" x="711" y="-62.6" font-family="Times,serif" font-size="14.00">AppComponent</text>
</g>
<!-- AppModule -->
<g id="node3" class="node">
<title>AppModule</title>
<polygon fill="#8dd3c7" stroke="black" points="488.66,-149.8 485.66,-153.8 464.66,-153.8 461.66,-149.8 405.34,-149.8 405.34,-113.8 488.66,-113.8 488.66,-149.8"/>
<text text-anchor="middle" x="447" y="-127.6" font-family="Times,serif" font-size="14.00">AppModule</text>
</g>
<!-- AppComponent&#45;&gt;AppModule -->
<g id="edge1" class="edge">
<title>AppComponent&#45;&gt;AppModule</title>
<path fill="none" stroke="black" d="M711,-85.08C711,-106.12 711,-137.8 711,-137.8 711,-137.8 498.83,-137.8 498.83,-137.8"/>
<polygon fill="black" stroke="black" points="498.83,-134.3 488.83,-137.8 498.83,-141.3 498.83,-134.3"/>
</g>
<!-- ShellComponent -->
<g id="node2" class="node">
<title>ShellComponent</title>
<polygon fill="#ffffb3" stroke="black" points="640.11,-84.8 529.89,-84.8 529.89,-48.8 640.11,-48.8 640.11,-84.8"/>
<text text-anchor="middle" x="585" y="-62.6" font-family="Times,serif" font-size="14.00">ShellComponent</text>
</g>
<!-- ShellComponent&#45;&gt;AppModule -->
<g id="edge2" class="edge">
<title>ShellComponent&#45;&gt;AppModule</title>
<path fill="none" stroke="black" d="M585,-84.82C585,-102.17 585,-125.8 585,-125.8 585,-125.8 498.78,-125.8 498.78,-125.8"/>
<polygon fill="black" stroke="black" points="498.78,-122.3 488.78,-125.8 498.78,-129.3 498.78,-122.3"/>
</g>
<!-- AppComponent  -->
<g id="node6" class="node">
<title>AppComponent </title>
<polygon fill="#80b1d3" stroke="black" points="501.44,-214.8 392.56,-214.8 392.56,-178.8 501.44,-178.8 501.44,-214.8"/>
<text text-anchor="middle" x="447" y="-192.6" font-family="Times,serif" font-size="14.00">AppComponent </text>
</g>
<!-- AppModule&#45;&gt;AppComponent  -->
<g id="edge5" class="edge">
<title>AppModule&#45;&gt;AppComponent </title>
<path fill="none" stroke="black" stroke-dasharray="1,5" d="M447,-149.91C447,-149.91 447,-168.79 447,-168.79"/>
<polygon fill="black" stroke="black" points="443.5,-168.79 447,-178.79 450.5,-168.79 443.5,-168.79"/>
</g>
<!-- IconSizeDirective -->
<g id="node4" class="node">
<title>IconSizeDirective</title>
<polygon fill="#8dd3c7" stroke="black" points="505.56,-84.8 502.56,-88.8 481.56,-88.8 478.56,-84.8 388.44,-84.8 388.44,-48.8 505.56,-48.8 505.56,-84.8"/>
<text text-anchor="middle" x="447" y="-62.6" font-family="Times,serif" font-size="14.00">IconSizeDirective</text>
</g>
<!-- IconSizeDirective&#45;&gt;AppModule -->
<g id="edge3" class="edge">
<title>IconSizeDirective&#45;&gt;AppModule</title>
<path fill="none" stroke="black" d="M447,-84.91C447,-84.91 447,-103.79 447,-103.79"/>
<polygon fill="black" stroke="black" points="443.5,-103.79 447,-113.79 450.5,-103.79 443.5,-103.79"/>
</g>
<!-- PromptDialogComponent -->
<g id="node5" class="node">
<title>PromptDialogComponent</title>
<polygon fill="#8dd3c7" stroke="black" points="370.16,-84.8 367.16,-88.8 346.16,-88.8 343.16,-84.8 209.84,-84.8 209.84,-48.8 370.16,-48.8 370.16,-84.8"/>
<text text-anchor="middle" x="290" y="-62.6" font-family="Times,serif" font-size="14.00">PromptDialogComponent</text>
</g>
<!-- PromptDialogComponent&#45;&gt;AppModule -->
<g id="edge4" class="edge">
<title>PromptDialogComponent&#45;&gt;AppModule</title>
<path fill="none" stroke="black" d="M290,-84.82C290,-102.17 290,-125.8 290,-125.8 290,-125.8 394.93,-125.8 394.93,-125.8"/>
<polygon fill="black" stroke="black" points="394.93,-129.3 404.93,-125.8 394.93,-122.3 394.93,-129.3"/>
</g>
<!-- LoaderInterceptor -->
<g id="node7" class="node">
<title>LoaderInterceptor</title>
<ellipse fill="#fdb462" stroke="black" cx="105" cy="-66.8" rx="80.98" ry="18"/>
<text text-anchor="middle" x="105" y="-62.6" font-family="Times,serif" font-size="14.00">LoaderInterceptor</text>
</g>
<!-- LoaderInterceptor&#45;&gt;AppModule -->
<g id="edge6" class="edge">
<title>LoaderInterceptor&#45;&gt;AppModule</title>
<path fill="none" stroke="black" d="M105,-85.08C105,-106.12 105,-137.8 105,-137.8 105,-137.8 395.06,-137.8 395.06,-137.8"/>
<polygon fill="black" stroke="black" points="395.06,-141.3 405.06,-137.8 395.06,-134.3 395.06,-141.3"/>
</g>
</g>
</svg>
