<?xml version="1.0" encoding="UTF-8" standalone="no"?>
<!DOCTYPE svg PUBLIC "-//W3C//DTD SVG 1.1//EN"
 "http://www.w3.org/Graphics/SVG/1.1/DTD/svg11.dtd">
<!-- Generated by graphviz version 5.0.0 (20220707.1540)
 -->
<!-- Title: dependencies Pages: 1 -->
<svg width="749pt" height="174pt"
 viewBox="0.00 0.00 749.00 173.80" xmlns="http://www.w3.org/2000/svg" xmlns:xlink="http://www.w3.org/1999/xlink">
<g id="graph0" class="graph" transform="scale(1 1) rotate(0) translate(4 169.8)">
<title>dependencies</title>
<polygon fill="white" stroke="transparent" points="-4,4 -4,-169.8 745,-169.8 745,4 -4,4"/>
<text text-anchor="middle" x="370.5" y="-8.2" font-family="sans-serif" font-size="14.00">dependencies</text>
<g id="clust1" class="cluster">
<title>cluster_SettingsModule</title>
<polygon fill="none" stroke="black" stroke-dasharray="1,5" points="8,-32.8 8,-157.8 733,-157.8 733,-32.8 8,-32.8"/>
</g>
<g id="clust2" class="cluster">
<title>cluster_SettingsModule_declarations</title>
<polygon fill="none" stroke="black" points="16,-40.8 16,-92.8 725,-92.8 725,-40.8 16,-40.8"/>
</g>
<!-- MetadataSettingsComponent -->
<g id="node1" class="node">
<title>MetadataSettingsComponent</title>
<polygon fill="#ffffb3" stroke="black" points="717.03,-84.8 538.97,-84.8 538.97,-48.8 717.03,-48.8 717.03,-84.8"/>
<text text-anchor="middle" x="628" y="-62.6" font-family="Times,serif" font-size="14.00">MetadataSettingsComponent</text>
</g>
<!-- SettingsModule -->
<g id="node5" class="node">
<title>SettingsModule</title>
<polygon fill="#8dd3c7" stroke="black" points="427.17,-149.8 424.17,-153.8 403.17,-153.8 400.17,-149.8 322.83,-149.8 322.83,-113.8 427.17,-113.8 427.17,-149.8"/>
<text text-anchor="middle" x="375" y="-127.6" font-family="Times,serif" font-size="14.00">SettingsModule</text>
</g>
<!-- MetadataSettingsComponent&#45;&gt;SettingsModule -->
<g id="edge1" class="edge">
<title>MetadataSettingsComponent&#45;&gt;SettingsModule</title>
<path fill="none" stroke="black" d="M628,-84.91C628,-104.14 628,-131.8 628,-131.8 628,-131.8 437.42,-131.8 437.42,-131.8"/>
<polygon fill="black" stroke="black" points="437.42,-128.3 427.42,-131.8 437.42,-135.3 437.42,-128.3"/>
</g>
<!-- SettingsComponent -->
<g id="node2" class="node">
<title>SettingsComponent</title>
<polygon fill="#ffffb3" stroke="black" points="521.45,-84.8 394.55,-84.8 394.55,-48.8 521.45,-48.8 521.45,-84.8"/>
<text text-anchor="middle" x="458" y="-62.6" font-family="Times,serif" font-size="14.00">SettingsComponent</text>
</g>
<!-- SettingsComponent&#45;&gt;SettingsModule -->
<g id="edge2" class="edge">
<title>SettingsComponent&#45;&gt;SettingsModule</title>
<path fill="none" stroke="black" d="M411.06,-84.91C411.06,-84.91 411.06,-103.79 411.06,-103.79"/>
<polygon fill="black" stroke="black" points="407.56,-103.79 411.06,-113.79 414.56,-103.79 407.56,-103.79"/>
</g>
<!-- StorageSettingsComponent -->
<g id="node3" class="node">
<title>StorageSettingsComponent</title>
<polygon fill="#ffffb3" stroke="black" points="376.71,-84.8 207.29,-84.8 207.29,-48.8 376.71,-48.8 376.71,-84.8"/>
<text text-anchor="middle" x="292" y="-62.6" font-family="Times,serif" font-size="14.00">StorageSettingsComponent</text>
</g>
<!-- StorageSettingsComponent&#45;&gt;SettingsModule -->
<g id="edge3" class="edge">
<title>StorageSettingsComponent&#45;&gt;SettingsModule</title>
<path fill="none" stroke="black" d="M349.64,-84.91C349.64,-84.91 349.64,-103.79 349.64,-103.79"/>
<polygon fill="black" stroke="black" points="346.14,-103.79 349.64,-113.79 353.14,-103.79 346.14,-103.79"/>
</g>
<!-- ThemeSettingsComponent -->
<g id="node4" class="node">
<title>ThemeSettingsComponent</title>
<polygon fill="#ffffb3" stroke="black" points="189.82,-84.8 24.18,-84.8 24.18,-48.8 189.82,-48.8 189.82,-84.8"/>
<text text-anchor="middle" x="107" y="-62.6" font-family="Times,serif" font-size="14.00">ThemeSettingsComponent</text>
</g>
<!-- ThemeSettingsComponent&#45;&gt;SettingsModule -->
<g id="edge4" class="edge">
<title>ThemeSettingsComponent&#45;&gt;SettingsModule</title>
<path fill="none" stroke="black" d="M107,-84.91C107,-104.14 107,-131.8 107,-131.8 107,-131.8 312.69,-131.8 312.69,-131.8"/>
<polygon fill="black" stroke="black" points="312.69,-135.3 322.69,-131.8 312.69,-128.3 312.69,-135.3"/>
</g>
</g>
</svg>
