<svg><defs><svg id="account-music" viewBox="0 0 24 24">
  <path d="M11 14c1 0 2.05.16 3.2.44-.81.87-1.2 1.89-1.2 3.06 0 .89.25 1.73.78 2.5H3v-2c0-1.19.91-2.15 2.74-2.88C7.57 14.38 9.33 14 11 14m0-2c-1.08 0-2-.39-2.82-1.17C7.38 10.05 7 9.11 7 8c0-1.08.38-2 1.18-2.82C9 4.38 9.92 4 11 4c1.11 0 2.05.38 2.83 1.18C14.61 6 15 6.92 15 8c0 1.11-.39 2.05-1.17 2.83-.78.78-1.72 1.17-2.83 1.17m7.5-2H22v2h-2v5.5a2.5 2.5 0 0 1-2.5 2.5 2.5 2.5 0 0 1-2.5-2.5 2.5 2.5 0 0 1 2.5-2.5c.36 0 .69.07 1 .21z"/>
</svg>
<svg id="album" viewBox="0 0 24 24">
  <path d="M12 11a1 1 0 0 0-1 1 1 1 0 0 0 1 1 1 1 0 0 0 1-1 1 1 0 0 0-1-1m0 5.5c-2.5 0-4.5-2-4.5-4.5s2-4.5 4.5-4.5 4.5 2 4.5 4.5-2 4.5-4.5 4.5M12 2A10 10 0 0 0 2 12a10 10 0 0 0 10 10 10 10 0 0 0 10-10A10 10 0 0 0 12 2"/>
</svg>
<svg id="check" viewBox="0 0 24 24">
  <path d="M21 7 9 19l-5.5-5.5 1.41-1.41L9 16.17 19.59 5.59z"/>
</svg>
<svg id="clipboard-text-play-outline" viewBox="0 0 24 24">
  <path d="M19 3h-4.18C14.25 1.44 12.53.64 11 1.2c-.86.3-1.5.96-1.82 1.8H5a2 2 0 0 0-2 2v14a2 2 0 0 0 2 2h10v-2H5V5h2v2h10V5h2v9h2V5a2 2 0 0 0-2-2m-7 2a1 1 0 0 1-1-1 1 1 0 0 1 1-1 1 1 0 0 1 1 1 1 1 0 0 1-1 1m5 11v6l5-3zm0-5H7V9h10zm-2 4H7v-2h8z"/>
</svg>
<svg id="close-thick" viewBox="0 0 24 24">
  <path d="M20 6.91 17.09 4 12 9.09 6.91 4 4 6.91 9.09 12 4 17.09 6.91 20 12 14.91 17.09 20 20 17.09 14.91 12z"/>
</svg>
<svg id="cog-outline" viewBox="0 0 24 24">
  <path d="M12 8a4 4 0 0 1 4 4 4 4 0 0 1-4 4 4 4 0 0 1-4-4 4 4 0 0 1 4-4m0 2a2 2 0 0 0-2 2 2 2 0 0 0 2 2 2 2 0 0 0 2-2 2 2 0 0 0-2-2m-2 12c-.25 0-.46-.18-.5-.42l-.37-2.65c-.63-.25-1.17-.59-1.69-.99l-2.49 1.01c-.22.08-.49 0-.61-.22l-2-3.46a.493.493 0 0 1 .12-.64l2.11-1.66L4.5 12l.07-1-2.11-1.63a.493.493 0 0 1-.12-.64l2-3.46c.12-.22.39-.31.61-.22l2.49 1c.52-.39 1.06-.73 1.69-.98l.37-2.65c.04-.24.25-.42.5-.42h4c.25 0 .46.18.5.42l.37 2.65c.63.25 1.17.59 1.69.98l2.49-1c.22-.09.49 0 .61.22l2 3.46c.13.22.07.49-.12.64L19.43 11l.07 1-.07 1 2.11 1.63c.19.15.25.42.12.64l-2 3.46c-.12.22-.39.31-.61.22l-2.49-1c-.52.39-1.06.73-1.69.98l-.37 2.65c-.04.24-.25.42-.5.42zm1.25-18-.37 2.61c-1.2.25-2.26.89-3.03 1.78L5.44 7.35l-.75 1.3L6.8 10.2a5.55 5.55 0 0 0 0 3.6l-2.12 1.56.75 1.3 2.43-1.04c.77.88 1.82 1.52 3.01 1.76l.37 2.62h1.52l.37-2.61c1.19-.25 2.24-.89 3.01-1.77l2.43 1.04.75-1.3-2.12-1.55c.4-1.17.4-2.44 0-3.61l2.11-1.55-.75-1.3-2.41 1.04a5.42 5.42 0 0 0-3.03-1.77L12.75 4z"/>
</svg>
<svg id="cogs" viewBox="0 0 24 24">
  <path d="M15.9 18.45c1.35 0 2.45-1.1 2.45-2.45s-1.1-2.45-2.45-2.45c-1.36 0-2.45 1.1-2.45 2.45s1.09 2.45 2.45 2.45m5.2-1.77 1.48 1.16c.13.11.17.29.08.45l-1.4 2.42a.35.35 0 0 1-.43.15l-1.74-.7c-.36.28-.76.51-1.18.69l-.27 1.85c-.02.17-.17.3-.34.3h-2.8c-.18 0-.32-.13-.35-.3l-.26-1.85c-.43-.18-.82-.41-1.18-.69l-1.75.7c-.15.06-.34 0-.42-.15l-1.4-2.42a.351.351 0 0 1 .08-.45l1.48-1.16-.05-.68.05-.69-1.48-1.15a.353.353 0 0 1-.08-.45l1.4-2.42c.08-.16.27-.22.42-.16l1.75.71c.36-.28.75-.52 1.18-.69l.26-1.86c.03-.16.17-.29.35-.29h2.8c.17 0 .32.13.34.29l.27 1.86c.42.17.82.41 1.18.69l1.74-.71c.17-.06.34 0 .43.16l1.4 2.42c.09.15.05.34-.08.45l-1.48 1.15.05.69zM6.69 8.07c.87 0 1.57-.7 1.57-1.57 0-.87-.7-1.58-1.57-1.58A1.58 1.58 0 0 0 5.11 6.5c0 .87.71 1.57 1.58 1.57m3.34-1.13.97.74c.07.07.09.19.03.29l-.9 1.56c-.05.1-.17.14-.27.1l-1.12-.45-.74.44-.19 1.19c-.02.11-.11.19-.22.19h-1.8c-.12 0-.21-.08-.23-.19L5.4 9.62l-.76-.44-1.14.45c-.09.04-.2 0-.26-.1l-.9-1.56c-.06-.1-.03-.22.05-.29l.95-.74-.03-.44.03-.44-.95-.74a.229.229 0 0 1-.05-.29l.9-1.56c.06-.1.17-.14.26-.1l1.13.45.77-.44.16-1.19c.02-.11.11-.19.23-.19h1.8c.11 0 .2.08.22.19L8 3.38l.74.44 1.12-.45c.1-.04.22 0 .27.1l.9 1.56c.06.1.04.22-.03.29l-.97.74.03.44z"/>
</svg>
<svg id="current-ac" viewBox="0 0 24 24">
  <path d="M16.5 21c-3 0-4.19-4.24-5.45-8.72C10.14 9.04 9 5 7.5 5 4.11 5 4 11.93 4 12H2c0-.37.06-9 5.5-9 3 0 4.21 4.25 5.47 8.74C13.83 14.8 15 19 16.5 19c3.44 0 3.53-6.93 3.53-7h2c0 .37-.06 9-5.53 9"/>
</svg>
<svg id="disc-player" viewBox="0 0 24 24">
  <path d="M14.5 10.37a1.87 1.87 0 1 0 0-3.74c-1.04 0-1.87.83-1.87 1.87a1.87 1.87 0 0 0 1.87 1.87m0-9.37A7.5 7.5 0 0 1 22 8.5c0 2.17-.92 4.13-2.4 5.5H9.4A7.51 7.51 0 0 1 7 8.5C7 4.35 10.36 1 14.5 1M6 21v1H4v-1H2v-6h20v6h-2v1h-2v-1zm-2-3v1h9v-1zm11-1v2h2v-2zm4 0a1 1 0 0 0-1 1 1 1 0 0 0 1 1 1 1 0 0 0 1-1 1 1 0 0 0-1-1"/>
</svg>
<svg id="equalizer" viewBox="0 0 24 24">
  <path d="M10 20h4V4h-4zm-6 0h4v-8H4zM16 9v11h4V9z"/>
</svg>
<svg id="eye-off-outline" viewBox="0 0 24 24">
  <path d="M2 5.27 3.28 4 20 20.72 18.73 22l-3.08-3.08c-1.15.38-2.37.58-3.65.58-5 0-9.27-3.11-11-7.5.69-1.76 1.79-3.31 3.19-4.54zM12 9a3 3 0 0 1 3 3 3 3 0 0 1-.17 1L11 9.17A3 3 0 0 1 12 9m0-4.5c5 0 9.27 3.11 11 7.5a11.79 11.79 0 0 1-4 5.19l-1.42-1.43A9.862 9.862 0 0 0 20.82 12 9.821 9.821 0 0 0 12 6.5c-1.09 0-2.16.18-3.16.5L7.3 5.47c1.44-.62 3.03-.97 4.7-.97M3.18 12A9.821 9.821 0 0 0 12 17.5c.69 0 1.37-.07 2-.21L11.72 15A3.064 3.064 0 0 1 9 12.28L5.6 8.87c-.99.85-1.82 1.91-2.42 3.13"/>
</svg>
<svg id="folder-music-outline" viewBox="0 0 24 24">
  <path d="M20 18V8H4v10zm0-12a2 2 0 0 1 2 2v10c0 1.1-.9 2-2 2H4a2 2 0 0 1-2-2V6c0-1.11.89-2 2-2h6l2 2zm-2 3v2h-2v4c0 1.11-.89 2-2 2a2 2 0 1 1 0-4c.17 0 .34 0 .5.06V9z"/>
</svg>
<svg id="music-box-multiple-outline" viewBox="0 0 24 24">
  <path d="M20 2H8a2 2 0 0 0-2 2v12a2 2 0 0 0 2 2h12a2 2 0 0 0 2-2V4a2 2 0 0 0-2-2m0 14H8V4h12m-7.5 11a2.5 2.5 0 0 0 2.5-2.5V7h3V5h-4v5.5c-.42-.31-.93-.5-1.5-.5a2.5 2.5 0 0 0-2.5 2.5 2.5 2.5 0 0 0 2.5 2.5M4 6H2v14a2 2 0 0 0 2 2h14v-2H4"/>
</svg>
<svg id="music-box-outline" viewBox="0 0 24 24">
  <path d="M16 9h-3v5.5a2.5 2.5 0 0 1-2.5 2.5A2.5 2.5 0 0 1 8 14.5a2.5 2.5 0 0 1 2.5-2.5c.57 0 1.08.19 1.5.5V7h4zm3-6a2 2 0 0 1 2 2v14a2 2 0 0 1-2 2H5a2 2 0 0 1-2-2V5a2 2 0 0 1 2-2zM5 5v14h14V5z"/>
</svg>
<svg id="music-circle" viewBox="0 0 24 24">
  <path d="M16 9V7h-4v5.5c-.42-.31-.93-.5-1.5-.5A2.5 2.5 0 0 0 8 14.5a2.5 2.5 0 0 0 2.5 2.5 2.5 2.5 0 0 0 2.5-2.5V9zm-4-7a10 10 0 0 1 10 10 10 10 0 0 1-10 10A10 10 0 0 1 2 12 10 10 0 0 1 12 2"/>
</svg>
<svg id="music" viewBox="0 0 24 24">
  <path d="M21 3v12.5a3.5 3.5 0 0 1-3.5 3.5 3.5 3.5 0 0 1-3.5-3.5 3.5 3.5 0 0 1 3.5-3.5c.54 0 1.05.12 1.5.34V6.47L9 8.6v8.9A3.5 3.5 0 0 1 5.5 21 3.5 3.5 0 0 1 2 17.5 3.5 3.5 0 0 1 5.5 14c.54 0 1.05.12 1.5.34V6z"/>
</svg>
<svg id="pause" viewBox="0 0 24 24">
  <path d="M14 19h4V5h-4M6 19h4V5H6z"/>
</svg>
<svg id="play-box-outline" viewBox="0 0 24 24">
  <path d="M19 19H5V5h14m0-2H5a2 2 0 0 0-2 2v14a2 2 0 0 0 2 2h14a2 2 0 0 0 2-2V5a2 2 0 0 0-2-2m-9 5v8l5-4z"/>
</svg>
<svg id="play-box" viewBox="0 0 24 24">
  <path d="M19 3H5c-1.11 0-2 .89-2 2v14c0 1.1.9 2 2 2h14c1.1 0 2-.9 2-2V5a2 2 0 0 0-2-2m-9 13V8l5 4"/>
</svg>
<svg id="play-circle-outline" viewBox="0 0 24 24">
  <path d="M12 20c-4.41 0-8-3.59-8-8s3.59-8 8-8 8 3.59 8 8-3.59 8-8 8m0-18A10 10 0 0 0 2 12a10 10 0 0 0 10 10 10 10 0 0 0 10-10A10 10 0 0 0 12 2m-2 14.5 6-4.5-6-4.5z"/>
</svg>
<svg id="play-circle" viewBox="0 0 24 24">
  <path d="M10 16.5v-9l6 4.5M12 2A10 10 0 0 0 2 12a10 10 0 0 0 10 10 10 10 0 0 0 10-10A10 10 0 0 0 12 2"/>
</svg>
<svg id="play-outline" viewBox="0 0 24 24">
  <path d="M8.5 8.64 13.77 12 8.5 15.36zM6.5 5v14l11-7"/>
</svg>
<svg id="play" viewBox="0 0 24 24">
  <path d="M8 5.14v14l11-7z"/>
</svg>
<svg id="playlist-edit" viewBox="0 0 24 24">
  <path d="M2 6v2h12V6zm0 4v2h12v-2zm18.04.13c-.14 0-.28.06-.39.17l-1 1 2.05 2.05 1-1c.22-.21.22-.56 0-.77l-1.28-1.28a.533.533 0 0 0-.38-.17m-1.97 1.75L12 17.94V20h2.06l6.06-6.07zM2 14v2h8v-2z"/>
</svg>
<svg id="playlist-music-outline" viewBox="0 0 24 24">
  <path d="M15 6v2H3V6zm0 4v2H3v-2zM3 16v-2h8v2zM17 6h5v2h-3v9a3 3 0 0 1-3 3 3 3 0 0 1-3-3 3 3 0 0 1 3-3c.35 0 .69.07 1 .18zm-1 10a1 1 0 0 0-1 1 1 1 0 0 0 1 1 1 1 0 0 0 1-1 1 1 0 0 0-1-1"/>
</svg>
<svg id="playlist-music" viewBox="0 0 24 24">
  <path d="M15 6H3v2h12zm0 4H3v2h12zM3 16h8v-2H3zM17 6v8.18c-.31-.11-.65-.18-1-.18a3 3 0 0 0-3 3 3 3 0 0 0 3 3 3 3 0 0 0 3-3V8h3V6z"/>
</svg>
<svg id="playlist-play" viewBox="0 0 24 24">
  <path d="M19 9H2v2h17zm0-4H2v2h17zM2 15h13v-2H2zm15-2v6l5-3z"/>
</svg>
<svg id="poll" viewBox="0 0 24 24">
  <path d="M3 22V8h4v14zm7 0V2h4v20zm7 0v-8h4v8z"/>
</svg>
<svg id="radio" xml:space="preserve" style="enable-background:new 0 0 317.533 317.533" viewBox="0 0 317.533 317.533">
  <path d="m281.653 76.69-56.086-32.747V0L82.682 83.359v29.779l-46.917 28.103v136.777l67.397 39.515 178.606-104.059zM97.682 91.975l112.886-65.857v10.338L97.682 104.145zm0 29.66 112.886-67.69v15.263l-112.886 65.65zm-15 8.994v12.951l-13.188 7.67a7.48 7.48 0 0 0-.583.38l-10.716-6.318zm13.083 165.218-45-26.416V158.453l45 26.425zM83.692 160.346l156.074-90.768 19.472 11.347-156.022 90.877zm27.073 135.422V184.832L266.65 93.971l.111 110.889z"/>
  <path d="M158.272 170.374c-6.007-3.307-12.927-2.84-19.481 1.314-13.917 8.82-24.818 34.847-24.818 59.251 0 16.632 5.067 28.958 13.903 33.818 2.645 1.456 5.468 2.18 8.357 2.18 3.673 0 7.455-1.17 11.123-3.494 13.917-8.82 24.819-34.847 24.819-59.252.001-16.63-5.067-28.957-13.903-33.817m-19.481 79.555c-1.442.915-2.521 1.189-3.203.811-1.445-.795-3.34-3.678-4.517-8.861 1.407.135 2.939-.266 4.544-1.282 6.86-4.35 12.422-18.184 12.422-30.903 0-9.755-3.273-16.013-7.894-16.44 2.316-3.714 4.804-6.523 7.213-8.05 1.023-.648 1.863-.974 2.51-.974.264 0 .496.055.694.163 2.257 1.242 5.615 7.54 5.615 19.8.001 20.459-9.16 40.525-17.384 45.736M250.062 114.21c-6.008-3.306-12.928-2.838-19.481 1.314-13.917 8.821-24.818 34.848-24.818 59.251 0 16.632 5.067 28.958 13.903 33.819 2.646 1.455 5.468 2.18 8.358 2.18 3.673 0 7.455-1.171 11.123-3.495 13.917-8.82 24.818-34.848 24.818-59.252 0-16.631-5.068-28.957-13.903-33.817m-19.481 79.556c-1.442.915-2.521 1.184-3.203.811-1.446-.796-3.341-3.679-4.518-8.861 1.408.134 2.939-.267 4.544-1.283 6.86-4.349 12.422-18.184 12.422-30.903 0-9.755-3.273-16.013-7.893-16.44 2.315-3.713 4.804-6.523 7.213-8.05 1.023-.648 1.863-.974 2.51-.974.264 0 .496.055.694.163 2.257 1.242 5.615 7.54 5.615 19.8 0 20.459-9.162 40.525-17.384 45.737m-55.177 38.355 28.429-16.535v-38.903l-28.429 16.538zm0-60.21 28.429-16.535v-13.61l-28.429 16.538z"/>
</svg>
<svg id="record-player" viewBox="0 0 24 24">
  <path d="M5 17.5a.5.5 0 0 1-.5.5h-1a.5.5 0 0 1-.5-.5V17H2a1 1 0 0 1-1-1v-3a1 1 0 0 1 1-1h17v-2H7l-1 1V9a1 1 0 0 1 1-1h12V7h2v1a1 1 0 0 1 1 1v1h-1v2h1a1 1 0 0 1 1 1v3a1 1 0 0 1-1 1h-1v.5a.5.5 0 0 1-.5.5h-1a.5.5 0 0 1-.5-.5V17H5zM3 14v1h2v-1zm3 0v1h2v-1zm14.5-.5a1 1 0 0 0-1 1 1 1 0 0 0 1 1 1 1 0 0 0 1-1 1 1 0 0 0-1-1"/>
</svg>
<svg id="record" viewBox="0 0 24 24">
  <path d="M12 11a1 1 0 0 0-1 1 1 1 0 0 0 1 1 1 1 0 0 0 1-1 1 1 0 0 0-1-1m0 5.5c-2.5 0-4.5-2-4.5-4.5s2-4.5 4.5-4.5 4.5 2 4.5 4.5-2 4.5-4.5 4.5M12 2A10 10 0 0 0 2 12a10 10 0 0 0 10 10 10 10 0 0 0 10-10A10 10 0 0 0 12 2"/>
</svg>
<svg id="reload" viewBox="0 0 24 24">
  <path d="M2 12a9 9 0 0 0 9 9c2.39 0 4.68-.94 6.4-2.6l-1.5-1.5A6.706 6.706 0 0 1 11 19c-6.24 0-9.36-7.54-4.95-11.95C10.46 2.64 18 5.77 18 12h-3l4 4h.1l3.9-4h-3a9 9 0 0 0-18 0"/>
</svg>
<svg id="repeat-off" viewBox="0 0 24 24">
  <path d="M2 5.27 3.28 4 20 20.72 18.73 22l-3-3H7v3l-4-4 4-4v3h6.73L7 10.27V11H5V8.27zM17 13h2v4.18l-2-2zm0-8V2l4 4-4 4V7H8.82l-2-2z"/>
</svg>
<svg id="repeat-once" viewBox="0 0 24 24">
  <path d="M13 15V9h-1l-2 1v1h1.5v4m5.5 2H7v-3l-4 4 4 4v-3h12v-6h-2M7 7h10v3l4-4-4-4v3H5v6h2z"/>
</svg>
<svg id="repeat" viewBox="0 0 24 24">
  <path d="M17 17H7v-3l-4 4 4 4v-3h12v-6h-2M7 7h10v3l4-4-4-4v3H5v6h2z"/>
</svg>
<svg id="shuffle-variant" viewBox="0 0 24 24">
  <path d="m17 3 5.25 4.5L17 12l5.25 4.5L17 21v-3h-2.74l-2.82-2.82 2.12-2.12L15.5 15H17V9h-1.5l-9 9H2v-3h3.26l9-9H17zM2 6h4.5l2.82 2.82-2.12 2.12L5.26 9H2z"/>
</svg>
<svg id="skip-next" viewBox="0 0 24 24">
  <path d="M16 18h2V6h-2M6 18l8.5-6L6 6z"/>
</svg>
<svg id="skip-previous" viewBox="0 0 24 24">
  <path d="M6 18V6h2v12zm3.5-6L18 6v12z"/>
</svg>
<svg id="stop" viewBox="0 0 24 24">
  <path d="M18 18H6V6h12z"/>
</svg>
<svg id="tune-vertical" viewBox="0 0 24 24">
  <path d="M7 3H5v6h2zm12 0h-2v10h2zM3 13h2v8h2v-8h2v-2H3zm12-6h-2V3h-2v4H9v2h6zm-4 14h2V11h-2zm4-6v2h2v4h2v-4h2v-2z"/>
</svg>
<svg id="tune" viewBox="0 0 24 24">
  <path d="M3 17v2h6v-2zM3 5v2h10V5zm10 16v-2h8v-2h-8v-2h-2v6zM7 9v2H3v2h4v2h2V9zm14 4v-2H11v2zm-6-4h2V7h4V5h-4V3h-2z"/>
</svg>
<svg id="volume-high" viewBox="0 0 24 24">
  <path d="M14 3.23v2.06c2.89.86 5 3.54 5 6.71s-2.11 5.84-5 6.7v2.07c4-.91 7-4.49 7-8.77 0-4.28-3-7.86-7-8.77M16.5 12c0-1.77-1-3.29-2.5-4.03V16c1.5-.71 2.5-2.24 2.5-4M3 9v6h4l5 5V4L7 9z"/>
</svg>
<svg id="volume-low" viewBox="0 0 24 24">
  <path d="M7 9v6h4l5 5V4l-5 5z"/>
</svg>
<svg id="volume-medium" viewBox="0 0 24 24">
  <path d="M5 9v6h4l5 5V4L9 9m9.5 3c0-1.77-1-3.29-2.5-4.03V16c1.5-.71 2.5-2.24 2.5-4"/>
</svg>
<svg id="volume-variant-off" viewBox="0 0 24 24">
  <path d="m5.64 3.64 15.72 15.72-1.41 1.42L16 16.83V20l-5-5H7V9h1.17L4.22 5.05zM16 4v7.17l-3.59-3.59z"/>
</svg>
<svg id="waveform" viewBox="0 0 24 24">
  <path d="m22 12-2 1-1 1-1-1-1 3-1-3-1 8-1-8-1 2-1-2-1 4-1-4-1 9-1-9-1 6-1-6-1 1-1-1-2-1 2-1 1-1 1 1 1-6 1 6 1-9 1 9 1-4 1 4 1-2 1 2 1-8 1 8 1-3 1 3 1-1 1 1z"/>
</svg>
</defs></svg>