<?xml version="1.0" encoding="UTF-8" standalone="no"?>
<!DOCTYPE svg PUBLIC "-//W3C//DTD SVG 1.1//EN"
 "http://www.w3.org/Graphics/SVG/1.1/DTD/svg11.dtd">
<!-- Generated by graphviz version 2.47.0 (20210316.0004)
 -->
<!-- Title: dependencies Pages: 1 -->
<svg width="749pt" height="211pt"
 viewBox="0.00 0.00 749.00 211.00" xmlns="http://www.w3.org/2000/svg" xmlns:xlink="http://www.w3.org/1999/xlink">
<g id="graph0" class="graph" transform="scale(1 1) rotate(0) translate(4 207)">
<title>dependencies</title>
<polygon fill="white" stroke="transparent" points="-4,4 -4,-207 745,-207 745,4 -4,4"/>
<text text-anchor="start" x="349.51" y="-42.4" font-family="Times-12" font-weight="bold" font-size="14.00">Legend</text>
<polygon fill="#ffffb3" stroke="transparent" points="136.5,-10 136.5,-30 156.5,-30 156.5,-10 136.5,-10"/>
<text text-anchor="start" x="160.13" y="-15.4" font-family="Times-12" font-size="14.00"> &#160;Declarations</text>
<polygon fill="#8dd3c7" stroke="transparent" points="249.5,-10 249.5,-30 269.5,-30 269.5,-10 249.5,-10"/>
<text text-anchor="start" x="273.23" y="-15.4" font-family="Times-12" font-size="14.00"> &#160;Module</text>
<polygon fill="#80b1d3" stroke="transparent" points="335.5,-10 335.5,-30 355.5,-30 355.5,-10 335.5,-10"/>
<text text-anchor="start" x="359.28" y="-15.4" font-family="Times-12" font-size="14.00"> &#160;Bootstrap</text>
<polygon fill="#fdb462" stroke="transparent" points="432.5,-10 432.5,-30 452.5,-30 452.5,-10 432.5,-10"/>
<text text-anchor="start" x="456.17" y="-15.4" font-family="Times-12" font-size="14.00"> &#160;Providers</text>
<polygon fill="#fb8072" stroke="transparent" points="528.5,-10 528.5,-30 548.5,-30 548.5,-10 528.5,-10"/>
<text text-anchor="start" x="552.23" y="-15.4" font-family="Times-12" font-size="14.00"> &#160;Exports</text>
<g id="clust1" class="cluster">
<title>cluster_SettingsModule</title>
<polygon fill="none" stroke="black" stroke-dasharray="1,5" points="8,-70 8,-195 733,-195 733,-70 8,-70"/>
</g>
<g id="clust3" class="cluster">
<title>cluster_SettingsModule_imports</title>
<polygon fill="none" stroke="black" points="16,-78 16,-130 725,-130 725,-78 16,-78"/>
</g>
<!-- MetadataSettingsComponent -->
<g id="node1" class="node">
<title>MetadataSettingsComponent</title>
<polygon fill="#8dd3c7" stroke="black" points="717.03,-122 714.03,-126 693.03,-126 690.03,-122 538.97,-122 538.97,-86 717.03,-86 717.03,-122"/>
<text text-anchor="middle" x="628" y="-99.8" font-family="Times,serif" font-size="14.00">MetadataSettingsComponent</text>
</g>
<!-- SettingsModule -->
<g id="node5" class="node">
<title>SettingsModule</title>
<polygon fill="#8dd3c7" stroke="black" points="427.16,-187 424.16,-191 403.16,-191 400.16,-187 322.84,-187 322.84,-151 427.16,-151 427.16,-187"/>
<text text-anchor="middle" x="375" y="-164.8" font-family="Times,serif" font-size="14.00">SettingsModule</text>
</g>
<!-- MetadataSettingsComponent&#45;&gt;SettingsModule -->
<g id="edge1" class="edge">
<title>MetadataSettingsComponent&#45;&gt;SettingsModule</title>
<path fill="none" stroke="black" d="M628,-122.11C628,-141.34 628,-169 628,-169 628,-169 437.42,-169 437.42,-169"/>
<polygon fill="black" stroke="black" points="437.42,-165.5 427.42,-169 437.42,-172.5 437.42,-165.5"/>
</g>
<!-- SettingsComponent -->
<g id="node2" class="node">
<title>SettingsComponent</title>
<polygon fill="#8dd3c7" stroke="black" points="521.45,-122 518.45,-126 497.45,-126 494.45,-122 394.55,-122 394.55,-86 521.45,-86 521.45,-122"/>
<text text-anchor="middle" x="458" y="-99.8" font-family="Times,serif" font-size="14.00">SettingsComponent</text>
</g>
<!-- SettingsComponent&#45;&gt;SettingsModule -->
<g id="edge2" class="edge">
<title>SettingsComponent&#45;&gt;SettingsModule</title>
<path fill="none" stroke="black" d="M411.05,-122.11C411.05,-122.11 411.05,-140.99 411.05,-140.99"/>
<polygon fill="black" stroke="black" points="407.55,-140.99 411.05,-150.99 414.55,-140.99 407.55,-140.99"/>
</g>
<!-- StorageSettingsComponent -->
<g id="node3" class="node">
<title>StorageSettingsComponent</title>
<polygon fill="#8dd3c7" stroke="black" points="376.71,-122 373.71,-126 352.71,-126 349.71,-122 207.29,-122 207.29,-86 376.71,-86 376.71,-122"/>
<text text-anchor="middle" x="292" y="-99.8" font-family="Times,serif" font-size="14.00">StorageSettingsComponent</text>
</g>
<!-- StorageSettingsComponent&#45;&gt;SettingsModule -->
<g id="edge3" class="edge">
<title>StorageSettingsComponent&#45;&gt;SettingsModule</title>
<path fill="none" stroke="black" d="M349.64,-122.11C349.64,-122.11 349.64,-140.99 349.64,-140.99"/>
<polygon fill="black" stroke="black" points="346.14,-140.99 349.64,-150.99 353.14,-140.99 346.14,-140.99"/>
</g>
<!-- ThemeSettingsComponent -->
<g id="node4" class="node">
<title>ThemeSettingsComponent</title>
<polygon fill="#8dd3c7" stroke="black" points="189.82,-122 186.82,-126 165.82,-126 162.82,-122 24.18,-122 24.18,-86 189.82,-86 189.82,-122"/>
<text text-anchor="middle" x="107" y="-99.8" font-family="Times,serif" font-size="14.00">ThemeSettingsComponent</text>
</g>
<!-- ThemeSettingsComponent&#45;&gt;SettingsModule -->
<g id="edge4" class="edge">
<title>ThemeSettingsComponent&#45;&gt;SettingsModule</title>
<path fill="none" stroke="black" d="M107,-122.11C107,-141.34 107,-169 107,-169 107,-169 312.69,-169 312.69,-169"/>
<polygon fill="black" stroke="black" points="312.69,-172.5 322.69,-169 312.69,-165.5 312.69,-172.5"/>
</g>
</g>
</svg>
