<svg xmlns="http://www.w3.org/2000/svg" xmlns:xlink="http://www.w3.org/1999/xlink" width="200pt" height="247pt" viewBox="0 0 200 246.8"><g id="graph0" class="graph" transform="scale(1 1) rotate(0) translate(4 242.8)"><title>dependencies</title><polygon fill="#fff" stroke="transparent" points="-4 4 -4 -242.8 196 -242.8 196 4 -4 4"/><text x="96" y="-8.2" font-family="sans-serif" font-size="14" text-anchor="middle">dependencies</text><g id="clust1" class="cluster"><title>cluster_SlidePanelModule</title><polygon fill="none" stroke="#000" stroke-dasharray="1 5" points="8 -32.8 8 -230.8 184 -230.8 184 -32.8 8 -32.8"/></g><g id="clust5" class="cluster"><title>cluster_SlidePanelModule_exports</title><polygon fill="none" stroke="#000" points="16 -170.8 16 -222.8 176 -222.8 176 -170.8 16 -170.8"/></g><g id="clust2" class="cluster"><title>cluster_SlidePanelModule_declarations</title><polygon fill="none" stroke="#000" points="17 -40.8 17 -92.8 175 -92.8 175 -40.8 17 -40.8"/></g><g id="node1" class="node"><title>SlidePanelComponent</title><polygon fill="#ffffb3" stroke="#000" points="166.71 -84.8 25.29 -84.8 25.29 -48.8 166.71 -48.8 166.71 -84.8"/><text x="96" y="-62.6" font-family="Times,serif" font-size="14" text-anchor="middle">SlidePanelComponent</text></g><g id="node2" class="node"><title>SlidePanelModule</title><polygon fill="#8dd3c7" stroke="#000" points="155.94 -149.8 152.94 -153.8 131.94 -153.8 128.94 -149.8 36.06 -149.8 36.06 -113.8 155.94 -113.8 155.94 -149.8"/><text x="96" y="-127.6" font-family="Times,serif" font-size="14" text-anchor="middle">SlidePanelModule</text></g><g id="edge1" class="edge"><title>SlidePanelComponent-&gt;SlidePanelModule</title><path fill="none" stroke="#000" d="M96,-84.91C96,-84.91 96,-103.79 96,-103.79"/><polygon fill="#000" stroke="#000" points="92.5 -103.79 96 -113.79 99.5 -103.79 92.5 -103.79"/></g><g id="node3" class="node"><title>SlidePanelComponent</title><polygon fill="#fb8072" stroke="#000" points="168.21 -214.8 23.79 -214.8 23.79 -178.8 168.21 -178.8 168.21 -214.8"/><text x="96" y="-192.6" font-family="Times,serif" font-size="14" text-anchor="middle">SlidePanelComponent</text></g><g id="edge2" class="edge"><title>SlidePanelModule-&gt;SlidePanelComponent</title><path fill="none" stroke="#000" stroke-dasharray="5 2" d="M96,-149.91C96,-149.91 96,-168.79 96,-168.79"/><polygon fill="#000" stroke="#000" points="92.5 -168.79 96 -178.79 99.5 -168.79 92.5 -168.79"/></g></g></svg>