<?xml version="1.0" encoding="UTF-8" standalone="no"?>
<!DOCTYPE svg PUBLIC "-//W3C//DTD SVG 1.1//EN"
 "http://www.w3.org/Graphics/SVG/1.1/DTD/svg11.dtd">
<!-- Generated by graphviz version 5.0.0 (20220707.1540)
 -->
<!-- Title: dependencies Pages: 1 -->
<svg width="3785pt" height="321pt"
 viewBox="0.00 0.00 3785.00 320.80" xmlns="http://www.w3.org/2000/svg" xmlns:xlink="http://www.w3.org/1999/xlink">
<g id="graph0" class="graph" transform="scale(1 1) rotate(0) translate(4 316.8)">
<title>dependencies</title>
<polygon fill="white" stroke="transparent" points="-4,4 -4,-316.8 3781,-316.8 3781,4 -4,4"/>
<text text-anchor="middle" x="1888.5" y="-8.2" font-family="sans-serif" font-size="14.00">dependencies</text>
<g id="clust1" class="cluster">
<title>cluster_AppModule</title>
<polygon fill="none" stroke="black" stroke-dasharray="1,5" points="8,-100.8 8,-304.8 737,-304.8 737,-100.8 8,-100.8"/>
</g>
<g id="clust2" class="cluster">
<title>cluster_AppModule_declarations</title>
<polygon fill="none" stroke="black" points="202,-108.8 202,-160.8 452,-160.8 452,-108.8 202,-108.8"/>
</g>
<g id="clust5" class="cluster">
<title>cluster_AppModule_imports</title>
<polygon fill="none" stroke="black" points="460,-108.8 460,-160.8 729,-160.8 729,-108.8 460,-108.8"/>
</g>
<g id="clust7" class="cluster">
<title>cluster_AppModule_bootstrap</title>
<polygon fill="none" stroke="black" points="329,-244.8 329,-296.8 453,-296.8 453,-244.8 329,-244.8"/>
</g>
<g id="clust8" class="cluster">
<title>cluster_AppModule_providers</title>
<polygon fill="none" stroke="black" points="16,-108.8 16,-160.8 194,-160.8 194,-108.8 16,-108.8"/>
</g>
<g id="clust9" class="cluster">
<title>cluster_DialogsModule</title>
<polygon fill="none" stroke="black" stroke-dasharray="1,5" points="745,-168.8 745,-236.8 1125,-236.8 1125,-168.8 745,-168.8"/>
</g>
<g id="clust10" class="cluster">
<title>cluster_DialogsModule_declarations</title>
<polygon fill="none" stroke="black" points="941,-176.8 941,-228.8 1117,-228.8 1117,-176.8 941,-176.8"/>
</g>
<g id="clust13" class="cluster">
<title>cluster_DialogsModule_exports</title>
<polygon fill="none" stroke="black" points="753,-176.8 753,-228.8 933,-228.8 933,-176.8 753,-176.8"/>
</g>
<g id="clust16" class="cluster">
<title>cluster_HotkeysModule</title>
<polygon fill="none" stroke="black" stroke-dasharray="1,5" points="1201,-32.8 1201,-160.8 1427,-160.8 1427,-32.8 1201,-32.8"/>
</g>
<g id="clust17" class="cluster">
<title>cluster_HotkeysModule_declarations</title>
<polygon fill="none" stroke="black" points="1209,-40.8 1209,-92.8 1419,-92.8 1419,-40.8 1209,-40.8"/>
</g>
<g id="clust23" class="cluster">
<title>cluster_MatIconSizeModule</title>
<polygon fill="none" stroke="black" stroke-dasharray="1,5" points="1133,-168.8 1133,-236.8 1427,-236.8 1427,-168.8 1133,-168.8"/>
</g>
<g id="clust24" class="cluster">
<title>cluster_MatIconSizeModule_declarations</title>
<polygon fill="none" stroke="black" points="1285,-176.8 1285,-228.8 1419,-228.8 1419,-176.8 1285,-176.8"/>
</g>
<g id="clust27" class="cluster">
<title>cluster_MatIconSizeModule_exports</title>
<polygon fill="none" stroke="black" points="1141,-176.8 1141,-228.8 1277,-228.8 1277,-176.8 1141,-176.8"/>
</g>
<g id="clust30" class="cluster">
<title>cluster_PlayerModule</title>
<polygon fill="none" stroke="black" stroke-dasharray="1,5" points="1435,-100.8 1435,-228.8 3036,-228.8 3036,-100.8 1435,-100.8"/>
</g>
<g id="clust31" class="cluster">
<title>cluster_PlayerModule_declarations</title>
<polygon fill="none" stroke="black" points="1443,-108.8 1443,-160.8 2690,-160.8 2690,-108.8 1443,-108.8"/>
</g>
<g id="clust41" class="cluster">
<title>cluster_PlayerModule_imports</title>
<polygon fill="none" stroke="black" points="2698,-108.8 2698,-160.8 3028,-160.8 3028,-108.8 2698,-108.8"/>
</g>
<g id="clust45" class="cluster">
<title>cluster_SettingsModule</title>
<polygon fill="none" stroke="black" stroke-dasharray="1,5" points="3044,-32.8 3044,-160.8 3769,-160.8 3769,-32.8 3044,-32.8"/>
</g>
<g id="clust46" class="cluster">
<title>cluster_SettingsModule_declarations</title>
<polygon fill="none" stroke="black" points="3052,-40.8 3052,-92.8 3761,-92.8 3761,-40.8 3052,-40.8"/>
</g>
<g id="clust55" class="cluster">
<title>cluster_SlidePanelModule</title>
<polygon fill="none" stroke="black" stroke-dasharray="1,5" points="3044,-168.8 3044,-236.8 3386,-236.8 3386,-168.8 3044,-168.8"/>
</g>
<g id="clust56" class="cluster">
<title>cluster_SlidePanelModule_declarations</title>
<polygon fill="none" stroke="black" points="3220,-176.8 3220,-228.8 3378,-228.8 3378,-176.8 3220,-176.8"/>
</g>
<g id="clust59" class="cluster">
<title>cluster_SlidePanelModule_exports</title>
<polygon fill="none" stroke="black" points="3052,-176.8 3052,-228.8 3212,-228.8 3212,-176.8 3052,-176.8"/>
</g>
<!-- AppComponent -->
<g id="node1" class="node">
<title>AppComponent</title>
<polygon fill="#ffffb3" stroke="black" points="443.94,-152.8 338.06,-152.8 338.06,-116.8 443.94,-116.8 443.94,-152.8"/>
<text text-anchor="middle" x="391" y="-130.6" font-family="Times,serif" font-size="14.00">AppComponent</text>
</g>
<!-- AppModule -->
<g id="node3" class="node">
<title>AppModule</title>
<polygon fill="#8dd3c7" stroke="black" points="432.66,-220.8 429.66,-224.8 408.66,-224.8 405.66,-220.8 349.34,-220.8 349.34,-184.8 432.66,-184.8 432.66,-220.8"/>
<text text-anchor="middle" x="391" y="-198.6" font-family="Times,serif" font-size="14.00">AppModule</text>
</g>
<!-- AppComponent&#45;&gt;AppModule -->
<g id="edge1" class="edge">
<title>AppComponent&#45;&gt;AppModule</title>
<path fill="none" stroke="black" d="M391,-153.02C391,-153.02 391,-174.53 391,-174.53"/>
<polygon fill="black" stroke="black" points="387.5,-174.53 391,-184.53 394.5,-174.53 387.5,-174.53"/>
</g>
<!-- ShellComponent -->
<g id="node2" class="node">
<title>ShellComponent</title>
<polygon fill="#ffffb3" stroke="black" points="320.11,-152.8 209.89,-152.8 209.89,-116.8 320.11,-116.8 320.11,-152.8"/>
<text text-anchor="middle" x="265" y="-130.6" font-family="Times,serif" font-size="14.00">ShellComponent</text>
</g>
<!-- ShellComponent&#45;&gt;AppModule -->
<g id="edge2" class="edge">
<title>ShellComponent&#45;&gt;AppModule</title>
<path fill="none" stroke="black" d="M265,-153.07C265,-171.36 265,-196.8 265,-196.8 265,-196.8 339.04,-196.8 339.04,-196.8"/>
<polygon fill="black" stroke="black" points="339.04,-200.3 349.04,-196.8 339.04,-193.3 339.04,-200.3"/>
</g>
<!-- AppComponent  -->
<g id="node6" class="node">
<title>AppComponent </title>
<polygon fill="#80b1d3" stroke="black" points="445.44,-288.8 336.56,-288.8 336.56,-252.8 445.44,-252.8 445.44,-288.8"/>
<text text-anchor="middle" x="391" y="-266.6" font-family="Times,serif" font-size="14.00">AppComponent </text>
</g>
<!-- AppModule&#45;&gt;AppComponent  -->
<g id="edge5" class="edge">
<title>AppModule&#45;&gt;AppComponent </title>
<path fill="none" stroke="black" stroke-dasharray="1,5" d="M391,-221.02C391,-221.02 391,-242.53 391,-242.53"/>
<polygon fill="black" stroke="black" points="387.5,-242.53 391,-252.53 394.5,-242.53 387.5,-242.53"/>
</g>
<!-- DialogsModule -->
<g id="node4" class="node">
<title>DialogsModule</title>
<polygon fill="#8dd3c7" stroke="black" points="571.6,-152.8 568.6,-156.8 547.6,-156.8 544.6,-152.8 468.4,-152.8 468.4,-116.8 571.6,-116.8 571.6,-152.8"/>
<text text-anchor="middle" x="520" y="-130.6" font-family="Times,serif" font-size="14.00">DialogsModule</text>
</g>
<!-- DialogsModule&#45;&gt;AppModule -->
<g id="edge3" class="edge">
<title>DialogsModule&#45;&gt;AppModule</title>
<path fill="none" stroke="black" d="M520,-153.02C520,-173.17 520,-202.8 520,-202.8 520,-202.8 442.88,-202.8 442.88,-202.8"/>
<polygon fill="black" stroke="black" points="442.88,-199.3 432.88,-202.8 442.88,-206.3 442.88,-199.3"/>
</g>
<!-- PromptDialogComponent  -->
<g id="node9" class="node">
<title>PromptDialogComponent </title>
<polygon fill="#fb8072" stroke="black" points="925.16,-220.8 760.84,-220.8 760.84,-184.8 925.16,-184.8 925.16,-220.8"/>
<text text-anchor="middle" x="843" y="-198.6" font-family="Times,serif" font-size="14.00">PromptDialogComponent </text>
</g>
<!-- DialogsModule&#45;&gt;PromptDialogComponent  -->
<g id="edge8" class="edge">
<title>DialogsModule&#45;&gt;PromptDialogComponent </title>
<path fill="none" stroke="black" stroke-dasharray="5,2" d="M545.78,-152.82C545.78,-170.17 545.78,-193.8 545.78,-193.8 545.78,-193.8 750.6,-193.8 750.6,-193.8"/>
<polygon fill="black" stroke="black" points="750.6,-197.3 760.6,-193.8 750.6,-190.3 750.6,-197.3"/>
</g>
<!-- MatIconSizeModule -->
<g id="node5" class="node">
<title>MatIconSizeModule</title>
<polygon fill="#8dd3c7" stroke="black" points="720.58,-152.8 717.58,-156.8 696.58,-156.8 693.58,-152.8 589.42,-152.8 589.42,-116.8 720.58,-116.8 720.58,-152.8"/>
<text text-anchor="middle" x="655" y="-130.6" font-family="Times,serif" font-size="14.00">MatIconSizeModule</text>
</g>
<!-- MatIconSizeModule&#45;&gt;AppModule -->
<g id="edge4" class="edge">
<title>MatIconSizeModule&#45;&gt;AppModule</title>
<path fill="none" stroke="black" d="M676.85,-153.05C676.85,-175.82 676.85,-211.8 676.85,-211.8 676.85,-211.8 442.87,-211.8 442.87,-211.8"/>
<polygon fill="black" stroke="black" points="442.87,-208.3 432.87,-211.8 442.87,-215.3 442.87,-208.3"/>
</g>
<!-- IconSizeDirective  -->
<g id="node13" class="node">
<title>IconSizeDirective </title>
<polygon fill="#fb8072" stroke="black" points="1269.06,-220.8 1148.94,-220.8 1148.94,-184.8 1269.06,-184.8 1269.06,-220.8"/>
<text text-anchor="middle" x="1209" y="-198.6" font-family="Times,serif" font-size="14.00">IconSizeDirective </text>
</g>
<!-- MatIconSizeModule&#45;&gt;IconSizeDirective  -->
<g id="edge11" class="edge">
<title>MatIconSizeModule&#45;&gt;IconSizeDirective </title>
<path fill="none" stroke="black" stroke-dasharray="5,2" d="M720.54,-140.8C861.95,-140.8 1183.03,-140.8 1183.03,-140.8 1183.03,-140.8 1183.03,-174.53 1183.03,-174.53"/>
<polygon fill="black" stroke="black" points="1179.53,-174.53 1183.03,-184.53 1186.53,-174.53 1179.53,-174.53"/>
</g>
<!-- PlayerModule -->
<g id="node23" class="node">
<title>PlayerModule</title>
<polygon fill="#8dd3c7" stroke="black" points="2071.82,-220.8 2068.82,-224.8 2047.82,-224.8 2044.82,-220.8 1976.18,-220.8 1976.18,-184.8 2071.82,-184.8 2071.82,-220.8"/>
<text text-anchor="middle" x="2024" y="-198.6" font-family="Times,serif" font-size="14.00">PlayerModule</text>
</g>
<!-- MatIconSizeModule&#45;&gt;PlayerModule -->
<g id="edge23" class="edge">
<title>MatIconSizeModule&#45;&gt;PlayerModule</title>
<path fill="none" stroke="black" d="M633.15,-153C633.15,-158.83 633.15,-163.8 633.15,-163.8 633.15,-163.8 2008.11,-163.8 2008.11,-163.8 2008.11,-163.8 2008.11,-174.67 2008.11,-174.67"/>
<polygon fill="black" stroke="black" points="2004.61,-174.67 2008.11,-184.67 2011.61,-174.67 2004.61,-174.67"/>
</g>
<!-- LoaderInterceptor -->
<g id="node7" class="node">
<title>LoaderInterceptor</title>
<ellipse fill="#fdb462" stroke="black" cx="105" cy="-134.8" rx="80.98" ry="18"/>
<text text-anchor="middle" x="105" y="-130.6" font-family="Times,serif" font-size="14.00">LoaderInterceptor</text>
</g>
<!-- LoaderInterceptor&#45;&gt;AppModule -->
<g id="edge6" class="edge">
<title>LoaderInterceptor&#45;&gt;AppModule</title>
<path fill="none" stroke="black" d="M105,-153.09C105,-175.01 105,-208.8 105,-208.8 105,-208.8 339.11,-208.8 339.11,-208.8"/>
<polygon fill="black" stroke="black" points="339.11,-212.3 349.11,-208.8 339.11,-205.3 339.11,-212.3"/>
</g>
<!-- PromptDialogComponent -->
<g id="node8" class="node">
<title>PromptDialogComponent</title>
<polygon fill="#ffffb3" stroke="black" points="1109.16,-220.8 948.84,-220.8 948.84,-184.8 1109.16,-184.8 1109.16,-220.8"/>
<text text-anchor="middle" x="1029" y="-198.6" font-family="Times,serif" font-size="14.00">PromptDialogComponent</text>
</g>
<!-- PromptDialogComponent&#45;&gt;DialogsModule -->
<g id="edge7" class="edge">
<title>PromptDialogComponent&#45;&gt;DialogsModule</title>
<path fill="none" stroke="black" d="M1029,-184.59C1029,-179.25 1029,-174.8 1029,-174.8 1029,-174.8 494.22,-174.8 494.22,-174.8 494.22,-174.8 494.22,-162.93 494.22,-162.93"/>
<polygon fill="black" stroke="black" points="497.72,-162.93 494.22,-152.93 490.72,-162.93 497.72,-162.93"/>
</g>
<!-- HotkeysHelpDialogComponent -->
<g id="node10" class="node">
<title>HotkeysHelpDialogComponent</title>
<polygon fill="#ffffb3" stroke="black" points="1410.81,-84.8 1217.19,-84.8 1217.19,-48.8 1410.81,-48.8 1410.81,-84.8"/>
<text text-anchor="middle" x="1314" y="-62.6" font-family="Times,serif" font-size="14.00">HotkeysHelpDialogComponent</text>
</g>
<!-- HotkeysModule -->
<g id="node11" class="node">
<title>HotkeysModule</title>
<polygon fill="#8dd3c7" stroke="black" points="1393.21,-152.8 1390.21,-156.8 1369.21,-156.8 1366.21,-152.8 1286.79,-152.8 1286.79,-116.8 1393.21,-116.8 1393.21,-152.8"/>
<text text-anchor="middle" x="1340" y="-130.6" font-family="Times,serif" font-size="14.00">HotkeysModule</text>
</g>
<!-- HotkeysHelpDialogComponent&#45;&gt;HotkeysModule -->
<g id="edge9" class="edge">
<title>HotkeysHelpDialogComponent&#45;&gt;HotkeysModule</title>
<path fill="none" stroke="black" d="M1340,-85.02C1340,-85.02 1340,-106.53 1340,-106.53"/>
<polygon fill="black" stroke="black" points="1336.5,-106.53 1340,-116.53 1343.5,-106.53 1336.5,-106.53"/>
</g>
<!-- HotkeysModule&#45;&gt;PlayerModule -->
<g id="edge22" class="edge">
<title>HotkeysModule&#45;&gt;PlayerModule</title>
<path fill="none" stroke="black" d="M1393.35,-134.8C1413.11,-134.8 1430.81,-134.8 1430.81,-134.8 1430.81,-134.8 1430.81,-214.8 1430.81,-214.8 1430.81,-214.8 1966.21,-214.8 1966.21,-214.8"/>
<polygon fill="black" stroke="black" points="1966.21,-218.3 1976.21,-214.8 1966.21,-211.3 1966.21,-218.3"/>
</g>
<!-- IconSizeDirective -->
<g id="node12" class="node">
<title>IconSizeDirective</title>
<polygon fill="#ffffb3" stroke="black" points="1410.56,-220.8 1293.44,-220.8 1293.44,-184.8 1410.56,-184.8 1410.56,-220.8"/>
<text text-anchor="middle" x="1352" y="-198.6" font-family="Times,serif" font-size="14.00">IconSizeDirective</text>
</g>
<!-- IconSizeDirective&#45;&gt;MatIconSizeModule -->
<g id="edge10" class="edge">
<title>IconSizeDirective&#45;&gt;MatIconSizeModule</title>
<path fill="none" stroke="black" d="M1293.4,-202.8C1284.43,-202.8 1278.09,-202.8 1278.09,-202.8 1278.09,-202.8 1278.09,-128.8 1278.09,-128.8 1278.09,-128.8 730.8,-128.8 730.8,-128.8"/>
<polygon fill="black" stroke="black" points="730.8,-125.3 720.8,-128.8 730.8,-132.3 730.8,-125.3"/>
</g>
<!-- BandPipe -->
<g id="node14" class="node">
<title>BandPipe</title>
<polygon fill="#ffffb3" stroke="black" points="2682.44,-152.8 2611.56,-152.8 2611.56,-116.8 2682.44,-116.8 2682.44,-152.8"/>
<text text-anchor="middle" x="2647" y="-130.6" font-family="Times,serif" font-size="14.00">BandPipe</text>
</g>
<!-- BandPipe&#45;&gt;PlayerModule -->
<g id="edge12" class="edge">
<title>BandPipe&#45;&gt;PlayerModule</title>
<path fill="none" stroke="black" d="M2647,-152.84C2647,-174.46 2647,-207.8 2647,-207.8 2647,-207.8 2081.85,-207.8 2081.85,-207.8"/>
<polygon fill="black" stroke="black" points="2081.85,-204.3 2071.85,-207.8 2081.85,-211.3 2081.85,-204.3"/>
</g>
<!-- CoverDisplayComponent -->
<g id="node15" class="node">
<title>CoverDisplayComponent</title>
<polygon fill="#ffffb3" stroke="black" points="2593.6,-152.8 2434.4,-152.8 2434.4,-116.8 2593.6,-116.8 2593.6,-152.8"/>
<text text-anchor="middle" x="2514" y="-130.6" font-family="Times,serif" font-size="14.00">CoverDisplayComponent</text>
</g>
<!-- CoverDisplayComponent&#45;&gt;PlayerModule -->
<g id="edge13" class="edge">
<title>CoverDisplayComponent&#45;&gt;PlayerModule</title>
<path fill="none" stroke="black" d="M2514,-153.02C2514,-173.17 2514,-202.8 2514,-202.8 2514,-202.8 2081.88,-202.8 2081.88,-202.8"/>
<polygon fill="black" stroke="black" points="2081.88,-199.3 2071.88,-202.8 2081.88,-206.3 2081.88,-199.3"/>
</g>
<!-- EqualizerComponent -->
<g id="node16" class="node">
<title>EqualizerComponent</title>
<polygon fill="#ffffb3" stroke="black" points="2416.47,-152.8 2281.53,-152.8 2281.53,-116.8 2416.47,-116.8 2416.47,-152.8"/>
<text text-anchor="middle" x="2349" y="-130.6" font-family="Times,serif" font-size="14.00">EqualizerComponent</text>
</g>
<!-- EqualizerComponent&#45;&gt;PlayerModule -->
<g id="edge14" class="edge">
<title>EqualizerComponent&#45;&gt;PlayerModule</title>
<path fill="none" stroke="black" d="M2349,-152.97C2349,-171.89 2349,-198.8 2349,-198.8 2349,-198.8 2081.95,-198.8 2081.95,-198.8"/>
<polygon fill="black" stroke="black" points="2081.95,-195.3 2071.95,-198.8 2081.95,-202.3 2081.95,-195.3"/>
</g>
<!-- EqualizerShellComponent -->
<g id="node17" class="node">
<title>EqualizerShellComponent</title>
<polygon fill="#ffffb3" stroke="black" points="2263.75,-152.8 2100.25,-152.8 2100.25,-116.8 2263.75,-116.8 2263.75,-152.8"/>
<text text-anchor="middle" x="2182" y="-130.6" font-family="Times,serif" font-size="14.00">EqualizerShellComponent</text>
</g>
<!-- EqualizerShellComponent&#45;&gt;PlayerModule -->
<g id="edge15" class="edge">
<title>EqualizerShellComponent&#45;&gt;PlayerModule</title>
<path fill="none" stroke="black" d="M2182,-152.82C2182,-170.17 2182,-193.8 2182,-193.8 2182,-193.8 2081.83,-193.8 2081.83,-193.8"/>
<polygon fill="black" stroke="black" points="2081.83,-190.3 2071.83,-193.8 2081.83,-197.3 2081.83,-190.3"/>
</g>
<!-- PlayerComponent -->
<g id="node18" class="node">
<title>PlayerComponent</title>
<polygon fill="#ffffb3" stroke="black" points="2082.6,-152.8 1965.4,-152.8 1965.4,-116.8 2082.6,-116.8 2082.6,-152.8"/>
<text text-anchor="middle" x="2024" y="-130.6" font-family="Times,serif" font-size="14.00">PlayerComponent</text>
</g>
<!-- PlayerComponent&#45;&gt;PlayerModule -->
<g id="edge16" class="edge">
<title>PlayerComponent&#45;&gt;PlayerModule</title>
<path fill="none" stroke="black" d="M2039.89,-153.02C2039.89,-153.02 2039.89,-174.53 2039.89,-174.53"/>
<polygon fill="black" stroke="black" points="2036.39,-174.53 2039.89,-184.53 2043.39,-174.53 2036.39,-174.53"/>
</g>
<!-- PlaylistComponent -->
<g id="node19" class="node">
<title>PlaylistComponent</title>
<polygon fill="#ffffb3" stroke="black" points="1947.84,-152.8 1824.16,-152.8 1824.16,-116.8 1947.84,-116.8 1947.84,-152.8"/>
<text text-anchor="middle" x="1886" y="-130.6" font-family="Times,serif" font-size="14.00">PlaylistComponent</text>
</g>
<!-- PlaylistComponent&#45;&gt;PlayerModule -->
<g id="edge17" class="edge">
<title>PlaylistComponent&#45;&gt;PlayerModule</title>
<path fill="none" stroke="black" d="M1886,-152.83C1886,-169.2 1886,-190.8 1886,-190.8 1886,-190.8 1966.12,-190.8 1966.12,-190.8"/>
<polygon fill="black" stroke="black" points="1966.12,-194.3 1976.12,-190.8 1966.12,-187.3 1966.12,-194.3"/>
</g>
<!-- TimePipe -->
<g id="node20" class="node">
<title>TimePipe</title>
<polygon fill="#ffffb3" stroke="black" points="1806.44,-152.8 1735.56,-152.8 1735.56,-116.8 1806.44,-116.8 1806.44,-152.8"/>
<text text-anchor="middle" x="1771" y="-130.6" font-family="Times,serif" font-size="14.00">TimePipe</text>
</g>
<!-- TimePipe&#45;&gt;PlayerModule -->
<g id="edge18" class="edge">
<title>TimePipe&#45;&gt;PlayerModule</title>
<path fill="none" stroke="black" d="M1771,-153.07C1771,-171.36 1771,-196.8 1771,-196.8 1771,-196.8 1966.12,-196.8 1966.12,-196.8"/>
<polygon fill="black" stroke="black" points="1966.12,-200.3 1976.12,-196.8 1966.12,-193.3 1966.12,-200.3"/>
</g>
<!-- VisualizerComponent -->
<g id="node21" class="node">
<title>VisualizerComponent</title>
<polygon fill="#ffffb3" stroke="black" points="1717.36,-152.8 1578.64,-152.8 1578.64,-116.8 1717.36,-116.8 1717.36,-152.8"/>
<text text-anchor="middle" x="1648" y="-130.6" font-family="Times,serif" font-size="14.00">VisualizerComponent</text>
</g>
<!-- VisualizerComponent&#45;&gt;PlayerModule -->
<g id="edge19" class="edge">
<title>VisualizerComponent&#45;&gt;PlayerModule</title>
<path fill="none" stroke="black" d="M1648,-153.02C1648,-173.17 1648,-202.8 1648,-202.8 1648,-202.8 1966,-202.8 1966,-202.8"/>
<polygon fill="black" stroke="black" points="1966,-206.3 1976,-202.8 1966,-199.3 1966,-206.3"/>
</g>
<!-- VisualsDirective -->
<g id="node22" class="node">
<title>VisualsDirective</title>
<polygon fill="#ffffb3" stroke="black" points="1561.08,-152.8 1450.92,-152.8 1450.92,-116.8 1561.08,-116.8 1561.08,-152.8"/>
<text text-anchor="middle" x="1506" y="-130.6" font-family="Times,serif" font-size="14.00">VisualsDirective</text>
</g>
<!-- VisualsDirective&#45;&gt;PlayerModule -->
<g id="edge20" class="edge">
<title>VisualsDirective&#45;&gt;PlayerModule</title>
<path fill="none" stroke="black" d="M1506,-153.09C1506,-175.01 1506,-208.8 1506,-208.8 1506,-208.8 1966.2,-208.8 1966.2,-208.8"/>
<polygon fill="black" stroke="black" points="1966.2,-212.3 1976.2,-208.8 1966.2,-205.3 1966.2,-212.3"/>
</g>
<!-- FileDropOverlayComponent -->
<g id="node24" class="node">
<title>FileDropOverlayComponent</title>
<polygon fill="#8dd3c7" stroke="black" points="2882.47,-152.8 2879.47,-156.8 2858.47,-156.8 2855.47,-152.8 2705.53,-152.8 2705.53,-116.8 2882.47,-116.8 2882.47,-152.8"/>
<text text-anchor="middle" x="2794" y="-130.6" font-family="Times,serif" font-size="14.00">FileDropOverlayComponent</text>
</g>
<!-- FileDropOverlayComponent&#45;&gt;PlayerModule -->
<g id="edge21" class="edge">
<title>FileDropOverlayComponent&#45;&gt;PlayerModule</title>
<path fill="none" stroke="black" d="M2794,-153.05C2794,-175.82 2794,-211.8 2794,-211.8 2794,-211.8 2081.88,-211.8 2081.88,-211.8"/>
<polygon fill="black" stroke="black" points="2081.88,-208.3 2071.88,-211.8 2081.88,-215.3 2081.88,-208.3"/>
</g>
<!-- SlidePanelModule -->
<g id="node25" class="node">
<title>SlidePanelModule</title>
<polygon fill="#8dd3c7" stroke="black" points="3019.94,-152.8 3016.94,-156.8 2995.94,-156.8 2992.94,-152.8 2900.06,-152.8 2900.06,-116.8 3019.94,-116.8 3019.94,-152.8"/>
<text text-anchor="middle" x="2960" y="-130.6" font-family="Times,serif" font-size="14.00">SlidePanelModule</text>
</g>
<!-- SlidePanelModule&#45;&gt;PlayerModule -->
<g id="edge24" class="edge">
<title>SlidePanelModule&#45;&gt;PlayerModule</title>
<path fill="none" stroke="black" d="M2940.09,-153C2940.09,-177.16 2940.09,-216.8 2940.09,-216.8 2940.09,-216.8 2081.96,-216.8 2081.96,-216.8"/>
<polygon fill="black" stroke="black" points="2081.96,-213.3 2071.96,-216.8 2081.96,-220.3 2081.96,-213.3"/>
</g>
<!-- SlidePanelComponent  -->
<g id="node32" class="node">
<title>SlidePanelComponent </title>
<polygon fill="#fb8072" stroke="black" points="3204.21,-220.8 3059.79,-220.8 3059.79,-184.8 3204.21,-184.8 3204.21,-220.8"/>
<text text-anchor="middle" x="3132" y="-198.6" font-family="Times,serif" font-size="14.00">SlidePanelComponent </text>
</g>
<!-- SlidePanelModule&#45;&gt;SlidePanelComponent  -->
<g id="edge30" class="edge">
<title>SlidePanelModule&#45;&gt;SlidePanelComponent </title>
<path fill="none" stroke="black" stroke-dasharray="5,2" d="M2979.91,-152.81C2979.91,-168.85 2979.91,-189.8 2979.91,-189.8 2979.91,-189.8 3049.52,-189.8 3049.52,-189.8"/>
<polygon fill="black" stroke="black" points="3049.52,-193.3 3059.52,-189.8 3049.52,-186.3 3049.52,-193.3"/>
</g>
<!-- MetadataSettingsComponent -->
<g id="node26" class="node">
<title>MetadataSettingsComponent</title>
<polygon fill="#ffffb3" stroke="black" points="3382.03,-84.8 3203.97,-84.8 3203.97,-48.8 3382.03,-48.8 3382.03,-84.8"/>
<text text-anchor="middle" x="3293" y="-62.6" font-family="Times,serif" font-size="14.00">MetadataSettingsComponent</text>
</g>
<!-- SettingsModule -->
<g id="node30" class="node">
<title>SettingsModule</title>
<polygon fill="#8dd3c7" stroke="black" points="3440.17,-152.8 3437.17,-156.8 3416.17,-156.8 3413.17,-152.8 3335.83,-152.8 3335.83,-116.8 3440.17,-116.8 3440.17,-152.8"/>
<text text-anchor="middle" x="3388" y="-130.6" font-family="Times,serif" font-size="14.00">SettingsModule</text>
</g>
<!-- MetadataSettingsComponent&#45;&gt;SettingsModule -->
<g id="edge25" class="edge">
<title>MetadataSettingsComponent&#45;&gt;SettingsModule</title>
<path fill="none" stroke="black" d="M3358.97,-85.02C3358.97,-85.02 3358.97,-106.53 3358.97,-106.53"/>
<polygon fill="black" stroke="black" points="3355.47,-106.53 3358.97,-116.53 3362.47,-106.53 3355.47,-106.53"/>
</g>
<!-- SettingsComponent -->
<g id="node27" class="node">
<title>SettingsComponent</title>
<polygon fill="#ffffb3" stroke="black" points="3186.45,-84.8 3059.55,-84.8 3059.55,-48.8 3186.45,-48.8 3186.45,-84.8"/>
<text text-anchor="middle" x="3123" y="-62.6" font-family="Times,serif" font-size="14.00">SettingsComponent</text>
</g>
<!-- SettingsComponent&#45;&gt;SettingsModule -->
<g id="edge26" class="edge">
<title>SettingsComponent&#45;&gt;SettingsModule</title>
<path fill="none" stroke="black" d="M3123,-85.07C3123,-103.36 3123,-128.8 3123,-128.8 3123,-128.8 3325.64,-128.8 3325.64,-128.8"/>
<polygon fill="black" stroke="black" points="3325.64,-132.3 3335.64,-128.8 3325.64,-125.3 3325.64,-132.3"/>
</g>
<!-- StorageSettingsComponent -->
<g id="node28" class="node">
<title>StorageSettingsComponent</title>
<polygon fill="#ffffb3" stroke="black" points="3752.71,-84.8 3583.29,-84.8 3583.29,-48.8 3752.71,-48.8 3752.71,-84.8"/>
<text text-anchor="middle" x="3668" y="-62.6" font-family="Times,serif" font-size="14.00">StorageSettingsComponent</text>
</g>
<!-- StorageSettingsComponent&#45;&gt;SettingsModule -->
<g id="edge27" class="edge">
<title>StorageSettingsComponent&#45;&gt;SettingsModule</title>
<path fill="none" stroke="black" d="M3668,-85.02C3668,-105.17 3668,-134.8 3668,-134.8 3668,-134.8 3450.34,-134.8 3450.34,-134.8"/>
<polygon fill="black" stroke="black" points="3450.34,-131.3 3440.34,-134.8 3450.34,-138.3 3450.34,-131.3"/>
</g>
<!-- ThemeSettingsComponent -->
<g id="node29" class="node">
<title>ThemeSettingsComponent</title>
<polygon fill="#ffffb3" stroke="black" points="3565.82,-84.8 3400.18,-84.8 3400.18,-48.8 3565.82,-48.8 3565.82,-84.8"/>
<text text-anchor="middle" x="3483" y="-62.6" font-family="Times,serif" font-size="14.00">ThemeSettingsComponent</text>
</g>
<!-- ThemeSettingsComponent&#45;&gt;SettingsModule -->
<g id="edge28" class="edge">
<title>ThemeSettingsComponent&#45;&gt;SettingsModule</title>
<path fill="none" stroke="black" d="M3420.34,-85.02C3420.34,-85.02 3420.34,-106.53 3420.34,-106.53"/>
<polygon fill="black" stroke="black" points="3416.84,-106.53 3420.34,-116.53 3423.84,-106.53 3416.84,-106.53"/>
</g>
<!-- SlidePanelComponent -->
<g id="node31" class="node">
<title>SlidePanelComponent</title>
<polygon fill="#ffffb3" stroke="black" points="3369.71,-220.8 3228.29,-220.8 3228.29,-184.8 3369.71,-184.8 3369.71,-220.8"/>
<text text-anchor="middle" x="3299" y="-198.6" font-family="Times,serif" font-size="14.00">SlidePanelComponent</text>
</g>
<!-- SlidePanelComponent&#45;&gt;SlidePanelModule -->
<g id="edge29" class="edge">
<title>SlidePanelComponent&#45;&gt;SlidePanelModule</title>
<path fill="none" stroke="black" d="M3282.03,-184.53C3282.03,-166.24 3282.03,-140.8 3282.03,-140.8 3282.03,-140.8 3029.82,-140.8 3029.82,-140.8"/>
<polygon fill="black" stroke="black" points="3029.82,-137.3 3019.82,-140.8 3029.82,-144.3 3029.82,-137.3"/>
</g>
</g>
</svg>
