<?xml version="1.0" encoding="UTF-8" standalone="no"?>
<!DOCTYPE svg PUBLIC "-//W3C//DTD SVG 1.1//EN"
 "http://www.w3.org/Graphics/SVG/1.1/DTD/svg11.dtd">
<!-- Generated by graphviz version 5.0.0 (20220707.1540)
 -->
<!-- Title: dependencies Pages: 1 -->
<svg width="3212pt" height="250pt"
 viewBox="0.00 0.00 3212.00 249.80" xmlns="http://www.w3.org/2000/svg" xmlns:xlink="http://www.w3.org/1999/xlink">
<g id="graph0" class="graph" transform="scale(1 1) rotate(0) translate(4 245.8)">
<title>dependencies</title>
<polygon fill="white" stroke="transparent" points="-4,4 -4,-245.8 3208,-245.8 3208,4 -4,4"/>
<text text-anchor="middle" x="1602" y="-8.2" font-family="sans-serif" font-size="14.00">dependencies</text>
<g id="clust1" class="cluster">
<title>cluster_AppModule</title>
<polygon fill="none" stroke="black" stroke-dasharray="1,5" points="8,-32.8 8,-233.8 644,-233.8 644,-32.8 8,-32.8"/>
</g>
<g id="clust2" class="cluster">
<title>cluster_AppModule_declarations</title>
<polygon fill="none" stroke="black" points="514,-40.8 514,-92.8 636,-92.8 636,-40.8 514,-40.8"/>
</g>
<g id="clust4" class="cluster">
<title>cluster_AppModule_imports</title>
<polygon fill="none" stroke="black" points="202,-40.8 202,-92.8 506,-92.8 506,-40.8 202,-40.8"/>
</g>
<g id="clust6" class="cluster">
<title>cluster_AppModule_bootstrap</title>
<polygon fill="none" stroke="black" points="279,-173.8 279,-225.8 403,-225.8 403,-173.8 279,-173.8"/>
</g>
<g id="clust7" class="cluster">
<title>cluster_AppModule_providers</title>
<polygon fill="none" stroke="black" points="16,-40.8 16,-92.8 194,-92.8 194,-40.8 16,-40.8"/>
</g>
<g id="clust8" class="cluster">
<title>cluster_HotkeysModule</title>
<polygon fill="none" stroke="black" stroke-dasharray="1,5" points="652,-32.8 652,-160.8 878,-160.8 878,-32.8 652,-32.8"/>
</g>
<g id="clust10" class="cluster">
<title>cluster_HotkeysModule_imports</title>
<polygon fill="none" stroke="black" points="660,-40.8 660,-92.8 870,-92.8 870,-40.8 660,-40.8"/>
</g>
<g id="clust14" class="cluster">
<title>cluster_PlayerModule</title>
<polygon fill="none" stroke="black" stroke-dasharray="1,5" points="886,-100.8 886,-225.8 2463,-225.8 2463,-100.8 886,-100.8"/>
</g>
<g id="clust16" class="cluster">
<title>cluster_PlayerModule_imports</title>
<polygon fill="none" stroke="black" points="894,-108.8 894,-160.8 2455,-160.8 2455,-108.8 894,-108.8"/>
</g>
<g id="clust20" class="cluster">
<title>cluster_SettingsModule</title>
<polygon fill="none" stroke="black" stroke-dasharray="1,5" points="2471,-32.8 2471,-160.8 3196,-160.8 3196,-32.8 2471,-32.8"/>
</g>
<g id="clust22" class="cluster">
<title>cluster_SettingsModule_imports</title>
<polygon fill="none" stroke="black" points="2479,-40.8 2479,-92.8 3188,-92.8 3188,-40.8 2479,-40.8"/>
</g>
<!-- AppComponent -->
<g id="node1" class="node">
<title>AppComponent</title>
<polygon fill="#ffffb3" stroke="black" points="627.94,-84.8 522.06,-84.8 522.06,-48.8 627.94,-48.8 627.94,-84.8"/>
<text text-anchor="middle" x="575" y="-62.6" font-family="Times,serif" font-size="14.00">AppComponent</text>
</g>
<!-- AppModule -->
<g id="node2" class="node">
<title>AppModule</title>
<polygon fill="#8dd3c7" stroke="black" points="382.66,-152.8 379.66,-156.8 358.66,-156.8 355.66,-152.8 299.34,-152.8 299.34,-116.8 382.66,-116.8 382.66,-152.8"/>
<text text-anchor="middle" x="341" y="-130.6" font-family="Times,serif" font-size="14.00">AppModule</text>
</g>
<!-- AppComponent&#45;&gt;AppModule -->
<g id="edge1" class="edge">
<title>AppComponent&#45;&gt;AppModule</title>
<path fill="none" stroke="black" d="M575,-85.02C575,-105.17 575,-134.8 575,-134.8 575,-134.8 392.83,-134.8 392.83,-134.8"/>
<polygon fill="black" stroke="black" points="392.83,-131.3 382.83,-134.8 392.83,-138.3 392.83,-131.3"/>
</g>
<!-- AppComponent  -->
<g id="node5" class="node">
<title>AppComponent </title>
<polygon fill="#80b1d3" stroke="black" points="395.44,-217.8 286.56,-217.8 286.56,-181.8 395.44,-181.8 395.44,-217.8"/>
<text text-anchor="middle" x="341" y="-195.6" font-family="Times,serif" font-size="14.00">AppComponent </text>
</g>
<!-- AppModule&#45;&gt;AppComponent  -->
<g id="edge4" class="edge">
<title>AppModule&#45;&gt;AppComponent </title>
<path fill="none" stroke="black" stroke-dasharray="1,5" d="M341,-152.91C341,-152.91 341,-171.79 341,-171.79"/>
<polygon fill="black" stroke="black" points="337.5,-171.79 341,-181.79 344.5,-171.79 337.5,-171.79"/>
</g>
<!-- PromptDialogComponent -->
<g id="node3" class="node">
<title>PromptDialogComponent</title>
<polygon fill="#8dd3c7" stroke="black" points="498.16,-84.8 495.16,-88.8 474.16,-88.8 471.16,-84.8 337.84,-84.8 337.84,-48.8 498.16,-48.8 498.16,-84.8"/>
<text text-anchor="middle" x="418" y="-62.6" font-family="Times,serif" font-size="14.00">PromptDialogComponent</text>
</g>
<!-- PromptDialogComponent&#45;&gt;AppModule -->
<g id="edge2" class="edge">
<title>PromptDialogComponent&#45;&gt;AppModule</title>
<path fill="none" stroke="black" d="M360.25,-85.02C360.25,-85.02 360.25,-106.53 360.25,-106.53"/>
<polygon fill="black" stroke="black" points="356.75,-106.53 360.25,-116.53 363.75,-106.53 356.75,-106.53"/>
</g>
<!-- ShellComponent -->
<g id="node4" class="node">
<title>ShellComponent</title>
<polygon fill="#8dd3c7" stroke="black" points="320.11,-84.8 317.11,-88.8 296.11,-88.8 293.11,-84.8 209.89,-84.8 209.89,-48.8 320.11,-48.8 320.11,-84.8"/>
<text text-anchor="middle" x="265" y="-62.6" font-family="Times,serif" font-size="14.00">ShellComponent</text>
</g>
<!-- ShellComponent&#45;&gt;AppModule -->
<g id="edge3" class="edge">
<title>ShellComponent&#45;&gt;AppModule</title>
<path fill="none" stroke="black" d="M309.61,-85.02C309.61,-85.02 309.61,-106.53 309.61,-106.53"/>
<polygon fill="black" stroke="black" points="306.11,-106.53 309.61,-116.53 313.11,-106.53 306.11,-106.53"/>
</g>
<!-- LoaderInterceptor -->
<g id="node6" class="node">
<title>LoaderInterceptor</title>
<ellipse fill="#fdb462" stroke="black" cx="105" cy="-66.8" rx="80.98" ry="18"/>
<text text-anchor="middle" x="105" y="-62.6" font-family="Times,serif" font-size="14.00">LoaderInterceptor</text>
</g>
<!-- LoaderInterceptor&#45;&gt;AppModule -->
<g id="edge5" class="edge">
<title>LoaderInterceptor&#45;&gt;AppModule</title>
<path fill="none" stroke="black" d="M105,-85.02C105,-105.17 105,-134.8 105,-134.8 105,-134.8 289.08,-134.8 289.08,-134.8"/>
<polygon fill="black" stroke="black" points="289.08,-138.3 299.08,-134.8 289.08,-131.3 289.08,-138.3"/>
</g>
<!-- HotkeysHelpDialogComponent -->
<g id="node7" class="node">
<title>HotkeysHelpDialogComponent</title>
<polygon fill="#8dd3c7" stroke="black" points="861.81,-84.8 858.81,-88.8 837.81,-88.8 834.81,-84.8 668.19,-84.8 668.19,-48.8 861.81,-48.8 861.81,-84.8"/>
<text text-anchor="middle" x="765" y="-62.6" font-family="Times,serif" font-size="14.00">HotkeysHelpDialogComponent</text>
</g>
<!-- HotkeysModule -->
<g id="node8" class="node">
<title>HotkeysModule</title>
<polygon fill="#8dd3c7" stroke="black" points="844.21,-152.8 841.21,-156.8 820.21,-156.8 817.21,-152.8 737.79,-152.8 737.79,-116.8 844.21,-116.8 844.21,-152.8"/>
<text text-anchor="middle" x="791" y="-130.6" font-family="Times,serif" font-size="14.00">HotkeysModule</text>
</g>
<!-- HotkeysHelpDialogComponent&#45;&gt;HotkeysModule -->
<g id="edge6" class="edge">
<title>HotkeysHelpDialogComponent&#45;&gt;HotkeysModule</title>
<path fill="none" stroke="black" d="M791,-85.02C791,-85.02 791,-106.53 791,-106.53"/>
<polygon fill="black" stroke="black" points="787.5,-106.53 791,-116.53 794.5,-106.53 787.5,-106.53"/>
</g>
<!-- PlayerModule -->
<g id="node20" class="node">
<title>PlayerModule</title>
<polygon fill="#8dd3c7" stroke="black" points="1612.82,-217.8 1609.82,-221.8 1588.82,-221.8 1585.82,-217.8 1517.18,-217.8 1517.18,-181.8 1612.82,-181.8 1612.82,-217.8"/>
<text text-anchor="middle" x="1565" y="-195.6" font-family="Times,serif" font-size="14.00">PlayerModule</text>
</g>
<!-- HotkeysModule&#45;&gt;PlayerModule -->
<g id="edge11" class="edge">
<title>HotkeysModule&#45;&gt;PlayerModule</title>
<path fill="none" stroke="black" d="M791,-153.05C791,-175.82 791,-211.8 791,-211.8 791,-211.8 1507.17,-211.8 1507.17,-211.8"/>
<polygon fill="black" stroke="black" points="1507.17,-215.3 1517.17,-211.8 1507.17,-208.3 1507.17,-215.3"/>
</g>
<!-- BandPipe -->
<g id="node9" class="node">
<title>BandPipe</title>
<polygon fill="#8dd3c7" stroke="black" points="2447.44,-152.8 2444.44,-156.8 2423.44,-156.8 2420.44,-152.8 2376.56,-152.8 2376.56,-116.8 2447.44,-116.8 2447.44,-152.8"/>
<text text-anchor="middle" x="2412" y="-130.6" font-family="Times,serif" font-size="14.00">BandPipe</text>
</g>
<!-- BandPipe&#45;&gt;PlayerModule -->
<g id="edge7" class="edge">
<title>BandPipe&#45;&gt;PlayerModule</title>
<path fill="none" stroke="black" d="M2412,-153.05C2412,-175.82 2412,-211.8 2412,-211.8 2412,-211.8 1622.66,-211.8 1622.66,-211.8"/>
<polygon fill="black" stroke="black" points="1622.66,-208.3 1612.66,-211.8 1622.66,-215.3 1622.66,-208.3"/>
</g>
<!-- CoverDisplayComponent -->
<g id="node10" class="node">
<title>CoverDisplayComponent</title>
<polygon fill="#8dd3c7" stroke="black" points="2358.6,-152.8 2355.6,-156.8 2334.6,-156.8 2331.6,-152.8 2199.4,-152.8 2199.4,-116.8 2358.6,-116.8 2358.6,-152.8"/>
<text text-anchor="middle" x="2279" y="-130.6" font-family="Times,serif" font-size="14.00">CoverDisplayComponent</text>
</g>
<!-- CoverDisplayComponent&#45;&gt;PlayerModule -->
<g id="edge8" class="edge">
<title>CoverDisplayComponent&#45;&gt;PlayerModule</title>
<path fill="none" stroke="black" d="M2279,-153.08C2279,-174.12 2279,-205.8 2279,-205.8 2279,-205.8 1622.68,-205.8 1622.68,-205.8"/>
<polygon fill="black" stroke="black" points="1622.68,-202.3 1612.68,-205.8 1622.68,-209.3 1622.68,-202.3"/>
</g>
<!-- EqualizerComponent -->
<g id="node11" class="node">
<title>EqualizerComponent</title>
<polygon fill="#8dd3c7" stroke="black" points="2181.47,-152.8 2178.47,-156.8 2157.47,-156.8 2154.47,-152.8 2046.53,-152.8 2046.53,-116.8 2181.47,-116.8 2181.47,-152.8"/>
<text text-anchor="middle" x="2114" y="-130.6" font-family="Times,serif" font-size="14.00">EqualizerComponent</text>
</g>
<!-- EqualizerComponent&#45;&gt;PlayerModule -->
<g id="edge9" class="edge">
<title>EqualizerComponent&#45;&gt;PlayerModule</title>
<path fill="none" stroke="black" d="M2114,-152.91C2114,-172.14 2114,-199.8 2114,-199.8 2114,-199.8 1622.76,-199.8 1622.76,-199.8"/>
<polygon fill="black" stroke="black" points="1622.76,-196.3 1612.76,-199.8 1622.76,-203.3 1622.76,-196.3"/>
</g>
<!-- FileDropOverlayComponent -->
<g id="node12" class="node">
<title>FileDropOverlayComponent</title>
<polygon fill="#8dd3c7" stroke="black" points="2028.47,-152.8 2025.47,-156.8 2004.47,-156.8 2001.47,-152.8 1851.53,-152.8 1851.53,-116.8 2028.47,-116.8 2028.47,-152.8"/>
<text text-anchor="middle" x="1940" y="-130.6" font-family="Times,serif" font-size="14.00">FileDropOverlayComponent</text>
</g>
<!-- FileDropOverlayComponent&#45;&gt;PlayerModule -->
<g id="edge10" class="edge">
<title>FileDropOverlayComponent&#45;&gt;PlayerModule</title>
<path fill="none" stroke="black" d="M1940,-152.82C1940,-170.17 1940,-193.8 1940,-193.8 1940,-193.8 1622.87,-193.8 1622.87,-193.8"/>
<polygon fill="black" stroke="black" points="1622.87,-190.3 1612.87,-193.8 1622.87,-197.3 1622.87,-190.3"/>
</g>
<!-- LibraryComponent -->
<g id="node13" class="node">
<title>LibraryComponent</title>
<polygon fill="#8dd3c7" stroke="black" points="1833.81,-152.8 1830.81,-156.8 1809.81,-156.8 1806.81,-152.8 1710.19,-152.8 1710.19,-116.8 1833.81,-116.8 1833.81,-152.8"/>
<text text-anchor="middle" x="1772" y="-130.6" font-family="Times,serif" font-size="14.00">LibraryComponent</text>
</g>
<!-- LibraryComponent&#45;&gt;PlayerModule -->
<g id="edge12" class="edge">
<title>LibraryComponent&#45;&gt;PlayerModule</title>
<path fill="none" stroke="black" d="M1772,-153.04C1772,-168.37 1772,-187.8 1772,-187.8 1772,-187.8 1622.75,-187.8 1622.75,-187.8"/>
<polygon fill="black" stroke="black" points="1622.75,-184.3 1612.75,-187.8 1622.75,-191.3 1622.75,-184.3"/>
</g>
<!-- PlayerComponent -->
<g id="node14" class="node">
<title>PlayerComponent</title>
<polygon fill="#8dd3c7" stroke="black" points="1692.6,-152.8 1689.6,-156.8 1668.6,-156.8 1665.6,-152.8 1575.4,-152.8 1575.4,-116.8 1692.6,-116.8 1692.6,-152.8"/>
<text text-anchor="middle" x="1634" y="-130.6" font-family="Times,serif" font-size="14.00">PlayerComponent</text>
</g>
<!-- PlayerComponent&#45;&gt;PlayerModule -->
<g id="edge13" class="edge">
<title>PlayerComponent&#45;&gt;PlayerModule</title>
<path fill="none" stroke="black" d="M1594.06,-152.91C1594.06,-152.91 1594.06,-171.79 1594.06,-171.79"/>
<polygon fill="black" stroke="black" points="1590.56,-171.79 1594.06,-181.79 1597.56,-171.79 1590.56,-171.79"/>
</g>
<!-- PlaylistComponent -->
<g id="node15" class="node">
<title>PlaylistComponent</title>
<polygon fill="#8dd3c7" stroke="black" points="1557.84,-152.8 1554.84,-156.8 1533.84,-156.8 1530.84,-152.8 1434.16,-152.8 1434.16,-116.8 1557.84,-116.8 1557.84,-152.8"/>
<text text-anchor="middle" x="1496" y="-130.6" font-family="Times,serif" font-size="14.00">PlaylistComponent</text>
</g>
<!-- PlaylistComponent&#45;&gt;PlayerModule -->
<g id="edge14" class="edge">
<title>PlaylistComponent&#45;&gt;PlayerModule</title>
<path fill="none" stroke="black" d="M1537.51,-152.91C1537.51,-152.91 1537.51,-171.79 1537.51,-171.79"/>
<polygon fill="black" stroke="black" points="1534.01,-171.79 1537.51,-181.79 1541.01,-171.79 1534.01,-171.79"/>
</g>
<!-- SlidePanelComponent -->
<g id="node16" class="node">
<title>SlidePanelComponent</title>
<polygon fill="#8dd3c7" stroke="black" points="1416.71,-152.8 1413.71,-156.8 1392.71,-156.8 1389.71,-152.8 1275.29,-152.8 1275.29,-116.8 1416.71,-116.8 1416.71,-152.8"/>
<text text-anchor="middle" x="1346" y="-130.6" font-family="Times,serif" font-size="14.00">SlidePanelComponent</text>
</g>
<!-- SlidePanelComponent&#45;&gt;PlayerModule -->
<g id="edge15" class="edge">
<title>SlidePanelComponent&#45;&gt;PlayerModule</title>
<path fill="none" stroke="black" d="M1346,-153.04C1346,-168.37 1346,-187.8 1346,-187.8 1346,-187.8 1507.21,-187.8 1507.21,-187.8"/>
<polygon fill="black" stroke="black" points="1507.21,-191.3 1517.21,-187.8 1507.21,-184.3 1507.21,-191.3"/>
</g>
<!-- TimePipe -->
<g id="node17" class="node">
<title>TimePipe</title>
<polygon fill="#8dd3c7" stroke="black" points="1257.44,-152.8 1254.44,-156.8 1233.44,-156.8 1230.44,-152.8 1186.56,-152.8 1186.56,-116.8 1257.44,-116.8 1257.44,-152.8"/>
<text text-anchor="middle" x="1222" y="-130.6" font-family="Times,serif" font-size="14.00">TimePipe</text>
</g>
<!-- TimePipe&#45;&gt;PlayerModule -->
<g id="edge16" class="edge">
<title>TimePipe&#45;&gt;PlayerModule</title>
<path fill="none" stroke="black" d="M1222,-152.82C1222,-170.17 1222,-193.8 1222,-193.8 1222,-193.8 1507.31,-193.8 1507.31,-193.8"/>
<polygon fill="black" stroke="black" points="1507.31,-197.3 1517.31,-193.8 1507.31,-190.3 1507.31,-197.3"/>
</g>
<!-- VisualizerComponent -->
<g id="node18" class="node">
<title>VisualizerComponent</title>
<polygon fill="#8dd3c7" stroke="black" points="1168.36,-152.8 1165.36,-156.8 1144.36,-156.8 1141.36,-152.8 1029.64,-152.8 1029.64,-116.8 1168.36,-116.8 1168.36,-152.8"/>
<text text-anchor="middle" x="1099" y="-130.6" font-family="Times,serif" font-size="14.00">VisualizerComponent</text>
</g>
<!-- VisualizerComponent&#45;&gt;PlayerModule -->
<g id="edge17" class="edge">
<title>VisualizerComponent&#45;&gt;PlayerModule</title>
<path fill="none" stroke="black" d="M1099,-152.91C1099,-172.14 1099,-199.8 1099,-199.8 1099,-199.8 1507.32,-199.8 1507.32,-199.8"/>
<polygon fill="black" stroke="black" points="1507.32,-203.3 1517.32,-199.8 1507.32,-196.3 1507.32,-203.3"/>
</g>
<!-- VisualsDirective -->
<g id="node19" class="node">
<title>VisualsDirective</title>
<polygon fill="#8dd3c7" stroke="black" points="1012.08,-152.8 1009.08,-156.8 988.08,-156.8 985.08,-152.8 901.92,-152.8 901.92,-116.8 1012.08,-116.8 1012.08,-152.8"/>
<text text-anchor="middle" x="957" y="-130.6" font-family="Times,serif" font-size="14.00">VisualsDirective</text>
</g>
<!-- VisualsDirective&#45;&gt;PlayerModule -->
<g id="edge18" class="edge">
<title>VisualsDirective&#45;&gt;PlayerModule</title>
<path fill="none" stroke="black" d="M957,-153.08C957,-174.12 957,-205.8 957,-205.8 957,-205.8 1507.29,-205.8 1507.29,-205.8"/>
<polygon fill="black" stroke="black" points="1507.29,-209.3 1517.29,-205.8 1507.29,-202.3 1507.29,-209.3"/>
</g>
<!-- MetadataSettingsComponent -->
<g id="node21" class="node">
<title>MetadataSettingsComponent</title>
<polygon fill="#8dd3c7" stroke="black" points="3180.03,-84.8 3177.03,-88.8 3156.03,-88.8 3153.03,-84.8 3001.97,-84.8 3001.97,-48.8 3180.03,-48.8 3180.03,-84.8"/>
<text text-anchor="middle" x="3091" y="-62.6" font-family="Times,serif" font-size="14.00">MetadataSettingsComponent</text>
</g>
<!-- SettingsModule -->
<g id="node25" class="node">
<title>SettingsModule</title>
<polygon fill="#8dd3c7" stroke="black" points="2890.17,-152.8 2887.17,-156.8 2866.17,-156.8 2863.17,-152.8 2785.83,-152.8 2785.83,-116.8 2890.17,-116.8 2890.17,-152.8"/>
<text text-anchor="middle" x="2838" y="-130.6" font-family="Times,serif" font-size="14.00">SettingsModule</text>
</g>
<!-- MetadataSettingsComponent&#45;&gt;SettingsModule -->
<g id="edge19" class="edge">
<title>MetadataSettingsComponent&#45;&gt;SettingsModule</title>
<path fill="none" stroke="black" d="M3091,-85.02C3091,-105.17 3091,-134.8 3091,-134.8 3091,-134.8 2900.42,-134.8 2900.42,-134.8"/>
<polygon fill="black" stroke="black" points="2900.42,-131.3 2890.42,-134.8 2900.42,-138.3 2900.42,-131.3"/>
</g>
<!-- SettingsComponent -->
<g id="node22" class="node">
<title>SettingsComponent</title>
<polygon fill="#8dd3c7" stroke="black" points="2984.45,-84.8 2981.45,-88.8 2960.45,-88.8 2957.45,-84.8 2857.55,-84.8 2857.55,-48.8 2984.45,-48.8 2984.45,-84.8"/>
<text text-anchor="middle" x="2921" y="-62.6" font-family="Times,serif" font-size="14.00">SettingsComponent</text>
</g>
<!-- SettingsComponent&#45;&gt;SettingsModule -->
<g id="edge20" class="edge">
<title>SettingsComponent&#45;&gt;SettingsModule</title>
<path fill="none" stroke="black" d="M2874.06,-85.02C2874.06,-85.02 2874.06,-106.53 2874.06,-106.53"/>
<polygon fill="black" stroke="black" points="2870.56,-106.53 2874.06,-116.53 2877.56,-106.53 2870.56,-106.53"/>
</g>
<!-- StorageSettingsComponent -->
<g id="node23" class="node">
<title>StorageSettingsComponent</title>
<polygon fill="#8dd3c7" stroke="black" points="2839.71,-84.8 2836.71,-88.8 2815.71,-88.8 2812.71,-84.8 2670.29,-84.8 2670.29,-48.8 2839.71,-48.8 2839.71,-84.8"/>
<text text-anchor="middle" x="2755" y="-62.6" font-family="Times,serif" font-size="14.00">StorageSettingsComponent</text>
</g>
<!-- StorageSettingsComponent&#45;&gt;SettingsModule -->
<g id="edge21" class="edge">
<title>StorageSettingsComponent&#45;&gt;SettingsModule</title>
<path fill="none" stroke="black" d="M2812.64,-85.02C2812.64,-85.02 2812.64,-106.53 2812.64,-106.53"/>
<polygon fill="black" stroke="black" points="2809.14,-106.53 2812.64,-116.53 2816.14,-106.53 2809.14,-106.53"/>
</g>
<!-- ThemeSettingsComponent -->
<g id="node24" class="node">
<title>ThemeSettingsComponent</title>
<polygon fill="#8dd3c7" stroke="black" points="2652.82,-84.8 2649.82,-88.8 2628.82,-88.8 2625.82,-84.8 2487.18,-84.8 2487.18,-48.8 2652.82,-48.8 2652.82,-84.8"/>
<text text-anchor="middle" x="2570" y="-62.6" font-family="Times,serif" font-size="14.00">ThemeSettingsComponent</text>
</g>
<!-- ThemeSettingsComponent&#45;&gt;SettingsModule -->
<g id="edge22" class="edge">
<title>ThemeSettingsComponent&#45;&gt;SettingsModule</title>
<path fill="none" stroke="black" d="M2570,-85.02C2570,-105.17 2570,-134.8 2570,-134.8 2570,-134.8 2775.69,-134.8 2775.69,-134.8"/>
<polygon fill="black" stroke="black" points="2775.69,-138.3 2785.69,-134.8 2775.69,-131.3 2775.69,-138.3"/>
</g>
</g>
</svg>
