<?xml version="1.0" encoding="UTF-8" standalone="no"?>
<!DOCTYPE svg PUBLIC "-//W3C//DTD SVG 1.1//EN"
 "http://www.w3.org/Graphics/SVG/1.1/DTD/svg11.dtd">
<!-- Generated by graphviz version 5.0.0 (20220707.1540)
 -->
<!-- Title: dependencies Pages: 1 -->
<svg width="2568pt" height="242pt"
 viewBox="0.00 0.00 2568.00 241.80" xmlns="http://www.w3.org/2000/svg" xmlns:xlink="http://www.w3.org/1999/xlink">
<g id="graph0" class="graph" transform="scale(1 1) rotate(0) translate(4 237.8)">
<title>dependencies</title>
<polygon fill="white" stroke="transparent" points="-4,4 -4,-237.8 2564,-237.8 2564,4 -4,4"/>
<text text-anchor="middle" x="1280" y="-8.2" font-family="sans-serif" font-size="14.00">dependencies</text>
<g id="clust1" class="cluster">
<title>cluster_HotkeysModule</title>
<polygon fill="none" stroke="black" stroke-dasharray="1,5" points="8,-32.8 8,-160.8 234,-160.8 234,-32.8 8,-32.8"/>
</g>
<g id="clust3" class="cluster">
<title>cluster_HotkeysModule_imports</title>
<polygon fill="none" stroke="black" points="16,-40.8 16,-92.8 226,-92.8 226,-40.8 16,-40.8"/>
</g>
<g id="clust7" class="cluster">
<title>cluster_PlayerModule</title>
<polygon fill="none" stroke="black" stroke-dasharray="1,5" points="242,-100.8 242,-225.8 1819,-225.8 1819,-100.8 242,-100.8"/>
</g>
<g id="clust9" class="cluster">
<title>cluster_PlayerModule_imports</title>
<polygon fill="none" stroke="black" points="250,-108.8 250,-160.8 1811,-160.8 1811,-108.8 250,-108.8"/>
</g>
<g id="clust13" class="cluster">
<title>cluster_SettingsModule</title>
<polygon fill="none" stroke="black" stroke-dasharray="1,5" points="1827,-32.8 1827,-160.8 2552,-160.8 2552,-32.8 1827,-32.8"/>
</g>
<g id="clust15" class="cluster">
<title>cluster_SettingsModule_imports</title>
<polygon fill="none" stroke="black" points="1835,-40.8 1835,-92.8 2544,-92.8 2544,-40.8 1835,-40.8"/>
</g>
<!-- HotkeysHelpDialogComponent -->
<g id="node1" class="node">
<title>HotkeysHelpDialogComponent</title>
<polygon fill="#8dd3c7" stroke="black" points="217.81,-84.8 214.81,-88.8 193.81,-88.8 190.81,-84.8 24.19,-84.8 24.19,-48.8 217.81,-48.8 217.81,-84.8"/>
<text text-anchor="middle" x="121" y="-62.6" font-family="Times,serif" font-size="14.00">HotkeysHelpDialogComponent</text>
</g>
<!-- HotkeysModule -->
<g id="node2" class="node">
<title>HotkeysModule</title>
<polygon fill="#8dd3c7" stroke="black" points="200.21,-152.8 197.21,-156.8 176.21,-156.8 173.21,-152.8 93.79,-152.8 93.79,-116.8 200.21,-116.8 200.21,-152.8"/>
<text text-anchor="middle" x="147" y="-130.6" font-family="Times,serif" font-size="14.00">HotkeysModule</text>
</g>
<!-- HotkeysHelpDialogComponent&#45;&gt;HotkeysModule -->
<g id="edge1" class="edge">
<title>HotkeysHelpDialogComponent&#45;&gt;HotkeysModule</title>
<path fill="none" stroke="black" d="M147,-85.02C147,-85.02 147,-106.53 147,-106.53"/>
<polygon fill="black" stroke="black" points="143.5,-106.53 147,-116.53 150.5,-106.53 143.5,-106.53"/>
</g>
<!-- PlayerModule -->
<g id="node14" class="node">
<title>PlayerModule</title>
<polygon fill="#8dd3c7" stroke="black" points="968.82,-217.8 965.82,-221.8 944.82,-221.8 941.82,-217.8 873.18,-217.8 873.18,-181.8 968.82,-181.8 968.82,-217.8"/>
<text text-anchor="middle" x="921" y="-195.6" font-family="Times,serif" font-size="14.00">PlayerModule</text>
</g>
<!-- HotkeysModule&#45;&gt;PlayerModule -->
<g id="edge6" class="edge">
<title>HotkeysModule&#45;&gt;PlayerModule</title>
<path fill="none" stroke="black" d="M147,-152.89C147,-175.93 147,-212.8 147,-212.8 147,-212.8 863.17,-212.8 863.17,-212.8"/>
<polygon fill="black" stroke="black" points="863.17,-216.3 873.17,-212.8 863.17,-209.3 863.17,-216.3"/>
</g>
<!-- BandPipe -->
<g id="node3" class="node">
<title>BandPipe</title>
<polygon fill="#8dd3c7" stroke="black" points="1803.44,-152.8 1800.44,-156.8 1779.44,-156.8 1776.44,-152.8 1732.56,-152.8 1732.56,-116.8 1803.44,-116.8 1803.44,-152.8"/>
<text text-anchor="middle" x="1768" y="-130.6" font-family="Times,serif" font-size="14.00">BandPipe</text>
</g>
<!-- BandPipe&#45;&gt;PlayerModule -->
<g id="edge2" class="edge">
<title>BandPipe&#45;&gt;PlayerModule</title>
<path fill="none" stroke="black" d="M1768,-152.89C1768,-175.93 1768,-212.8 1768,-212.8 1768,-212.8 978.66,-212.8 978.66,-212.8"/>
<polygon fill="black" stroke="black" points="978.66,-209.3 968.66,-212.8 978.66,-216.3 978.66,-209.3"/>
</g>
<!-- CoverDisplayComponent -->
<g id="node4" class="node">
<title>CoverDisplayComponent</title>
<polygon fill="#8dd3c7" stroke="black" points="1714.6,-152.8 1711.6,-156.8 1690.6,-156.8 1687.6,-152.8 1555.4,-152.8 1555.4,-116.8 1714.6,-116.8 1714.6,-152.8"/>
<text text-anchor="middle" x="1635" y="-130.6" font-family="Times,serif" font-size="14.00">CoverDisplayComponent</text>
</g>
<!-- CoverDisplayComponent&#45;&gt;PlayerModule -->
<g id="edge3" class="edge">
<title>CoverDisplayComponent&#45;&gt;PlayerModule</title>
<path fill="none" stroke="black" d="M1635,-153.08C1635,-174.12 1635,-205.8 1635,-205.8 1635,-205.8 978.68,-205.8 978.68,-205.8"/>
<polygon fill="black" stroke="black" points="978.68,-202.3 968.68,-205.8 978.68,-209.3 978.68,-202.3"/>
</g>
<!-- EqualizerComponent -->
<g id="node5" class="node">
<title>EqualizerComponent</title>
<polygon fill="#8dd3c7" stroke="black" points="1537.47,-152.8 1534.47,-156.8 1513.47,-156.8 1510.47,-152.8 1402.53,-152.8 1402.53,-116.8 1537.47,-116.8 1537.47,-152.8"/>
<text text-anchor="middle" x="1470" y="-130.6" font-family="Times,serif" font-size="14.00">EqualizerComponent</text>
</g>
<!-- EqualizerComponent&#45;&gt;PlayerModule -->
<g id="edge4" class="edge">
<title>EqualizerComponent&#45;&gt;PlayerModule</title>
<path fill="none" stroke="black" d="M1470,-152.91C1470,-172.14 1470,-199.8 1470,-199.8 1470,-199.8 978.76,-199.8 978.76,-199.8"/>
<polygon fill="black" stroke="black" points="978.76,-196.3 968.76,-199.8 978.76,-203.3 978.76,-196.3"/>
</g>
<!-- FileDropOverlayComponent -->
<g id="node6" class="node">
<title>FileDropOverlayComponent</title>
<polygon fill="#8dd3c7" stroke="black" points="1384.47,-152.8 1381.47,-156.8 1360.47,-156.8 1357.47,-152.8 1207.53,-152.8 1207.53,-116.8 1384.47,-116.8 1384.47,-152.8"/>
<text text-anchor="middle" x="1296" y="-130.6" font-family="Times,serif" font-size="14.00">FileDropOverlayComponent</text>
</g>
<!-- FileDropOverlayComponent&#45;&gt;PlayerModule -->
<g id="edge5" class="edge">
<title>FileDropOverlayComponent&#45;&gt;PlayerModule</title>
<path fill="none" stroke="black" d="M1296,-152.82C1296,-170.17 1296,-193.8 1296,-193.8 1296,-193.8 978.87,-193.8 978.87,-193.8"/>
<polygon fill="black" stroke="black" points="978.87,-190.3 968.87,-193.8 978.87,-197.3 978.87,-190.3"/>
</g>
<!-- LibraryComponent -->
<g id="node7" class="node">
<title>LibraryComponent</title>
<polygon fill="#8dd3c7" stroke="black" points="1189.81,-152.8 1186.81,-156.8 1165.81,-156.8 1162.81,-152.8 1066.19,-152.8 1066.19,-116.8 1189.81,-116.8 1189.81,-152.8"/>
<text text-anchor="middle" x="1128" y="-130.6" font-family="Times,serif" font-size="14.00">LibraryComponent</text>
</g>
<!-- LibraryComponent&#45;&gt;PlayerModule -->
<g id="edge7" class="edge">
<title>LibraryComponent&#45;&gt;PlayerModule</title>
<path fill="none" stroke="black" d="M1128,-153.04C1128,-168.37 1128,-187.8 1128,-187.8 1128,-187.8 978.75,-187.8 978.75,-187.8"/>
<polygon fill="black" stroke="black" points="978.75,-184.3 968.75,-187.8 978.75,-191.3 978.75,-184.3"/>
</g>
<!-- PlayerComponent -->
<g id="node8" class="node">
<title>PlayerComponent</title>
<polygon fill="#8dd3c7" stroke="black" points="1048.6,-152.8 1045.6,-156.8 1024.6,-156.8 1021.6,-152.8 931.4,-152.8 931.4,-116.8 1048.6,-116.8 1048.6,-152.8"/>
<text text-anchor="middle" x="990" y="-130.6" font-family="Times,serif" font-size="14.00">PlayerComponent</text>
</g>
<!-- PlayerComponent&#45;&gt;PlayerModule -->
<g id="edge8" class="edge">
<title>PlayerComponent&#45;&gt;PlayerModule</title>
<path fill="none" stroke="black" d="M950.06,-152.91C950.06,-152.91 950.06,-171.79 950.06,-171.79"/>
<polygon fill="black" stroke="black" points="946.56,-171.79 950.06,-181.79 953.56,-171.79 946.56,-171.79"/>
</g>
<!-- PlaylistComponent -->
<g id="node9" class="node">
<title>PlaylistComponent</title>
<polygon fill="#8dd3c7" stroke="black" points="913.84,-152.8 910.84,-156.8 889.84,-156.8 886.84,-152.8 790.16,-152.8 790.16,-116.8 913.84,-116.8 913.84,-152.8"/>
<text text-anchor="middle" x="852" y="-130.6" font-family="Times,serif" font-size="14.00">PlaylistComponent</text>
</g>
<!-- PlaylistComponent&#45;&gt;PlayerModule -->
<g id="edge9" class="edge">
<title>PlaylistComponent&#45;&gt;PlayerModule</title>
<path fill="none" stroke="black" d="M893.51,-152.91C893.51,-152.91 893.51,-171.79 893.51,-171.79"/>
<polygon fill="black" stroke="black" points="890.01,-171.79 893.51,-181.79 897.01,-171.79 890.01,-171.79"/>
</g>
<!-- SlidePanelComponent -->
<g id="node10" class="node">
<title>SlidePanelComponent</title>
<polygon fill="#8dd3c7" stroke="black" points="772.71,-152.8 769.71,-156.8 748.71,-156.8 745.71,-152.8 631.29,-152.8 631.29,-116.8 772.71,-116.8 772.71,-152.8"/>
<text text-anchor="middle" x="702" y="-130.6" font-family="Times,serif" font-size="14.00">SlidePanelComponent</text>
</g>
<!-- SlidePanelComponent&#45;&gt;PlayerModule -->
<g id="edge10" class="edge">
<title>SlidePanelComponent&#45;&gt;PlayerModule</title>
<path fill="none" stroke="black" d="M702,-153.04C702,-168.37 702,-187.8 702,-187.8 702,-187.8 863.21,-187.8 863.21,-187.8"/>
<polygon fill="black" stroke="black" points="863.21,-191.3 873.21,-187.8 863.21,-184.3 863.21,-191.3"/>
</g>
<!-- TimePipe -->
<g id="node11" class="node">
<title>TimePipe</title>
<polygon fill="#8dd3c7" stroke="black" points="613.44,-152.8 610.44,-156.8 589.44,-156.8 586.44,-152.8 542.56,-152.8 542.56,-116.8 613.44,-116.8 613.44,-152.8"/>
<text text-anchor="middle" x="578" y="-130.6" font-family="Times,serif" font-size="14.00">TimePipe</text>
</g>
<!-- TimePipe&#45;&gt;PlayerModule -->
<g id="edge11" class="edge">
<title>TimePipe&#45;&gt;PlayerModule</title>
<path fill="none" stroke="black" d="M578,-152.82C578,-170.17 578,-193.8 578,-193.8 578,-193.8 863.31,-193.8 863.31,-193.8"/>
<polygon fill="black" stroke="black" points="863.31,-197.3 873.31,-193.8 863.31,-190.3 863.31,-197.3"/>
</g>
<!-- VisualizerComponent -->
<g id="node12" class="node">
<title>VisualizerComponent</title>
<polygon fill="#8dd3c7" stroke="black" points="524.36,-152.8 521.36,-156.8 500.36,-156.8 497.36,-152.8 385.64,-152.8 385.64,-116.8 524.36,-116.8 524.36,-152.8"/>
<text text-anchor="middle" x="455" y="-130.6" font-family="Times,serif" font-size="14.00">VisualizerComponent</text>
</g>
<!-- VisualizerComponent&#45;&gt;PlayerModule -->
<g id="edge12" class="edge">
<title>VisualizerComponent&#45;&gt;PlayerModule</title>
<path fill="none" stroke="black" d="M455,-152.91C455,-172.14 455,-199.8 455,-199.8 455,-199.8 863.32,-199.8 863.32,-199.8"/>
<polygon fill="black" stroke="black" points="863.32,-203.3 873.32,-199.8 863.32,-196.3 863.32,-203.3"/>
</g>
<!-- VisualsDirective -->
<g id="node13" class="node">
<title>VisualsDirective</title>
<polygon fill="#8dd3c7" stroke="black" points="368.08,-152.8 365.08,-156.8 344.08,-156.8 341.08,-152.8 257.92,-152.8 257.92,-116.8 368.08,-116.8 368.08,-152.8"/>
<text text-anchor="middle" x="313" y="-130.6" font-family="Times,serif" font-size="14.00">VisualsDirective</text>
</g>
<!-- VisualsDirective&#45;&gt;PlayerModule -->
<g id="edge13" class="edge">
<title>VisualsDirective&#45;&gt;PlayerModule</title>
<path fill="none" stroke="black" d="M313,-153.08C313,-174.12 313,-205.8 313,-205.8 313,-205.8 863.29,-205.8 863.29,-205.8"/>
<polygon fill="black" stroke="black" points="863.29,-209.3 873.29,-205.8 863.29,-202.3 863.29,-209.3"/>
</g>
<!-- MetadataSettingsComponent -->
<g id="node15" class="node">
<title>MetadataSettingsComponent</title>
<polygon fill="#8dd3c7" stroke="black" points="2536.03,-84.8 2533.03,-88.8 2512.03,-88.8 2509.03,-84.8 2357.97,-84.8 2357.97,-48.8 2536.03,-48.8 2536.03,-84.8"/>
<text text-anchor="middle" x="2447" y="-62.6" font-family="Times,serif" font-size="14.00">MetadataSettingsComponent</text>
</g>
<!-- SettingsModule -->
<g id="node19" class="node">
<title>SettingsModule</title>
<polygon fill="#8dd3c7" stroke="black" points="2246.17,-152.8 2243.17,-156.8 2222.17,-156.8 2219.17,-152.8 2141.83,-152.8 2141.83,-116.8 2246.17,-116.8 2246.17,-152.8"/>
<text text-anchor="middle" x="2194" y="-130.6" font-family="Times,serif" font-size="14.00">SettingsModule</text>
</g>
<!-- MetadataSettingsComponent&#45;&gt;SettingsModule -->
<g id="edge14" class="edge">
<title>MetadataSettingsComponent&#45;&gt;SettingsModule</title>
<path fill="none" stroke="black" d="M2447,-85.02C2447,-105.17 2447,-134.8 2447,-134.8 2447,-134.8 2256.42,-134.8 2256.42,-134.8"/>
<polygon fill="black" stroke="black" points="2256.42,-131.3 2246.42,-134.8 2256.42,-138.3 2256.42,-131.3"/>
</g>
<!-- SettingsComponent -->
<g id="node16" class="node">
<title>SettingsComponent</title>
<polygon fill="#8dd3c7" stroke="black" points="2340.45,-84.8 2337.45,-88.8 2316.45,-88.8 2313.45,-84.8 2213.55,-84.8 2213.55,-48.8 2340.45,-48.8 2340.45,-84.8"/>
<text text-anchor="middle" x="2277" y="-62.6" font-family="Times,serif" font-size="14.00">SettingsComponent</text>
</g>
<!-- SettingsComponent&#45;&gt;SettingsModule -->
<g id="edge15" class="edge">
<title>SettingsComponent&#45;&gt;SettingsModule</title>
<path fill="none" stroke="black" d="M2230.06,-85.02C2230.06,-85.02 2230.06,-106.53 2230.06,-106.53"/>
<polygon fill="black" stroke="black" points="2226.56,-106.53 2230.06,-116.53 2233.56,-106.53 2226.56,-106.53"/>
</g>
<!-- StorageSettingsComponent -->
<g id="node17" class="node">
<title>StorageSettingsComponent</title>
<polygon fill="#8dd3c7" stroke="black" points="2195.71,-84.8 2192.71,-88.8 2171.71,-88.8 2168.71,-84.8 2026.29,-84.8 2026.29,-48.8 2195.71,-48.8 2195.71,-84.8"/>
<text text-anchor="middle" x="2111" y="-62.6" font-family="Times,serif" font-size="14.00">StorageSettingsComponent</text>
</g>
<!-- StorageSettingsComponent&#45;&gt;SettingsModule -->
<g id="edge16" class="edge">
<title>StorageSettingsComponent&#45;&gt;SettingsModule</title>
<path fill="none" stroke="black" d="M2168.64,-85.02C2168.64,-85.02 2168.64,-106.53 2168.64,-106.53"/>
<polygon fill="black" stroke="black" points="2165.14,-106.53 2168.64,-116.53 2172.14,-106.53 2165.14,-106.53"/>
</g>
<!-- ThemeSettingsComponent -->
<g id="node18" class="node">
<title>ThemeSettingsComponent</title>
<polygon fill="#8dd3c7" stroke="black" points="2008.82,-84.8 2005.82,-88.8 1984.82,-88.8 1981.82,-84.8 1843.18,-84.8 1843.18,-48.8 2008.82,-48.8 2008.82,-84.8"/>
<text text-anchor="middle" x="1926" y="-62.6" font-family="Times,serif" font-size="14.00">ThemeSettingsComponent</text>
</g>
<!-- ThemeSettingsComponent&#45;&gt;SettingsModule -->
<g id="edge17" class="edge">
<title>ThemeSettingsComponent&#45;&gt;SettingsModule</title>
<path fill="none" stroke="black" d="M1926,-85.02C1926,-105.17 1926,-134.8 1926,-134.8 1926,-134.8 2131.69,-134.8 2131.69,-134.8"/>
<polygon fill="black" stroke="black" points="2131.69,-138.3 2141.69,-134.8 2131.69,-131.3 2131.69,-138.3"/>
</g>
</g>
</svg>
