<?xml version="1.0" encoding="UTF-8" standalone="no"?>
<!DOCTYPE svg PUBLIC "-//W3C//DTD SVG 1.1//EN"
 "http://www.w3.org/Graphics/SVG/1.1/DTD/svg11.dtd">
<!-- Generated by graphviz version 5.0.0 (20220707.1540)
 -->
<!-- Title: dependencies Pages: 1 -->
<svg width="4395pt" height="321pt"
 viewBox="0.00 0.00 4395.00 320.80" xmlns="http://www.w3.org/2000/svg" xmlns:xlink="http://www.w3.org/1999/xlink">
<g id="graph0" class="graph" transform="scale(1 1) rotate(0) translate(4 316.8)">
<title>dependencies</title>
<polygon fill="white" stroke="transparent" points="-4,4 -4,-316.8 4391,-316.8 4391,4 -4,4"/>
<text text-anchor="middle" x="2193.5" y="-8.2" font-family="sans-serif" font-size="14.00">dependencies</text>
<g id="clust1" class="cluster">
<title>cluster_AppModule</title>
<polygon fill="none" stroke="black" stroke-dasharray="1,5" points="8,-100.8 8,-304.8 737,-304.8 737,-100.8 8,-100.8"/>
</g>
<g id="clust2" class="cluster">
<title>cluster_AppModule_declarations</title>
<polygon fill="none" stroke="black" points="202,-108.8 202,-160.8 452,-160.8 452,-108.8 202,-108.8"/>
</g>
<g id="clust5" class="cluster">
<title>cluster_AppModule_imports</title>
<polygon fill="none" stroke="black" points="460,-108.8 460,-160.8 729,-160.8 729,-108.8 460,-108.8"/>
</g>
<g id="clust7" class="cluster">
<title>cluster_AppModule_bootstrap</title>
<polygon fill="none" stroke="black" points="329,-244.8 329,-296.8 453,-296.8 453,-244.8 329,-244.8"/>
</g>
<g id="clust8" class="cluster">
<title>cluster_AppModule_providers</title>
<polygon fill="none" stroke="black" points="16,-108.8 16,-160.8 194,-160.8 194,-108.8 16,-108.8"/>
</g>
<g id="clust9" class="cluster">
<title>cluster_DialogsModule</title>
<polygon fill="none" stroke="black" stroke-dasharray="1,5" points="745,-168.8 745,-236.8 1125,-236.8 1125,-168.8 745,-168.8"/>
</g>
<g id="clust10" class="cluster">
<title>cluster_DialogsModule_declarations</title>
<polygon fill="none" stroke="black" points="941,-176.8 941,-228.8 1117,-228.8 1117,-176.8 941,-176.8"/>
</g>
<g id="clust13" class="cluster">
<title>cluster_DialogsModule_exports</title>
<polygon fill="none" stroke="black" points="753,-176.8 753,-228.8 933,-228.8 933,-176.8 753,-176.8"/>
</g>
<g id="clust16" class="cluster">
<title>cluster_FileDropOverlayModule</title>
<polygon fill="none" stroke="black" stroke-dasharray="1,5" points="3434,-32.8 3434,-236.8 3646,-236.8 3646,-32.8 3434,-32.8"/>
</g>
<g id="clust17" class="cluster">
<title>cluster_FileDropOverlayModule_declarations</title>
<polygon fill="none" stroke="black" points="3443,-40.8 3443,-92.8 3635,-92.8 3635,-40.8 3443,-40.8"/>
</g>
<g id="clust20" class="cluster">
<title>cluster_FileDropOverlayModule_exports</title>
<polygon fill="none" stroke="black" points="3442,-176.8 3442,-228.8 3638,-228.8 3638,-176.8 3442,-176.8"/>
</g>
<g id="clust23" class="cluster">
<title>cluster_HotkeysModule</title>
<polygon fill="none" stroke="black" stroke-dasharray="1,5" points="3200,-32.8 3200,-160.8 3426,-160.8 3426,-32.8 3200,-32.8"/>
</g>
<g id="clust24" class="cluster">
<title>cluster_HotkeysModule_declarations</title>
<polygon fill="none" stroke="black" points="3208,-40.8 3208,-92.8 3418,-92.8 3418,-40.8 3208,-40.8"/>
</g>
<g id="clust30" class="cluster">
<title>cluster_MatIconSizeModule</title>
<polygon fill="none" stroke="black" stroke-dasharray="1,5" points="1133,-168.8 1133,-236.8 1427,-236.8 1427,-168.8 1133,-168.8"/>
</g>
<g id="clust31" class="cluster">
<title>cluster_MatIconSizeModule_declarations</title>
<polygon fill="none" stroke="black" points="1285,-176.8 1285,-228.8 1419,-228.8 1419,-176.8 1285,-176.8"/>
</g>
<g id="clust34" class="cluster">
<title>cluster_MatIconSizeModule_exports</title>
<polygon fill="none" stroke="black" points="1141,-176.8 1141,-228.8 1277,-228.8 1277,-176.8 1141,-176.8"/>
</g>
<g id="clust37" class="cluster">
<title>cluster_PlayerModule</title>
<polygon fill="none" stroke="black" stroke-dasharray="1,5" points="1785,-100.8 1785,-228.8 3192,-228.8 3192,-100.8 1785,-100.8"/>
</g>
<g id="clust38" class="cluster">
<title>cluster_PlayerModule_declarations</title>
<polygon fill="none" stroke="black" points="1937,-108.8 1937,-160.8 3184,-160.8 3184,-108.8 1937,-108.8"/>
</g>
<g id="clust48" class="cluster">
<title>cluster_PlayerModule_imports</title>
<polygon fill="none" stroke="black" points="1793,-108.8 1793,-160.8 1929,-160.8 1929,-108.8 1793,-108.8"/>
</g>
<g id="clust52" class="cluster">
<title>cluster_SettingsModule</title>
<polygon fill="none" stroke="black" stroke-dasharray="1,5" points="3654,-32.8 3654,-160.8 4379,-160.8 4379,-32.8 3654,-32.8"/>
</g>
<g id="clust53" class="cluster">
<title>cluster_SettingsModule_declarations</title>
<polygon fill="none" stroke="black" points="3662,-40.8 3662,-92.8 4371,-92.8 4371,-40.8 3662,-40.8"/>
</g>
<g id="clust62" class="cluster">
<title>cluster_SlidePanelModule</title>
<polygon fill="none" stroke="black" stroke-dasharray="1,5" points="1435,-168.8 1435,-236.8 1777,-236.8 1777,-168.8 1435,-168.8"/>
</g>
<g id="clust63" class="cluster">
<title>cluster_SlidePanelModule_declarations</title>
<polygon fill="none" stroke="black" points="1611,-176.8 1611,-228.8 1769,-228.8 1769,-176.8 1611,-176.8"/>
</g>
<g id="clust66" class="cluster">
<title>cluster_SlidePanelModule_exports</title>
<polygon fill="none" stroke="black" points="1443,-176.8 1443,-228.8 1603,-228.8 1603,-176.8 1443,-176.8"/>
</g>
<!-- AppComponent -->
<g id="node1" class="node">
<title>AppComponent</title>
<polygon fill="#ffffb3" stroke="black" points="443.94,-152.8 338.06,-152.8 338.06,-116.8 443.94,-116.8 443.94,-152.8"/>
<text text-anchor="middle" x="391" y="-130.6" font-family="Times,serif" font-size="14.00">AppComponent</text>
</g>
<!-- AppModule -->
<g id="node3" class="node">
<title>AppModule</title>
<polygon fill="#8dd3c7" stroke="black" points="432.66,-220.8 429.66,-224.8 408.66,-224.8 405.66,-220.8 349.34,-220.8 349.34,-184.8 432.66,-184.8 432.66,-220.8"/>
<text text-anchor="middle" x="391" y="-198.6" font-family="Times,serif" font-size="14.00">AppModule</text>
</g>
<!-- AppComponent&#45;&gt;AppModule -->
<g id="edge1" class="edge">
<title>AppComponent&#45;&gt;AppModule</title>
<path fill="none" stroke="black" d="M391,-153.02C391,-153.02 391,-174.53 391,-174.53"/>
<polygon fill="black" stroke="black" points="387.5,-174.53 391,-184.53 394.5,-174.53 387.5,-174.53"/>
</g>
<!-- ShellComponent -->
<g id="node2" class="node">
<title>ShellComponent</title>
<polygon fill="#ffffb3" stroke="black" points="320.11,-152.8 209.89,-152.8 209.89,-116.8 320.11,-116.8 320.11,-152.8"/>
<text text-anchor="middle" x="265" y="-130.6" font-family="Times,serif" font-size="14.00">ShellComponent</text>
</g>
<!-- ShellComponent&#45;&gt;AppModule -->
<g id="edge2" class="edge">
<title>ShellComponent&#45;&gt;AppModule</title>
<path fill="none" stroke="black" d="M265,-153.07C265,-171.36 265,-196.8 265,-196.8 265,-196.8 339.04,-196.8 339.04,-196.8"/>
<polygon fill="black" stroke="black" points="339.04,-200.3 349.04,-196.8 339.04,-193.3 339.04,-200.3"/>
</g>
<!-- AppComponent  -->
<g id="node6" class="node">
<title>AppComponent </title>
<polygon fill="#80b1d3" stroke="black" points="445.44,-288.8 336.56,-288.8 336.56,-252.8 445.44,-252.8 445.44,-288.8"/>
<text text-anchor="middle" x="391" y="-266.6" font-family="Times,serif" font-size="14.00">AppComponent </text>
</g>
<!-- AppModule&#45;&gt;AppComponent  -->
<g id="edge5" class="edge">
<title>AppModule&#45;&gt;AppComponent </title>
<path fill="none" stroke="black" stroke-dasharray="1,5" d="M391,-221.02C391,-221.02 391,-242.53 391,-242.53"/>
<polygon fill="black" stroke="black" points="387.5,-242.53 391,-252.53 394.5,-242.53 387.5,-242.53"/>
</g>
<!-- DialogsModule -->
<g id="node4" class="node">
<title>DialogsModule</title>
<polygon fill="#8dd3c7" stroke="black" points="571.6,-152.8 568.6,-156.8 547.6,-156.8 544.6,-152.8 468.4,-152.8 468.4,-116.8 571.6,-116.8 571.6,-152.8"/>
<text text-anchor="middle" x="520" y="-130.6" font-family="Times,serif" font-size="14.00">DialogsModule</text>
</g>
<!-- DialogsModule&#45;&gt;AppModule -->
<g id="edge3" class="edge">
<title>DialogsModule&#45;&gt;AppModule</title>
<path fill="none" stroke="black" d="M520,-153.02C520,-173.17 520,-202.8 520,-202.8 520,-202.8 442.88,-202.8 442.88,-202.8"/>
<polygon fill="black" stroke="black" points="442.88,-199.3 432.88,-202.8 442.88,-206.3 442.88,-199.3"/>
</g>
<!-- PromptDialogComponent  -->
<g id="node9" class="node">
<title>PromptDialogComponent </title>
<polygon fill="#fb8072" stroke="black" points="925.16,-220.8 760.84,-220.8 760.84,-184.8 925.16,-184.8 925.16,-220.8"/>
<text text-anchor="middle" x="843" y="-198.6" font-family="Times,serif" font-size="14.00">PromptDialogComponent </text>
</g>
<!-- DialogsModule&#45;&gt;PromptDialogComponent  -->
<g id="edge8" class="edge">
<title>DialogsModule&#45;&gt;PromptDialogComponent </title>
<path fill="none" stroke="black" stroke-dasharray="5,2" d="M545.78,-152.82C545.78,-170.17 545.78,-193.8 545.78,-193.8 545.78,-193.8 750.6,-193.8 750.6,-193.8"/>
<polygon fill="black" stroke="black" points="750.6,-197.3 760.6,-193.8 750.6,-190.3 750.6,-197.3"/>
</g>
<!-- MatIconSizeModule -->
<g id="node5" class="node">
<title>MatIconSizeModule</title>
<polygon fill="#8dd3c7" stroke="black" points="720.58,-152.8 717.58,-156.8 696.58,-156.8 693.58,-152.8 589.42,-152.8 589.42,-116.8 720.58,-116.8 720.58,-152.8"/>
<text text-anchor="middle" x="655" y="-130.6" font-family="Times,serif" font-size="14.00">MatIconSizeModule</text>
</g>
<!-- MatIconSizeModule&#45;&gt;AppModule -->
<g id="edge4" class="edge">
<title>MatIconSizeModule&#45;&gt;AppModule</title>
<path fill="none" stroke="black" d="M655,-153.05C655,-175.82 655,-211.8 655,-211.8 655,-211.8 442.83,-211.8 442.83,-211.8"/>
<polygon fill="black" stroke="black" points="442.83,-208.3 432.83,-211.8 442.83,-215.3 442.83,-208.3"/>
</g>
<!-- IconSizeDirective  -->
<g id="node16" class="node">
<title>IconSizeDirective </title>
<polygon fill="#fb8072" stroke="black" points="1269.06,-220.8 1148.94,-220.8 1148.94,-184.8 1269.06,-184.8 1269.06,-220.8"/>
<text text-anchor="middle" x="1209" y="-198.6" font-family="Times,serif" font-size="14.00">IconSizeDirective </text>
</g>
<!-- MatIconSizeModule&#45;&gt;IconSizeDirective  -->
<g id="edge13" class="edge">
<title>MatIconSizeModule&#45;&gt;IconSizeDirective </title>
<path fill="none" stroke="black" stroke-dasharray="5,2" d="M720.73,-138.8C867.48,-138.8 1209,-138.8 1209,-138.8 1209,-138.8 1209,-174.63 1209,-174.63"/>
<polygon fill="black" stroke="black" points="1205.5,-174.63 1209,-184.63 1212.5,-174.63 1205.5,-174.63"/>
</g>
<!-- PlayerModule -->
<g id="node26" class="node">
<title>PlayerModule</title>
<polygon fill="#8dd3c7" stroke="black" points="2565.82,-220.8 2562.82,-224.8 2541.82,-224.8 2538.82,-220.8 2470.18,-220.8 2470.18,-184.8 2565.82,-184.8 2565.82,-220.8"/>
<text text-anchor="middle" x="2518" y="-198.6" font-family="Times,serif" font-size="14.00">PlayerModule</text>
</g>
<!-- MatIconSizeModule&#45;&gt;PlayerModule -->
<g id="edge25" class="edge">
<title>MatIconSizeModule&#45;&gt;PlayerModule</title>
<path fill="none" stroke="black" d="M720.82,-124.8C961.64,-124.8 1780.94,-124.8 1780.94,-124.8 1780.94,-124.8 1780.94,-216.8 1780.94,-216.8 1780.94,-216.8 2460.21,-216.8 2460.21,-216.8"/>
<polygon fill="black" stroke="black" points="2460.21,-220.3 2470.21,-216.8 2460.21,-213.3 2460.21,-220.3"/>
</g>
<!-- LoaderInterceptor -->
<g id="node7" class="node">
<title>LoaderInterceptor</title>
<ellipse fill="#fdb462" stroke="black" cx="105" cy="-134.8" rx="80.98" ry="18"/>
<text text-anchor="middle" x="105" y="-130.6" font-family="Times,serif" font-size="14.00">LoaderInterceptor</text>
</g>
<!-- LoaderInterceptor&#45;&gt;AppModule -->
<g id="edge6" class="edge">
<title>LoaderInterceptor&#45;&gt;AppModule</title>
<path fill="none" stroke="black" d="M105,-153.09C105,-175.01 105,-208.8 105,-208.8 105,-208.8 339.11,-208.8 339.11,-208.8"/>
<polygon fill="black" stroke="black" points="339.11,-212.3 349.11,-208.8 339.11,-205.3 339.11,-212.3"/>
</g>
<!-- PromptDialogComponent -->
<g id="node8" class="node">
<title>PromptDialogComponent</title>
<polygon fill="#ffffb3" stroke="black" points="1109.16,-220.8 948.84,-220.8 948.84,-184.8 1109.16,-184.8 1109.16,-220.8"/>
<text text-anchor="middle" x="1029" y="-198.6" font-family="Times,serif" font-size="14.00">PromptDialogComponent</text>
</g>
<!-- PromptDialogComponent&#45;&gt;DialogsModule -->
<g id="edge7" class="edge">
<title>PromptDialogComponent&#45;&gt;DialogsModule</title>
<path fill="none" stroke="black" d="M1029,-184.61C1029,-176.52 1029,-168.8 1029,-168.8 1029,-168.8 494.22,-168.8 494.22,-168.8 494.22,-168.8 494.22,-162.99 494.22,-162.99"/>
<polygon fill="black" stroke="black" points="497.72,-162.99 494.22,-152.99 490.72,-162.99 497.72,-162.99"/>
</g>
<!-- FileDropOverlayComponent -->
<g id="node10" class="node">
<title>FileDropOverlayComponent</title>
<polygon fill="#ffffb3" stroke="black" points="3627.47,-84.8 3450.53,-84.8 3450.53,-48.8 3627.47,-48.8 3627.47,-84.8"/>
<text text-anchor="middle" x="3539" y="-62.6" font-family="Times,serif" font-size="14.00">FileDropOverlayComponent</text>
</g>
<!-- FileDropOverlayModule -->
<g id="node11" class="node">
<title>FileDropOverlayModule</title>
<polygon fill="#8dd3c7" stroke="black" points="3616.69,-152.8 3613.69,-156.8 3592.69,-156.8 3589.69,-152.8 3461.31,-152.8 3461.31,-116.8 3616.69,-116.8 3616.69,-152.8"/>
<text text-anchor="middle" x="3539" y="-130.6" font-family="Times,serif" font-size="14.00">FileDropOverlayModule</text>
</g>
<!-- FileDropOverlayComponent&#45;&gt;FileDropOverlayModule -->
<g id="edge9" class="edge">
<title>FileDropOverlayComponent&#45;&gt;FileDropOverlayModule</title>
<path fill="none" stroke="black" d="M3539,-85.02C3539,-85.02 3539,-106.53 3539,-106.53"/>
<polygon fill="black" stroke="black" points="3535.5,-106.53 3539,-116.53 3542.5,-106.53 3535.5,-106.53"/>
</g>
<!-- FileDropOverlayComponent  -->
<g id="node12" class="node">
<title>FileDropOverlayComponent </title>
<polygon fill="#fb8072" stroke="black" points="3630.47,-220.8 3449.53,-220.8 3449.53,-184.8 3630.47,-184.8 3630.47,-220.8"/>
<text text-anchor="middle" x="3540" y="-198.6" font-family="Times,serif" font-size="14.00">FileDropOverlayComponent </text>
</g>
<!-- FileDropOverlayModule&#45;&gt;FileDropOverlayComponent  -->
<g id="edge10" class="edge">
<title>FileDropOverlayModule&#45;&gt;FileDropOverlayComponent </title>
<path fill="none" stroke="black" stroke-dasharray="5,2" d="M3539,-153.02C3539,-153.02 3539,-174.53 3539,-174.53"/>
<polygon fill="black" stroke="black" points="3535.5,-174.53 3539,-184.53 3542.5,-174.53 3535.5,-174.53"/>
</g>
<!-- FileDropOverlayModule&#45;&gt;PlayerModule -->
<g id="edge23" class="edge">
<title>FileDropOverlayModule&#45;&gt;PlayerModule</title>
<path fill="none" stroke="black" d="M3461.27,-134.8C3418.85,-134.8 3374.88,-134.8 3374.88,-134.8 3374.88,-134.8 3374.88,-215.8 3374.88,-215.8 3374.88,-215.8 2575.91,-215.8 2575.91,-215.8"/>
<polygon fill="black" stroke="black" points="2575.91,-212.3 2565.91,-215.8 2575.91,-219.3 2575.91,-212.3"/>
</g>
<!-- HotkeysHelpDialogComponent -->
<g id="node13" class="node">
<title>HotkeysHelpDialogComponent</title>
<polygon fill="#ffffb3" stroke="black" points="3409.81,-84.8 3216.19,-84.8 3216.19,-48.8 3409.81,-48.8 3409.81,-84.8"/>
<text text-anchor="middle" x="3313" y="-62.6" font-family="Times,serif" font-size="14.00">HotkeysHelpDialogComponent</text>
</g>
<!-- HotkeysModule -->
<g id="node14" class="node">
<title>HotkeysModule</title>
<polygon fill="#8dd3c7" stroke="black" points="3340.21,-152.8 3337.21,-156.8 3316.21,-156.8 3313.21,-152.8 3233.79,-152.8 3233.79,-116.8 3340.21,-116.8 3340.21,-152.8"/>
<text text-anchor="middle" x="3287" y="-130.6" font-family="Times,serif" font-size="14.00">HotkeysModule</text>
</g>
<!-- HotkeysHelpDialogComponent&#45;&gt;HotkeysModule -->
<g id="edge11" class="edge">
<title>HotkeysHelpDialogComponent&#45;&gt;HotkeysModule</title>
<path fill="none" stroke="black" d="M3287,-85.02C3287,-85.02 3287,-106.53 3287,-106.53"/>
<polygon fill="black" stroke="black" points="3283.5,-106.53 3287,-116.53 3290.5,-106.53 3283.5,-106.53"/>
</g>
<!-- HotkeysModule&#45;&gt;PlayerModule -->
<g id="edge24" class="edge">
<title>HotkeysModule&#45;&gt;PlayerModule</title>
<path fill="none" stroke="black" d="M3287,-152.81C3287,-175.29 3287,-210.8 3287,-210.8 3287,-210.8 2575.81,-210.8 2575.81,-210.8"/>
<polygon fill="black" stroke="black" points="2575.81,-207.3 2565.81,-210.8 2575.81,-214.3 2575.81,-207.3"/>
</g>
<!-- IconSizeDirective -->
<g id="node15" class="node">
<title>IconSizeDirective</title>
<polygon fill="#ffffb3" stroke="black" points="1410.56,-220.8 1293.44,-220.8 1293.44,-184.8 1410.56,-184.8 1410.56,-220.8"/>
<text text-anchor="middle" x="1352" y="-198.6" font-family="Times,serif" font-size="14.00">IconSizeDirective</text>
</g>
<!-- IconSizeDirective&#45;&gt;MatIconSizeModule -->
<g id="edge12" class="edge">
<title>IconSizeDirective&#45;&gt;MatIconSizeModule</title>
<path fill="none" stroke="black" d="M1352,-184.52C1352,-163.48 1352,-131.8 1352,-131.8 1352,-131.8 730.57,-131.8 730.57,-131.8"/>
<polygon fill="black" stroke="black" points="730.57,-128.3 720.57,-131.8 730.57,-135.3 730.57,-128.3"/>
</g>
<!-- BandPipe -->
<g id="node17" class="node">
<title>BandPipe</title>
<polygon fill="#ffffb3" stroke="black" points="3176.44,-152.8 3105.56,-152.8 3105.56,-116.8 3176.44,-116.8 3176.44,-152.8"/>
<text text-anchor="middle" x="3141" y="-130.6" font-family="Times,serif" font-size="14.00">BandPipe</text>
</g>
<!-- BandPipe&#45;&gt;PlayerModule -->
<g id="edge14" class="edge">
<title>BandPipe&#45;&gt;PlayerModule</title>
<path fill="none" stroke="black" d="M3141,-153.08C3141,-174.12 3141,-205.8 3141,-205.8 3141,-205.8 2575.85,-205.8 2575.85,-205.8"/>
<polygon fill="black" stroke="black" points="2575.85,-202.3 2565.85,-205.8 2575.85,-209.3 2575.85,-202.3"/>
</g>
<!-- CoverDisplayComponent -->
<g id="node18" class="node">
<title>CoverDisplayComponent</title>
<polygon fill="#ffffb3" stroke="black" points="3087.6,-152.8 2928.4,-152.8 2928.4,-116.8 3087.6,-116.8 3087.6,-152.8"/>
<text text-anchor="middle" x="3008" y="-130.6" font-family="Times,serif" font-size="14.00">CoverDisplayComponent</text>
</g>
<!-- CoverDisplayComponent&#45;&gt;PlayerModule -->
<g id="edge15" class="edge">
<title>CoverDisplayComponent&#45;&gt;PlayerModule</title>
<path fill="none" stroke="black" d="M3008,-152.83C3008,-172.38 3008,-200.8 3008,-200.8 3008,-200.8 2575.88,-200.8 2575.88,-200.8"/>
<polygon fill="black" stroke="black" points="2575.88,-197.3 2565.88,-200.8 2575.88,-204.3 2575.88,-197.3"/>
</g>
<!-- EqualizerComponent -->
<g id="node19" class="node">
<title>EqualizerComponent</title>
<polygon fill="#ffffb3" stroke="black" points="2910.47,-152.8 2775.53,-152.8 2775.53,-116.8 2910.47,-116.8 2910.47,-152.8"/>
<text text-anchor="middle" x="2843" y="-130.6" font-family="Times,serif" font-size="14.00">EqualizerComponent</text>
</g>
<!-- EqualizerComponent&#45;&gt;PlayerModule -->
<g id="edge16" class="edge">
<title>EqualizerComponent&#45;&gt;PlayerModule</title>
<path fill="none" stroke="black" d="M2843,-153.1C2843,-171.07 2843,-195.8 2843,-195.8 2843,-195.8 2575.95,-195.8 2575.95,-195.8"/>
<polygon fill="black" stroke="black" points="2575.95,-192.3 2565.95,-195.8 2575.95,-199.3 2575.95,-192.3"/>
</g>
<!-- EqualizerShellComponent -->
<g id="node20" class="node">
<title>EqualizerShellComponent</title>
<polygon fill="#ffffb3" stroke="black" points="2757.75,-152.8 2594.25,-152.8 2594.25,-116.8 2757.75,-116.8 2757.75,-152.8"/>
<text text-anchor="middle" x="2676" y="-130.6" font-family="Times,serif" font-size="14.00">EqualizerShellComponent</text>
</g>
<!-- EqualizerShellComponent&#45;&gt;PlayerModule -->
<g id="edge17" class="edge">
<title>EqualizerShellComponent&#45;&gt;PlayerModule</title>
<path fill="none" stroke="black" d="M2676,-152.83C2676,-169.2 2676,-190.8 2676,-190.8 2676,-190.8 2575.83,-190.8 2575.83,-190.8"/>
<polygon fill="black" stroke="black" points="2575.83,-187.3 2565.83,-190.8 2575.83,-194.3 2575.83,-187.3"/>
</g>
<!-- PlayerComponent -->
<g id="node21" class="node">
<title>PlayerComponent</title>
<polygon fill="#ffffb3" stroke="black" points="2576.6,-152.8 2459.4,-152.8 2459.4,-116.8 2576.6,-116.8 2576.6,-152.8"/>
<text text-anchor="middle" x="2518" y="-130.6" font-family="Times,serif" font-size="14.00">PlayerComponent</text>
</g>
<!-- PlayerComponent&#45;&gt;PlayerModule -->
<g id="edge18" class="edge">
<title>PlayerComponent&#45;&gt;PlayerModule</title>
<path fill="none" stroke="black" d="M2518,-153.02C2518,-153.02 2518,-174.53 2518,-174.53"/>
<polygon fill="black" stroke="black" points="2514.5,-174.53 2518,-184.53 2521.5,-174.53 2514.5,-174.53"/>
</g>
<!-- PlaylistComponent -->
<g id="node22" class="node">
<title>PlaylistComponent</title>
<polygon fill="#ffffb3" stroke="black" points="2441.84,-152.8 2318.16,-152.8 2318.16,-116.8 2441.84,-116.8 2441.84,-152.8"/>
<text text-anchor="middle" x="2380" y="-130.6" font-family="Times,serif" font-size="14.00">PlaylistComponent</text>
</g>
<!-- PlaylistComponent&#45;&gt;PlayerModule -->
<g id="edge19" class="edge">
<title>PlaylistComponent&#45;&gt;PlayerModule</title>
<path fill="none" stroke="black" d="M2380,-152.82C2380,-170.17 2380,-193.8 2380,-193.8 2380,-193.8 2460.12,-193.8 2460.12,-193.8"/>
<polygon fill="black" stroke="black" points="2460.12,-197.3 2470.12,-193.8 2460.12,-190.3 2460.12,-197.3"/>
</g>
<!-- TimePipe -->
<g id="node23" class="node">
<title>TimePipe</title>
<polygon fill="#ffffb3" stroke="black" points="2300.44,-152.8 2229.56,-152.8 2229.56,-116.8 2300.44,-116.8 2300.44,-152.8"/>
<text text-anchor="middle" x="2265" y="-130.6" font-family="Times,serif" font-size="14.00">TimePipe</text>
</g>
<!-- TimePipe&#45;&gt;PlayerModule -->
<g id="edge20" class="edge">
<title>TimePipe&#45;&gt;PlayerModule</title>
<path fill="none" stroke="black" d="M2265,-152.97C2265,-171.89 2265,-198.8 2265,-198.8 2265,-198.8 2460.12,-198.8 2460.12,-198.8"/>
<polygon fill="black" stroke="black" points="2460.12,-202.3 2470.12,-198.8 2460.12,-195.3 2460.12,-202.3"/>
</g>
<!-- VisualizerComponent -->
<g id="node24" class="node">
<title>VisualizerComponent</title>
<polygon fill="#ffffb3" stroke="black" points="2211.36,-152.8 2072.64,-152.8 2072.64,-116.8 2211.36,-116.8 2211.36,-152.8"/>
<text text-anchor="middle" x="2142" y="-130.6" font-family="Times,serif" font-size="14.00">VisualizerComponent</text>
</g>
<!-- VisualizerComponent&#45;&gt;PlayerModule -->
<g id="edge21" class="edge">
<title>VisualizerComponent&#45;&gt;PlayerModule</title>
<path fill="none" stroke="black" d="M2142,-153.02C2142,-173.17 2142,-202.8 2142,-202.8 2142,-202.8 2460,-202.8 2460,-202.8"/>
<polygon fill="black" stroke="black" points="2460,-206.3 2470,-202.8 2460,-199.3 2460,-206.3"/>
</g>
<!-- VisualsDirective -->
<g id="node25" class="node">
<title>VisualsDirective</title>
<polygon fill="#ffffb3" stroke="black" points="2055.08,-152.8 1944.92,-152.8 1944.92,-116.8 2055.08,-116.8 2055.08,-152.8"/>
<text text-anchor="middle" x="2000" y="-130.6" font-family="Times,serif" font-size="14.00">VisualsDirective</text>
</g>
<!-- VisualsDirective&#45;&gt;PlayerModule -->
<g id="edge22" class="edge">
<title>VisualsDirective&#45;&gt;PlayerModule</title>
<path fill="none" stroke="black" d="M2000,-152.84C2000,-174.46 2000,-207.8 2000,-207.8 2000,-207.8 2460.2,-207.8 2460.2,-207.8"/>
<polygon fill="black" stroke="black" points="2460.2,-211.3 2470.2,-207.8 2460.2,-204.3 2460.2,-211.3"/>
</g>
<!-- SlidePanelModule -->
<g id="node27" class="node">
<title>SlidePanelModule</title>
<polygon fill="#8dd3c7" stroke="black" points="1920.94,-152.8 1917.94,-156.8 1896.94,-156.8 1893.94,-152.8 1801.06,-152.8 1801.06,-116.8 1920.94,-116.8 1920.94,-152.8"/>
<text text-anchor="middle" x="1861" y="-130.6" font-family="Times,serif" font-size="14.00">SlidePanelModule</text>
</g>
<!-- SlidePanelModule&#45;&gt;PlayerModule -->
<g id="edge26" class="edge">
<title>SlidePanelModule&#45;&gt;PlayerModule</title>
<path fill="none" stroke="black" d="M1880.91,-153.05C1880.91,-175.82 1880.91,-211.8 1880.91,-211.8 1880.91,-211.8 2460.11,-211.8 2460.11,-211.8"/>
<polygon fill="black" stroke="black" points="2460.11,-215.3 2470.11,-211.8 2460.11,-208.3 2460.11,-215.3"/>
</g>
<!-- SlidePanelComponent  -->
<g id="node34" class="node">
<title>SlidePanelComponent </title>
<polygon fill="#fb8072" stroke="black" points="1595.21,-220.8 1450.79,-220.8 1450.79,-184.8 1595.21,-184.8 1595.21,-220.8"/>
<text text-anchor="middle" x="1523" y="-198.6" font-family="Times,serif" font-size="14.00">SlidePanelComponent </text>
</g>
<!-- SlidePanelModule&#45;&gt;SlidePanelComponent  -->
<g id="edge32" class="edge">
<title>SlidePanelModule&#45;&gt;SlidePanelComponent </title>
<path fill="none" stroke="black" stroke-dasharray="5,2" d="M1800.96,-145.8C1703.83,-145.8 1523,-145.8 1523,-145.8 1523,-145.8 1523,-174.76 1523,-174.76"/>
<polygon fill="black" stroke="black" points="1519.5,-174.76 1523,-184.76 1526.5,-174.76 1519.5,-174.76"/>
</g>
<!-- MetadataSettingsComponent -->
<g id="node28" class="node">
<title>MetadataSettingsComponent</title>
<polygon fill="#ffffb3" stroke="black" points="4363.03,-84.8 4184.97,-84.8 4184.97,-48.8 4363.03,-48.8 4363.03,-84.8"/>
<text text-anchor="middle" x="4274" y="-62.6" font-family="Times,serif" font-size="14.00">MetadataSettingsComponent</text>
</g>
<!-- SettingsModule -->
<g id="node32" class="node">
<title>SettingsModule</title>
<polygon fill="#8dd3c7" stroke="black" points="4073.17,-152.8 4070.17,-156.8 4049.17,-156.8 4046.17,-152.8 3968.83,-152.8 3968.83,-116.8 4073.17,-116.8 4073.17,-152.8"/>
<text text-anchor="middle" x="4021" y="-130.6" font-family="Times,serif" font-size="14.00">SettingsModule</text>
</g>
<!-- MetadataSettingsComponent&#45;&gt;SettingsModule -->
<g id="edge27" class="edge">
<title>MetadataSettingsComponent&#45;&gt;SettingsModule</title>
<path fill="none" stroke="black" d="M4274,-85.02C4274,-105.17 4274,-134.8 4274,-134.8 4274,-134.8 4083.42,-134.8 4083.42,-134.8"/>
<polygon fill="black" stroke="black" points="4083.42,-131.3 4073.42,-134.8 4083.42,-138.3 4083.42,-131.3"/>
</g>
<!-- SettingsComponent -->
<g id="node29" class="node">
<title>SettingsComponent</title>
<polygon fill="#ffffb3" stroke="black" points="4167.45,-84.8 4040.55,-84.8 4040.55,-48.8 4167.45,-48.8 4167.45,-84.8"/>
<text text-anchor="middle" x="4104" y="-62.6" font-family="Times,serif" font-size="14.00">SettingsComponent</text>
</g>
<!-- SettingsComponent&#45;&gt;SettingsModule -->
<g id="edge28" class="edge">
<title>SettingsComponent&#45;&gt;SettingsModule</title>
<path fill="none" stroke="black" d="M4057.06,-85.02C4057.06,-85.02 4057.06,-106.53 4057.06,-106.53"/>
<polygon fill="black" stroke="black" points="4053.56,-106.53 4057.06,-116.53 4060.56,-106.53 4053.56,-106.53"/>
</g>
<!-- StorageSettingsComponent -->
<g id="node30" class="node">
<title>StorageSettingsComponent</title>
<polygon fill="#ffffb3" stroke="black" points="4022.71,-84.8 3853.29,-84.8 3853.29,-48.8 4022.71,-48.8 4022.71,-84.8"/>
<text text-anchor="middle" x="3938" y="-62.6" font-family="Times,serif" font-size="14.00">StorageSettingsComponent</text>
</g>
<!-- StorageSettingsComponent&#45;&gt;SettingsModule -->
<g id="edge29" class="edge">
<title>StorageSettingsComponent&#45;&gt;SettingsModule</title>
<path fill="none" stroke="black" d="M3995.64,-85.02C3995.64,-85.02 3995.64,-106.53 3995.64,-106.53"/>
<polygon fill="black" stroke="black" points="3992.14,-106.53 3995.64,-116.53 3999.14,-106.53 3992.14,-106.53"/>
</g>
<!-- ThemeSettingsComponent -->
<g id="node31" class="node">
<title>ThemeSettingsComponent</title>
<polygon fill="#ffffb3" stroke="black" points="3835.82,-84.8 3670.18,-84.8 3670.18,-48.8 3835.82,-48.8 3835.82,-84.8"/>
<text text-anchor="middle" x="3753" y="-62.6" font-family="Times,serif" font-size="14.00">ThemeSettingsComponent</text>
</g>
<!-- ThemeSettingsComponent&#45;&gt;SettingsModule -->
<g id="edge30" class="edge">
<title>ThemeSettingsComponent&#45;&gt;SettingsModule</title>
<path fill="none" stroke="black" d="M3753,-85.02C3753,-105.17 3753,-134.8 3753,-134.8 3753,-134.8 3958.69,-134.8 3958.69,-134.8"/>
<polygon fill="black" stroke="black" points="3958.69,-138.3 3968.69,-134.8 3958.69,-131.3 3958.69,-138.3"/>
</g>
<!-- SlidePanelComponent -->
<g id="node33" class="node">
<title>SlidePanelComponent</title>
<polygon fill="#ffffb3" stroke="black" points="1760.71,-220.8 1619.29,-220.8 1619.29,-184.8 1760.71,-184.8 1760.71,-220.8"/>
<text text-anchor="middle" x="1690" y="-198.6" font-family="Times,serif" font-size="14.00">SlidePanelComponent</text>
</g>
<!-- SlidePanelComponent&#45;&gt;SlidePanelModule -->
<g id="edge31" class="edge">
<title>SlidePanelComponent&#45;&gt;SlidePanelModule</title>
<path fill="none" stroke="black" d="M1760.68,-189.8C1800,-189.8 1841.09,-189.8 1841.09,-189.8 1841.09,-189.8 1841.09,-162.81 1841.09,-162.81"/>
<polygon fill="black" stroke="black" points="1844.59,-162.81 1841.09,-152.81 1837.59,-162.81 1844.59,-162.81"/>
</g>
</g>
</svg>
