<?xml version="1.0" encoding="UTF-8" standalone="no"?>
<!DOCTYPE svg PUBLIC "-//W3C//DTD SVG 1.1//EN"
 "http://www.w3.org/Graphics/SVG/1.1/DTD/svg11.dtd">
<!-- Generated by graphviz version 5.0.0 (20220707.1540)
 -->
<!-- Title: dependencies Pages: 1 -->
<svg width="1867pt" height="174pt"
 viewBox="0.00 0.00 1867.00 173.80" xmlns="http://www.w3.org/2000/svg" xmlns:xlink="http://www.w3.org/1999/xlink">
<g id="graph0" class="graph" transform="scale(1 1) rotate(0) translate(4 169.8)">
<title>dependencies</title>
<polygon fill="white" stroke="transparent" points="-4,4 -4,-169.8 1863,-169.8 1863,4 -4,4"/>
<text text-anchor="middle" x="929.5" y="-8.2" font-family="sans-serif" font-size="14.00">dependencies</text>
<g id="clust1" class="cluster">
<title>cluster_PlayerModule</title>
<polygon fill="none" stroke="black" stroke-dasharray="1,5" points="8,-32.8 8,-157.8 1851,-157.8 1851,-32.8 8,-32.8"/>
</g>
<g id="clust2" class="cluster">
<title>cluster_PlayerModule_declarations</title>
<polygon fill="none" stroke="black" points="636,-40.8 636,-92.8 1843,-92.8 1843,-40.8 636,-40.8"/>
</g>
<g id="clust12" class="cluster">
<title>cluster_PlayerModule_imports</title>
<polygon fill="none" stroke="black" points="16,-40.8 16,-92.8 628,-92.8 628,-40.8 16,-40.8"/>
</g>
<!-- BandPipe -->
<g id="node1" class="node">
<title>BandPipe</title>
<polygon fill="#ffffb3" stroke="black" points="1835.44,-84.8 1764.56,-84.8 1764.56,-48.8 1835.44,-48.8 1835.44,-84.8"/>
<text text-anchor="middle" x="1800" y="-62.6" font-family="Times,serif" font-size="14.00">BandPipe</text>
</g>
<!-- PlayerModule -->
<g id="node10" class="node">
<title>PlayerModule</title>
<polygon fill="#8dd3c7" stroke="black" points="1011.82,-149.8 1008.82,-153.8 987.82,-153.8 984.82,-149.8 916.18,-149.8 916.18,-113.8 1011.82,-113.8 1011.82,-149.8"/>
<text text-anchor="middle" x="964" y="-127.6" font-family="Times,serif" font-size="14.00">PlayerModule</text>
</g>
<!-- BandPipe&#45;&gt;PlayerModule -->
<g id="edge1" class="edge">
<title>BandPipe&#45;&gt;PlayerModule</title>
<path fill="none" stroke="black" d="M1800,-84.89C1800,-107.93 1800,-144.8 1800,-144.8 1800,-144.8 1021.95,-144.8 1021.95,-144.8"/>
<polygon fill="black" stroke="black" points="1021.95,-141.3 1011.95,-144.8 1021.95,-148.3 1021.95,-141.3"/>
</g>
<!-- CoverDisplayComponent -->
<g id="node2" class="node">
<title>CoverDisplayComponent</title>
<polygon fill="#ffffb3" stroke="black" points="1746.6,-84.8 1587.4,-84.8 1587.4,-48.8 1746.6,-48.8 1746.6,-84.8"/>
<text text-anchor="middle" x="1667" y="-62.6" font-family="Times,serif" font-size="14.00">CoverDisplayComponent</text>
</g>
<!-- CoverDisplayComponent&#45;&gt;PlayerModule -->
<g id="edge2" class="edge">
<title>CoverDisplayComponent&#45;&gt;PlayerModule</title>
<path fill="none" stroke="black" d="M1667,-85.08C1667,-106.12 1667,-137.8 1667,-137.8 1667,-137.8 1021.77,-137.8 1021.77,-137.8"/>
<polygon fill="black" stroke="black" points="1021.77,-134.3 1011.77,-137.8 1021.77,-141.3 1021.77,-134.3"/>
</g>
<!-- EqualizerComponent -->
<g id="node3" class="node">
<title>EqualizerComponent</title>
<polygon fill="#ffffb3" stroke="black" points="1569.47,-84.8 1434.53,-84.8 1434.53,-48.8 1569.47,-48.8 1569.47,-84.8"/>
<text text-anchor="middle" x="1502" y="-62.6" font-family="Times,serif" font-size="14.00">EqualizerComponent</text>
</g>
<!-- EqualizerComponent&#45;&gt;PlayerModule -->
<g id="edge3" class="edge">
<title>EqualizerComponent&#45;&gt;PlayerModule</title>
<path fill="none" stroke="black" d="M1502,-84.91C1502,-104.14 1502,-131.8 1502,-131.8 1502,-131.8 1021.74,-131.8 1021.74,-131.8"/>
<polygon fill="black" stroke="black" points="1021.74,-128.3 1011.74,-131.8 1021.74,-135.3 1021.74,-128.3"/>
</g>
<!-- LibraryComponent -->
<g id="node4" class="node">
<title>LibraryComponent</title>
<polygon fill="#ffffb3" stroke="black" points="1416.81,-84.8 1293.19,-84.8 1293.19,-48.8 1416.81,-48.8 1416.81,-84.8"/>
<text text-anchor="middle" x="1355" y="-62.6" font-family="Times,serif" font-size="14.00">LibraryComponent</text>
</g>
<!-- LibraryComponent&#45;&gt;PlayerModule -->
<g id="edge4" class="edge">
<title>LibraryComponent&#45;&gt;PlayerModule</title>
<path fill="none" stroke="black" d="M1355,-84.82C1355,-102.17 1355,-125.8 1355,-125.8 1355,-125.8 1021.94,-125.8 1021.94,-125.8"/>
<polygon fill="black" stroke="black" points="1021.94,-122.3 1011.94,-125.8 1021.94,-129.3 1021.94,-122.3"/>
</g>
<!-- PlayerComponent -->
<g id="node5" class="node">
<title>PlayerComponent</title>
<polygon fill="#ffffb3" stroke="black" points="1275.6,-84.8 1158.4,-84.8 1158.4,-48.8 1275.6,-48.8 1275.6,-84.8"/>
<text text-anchor="middle" x="1217" y="-62.6" font-family="Times,serif" font-size="14.00">PlayerComponent</text>
</g>
<!-- PlayerComponent&#45;&gt;PlayerModule -->
<g id="edge5" class="edge">
<title>PlayerComponent&#45;&gt;PlayerModule</title>
<path fill="none" stroke="black" d="M1217,-85.04C1217,-100.37 1217,-119.8 1217,-119.8 1217,-119.8 1021.88,-119.8 1021.88,-119.8"/>
<polygon fill="black" stroke="black" points="1021.88,-116.3 1011.88,-119.8 1021.88,-123.3 1021.88,-116.3"/>
</g>
<!-- PlaylistComponent -->
<g id="node6" class="node">
<title>PlaylistComponent</title>
<polygon fill="#ffffb3" stroke="black" points="1140.84,-84.8 1017.16,-84.8 1017.16,-48.8 1140.84,-48.8 1140.84,-84.8"/>
<text text-anchor="middle" x="1079" y="-62.6" font-family="Times,serif" font-size="14.00">PlaylistComponent</text>
</g>
<!-- PlaylistComponent&#45;&gt;PlayerModule -->
<g id="edge6" class="edge">
<title>PlaylistComponent&#45;&gt;PlayerModule</title>
<path fill="none" stroke="black" d="M1017.26,-66.8C1010.18,-66.8 1005.44,-66.8 1005.44,-66.8 1005.44,-66.8 1005.44,-103.69 1005.44,-103.69"/>
<polygon fill="black" stroke="black" points="1001.94,-103.69 1005.44,-113.69 1008.94,-103.69 1001.94,-103.69"/>
</g>
<!-- TimePipe -->
<g id="node7" class="node">
<title>TimePipe</title>
<polygon fill="#ffffb3" stroke="black" points="999.44,-84.8 928.56,-84.8 928.56,-48.8 999.44,-48.8 999.44,-84.8"/>
<text text-anchor="middle" x="964" y="-62.6" font-family="Times,serif" font-size="14.00">TimePipe</text>
</g>
<!-- TimePipe&#45;&gt;PlayerModule -->
<g id="edge7" class="edge">
<title>TimePipe&#45;&gt;PlayerModule</title>
<path fill="none" stroke="black" d="M964,-84.91C964,-84.91 964,-103.79 964,-103.79"/>
<polygon fill="black" stroke="black" points="960.5,-103.79 964,-113.79 967.5,-103.79 960.5,-103.79"/>
</g>
<!-- VisualizerComponent -->
<g id="node8" class="node">
<title>VisualizerComponent</title>
<polygon fill="#ffffb3" stroke="black" points="910.36,-84.8 771.64,-84.8 771.64,-48.8 910.36,-48.8 910.36,-84.8"/>
<text text-anchor="middle" x="841" y="-62.6" font-family="Times,serif" font-size="14.00">VisualizerComponent</text>
</g>
<!-- VisualizerComponent&#45;&gt;PlayerModule -->
<g id="edge8" class="edge">
<title>VisualizerComponent&#45;&gt;PlayerModule</title>
<path fill="none" stroke="black" d="M910.53,-66.8C917.78,-66.8 922.56,-66.8 922.56,-66.8 922.56,-66.8 922.56,-103.69 922.56,-103.69"/>
<polygon fill="black" stroke="black" points="919.06,-103.69 922.56,-113.69 926.06,-103.69 919.06,-103.69"/>
</g>
<!-- VisualsDirective -->
<g id="node9" class="node">
<title>VisualsDirective</title>
<polygon fill="#ffffb3" stroke="black" points="754.08,-84.8 643.92,-84.8 643.92,-48.8 754.08,-48.8 754.08,-84.8"/>
<text text-anchor="middle" x="699" y="-62.6" font-family="Times,serif" font-size="14.00">VisualsDirective</text>
</g>
<!-- VisualsDirective&#45;&gt;PlayerModule -->
<g id="edge9" class="edge">
<title>VisualsDirective&#45;&gt;PlayerModule</title>
<path fill="none" stroke="black" d="M699,-85.04C699,-100.37 699,-119.8 699,-119.8 699,-119.8 906.32,-119.8 906.32,-119.8"/>
<polygon fill="black" stroke="black" points="906.32,-123.3 916.32,-119.8 906.32,-116.3 906.32,-123.3"/>
</g>
<!-- FileDropOverlayComponent -->
<g id="node11" class="node">
<title>FileDropOverlayComponent</title>
<polygon fill="#8dd3c7" stroke="black" points="620.47,-84.8 617.47,-88.8 596.47,-88.8 593.47,-84.8 443.53,-84.8 443.53,-48.8 620.47,-48.8 620.47,-84.8"/>
<text text-anchor="middle" x="532" y="-62.6" font-family="Times,serif" font-size="14.00">FileDropOverlayComponent</text>
</g>
<!-- FileDropOverlayComponent&#45;&gt;PlayerModule -->
<g id="edge10" class="edge">
<title>FileDropOverlayComponent&#45;&gt;PlayerModule</title>
<path fill="none" stroke="black" d="M532,-84.82C532,-102.17 532,-125.8 532,-125.8 532,-125.8 906.12,-125.8 906.12,-125.8"/>
<polygon fill="black" stroke="black" points="906.12,-129.3 916.12,-125.8 906.12,-122.3 906.12,-129.3"/>
</g>
<!-- HotkeysModule -->
<g id="node12" class="node">
<title>HotkeysModule</title>
<polygon fill="#8dd3c7" stroke="black" points="425.21,-84.8 422.21,-88.8 401.21,-88.8 398.21,-84.8 318.79,-84.8 318.79,-48.8 425.21,-48.8 425.21,-84.8"/>
<text text-anchor="middle" x="372" y="-62.6" font-family="Times,serif" font-size="14.00">HotkeysModule</text>
</g>
<!-- HotkeysModule&#45;&gt;PlayerModule -->
<g id="edge11" class="edge">
<title>HotkeysModule&#45;&gt;PlayerModule</title>
<path fill="none" stroke="black" d="M372,-84.91C372,-104.14 372,-131.8 372,-131.8 372,-131.8 906.06,-131.8 906.06,-131.8"/>
<polygon fill="black" stroke="black" points="906.06,-135.3 916.06,-131.8 906.06,-128.3 906.06,-135.3"/>
</g>
<!-- IconSizeDirective -->
<g id="node13" class="node">
<title>IconSizeDirective</title>
<polygon fill="#8dd3c7" stroke="black" points="300.56,-84.8 297.56,-88.8 276.56,-88.8 273.56,-84.8 183.44,-84.8 183.44,-48.8 300.56,-48.8 300.56,-84.8"/>
<text text-anchor="middle" x="242" y="-62.6" font-family="Times,serif" font-size="14.00">IconSizeDirective</text>
</g>
<!-- IconSizeDirective&#45;&gt;PlayerModule -->
<g id="edge12" class="edge">
<title>IconSizeDirective&#45;&gt;PlayerModule</title>
<path fill="none" stroke="black" d="M242,-85.08C242,-106.12 242,-137.8 242,-137.8 242,-137.8 906.07,-137.8 906.07,-137.8"/>
<polygon fill="black" stroke="black" points="906.07,-141.3 916.07,-137.8 906.07,-134.3 906.07,-141.3"/>
</g>
<!-- SlidePanelComponent -->
<g id="node14" class="node">
<title>SlidePanelComponent</title>
<polygon fill="#8dd3c7" stroke="black" points="165.71,-84.8 162.71,-88.8 141.71,-88.8 138.71,-84.8 24.29,-84.8 24.29,-48.8 165.71,-48.8 165.71,-84.8"/>
<text text-anchor="middle" x="95" y="-62.6" font-family="Times,serif" font-size="14.00">SlidePanelComponent</text>
</g>
<!-- SlidePanelComponent&#45;&gt;PlayerModule -->
<g id="edge13" class="edge">
<title>SlidePanelComponent&#45;&gt;PlayerModule</title>
<path fill="none" stroke="black" d="M95,-84.89C95,-107.93 95,-144.8 95,-144.8 95,-144.8 906.04,-144.8 906.04,-144.8"/>
<polygon fill="black" stroke="black" points="906.04,-148.3 916.04,-144.8 906.04,-141.3 906.04,-148.3"/>
</g>
</g>
</svg>
