<?xml version="1.0" encoding="UTF-8" standalone="no"?>
<!DOCTYPE svg PUBLIC "-//W3C//DTD SVG 1.1//EN"
 "http://www.w3.org/Graphics/SVG/1.1/DTD/svg11.dtd">
<!-- Generated by graphviz version 5.0.0 (20220707.1540)
 -->
<!-- Title: dependencies Pages: 1 -->
<svg width="1878pt" height="174pt"
 viewBox="0.00 0.00 1878.00 173.80" xmlns="http://www.w3.org/2000/svg" xmlns:xlink="http://www.w3.org/1999/xlink">
<g id="graph0" class="graph" transform="scale(1 1) rotate(0) translate(4 169.8)">
<title>dependencies</title>
<polygon fill="white" stroke="transparent" points="-4,4 -4,-169.8 1874,-169.8 1874,4 -4,4"/>
<text text-anchor="middle" x="935" y="-8.2" font-family="sans-serif" font-size="14.00">dependencies</text>
<g id="clust1" class="cluster">
<title>cluster_PlayerModule</title>
<polygon fill="none" stroke="black" stroke-dasharray="1,5" points="8,-32.8 8,-157.8 1862,-157.8 1862,-32.8 8,-32.8"/>
</g>
<g id="clust2" class="cluster">
<title>cluster_PlayerModule_declarations</title>
<polygon fill="none" stroke="black" points="607,-40.8 607,-92.8 1854,-92.8 1854,-40.8 607,-40.8"/>
</g>
<g id="clust12" class="cluster">
<title>cluster_PlayerModule_imports</title>
<polygon fill="none" stroke="black" points="16,-40.8 16,-92.8 599,-92.8 599,-40.8 16,-40.8"/>
</g>
<!-- BandPipe -->
<g id="node1" class="node">
<title>BandPipe</title>
<polygon fill="#ffffb3" stroke="black" points="1846.44,-84.8 1775.56,-84.8 1775.56,-48.8 1846.44,-48.8 1846.44,-84.8"/>
<text text-anchor="middle" x="1811" y="-62.6" font-family="Times,serif" font-size="14.00">BandPipe</text>
</g>
<!-- PlayerModule -->
<g id="node10" class="node">
<title>PlayerModule</title>
<polygon fill="#8dd3c7" stroke="black" points="982.82,-149.8 979.82,-153.8 958.82,-153.8 955.82,-149.8 887.18,-149.8 887.18,-113.8 982.82,-113.8 982.82,-149.8"/>
<text text-anchor="middle" x="935" y="-127.6" font-family="Times,serif" font-size="14.00">PlayerModule</text>
</g>
<!-- BandPipe&#45;&gt;PlayerModule -->
<g id="edge1" class="edge">
<title>BandPipe&#45;&gt;PlayerModule</title>
<path fill="none" stroke="black" d="M1811,-84.89C1811,-107.93 1811,-144.8 1811,-144.8 1811,-144.8 992.72,-144.8 992.72,-144.8"/>
<polygon fill="black" stroke="black" points="992.72,-141.3 982.72,-144.8 992.72,-148.3 992.72,-141.3"/>
</g>
<!-- CoverDisplayComponent -->
<g id="node2" class="node">
<title>CoverDisplayComponent</title>
<polygon fill="#ffffb3" stroke="black" points="1757.6,-84.8 1598.4,-84.8 1598.4,-48.8 1757.6,-48.8 1757.6,-84.8"/>
<text text-anchor="middle" x="1678" y="-62.6" font-family="Times,serif" font-size="14.00">CoverDisplayComponent</text>
</g>
<!-- CoverDisplayComponent&#45;&gt;PlayerModule -->
<g id="edge2" class="edge">
<title>CoverDisplayComponent&#45;&gt;PlayerModule</title>
<path fill="none" stroke="black" d="M1678,-85.08C1678,-106.12 1678,-137.8 1678,-137.8 1678,-137.8 992.89,-137.8 992.89,-137.8"/>
<polygon fill="black" stroke="black" points="992.89,-134.3 982.89,-137.8 992.89,-141.3 992.89,-134.3"/>
</g>
<!-- EqualizerComponent -->
<g id="node3" class="node">
<title>EqualizerComponent</title>
<polygon fill="#ffffb3" stroke="black" points="1580.47,-84.8 1445.53,-84.8 1445.53,-48.8 1580.47,-48.8 1580.47,-84.8"/>
<text text-anchor="middle" x="1513" y="-62.6" font-family="Times,serif" font-size="14.00">EqualizerComponent</text>
</g>
<!-- EqualizerComponent&#45;&gt;PlayerModule -->
<g id="edge3" class="edge">
<title>EqualizerComponent&#45;&gt;PlayerModule</title>
<path fill="none" stroke="black" d="M1513,-84.91C1513,-104.14 1513,-131.8 1513,-131.8 1513,-131.8 992.79,-131.8 992.79,-131.8"/>
<polygon fill="black" stroke="black" points="992.79,-128.3 982.79,-131.8 992.79,-135.3 992.79,-128.3"/>
</g>
<!-- EqualizerShellComponent -->
<g id="node4" class="node">
<title>EqualizerShellComponent</title>
<polygon fill="#ffffb3" stroke="black" points="1427.75,-84.8 1264.25,-84.8 1264.25,-48.8 1427.75,-48.8 1427.75,-84.8"/>
<text text-anchor="middle" x="1346" y="-62.6" font-family="Times,serif" font-size="14.00">EqualizerShellComponent</text>
</g>
<!-- EqualizerShellComponent&#45;&gt;PlayerModule -->
<g id="edge4" class="edge">
<title>EqualizerShellComponent&#45;&gt;PlayerModule</title>
<path fill="none" stroke="black" d="M1346,-84.82C1346,-102.17 1346,-125.8 1346,-125.8 1346,-125.8 992.95,-125.8 992.95,-125.8"/>
<polygon fill="black" stroke="black" points="992.95,-122.3 982.95,-125.8 992.95,-129.3 992.95,-122.3"/>
</g>
<!-- PlayerComponent -->
<g id="node5" class="node">
<title>PlayerComponent</title>
<polygon fill="#ffffb3" stroke="black" points="1246.6,-84.8 1129.4,-84.8 1129.4,-48.8 1246.6,-48.8 1246.6,-84.8"/>
<text text-anchor="middle" x="1188" y="-62.6" font-family="Times,serif" font-size="14.00">PlayerComponent</text>
</g>
<!-- PlayerComponent&#45;&gt;PlayerModule -->
<g id="edge5" class="edge">
<title>PlayerComponent&#45;&gt;PlayerModule</title>
<path fill="none" stroke="black" d="M1188,-85.04C1188,-100.37 1188,-119.8 1188,-119.8 1188,-119.8 992.88,-119.8 992.88,-119.8"/>
<polygon fill="black" stroke="black" points="992.88,-116.3 982.88,-119.8 992.88,-123.3 992.88,-116.3"/>
</g>
<!-- PlaylistComponent -->
<g id="node6" class="node">
<title>PlaylistComponent</title>
<polygon fill="#ffffb3" stroke="black" points="1111.84,-84.8 988.16,-84.8 988.16,-48.8 1111.84,-48.8 1111.84,-84.8"/>
<text text-anchor="middle" x="1050" y="-62.6" font-family="Times,serif" font-size="14.00">PlaylistComponent</text>
</g>
<!-- PlaylistComponent&#45;&gt;PlayerModule -->
<g id="edge6" class="edge">
<title>PlaylistComponent&#45;&gt;PlayerModule</title>
<path fill="none" stroke="black" d="M988.26,-66.8C981.18,-66.8 976.44,-66.8 976.44,-66.8 976.44,-66.8 976.44,-103.69 976.44,-103.69"/>
<polygon fill="black" stroke="black" points="972.94,-103.69 976.44,-113.69 979.94,-103.69 972.94,-103.69"/>
</g>
<!-- TimePipe -->
<g id="node7" class="node">
<title>TimePipe</title>
<polygon fill="#ffffb3" stroke="black" points="970.44,-84.8 899.56,-84.8 899.56,-48.8 970.44,-48.8 970.44,-84.8"/>
<text text-anchor="middle" x="935" y="-62.6" font-family="Times,serif" font-size="14.00">TimePipe</text>
</g>
<!-- TimePipe&#45;&gt;PlayerModule -->
<g id="edge7" class="edge">
<title>TimePipe&#45;&gt;PlayerModule</title>
<path fill="none" stroke="black" d="M935,-84.91C935,-84.91 935,-103.79 935,-103.79"/>
<polygon fill="black" stroke="black" points="931.5,-103.79 935,-113.79 938.5,-103.79 931.5,-103.79"/>
</g>
<!-- VisualizerComponent -->
<g id="node8" class="node">
<title>VisualizerComponent</title>
<polygon fill="#ffffb3" stroke="black" points="881.36,-84.8 742.64,-84.8 742.64,-48.8 881.36,-48.8 881.36,-84.8"/>
<text text-anchor="middle" x="812" y="-62.6" font-family="Times,serif" font-size="14.00">VisualizerComponent</text>
</g>
<!-- VisualizerComponent&#45;&gt;PlayerModule -->
<g id="edge8" class="edge">
<title>VisualizerComponent&#45;&gt;PlayerModule</title>
<path fill="none" stroke="black" d="M881.53,-66.8C888.78,-66.8 893.56,-66.8 893.56,-66.8 893.56,-66.8 893.56,-103.69 893.56,-103.69"/>
<polygon fill="black" stroke="black" points="890.06,-103.69 893.56,-113.69 897.06,-103.69 890.06,-103.69"/>
</g>
<!-- VisualsDirective -->
<g id="node9" class="node">
<title>VisualsDirective</title>
<polygon fill="#ffffb3" stroke="black" points="725.08,-84.8 614.92,-84.8 614.92,-48.8 725.08,-48.8 725.08,-84.8"/>
<text text-anchor="middle" x="670" y="-62.6" font-family="Times,serif" font-size="14.00">VisualsDirective</text>
</g>
<!-- VisualsDirective&#45;&gt;PlayerModule -->
<g id="edge9" class="edge">
<title>VisualsDirective&#45;&gt;PlayerModule</title>
<path fill="none" stroke="black" d="M670,-85.04C670,-100.37 670,-119.8 670,-119.8 670,-119.8 877.32,-119.8 877.32,-119.8"/>
<polygon fill="black" stroke="black" points="877.32,-123.3 887.32,-119.8 877.32,-116.3 877.32,-123.3"/>
</g>
<!-- FileDropOverlayModule -->
<g id="node11" class="node">
<title>FileDropOverlayModule</title>
<polygon fill="#8dd3c7" stroke="black" points="590.69,-84.8 587.69,-88.8 566.69,-88.8 563.69,-84.8 435.31,-84.8 435.31,-48.8 590.69,-48.8 590.69,-84.8"/>
<text text-anchor="middle" x="513" y="-62.6" font-family="Times,serif" font-size="14.00">FileDropOverlayModule</text>
</g>
<!-- FileDropOverlayModule&#45;&gt;PlayerModule -->
<g id="edge10" class="edge">
<title>FileDropOverlayModule&#45;&gt;PlayerModule</title>
<path fill="none" stroke="black" d="M513,-84.82C513,-102.17 513,-125.8 513,-125.8 513,-125.8 877,-125.8 877,-125.8"/>
<polygon fill="black" stroke="black" points="877,-129.3 887,-125.8 877,-122.3 877,-129.3"/>
</g>
<!-- HotkeysModule -->
<g id="node12" class="node">
<title>HotkeysModule</title>
<polygon fill="#8dd3c7" stroke="black" points="417.21,-84.8 414.21,-88.8 393.21,-88.8 390.21,-84.8 310.79,-84.8 310.79,-48.8 417.21,-48.8 417.21,-84.8"/>
<text text-anchor="middle" x="364" y="-62.6" font-family="Times,serif" font-size="14.00">HotkeysModule</text>
</g>
<!-- HotkeysModule&#45;&gt;PlayerModule -->
<g id="edge11" class="edge">
<title>HotkeysModule&#45;&gt;PlayerModule</title>
<path fill="none" stroke="black" d="M364,-84.91C364,-104.14 364,-131.8 364,-131.8 364,-131.8 877.3,-131.8 877.3,-131.8"/>
<polygon fill="black" stroke="black" points="877.3,-135.3 887.3,-131.8 877.3,-128.3 877.3,-135.3"/>
</g>
<!-- MatIconSizeModule -->
<g id="node13" class="node">
<title>MatIconSizeModule</title>
<polygon fill="#8dd3c7" stroke="black" points="292.58,-84.8 289.58,-88.8 268.58,-88.8 265.58,-84.8 161.42,-84.8 161.42,-48.8 292.58,-48.8 292.58,-84.8"/>
<text text-anchor="middle" x="227" y="-62.6" font-family="Times,serif" font-size="14.00">MatIconSizeModule</text>
</g>
<!-- MatIconSizeModule&#45;&gt;PlayerModule -->
<g id="edge12" class="edge">
<title>MatIconSizeModule&#45;&gt;PlayerModule</title>
<path fill="none" stroke="black" d="M227,-85.08C227,-106.12 227,-137.8 227,-137.8 227,-137.8 877.17,-137.8 877.17,-137.8"/>
<polygon fill="black" stroke="black" points="877.17,-141.3 887.17,-137.8 877.17,-134.3 877.17,-141.3"/>
</g>
<!-- SlidePanelModule -->
<g id="node14" class="node">
<title>SlidePanelModule</title>
<polygon fill="#8dd3c7" stroke="black" points="143.94,-84.8 140.94,-88.8 119.94,-88.8 116.94,-84.8 24.06,-84.8 24.06,-48.8 143.94,-48.8 143.94,-84.8"/>
<text text-anchor="middle" x="84" y="-62.6" font-family="Times,serif" font-size="14.00">SlidePanelModule</text>
</g>
<!-- SlidePanelModule&#45;&gt;PlayerModule -->
<g id="edge13" class="edge">
<title>SlidePanelModule&#45;&gt;PlayerModule</title>
<path fill="none" stroke="black" d="M84,-84.89C84,-107.93 84,-144.8 84,-144.8 84,-144.8 877.12,-144.8 877.12,-144.8"/>
<polygon fill="black" stroke="black" points="877.12,-148.3 887.12,-144.8 877.12,-141.3 877.12,-148.3"/>
</g>
</g>
</svg>
