<?xml version="1.0" encoding="UTF-8" standalone="no"?>
<!DOCTYPE svg PUBLIC "-//W3C//DTD SVG 1.1//EN"
 "http://www.w3.org/Graphics/SVG/1.1/DTD/svg11.dtd">
<!-- Generated by graphviz version 5.0.0 (20220707.1540)
 -->
<!-- Title: dependencies Pages: 1 -->
<svg width="1726pt" height="174pt"
 viewBox="0.00 0.00 1726.00 173.80" xmlns="http://www.w3.org/2000/svg" xmlns:xlink="http://www.w3.org/1999/xlink">
<g id="graph0" class="graph" transform="scale(1 1) rotate(0) translate(4 169.8)">
<title>dependencies</title>
<polygon fill="white" stroke="transparent" points="-4,4 -4,-169.8 1722,-169.8 1722,4 -4,4"/>
<text text-anchor="middle" x="859" y="-8.2" font-family="sans-serif" font-size="14.00">dependencies</text>
<g id="clust1" class="cluster">
<title>cluster_PlayerModule</title>
<polygon fill="none" stroke="black" stroke-dasharray="1,5" points="8,-32.8 8,-157.8 1710,-157.8 1710,-32.8 8,-32.8"/>
</g>
<g id="clust3" class="cluster">
<title>cluster_PlayerModule_imports</title>
<polygon fill="none" stroke="black" points="16,-40.8 16,-92.8 1702,-92.8 1702,-40.8 16,-40.8"/>
</g>
<!-- BandPipe -->
<g id="node1" class="node">
<title>BandPipe</title>
<polygon fill="#8dd3c7" stroke="black" points="1694.44,-84.8 1691.44,-88.8 1670.44,-88.8 1667.44,-84.8 1623.56,-84.8 1623.56,-48.8 1694.44,-48.8 1694.44,-84.8"/>
<text text-anchor="middle" x="1659" y="-62.6" font-family="Times,serif" font-size="14.00">BandPipe</text>
</g>
<!-- PlayerModule -->
<g id="node13" class="node">
<title>PlayerModule</title>
<polygon fill="#8dd3c7" stroke="black" points="872.82,-149.8 869.82,-153.8 848.82,-153.8 845.82,-149.8 777.18,-149.8 777.18,-113.8 872.82,-113.8 872.82,-149.8"/>
<text text-anchor="middle" x="825" y="-127.6" font-family="Times,serif" font-size="14.00">PlayerModule</text>
</g>
<!-- BandPipe&#45;&gt;PlayerModule -->
<g id="edge1" class="edge">
<title>BandPipe&#45;&gt;PlayerModule</title>
<path fill="none" stroke="black" d="M1659,-84.89C1659,-107.93 1659,-144.8 1659,-144.8 1659,-144.8 882.83,-144.8 882.83,-144.8"/>
<polygon fill="black" stroke="black" points="882.83,-141.3 872.83,-144.8 882.83,-148.3 882.83,-141.3"/>
</g>
<!-- CoverDisplayComponent -->
<g id="node2" class="node">
<title>CoverDisplayComponent</title>
<polygon fill="#8dd3c7" stroke="black" points="1605.6,-84.8 1602.6,-88.8 1581.6,-88.8 1578.6,-84.8 1446.4,-84.8 1446.4,-48.8 1605.6,-48.8 1605.6,-84.8"/>
<text text-anchor="middle" x="1526" y="-62.6" font-family="Times,serif" font-size="14.00">CoverDisplayComponent</text>
</g>
<!-- CoverDisplayComponent&#45;&gt;PlayerModule -->
<g id="edge2" class="edge">
<title>CoverDisplayComponent&#45;&gt;PlayerModule</title>
<path fill="none" stroke="black" d="M1526,-85.08C1526,-106.12 1526,-137.8 1526,-137.8 1526,-137.8 882.91,-137.8 882.91,-137.8"/>
<polygon fill="black" stroke="black" points="882.91,-134.3 872.91,-137.8 882.91,-141.3 882.91,-134.3"/>
</g>
<!-- EqualizerComponent -->
<g id="node3" class="node">
<title>EqualizerComponent</title>
<polygon fill="#8dd3c7" stroke="black" points="1428.47,-84.8 1425.47,-88.8 1404.47,-88.8 1401.47,-84.8 1293.53,-84.8 1293.53,-48.8 1428.47,-48.8 1428.47,-84.8"/>
<text text-anchor="middle" x="1361" y="-62.6" font-family="Times,serif" font-size="14.00">EqualizerComponent</text>
</g>
<!-- EqualizerComponent&#45;&gt;PlayerModule -->
<g id="edge3" class="edge">
<title>EqualizerComponent&#45;&gt;PlayerModule</title>
<path fill="none" stroke="black" d="M1361,-84.91C1361,-104.14 1361,-131.8 1361,-131.8 1361,-131.8 883.04,-131.8 883.04,-131.8"/>
<polygon fill="black" stroke="black" points="883.04,-128.3 873.04,-131.8 883.04,-135.3 883.04,-128.3"/>
</g>
<!-- FileDropOverlayComponent -->
<g id="node4" class="node">
<title>FileDropOverlayComponent</title>
<polygon fill="#8dd3c7" stroke="black" points="1275.47,-84.8 1272.47,-88.8 1251.47,-88.8 1248.47,-84.8 1098.53,-84.8 1098.53,-48.8 1275.47,-48.8 1275.47,-84.8"/>
<text text-anchor="middle" x="1187" y="-62.6" font-family="Times,serif" font-size="14.00">FileDropOverlayComponent</text>
</g>
<!-- FileDropOverlayComponent&#45;&gt;PlayerModule -->
<g id="edge4" class="edge">
<title>FileDropOverlayComponent&#45;&gt;PlayerModule</title>
<path fill="none" stroke="black" d="M1187,-84.82C1187,-102.17 1187,-125.8 1187,-125.8 1187,-125.8 882.7,-125.8 882.7,-125.8"/>
<polygon fill="black" stroke="black" points="882.7,-122.3 872.7,-125.8 882.7,-129.3 882.7,-122.3"/>
</g>
<!-- HotkeysModule -->
<g id="node5" class="node">
<title>HotkeysModule</title>
<polygon fill="#8dd3c7" stroke="black" points="1080.21,-84.8 1077.21,-88.8 1056.21,-88.8 1053.21,-84.8 973.79,-84.8 973.79,-48.8 1080.21,-48.8 1080.21,-84.8"/>
<text text-anchor="middle" x="1027" y="-62.6" font-family="Times,serif" font-size="14.00">HotkeysModule</text>
</g>
<!-- HotkeysModule&#45;&gt;PlayerModule -->
<g id="edge5" class="edge">
<title>HotkeysModule&#45;&gt;PlayerModule</title>
<path fill="none" stroke="black" d="M1027,-85.04C1027,-100.37 1027,-119.8 1027,-119.8 1027,-119.8 882.87,-119.8 882.87,-119.8"/>
<polygon fill="black" stroke="black" points="882.87,-116.3 872.87,-119.8 882.87,-123.3 882.87,-116.3"/>
</g>
<!-- LibraryComponent -->
<g id="node6" class="node">
<title>LibraryComponent</title>
<polygon fill="#8dd3c7" stroke="black" points="955.81,-84.8 952.81,-88.8 931.81,-88.8 928.81,-84.8 832.19,-84.8 832.19,-48.8 955.81,-48.8 955.81,-84.8"/>
<text text-anchor="middle" x="894" y="-62.6" font-family="Times,serif" font-size="14.00">LibraryComponent</text>
</g>
<!-- LibraryComponent&#45;&gt;PlayerModule -->
<g id="edge6" class="edge">
<title>LibraryComponent&#45;&gt;PlayerModule</title>
<path fill="none" stroke="black" d="M852.5,-84.91C852.5,-84.91 852.5,-103.79 852.5,-103.79"/>
<polygon fill="black" stroke="black" points="849,-103.79 852.5,-113.79 856,-103.79 849,-103.79"/>
</g>
<!-- PlayerComponent -->
<g id="node7" class="node">
<title>PlayerComponent</title>
<polygon fill="#8dd3c7" stroke="black" points="814.6,-84.8 811.6,-88.8 790.6,-88.8 787.6,-84.8 697.4,-84.8 697.4,-48.8 814.6,-48.8 814.6,-84.8"/>
<text text-anchor="middle" x="756" y="-62.6" font-family="Times,serif" font-size="14.00">PlayerComponent</text>
</g>
<!-- PlayerComponent&#45;&gt;PlayerModule -->
<g id="edge7" class="edge">
<title>PlayerComponent&#45;&gt;PlayerModule</title>
<path fill="none" stroke="black" d="M795.94,-84.91C795.94,-84.91 795.94,-103.79 795.94,-103.79"/>
<polygon fill="black" stroke="black" points="792.44,-103.79 795.94,-113.79 799.44,-103.79 792.44,-103.79"/>
</g>
<!-- PlaylistComponent -->
<g id="node8" class="node">
<title>PlaylistComponent</title>
<polygon fill="#8dd3c7" stroke="black" points="679.84,-84.8 676.84,-88.8 655.84,-88.8 652.84,-84.8 556.16,-84.8 556.16,-48.8 679.84,-48.8 679.84,-84.8"/>
<text text-anchor="middle" x="618" y="-62.6" font-family="Times,serif" font-size="14.00">PlaylistComponent</text>
</g>
<!-- PlaylistComponent&#45;&gt;PlayerModule -->
<g id="edge8" class="edge">
<title>PlaylistComponent&#45;&gt;PlayerModule</title>
<path fill="none" stroke="black" d="M618,-85.04C618,-100.37 618,-119.8 618,-119.8 618,-119.8 767.25,-119.8 767.25,-119.8"/>
<polygon fill="black" stroke="black" points="767.25,-123.3 777.25,-119.8 767.25,-116.3 767.25,-123.3"/>
</g>
<!-- SlidePanelComponent -->
<g id="node9" class="node">
<title>SlidePanelComponent</title>
<polygon fill="#8dd3c7" stroke="black" points="538.71,-84.8 535.71,-88.8 514.71,-88.8 511.71,-84.8 397.29,-84.8 397.29,-48.8 538.71,-48.8 538.71,-84.8"/>
<text text-anchor="middle" x="468" y="-62.6" font-family="Times,serif" font-size="14.00">SlidePanelComponent</text>
</g>
<!-- SlidePanelComponent&#45;&gt;PlayerModule -->
<g id="edge9" class="edge">
<title>SlidePanelComponent&#45;&gt;PlayerModule</title>
<path fill="none" stroke="black" d="M468,-84.82C468,-102.17 468,-125.8 468,-125.8 468,-125.8 767.22,-125.8 767.22,-125.8"/>
<polygon fill="black" stroke="black" points="767.22,-129.3 777.22,-125.8 767.22,-122.3 767.22,-129.3"/>
</g>
<!-- TimePipe -->
<g id="node10" class="node">
<title>TimePipe</title>
<polygon fill="#8dd3c7" stroke="black" points="379.44,-84.8 376.44,-88.8 355.44,-88.8 352.44,-84.8 308.56,-84.8 308.56,-48.8 379.44,-48.8 379.44,-84.8"/>
<text text-anchor="middle" x="344" y="-62.6" font-family="Times,serif" font-size="14.00">TimePipe</text>
</g>
<!-- TimePipe&#45;&gt;PlayerModule -->
<g id="edge10" class="edge">
<title>TimePipe&#45;&gt;PlayerModule</title>
<path fill="none" stroke="black" d="M344,-84.91C344,-104.14 344,-131.8 344,-131.8 344,-131.8 767.12,-131.8 767.12,-131.8"/>
<polygon fill="black" stroke="black" points="767.12,-135.3 777.12,-131.8 767.12,-128.3 767.12,-135.3"/>
</g>
<!-- VisualizerComponent -->
<g id="node11" class="node">
<title>VisualizerComponent</title>
<polygon fill="#8dd3c7" stroke="black" points="290.36,-84.8 287.36,-88.8 266.36,-88.8 263.36,-84.8 151.64,-84.8 151.64,-48.8 290.36,-48.8 290.36,-84.8"/>
<text text-anchor="middle" x="221" y="-62.6" font-family="Times,serif" font-size="14.00">VisualizerComponent</text>
</g>
<!-- VisualizerComponent&#45;&gt;PlayerModule -->
<g id="edge11" class="edge">
<title>VisualizerComponent&#45;&gt;PlayerModule</title>
<path fill="none" stroke="black" d="M221,-85.08C221,-106.12 221,-137.8 221,-137.8 221,-137.8 767.1,-137.8 767.1,-137.8"/>
<polygon fill="black" stroke="black" points="767.1,-141.3 777.1,-137.8 767.1,-134.3 767.1,-141.3"/>
</g>
<!-- VisualsDirective -->
<g id="node12" class="node">
<title>VisualsDirective</title>
<polygon fill="#8dd3c7" stroke="black" points="134.08,-84.8 131.08,-88.8 110.08,-88.8 107.08,-84.8 23.92,-84.8 23.92,-48.8 134.08,-48.8 134.08,-84.8"/>
<text text-anchor="middle" x="79" y="-62.6" font-family="Times,serif" font-size="14.00">VisualsDirective</text>
</g>
<!-- VisualsDirective&#45;&gt;PlayerModule -->
<g id="edge12" class="edge">
<title>VisualsDirective&#45;&gt;PlayerModule</title>
<path fill="none" stroke="black" d="M79,-84.89C79,-107.93 79,-144.8 79,-144.8 79,-144.8 767.2,-144.8 767.2,-144.8"/>
<polygon fill="black" stroke="black" points="767.2,-148.3 777.2,-144.8 767.2,-141.3 767.2,-148.3"/>
</g>
</g>
</svg>
