<?xml version="1.0" encoding="UTF-8" standalone="no"?>
<!DOCTYPE svg PUBLIC "-//W3C//DTD SVG 1.1//EN"
 "http://www.w3.org/Graphics/SVG/1.1/DTD/svg11.dtd">
<!-- Generated by graphviz version 5.0.0 (20220707.1540)
 -->
<!-- Title: dependencies Pages: 1 -->
<svg width="1859pt" height="174pt"
 viewBox="0.00 0.00 1859.00 173.80" xmlns="http://www.w3.org/2000/svg" xmlns:xlink="http://www.w3.org/1999/xlink">
<g id="graph0" class="graph" transform="scale(1 1) rotate(0) translate(4 169.8)">
<title>dependencies</title>
<polygon fill="white" stroke="transparent" points="-4,4 -4,-169.8 1855,-169.8 1855,4 -4,4"/>
<text text-anchor="middle" x="925.5" y="-8.2" font-family="sans-serif" font-size="14.00">dependencies</text>
<g id="clust1" class="cluster">
<title>cluster_PlayerModule</title>
<polygon fill="none" stroke="black" stroke-dasharray="1,5" points="8,-32.8 8,-157.8 1843,-157.8 1843,-32.8 8,-32.8"/>
</g>
<g id="clust12" class="cluster">
<title>cluster_PlayerModule_imports</title>
<polygon fill="none" stroke="black" points="1231,-40.8 1231,-92.8 1835,-92.8 1835,-40.8 1231,-40.8"/>
</g>
<g id="clust2" class="cluster">
<title>cluster_PlayerModule_declarations</title>
<polygon fill="none" stroke="black" points="16,-40.8 16,-92.8 1223,-92.8 1223,-40.8 16,-40.8"/>
</g>
<!-- BandPipe -->
<g id="node1" class="node">
<title>BandPipe</title>
<polygon fill="#ffffb3" stroke="black" points="1215.44,-84.8 1144.56,-84.8 1144.56,-48.8 1215.44,-48.8 1215.44,-84.8"/>
<text text-anchor="middle" x="1180" y="-62.6" font-family="Times,serif" font-size="14.00">BandPipe</text>
</g>
<!-- PlayerModule -->
<g id="node10" class="node">
<title>PlayerModule</title>
<polygon fill="#8dd3c7" stroke="black" points="929.82,-149.8 926.82,-153.8 905.82,-153.8 902.82,-149.8 834.18,-149.8 834.18,-113.8 929.82,-113.8 929.82,-149.8"/>
<text text-anchor="middle" x="882" y="-127.6" font-family="Times,serif" font-size="14.00">PlayerModule</text>
</g>
<!-- BandPipe&#45;&gt;PlayerModule -->
<g id="edge1" class="edge">
<title>BandPipe&#45;&gt;PlayerModule</title>
<path fill="none" stroke="black" d="M1180,-84.83C1180,-101.86 1180,-124.8 1180,-124.8 1180,-124.8 939.88,-124.8 939.88,-124.8"/>
<polygon fill="black" stroke="black" points="939.88,-121.3 929.88,-124.8 939.88,-128.3 939.88,-121.3"/>
</g>
<!-- CoverDisplayComponent -->
<g id="node2" class="node">
<title>CoverDisplayComponent</title>
<polygon fill="#ffffb3" stroke="black" points="1126.6,-84.8 967.4,-84.8 967.4,-48.8 1126.6,-48.8 1126.6,-84.8"/>
<text text-anchor="middle" x="1047" y="-62.6" font-family="Times,serif" font-size="14.00">CoverDisplayComponent</text>
</g>
<!-- CoverDisplayComponent&#45;&gt;PlayerModule -->
<g id="edge2" class="edge">
<title>CoverDisplayComponent&#45;&gt;PlayerModule</title>
<path fill="none" stroke="black" d="M1047,-85.04C1047,-100.37 1047,-119.8 1047,-119.8 1047,-119.8 939.72,-119.8 939.72,-119.8"/>
<polygon fill="black" stroke="black" points="939.72,-116.3 929.72,-119.8 939.72,-123.3 939.72,-116.3"/>
</g>
<!-- EqualizerComponent -->
<g id="node3" class="node">
<title>EqualizerComponent</title>
<polygon fill="#ffffb3" stroke="black" points="949.47,-84.8 814.53,-84.8 814.53,-48.8 949.47,-48.8 949.47,-84.8"/>
<text text-anchor="middle" x="882" y="-62.6" font-family="Times,serif" font-size="14.00">EqualizerComponent</text>
</g>
<!-- EqualizerComponent&#45;&gt;PlayerModule -->
<g id="edge3" class="edge">
<title>EqualizerComponent&#45;&gt;PlayerModule</title>
<path fill="none" stroke="black" d="M882,-84.91C882,-84.91 882,-103.79 882,-103.79"/>
<polygon fill="black" stroke="black" points="878.5,-103.79 882,-113.79 885.5,-103.79 878.5,-103.79"/>
</g>
<!-- LibraryComponent -->
<g id="node4" class="node">
<title>LibraryComponent</title>
<polygon fill="#ffffb3" stroke="black" points="796.81,-84.8 673.19,-84.8 673.19,-48.8 796.81,-48.8 796.81,-84.8"/>
<text text-anchor="middle" x="735" y="-62.6" font-family="Times,serif" font-size="14.00">LibraryComponent</text>
</g>
<!-- LibraryComponent&#45;&gt;PlayerModule -->
<g id="edge4" class="edge">
<title>LibraryComponent&#45;&gt;PlayerModule</title>
<path fill="none" stroke="black" d="M735,-85.04C735,-100.37 735,-119.8 735,-119.8 735,-119.8 824.27,-119.8 824.27,-119.8"/>
<polygon fill="black" stroke="black" points="824.27,-123.3 834.27,-119.8 824.27,-116.3 824.27,-123.3"/>
</g>
<!-- PlayerComponent -->
<g id="node5" class="node">
<title>PlayerComponent</title>
<polygon fill="#ffffb3" stroke="black" points="655.6,-84.8 538.4,-84.8 538.4,-48.8 655.6,-48.8 655.6,-84.8"/>
<text text-anchor="middle" x="597" y="-62.6" font-family="Times,serif" font-size="14.00">PlayerComponent</text>
</g>
<!-- PlayerComponent&#45;&gt;PlayerModule -->
<g id="edge5" class="edge">
<title>PlayerComponent&#45;&gt;PlayerModule</title>
<path fill="none" stroke="black" d="M597,-84.83C597,-101.86 597,-124.8 597,-124.8 597,-124.8 824.3,-124.8 824.3,-124.8"/>
<polygon fill="black" stroke="black" points="824.3,-128.3 834.3,-124.8 824.3,-121.3 824.3,-128.3"/>
</g>
<!-- PlaylistComponent -->
<g id="node6" class="node">
<title>PlaylistComponent</title>
<polygon fill="#ffffb3" stroke="black" points="520.84,-84.8 397.16,-84.8 397.16,-48.8 520.84,-48.8 520.84,-84.8"/>
<text text-anchor="middle" x="459" y="-62.6" font-family="Times,serif" font-size="14.00">PlaylistComponent</text>
</g>
<!-- PlaylistComponent&#45;&gt;PlayerModule -->
<g id="edge6" class="edge">
<title>PlaylistComponent&#45;&gt;PlayerModule</title>
<path fill="none" stroke="black" d="M459,-85.02C459,-103.63 459,-129.8 459,-129.8 459,-129.8 824.3,-129.8 824.3,-129.8"/>
<polygon fill="black" stroke="black" points="824.3,-133.3 834.3,-129.8 824.3,-126.3 824.3,-133.3"/>
</g>
<!-- TimePipe -->
<g id="node7" class="node">
<title>TimePipe</title>
<polygon fill="#ffffb3" stroke="black" points="379.44,-84.8 308.56,-84.8 308.56,-48.8 379.44,-48.8 379.44,-84.8"/>
<text text-anchor="middle" x="344" y="-62.6" font-family="Times,serif" font-size="14.00">TimePipe</text>
</g>
<!-- TimePipe&#45;&gt;PlayerModule -->
<g id="edge7" class="edge">
<title>TimePipe&#45;&gt;PlayerModule</title>
<path fill="none" stroke="black" d="M344,-85.02C344,-105.17 344,-134.8 344,-134.8 344,-134.8 824.26,-134.8 824.26,-134.8"/>
<polygon fill="black" stroke="black" points="824.26,-138.3 834.26,-134.8 824.26,-131.3 824.26,-138.3"/>
</g>
<!-- VisualizerComponent -->
<g id="node8" class="node">
<title>VisualizerComponent</title>
<polygon fill="#ffffb3" stroke="black" points="290.36,-84.8 151.64,-84.8 151.64,-48.8 290.36,-48.8 290.36,-84.8"/>
<text text-anchor="middle" x="221" y="-62.6" font-family="Times,serif" font-size="14.00">VisualizerComponent</text>
</g>
<!-- VisualizerComponent&#45;&gt;PlayerModule -->
<g id="edge8" class="edge">
<title>VisualizerComponent&#45;&gt;PlayerModule</title>
<path fill="none" stroke="black" d="M221,-84.84C221,-106.46 221,-139.8 221,-139.8 221,-139.8 824.2,-139.8 824.2,-139.8"/>
<polygon fill="black" stroke="black" points="824.2,-143.3 834.2,-139.8 824.2,-136.3 824.2,-143.3"/>
</g>
<!-- VisualsDirective -->
<g id="node9" class="node">
<title>VisualsDirective</title>
<polygon fill="#ffffb3" stroke="black" points="134.08,-84.8 23.92,-84.8 23.92,-48.8 134.08,-48.8 134.08,-84.8"/>
<text text-anchor="middle" x="79" y="-62.6" font-family="Times,serif" font-size="14.00">VisualsDirective</text>
</g>
<!-- VisualsDirective&#45;&gt;PlayerModule -->
<g id="edge9" class="edge">
<title>VisualsDirective&#45;&gt;PlayerModule</title>
<path fill="none" stroke="black" d="M79,-84.89C79,-107.93 79,-144.8 79,-144.8 79,-144.8 824.17,-144.8 824.17,-144.8"/>
<polygon fill="black" stroke="black" points="824.17,-148.3 834.17,-144.8 824.17,-141.3 824.17,-148.3"/>
</g>
<!-- FileDropOverlayComponent -->
<g id="node11" class="node">
<title>FileDropOverlayComponent</title>
<polygon fill="#8dd3c7" stroke="black" points="1827.47,-84.8 1824.47,-88.8 1803.47,-88.8 1800.47,-84.8 1650.53,-84.8 1650.53,-48.8 1827.47,-48.8 1827.47,-84.8"/>
<text text-anchor="middle" x="1739" y="-62.6" font-family="Times,serif" font-size="14.00">FileDropOverlayComponent</text>
</g>
<!-- FileDropOverlayComponent&#45;&gt;PlayerModule -->
<g id="edge10" class="edge">
<title>FileDropOverlayComponent&#45;&gt;PlayerModule</title>
<path fill="none" stroke="black" d="M1739,-84.89C1739,-107.93 1739,-144.8 1739,-144.8 1739,-144.8 939.91,-144.8 939.91,-144.8"/>
<polygon fill="black" stroke="black" points="939.91,-141.3 929.91,-144.8 939.91,-148.3 939.91,-141.3"/>
</g>
<!-- HotkeysModule -->
<g id="node12" class="node">
<title>HotkeysModule</title>
<polygon fill="#8dd3c7" stroke="black" points="1632.21,-84.8 1629.21,-88.8 1608.21,-88.8 1605.21,-84.8 1525.79,-84.8 1525.79,-48.8 1632.21,-48.8 1632.21,-84.8"/>
<text text-anchor="middle" x="1579" y="-62.6" font-family="Times,serif" font-size="14.00">HotkeysModule</text>
</g>
<!-- HotkeysModule&#45;&gt;PlayerModule -->
<g id="edge11" class="edge">
<title>HotkeysModule&#45;&gt;PlayerModule</title>
<path fill="none" stroke="black" d="M1579,-84.84C1579,-106.46 1579,-139.8 1579,-139.8 1579,-139.8 939.91,-139.8 939.91,-139.8"/>
<polygon fill="black" stroke="black" points="939.91,-136.3 929.91,-139.8 939.91,-143.3 939.91,-136.3"/>
</g>
<!-- MatIconSizeModule -->
<g id="node13" class="node">
<title>MatIconSizeModule</title>
<polygon fill="#8dd3c7" stroke="black" points="1507.58,-84.8 1504.58,-88.8 1483.58,-88.8 1480.58,-84.8 1376.42,-84.8 1376.42,-48.8 1507.58,-48.8 1507.58,-84.8"/>
<text text-anchor="middle" x="1442" y="-62.6" font-family="Times,serif" font-size="14.00">MatIconSizeModule</text>
</g>
<!-- MatIconSizeModule&#45;&gt;PlayerModule -->
<g id="edge12" class="edge">
<title>MatIconSizeModule&#45;&gt;PlayerModule</title>
<path fill="none" stroke="black" d="M1442,-85.02C1442,-105.17 1442,-134.8 1442,-134.8 1442,-134.8 939.75,-134.8 939.75,-134.8"/>
<polygon fill="black" stroke="black" points="939.75,-131.3 929.75,-134.8 939.75,-138.3 939.75,-131.3"/>
</g>
<!-- SlidePanelModule -->
<g id="node14" class="node">
<title>SlidePanelModule</title>
<polygon fill="#8dd3c7" stroke="black" points="1358.94,-84.8 1355.94,-88.8 1334.94,-88.8 1331.94,-84.8 1239.06,-84.8 1239.06,-48.8 1358.94,-48.8 1358.94,-84.8"/>
<text text-anchor="middle" x="1299" y="-62.6" font-family="Times,serif" font-size="14.00">SlidePanelModule</text>
</g>
<!-- SlidePanelModule&#45;&gt;PlayerModule -->
<g id="edge13" class="edge">
<title>SlidePanelModule&#45;&gt;PlayerModule</title>
<path fill="none" stroke="black" d="M1299,-85.02C1299,-103.63 1299,-129.8 1299,-129.8 1299,-129.8 939.84,-129.8 939.84,-129.8"/>
<polygon fill="black" stroke="black" points="939.84,-126.3 929.84,-129.8 939.84,-133.3 939.84,-126.3"/>
</g>
</g>
</svg>
