<?xml version="1.0" encoding="UTF-8" standalone="no"?>
<!DOCTYPE svg PUBLIC "-//W3C//DTD SVG 1.1//EN"
 "http://www.w3.org/Graphics/SVG/1.1/DTD/svg11.dtd">
<!-- Generated by graphviz version 2.40.1 (20161225.0304)
 -->
<!-- Title: dependencies Pages: 1 -->
<svg width="1985pt" height="211pt"
 viewBox="0.00 0.00 1985.00 211.00" xmlns="http://www.w3.org/2000/svg" xmlns:xlink="http://www.w3.org/1999/xlink">
<g id="graph0" class="graph" transform="scale(1 1) rotate(0) translate(4 207)">
<title>dependencies</title>
<polygon fill="#ffffff" stroke="transparent" points="-4,4 -4,-207 1981,-207 1981,4 -4,4"/>
<text text-anchor="start" x="967.5091" y="-42.4" font-family="sans-serif" font-weight="bold" font-size="14.00" fill="#000000">Legend</text>
<polygon fill="#ffffb3" stroke="transparent" points="754.5,-10 754.5,-30 774.5,-30 774.5,-10 754.5,-10"/>
<text text-anchor="start" x="778.129" y="-15.4" font-family="sans-serif" font-size="14.00" fill="#000000"> &#160;Declarations</text>
<polygon fill="#8dd3c7" stroke="transparent" points="867.5,-10 867.5,-30 887.5,-30 887.5,-10 867.5,-10"/>
<text text-anchor="start" x="891.2251" y="-15.4" font-family="sans-serif" font-size="14.00" fill="#000000"> &#160;Module</text>
<polygon fill="#80b1d3" stroke="transparent" points="953.5,-10 953.5,-30 973.5,-30 973.5,-10 953.5,-10"/>
<text text-anchor="start" x="977.2812" y="-15.4" font-family="sans-serif" font-size="14.00" fill="#000000"> &#160;Bootstrap</text>
<polygon fill="#fdb462" stroke="transparent" points="1050.5,-10 1050.5,-30 1070.5,-30 1070.5,-10 1050.5,-10"/>
<text text-anchor="start" x="1074.1732" y="-15.4" font-family="sans-serif" font-size="14.00" fill="#000000"> &#160;Providers</text>
<polygon fill="#fb8072" stroke="transparent" points="1146.5,-10 1146.5,-30 1166.5,-30 1166.5,-10 1146.5,-10"/>
<text text-anchor="start" x="1170.2258" y="-15.4" font-family="sans-serif" font-size="14.00" fill="#000000"> &#160;Exports</text>
<g id="clust1" class="cluster">
<title>cluster_PlayerModule</title>
<polygon fill="none" stroke="#000000" stroke-dasharray="1,5" points="8,-70 8,-195 1969,-195 1969,-70 8,-70"/>
</g>
<g id="clust2" class="cluster">
<title>cluster_PlayerModule_declarations</title>
<polygon fill="none" stroke="#000000" points="842,-78 842,-130 1961,-130 1961,-78 842,-78"/>
</g>
<g id="clust11" class="cluster">
<title>cluster_PlayerModule_imports</title>
<polygon fill="none" stroke="#000000" points="16,-78 16,-130 834,-130 834,-78 16,-78"/>
</g>
<!-- BandPipe -->
<g id="node1" class="node">
<title>BandPipe</title>
<polygon fill="#ffffb3" stroke="#000000" points="1953.4404,-122 1882.5596,-122 1882.5596,-86 1953.4404,-86 1953.4404,-122"/>
<text text-anchor="middle" x="1918" y="-99.8" font-family="Times,serif" font-size="14.00" fill="#000000">BandPipe</text>
</g>
<!-- PlayerModule -->
<g id="node9" class="node">
<title>PlayerModule</title>
<polygon fill="#8dd3c7" stroke="#000000" points="1027.8133,-187 1024.8133,-191 1003.8133,-191 1000.8133,-187 932.1867,-187 932.1867,-151 1027.8133,-151 1027.8133,-187"/>
<text text-anchor="middle" x="980" y="-164.8" font-family="Times,serif" font-size="14.00" fill="#000000">PlayerModule</text>
</g>
<!-- BandPipe&#45;&gt;PlayerModule -->
<g id="edge1" class="edge">
<title>BandPipe&#45;&gt;PlayerModule</title>
<path fill="none" stroke="#000000" d="M1918,-122.0908C1918,-145.1328 1918,-182 1918,-182 1918,-182 1037.8051,-182 1037.8051,-182"/>
<polygon fill="#000000" stroke="#000000" points="1037.8052,-178.5001 1027.8051,-182 1037.8051,-185.5001 1037.8052,-178.5001"/>
</g>
<!-- CoverDisplayComponent -->
<g id="node2" class="node">
<title>CoverDisplayComponent</title>
<polygon fill="#ffffb3" stroke="#000000" points="1864.5912,-122 1705.4088,-122 1705.4088,-86 1864.5912,-86 1864.5912,-122"/>
<text text-anchor="middle" x="1785" y="-99.8" font-family="Times,serif" font-size="14.00" fill="#000000">CoverDisplayComponent</text>
</g>
<!-- CoverDisplayComponent&#45;&gt;PlayerModule -->
<g id="edge2" class="edge">
<title>CoverDisplayComponent&#45;&gt;PlayerModule</title>
<path fill="none" stroke="#000000" d="M1785,-122.0449C1785,-143.6623 1785,-177 1785,-177 1785,-177 1037.9457,-177 1037.9457,-177"/>
<polygon fill="#000000" stroke="#000000" points="1037.9457,-173.5001 1027.9457,-177 1037.9456,-180.5001 1037.9457,-173.5001"/>
</g>
<!-- EqualizerComponent -->
<g id="node3" class="node">
<title>EqualizerComponent</title>
<polygon fill="#ffffb3" stroke="#000000" points="1687.4706,-122 1552.5294,-122 1552.5294,-86 1687.4706,-86 1687.4706,-122"/>
<text text-anchor="middle" x="1620" y="-99.8" font-family="Times,serif" font-size="14.00" fill="#000000">EqualizerComponent</text>
</g>
<!-- EqualizerComponent&#45;&gt;PlayerModule -->
<g id="edge3" class="edge">
<title>EqualizerComponent&#45;&gt;PlayerModule</title>
<path fill="none" stroke="#000000" d="M1620,-122.2228C1620,-142.3652 1620,-172 1620,-172 1620,-172 1037.8423,-172 1037.8423,-172"/>
<polygon fill="#000000" stroke="#000000" points="1037.8423,-168.5001 1027.8423,-172 1037.8422,-175.5001 1037.8423,-168.5001"/>
</g>
<!-- EqualizerShellComponent -->
<g id="node4" class="node">
<title>EqualizerShellComponent</title>
<polygon fill="#ffffb3" stroke="#000000" points="1534.7492,-122 1371.2508,-122 1371.2508,-86 1534.7492,-86 1534.7492,-122"/>
<text text-anchor="middle" x="1453" y="-99.8" font-family="Times,serif" font-size="14.00" fill="#000000">EqualizerShellComponent</text>
</g>
<!-- EqualizerShellComponent&#45;&gt;PlayerModule -->
<g id="edge4" class="edge">
<title>EqualizerShellComponent&#45;&gt;PlayerModule</title>
<path fill="none" stroke="#000000" d="M1453,-122.2222C1453,-140.8285 1453,-167 1453,-167 1453,-167 1037.9568,-167 1037.9568,-167"/>
<polygon fill="#000000" stroke="#000000" points="1037.9568,-163.5001 1027.9568,-167 1037.9567,-170.5001 1037.9568,-163.5001"/>
</g>
<!-- PlayerComponent -->
<g id="node5" class="node">
<title>PlayerComponent</title>
<polygon fill="#ffffb3" stroke="#000000" points="1353.5954,-122 1236.4046,-122 1236.4046,-86 1353.5954,-86 1353.5954,-122"/>
<text text-anchor="middle" x="1295" y="-99.8" font-family="Times,serif" font-size="14.00" fill="#000000">PlayerComponent</text>
</g>
<!-- PlayerComponent&#45;&gt;PlayerModule -->
<g id="edge5" class="edge">
<title>PlayerComponent&#45;&gt;PlayerModule</title>
<path fill="none" stroke="#000000" d="M1295,-122.0336C1295,-139.0597 1295,-162 1295,-162 1295,-162 1037.8417,-162 1037.8417,-162"/>
<polygon fill="#000000" stroke="#000000" points="1037.8418,-158.5001 1027.8417,-162 1037.8417,-165.5001 1037.8418,-158.5001"/>
</g>
<!-- PlaylistComponent -->
<g id="node6" class="node">
<title>PlaylistComponent</title>
<polygon fill="#ffffb3" stroke="#000000" points="1218.8371,-122 1095.1629,-122 1095.1629,-86 1218.8371,-86 1218.8371,-122"/>
<text text-anchor="middle" x="1157" y="-99.8" font-family="Times,serif" font-size="14.00" fill="#000000">PlaylistComponent</text>
</g>
<!-- PlaylistComponent&#45;&gt;PlayerModule -->
<g id="edge6" class="edge">
<title>PlaylistComponent&#45;&gt;PlayerModule</title>
<path fill="none" stroke="#000000" d="M1157,-122.2396C1157,-137.5706 1157,-157 1157,-157 1157,-157 1037.8987,-157 1037.8987,-157"/>
<polygon fill="#000000" stroke="#000000" points="1037.8988,-153.5001 1027.8987,-157 1037.8987,-160.5001 1037.8988,-153.5001"/>
</g>
<!-- TimePipe -->
<g id="node7" class="node">
<title>TimePipe</title>
<polygon fill="#ffffb3" stroke="#000000" points="1077.4376,-122 1006.5624,-122 1006.5624,-86 1077.4376,-86 1077.4376,-122"/>
<text text-anchor="middle" x="1042" y="-99.8" font-family="Times,serif" font-size="14.00" fill="#000000">TimePipe</text>
</g>
<!-- TimePipe&#45;&gt;PlayerModule -->
<g id="edge7" class="edge">
<title>TimePipe&#45;&gt;PlayerModule</title>
<path fill="none" stroke="#000000" d="M1017.2191,-122.1061C1017.2191,-122.1061 1017.2191,-140.991 1017.2191,-140.991"/>
<polygon fill="#000000" stroke="#000000" points="1013.7192,-140.9909 1017.2191,-150.991 1020.7192,-140.991 1013.7192,-140.9909"/>
</g>
<!-- VisualizerComponent -->
<g id="node8" class="node">
<title>VisualizerComponent</title>
<polygon fill="#ffffb3" stroke="#000000" points="988.3599,-122 849.6401,-122 849.6401,-86 988.3599,-86 988.3599,-122"/>
<text text-anchor="middle" x="919" y="-99.8" font-family="Times,serif" font-size="14.00" fill="#000000">VisualizerComponent</text>
</g>
<!-- VisualizerComponent&#45;&gt;PlayerModule -->
<g id="edge8" class="edge">
<title>VisualizerComponent&#45;&gt;PlayerModule</title>
<path fill="none" stroke="#000000" d="M960.3868,-122.1061C960.3868,-122.1061 960.3868,-140.991 960.3868,-140.991"/>
<polygon fill="#000000" stroke="#000000" points="956.8868,-140.9909 960.3868,-150.991 963.8868,-140.991 956.8868,-140.9909"/>
</g>
<!-- FileDropOverlayModule -->
<g id="node10" class="node">
<title>FileDropOverlayModule</title>
<polygon fill="#8dd3c7" stroke="#000000" points="825.6825,-122 822.6825,-126 801.6825,-126 798.6825,-122 670.3175,-122 670.3175,-86 825.6825,-86 825.6825,-122"/>
<text text-anchor="middle" x="748" y="-99.8" font-family="Times,serif" font-size="14.00" fill="#000000">FileDropOverlayModule</text>
</g>
<!-- FileDropOverlayModule&#45;&gt;PlayerModule -->
<g id="edge9" class="edge">
<title>FileDropOverlayModule&#45;&gt;PlayerModule</title>
<path fill="none" stroke="#000000" d="M748,-122.2396C748,-137.5706 748,-157 748,-157 748,-157 922.2108,-157 922.2108,-157"/>
<polygon fill="#000000" stroke="#000000" points="922.2108,-160.5001 932.2108,-157 922.2107,-153.5001 922.2108,-160.5001"/>
</g>
<!-- GamepadModule -->
<g id="node11" class="node">
<title>GamepadModule</title>
<polygon fill="#8dd3c7" stroke="#000000" points="652.691,-122 649.691,-126 628.691,-126 625.691,-122 539.309,-122 539.309,-86 652.691,-86 652.691,-122"/>
<text text-anchor="middle" x="596" y="-99.8" font-family="Times,serif" font-size="14.00" fill="#000000">GamepadModule</text>
</g>
<!-- GamepadModule&#45;&gt;PlayerModule -->
<g id="edge10" class="edge">
<title>GamepadModule&#45;&gt;PlayerModule</title>
<path fill="none" stroke="#000000" d="M596,-122.0336C596,-139.0597 596,-162 596,-162 596,-162 922.1426,-162 922.1426,-162"/>
<polygon fill="#000000" stroke="#000000" points="922.1426,-165.5001 932.1426,-162 922.1425,-158.5001 922.1426,-165.5001"/>
</g>
<!-- HotkeysModule -->
<g id="node12" class="node">
<title>HotkeysModule</title>
<polygon fill="#8dd3c7" stroke="#000000" points="521.2064,-122 518.2064,-126 497.2064,-126 494.2064,-122 414.7936,-122 414.7936,-86 521.2064,-86 521.2064,-122"/>
<text text-anchor="middle" x="468" y="-99.8" font-family="Times,serif" font-size="14.00" fill="#000000">HotkeysModule</text>
</g>
<!-- HotkeysModule&#45;&gt;PlayerModule -->
<g id="edge11" class="edge">
<title>HotkeysModule&#45;&gt;PlayerModule</title>
<path fill="none" stroke="#000000" d="M468,-122.2222C468,-140.8285 468,-167 468,-167 468,-167 922.2921,-167 922.2921,-167"/>
<polygon fill="#000000" stroke="#000000" points="922.2921,-170.5001 932.2921,-167 922.292,-163.5001 922.2921,-170.5001"/>
</g>
<!-- SlidePanelModule -->
<g id="node13" class="node">
<title>SlidePanelModule</title>
<polygon fill="#8dd3c7" stroke="#000000" points="396.9314,-122 393.9314,-126 372.9314,-126 369.9314,-122 277.0686,-122 277.0686,-86 396.9314,-86 396.9314,-122"/>
<text text-anchor="middle" x="337" y="-99.8" font-family="Times,serif" font-size="14.00" fill="#000000">SlidePanelModule</text>
</g>
<!-- SlidePanelModule&#45;&gt;PlayerModule -->
<g id="edge12" class="edge">
<title>SlidePanelModule&#45;&gt;PlayerModule</title>
<path fill="none" stroke="#000000" d="M337,-122.2228C337,-142.3652 337,-172 337,-172 337,-172 922.1958,-172 922.1958,-172"/>
<polygon fill="#000000" stroke="#000000" points="922.1958,-175.5001 932.1958,-172 922.1958,-168.5001 922.1958,-175.5001"/>
</g>
<!-- VisualsModule -->
<g id="node14" class="node">
<title>VisualsModule</title>
<polygon fill="#8dd3c7" stroke="#000000" points="259.5424,-122 256.5424,-126 235.5424,-126 232.5424,-122 158.4576,-122 158.4576,-86 259.5424,-86 259.5424,-122"/>
<text text-anchor="middle" x="209" y="-99.8" font-family="Times,serif" font-size="14.00" fill="#000000">VisualsModule</text>
</g>
<!-- VisualsModule&#45;&gt;PlayerModule -->
<g id="edge13" class="edge">
<title>VisualsModule&#45;&gt;PlayerModule</title>
<path fill="none" stroke="#000000" d="M209,-122.0449C209,-143.6623 209,-177 209,-177 209,-177 922.0618,-177 922.0618,-177"/>
<polygon fill="#000000" stroke="#000000" points="922.0618,-180.5001 932.0618,-177 922.0618,-173.5001 922.0618,-180.5001"/>
</g>
<!-- WakelockModule -->
<g id="node15" class="node">
<title>WakelockModule</title>
<polygon fill="#8dd3c7" stroke="#000000" points="140.2992,-122 137.2992,-126 116.2992,-126 113.2992,-122 23.7008,-122 23.7008,-86 140.2992,-86 140.2992,-122"/>
<text text-anchor="middle" x="82" y="-99.8" font-family="Times,serif" font-size="14.00" fill="#000000">WakelockModule</text>
</g>
<!-- WakelockModule&#45;&gt;PlayerModule -->
<g id="edge14" class="edge">
<title>WakelockModule&#45;&gt;PlayerModule</title>
<path fill="none" stroke="#000000" d="M82,-122.0908C82,-145.1328 82,-182 82,-182 82,-182 922.0371,-182 922.0371,-182"/>
<polygon fill="#000000" stroke="#000000" points="922.0371,-185.5001 932.0371,-182 922.0371,-178.5001 922.0371,-185.5001"/>
</g>
</g>
</svg>
