<?xml version="1.0" encoding="UTF-8" standalone="no"?>
<!DOCTYPE svg PUBLIC "-//W3C//DTD SVG 1.1//EN"
 "http://www.w3.org/Graphics/SVG/1.1/DTD/svg11.dtd">
<!-- Generated by graphviz version 5.0.0 (20220707.1540)
 -->
<!-- Title: dependencies Pages: 1 -->
<svg width="1899pt" height="174pt"
 viewBox="0.00 0.00 1899.00 173.80" xmlns="http://www.w3.org/2000/svg" xmlns:xlink="http://www.w3.org/1999/xlink">
<g id="graph0" class="graph" transform="scale(1 1) rotate(0) translate(4 169.8)">
<title>dependencies</title>
<polygon fill="white" stroke="transparent" points="-4,4 -4,-169.8 1895,-169.8 1895,4 -4,4"/>
<text text-anchor="middle" x="945.5" y="-8.2" font-family="sans-serif" font-size="14.00">dependencies</text>
<g id="clust1" class="cluster">
<title>cluster_PlayerModule</title>
<polygon fill="none" stroke="black" stroke-dasharray="1,5" points="8,-32.8 8,-157.8 1883,-157.8 1883,-32.8 8,-32.8"/>
</g>
<g id="clust12" class="cluster">
<title>cluster_PlayerModule_imports</title>
<polygon fill="none" stroke="black" points="1271,-40.8 1271,-92.8 1875,-92.8 1875,-40.8 1271,-40.8"/>
</g>
<g id="clust2" class="cluster">
<title>cluster_PlayerModule_declarations</title>
<polygon fill="none" stroke="black" points="16,-40.8 16,-92.8 1263,-92.8 1263,-40.8 16,-40.8"/>
</g>
<!-- BandPipe -->
<g id="node1" class="node">
<title>BandPipe</title>
<polygon fill="#ffffb3" stroke="black" points="1255.44,-84.8 1184.56,-84.8 1184.56,-48.8 1255.44,-48.8 1255.44,-84.8"/>
<text text-anchor="middle" x="1220" y="-62.6" font-family="Times,serif" font-size="14.00">BandPipe</text>
</g>
<!-- PlayerModule -->
<g id="node10" class="node">
<title>PlayerModule</title>
<polygon fill="#8dd3c7" stroke="black" points="969.82,-149.8 966.82,-153.8 945.82,-153.8 942.82,-149.8 874.18,-149.8 874.18,-113.8 969.82,-113.8 969.82,-149.8"/>
<text text-anchor="middle" x="922" y="-127.6" font-family="Times,serif" font-size="14.00">PlayerModule</text>
</g>
<!-- BandPipe&#45;&gt;PlayerModule -->
<g id="edge1" class="edge">
<title>BandPipe&#45;&gt;PlayerModule</title>
<path fill="none" stroke="black" d="M1220,-84.83C1220,-101.86 1220,-124.8 1220,-124.8 1220,-124.8 979.88,-124.8 979.88,-124.8"/>
<polygon fill="black" stroke="black" points="979.88,-121.3 969.88,-124.8 979.88,-128.3 979.88,-121.3"/>
</g>
<!-- CoverDisplayComponent -->
<g id="node2" class="node">
<title>CoverDisplayComponent</title>
<polygon fill="#ffffb3" stroke="black" points="1166.6,-84.8 1007.4,-84.8 1007.4,-48.8 1166.6,-48.8 1166.6,-84.8"/>
<text text-anchor="middle" x="1087" y="-62.6" font-family="Times,serif" font-size="14.00">CoverDisplayComponent</text>
</g>
<!-- CoverDisplayComponent&#45;&gt;PlayerModule -->
<g id="edge2" class="edge">
<title>CoverDisplayComponent&#45;&gt;PlayerModule</title>
<path fill="none" stroke="black" d="M1087,-85.04C1087,-100.37 1087,-119.8 1087,-119.8 1087,-119.8 979.72,-119.8 979.72,-119.8"/>
<polygon fill="black" stroke="black" points="979.72,-116.3 969.72,-119.8 979.72,-123.3 979.72,-116.3"/>
</g>
<!-- EqualizerComponent -->
<g id="node3" class="node">
<title>EqualizerComponent</title>
<polygon fill="#ffffb3" stroke="black" points="989.47,-84.8 854.53,-84.8 854.53,-48.8 989.47,-48.8 989.47,-84.8"/>
<text text-anchor="middle" x="922" y="-62.6" font-family="Times,serif" font-size="14.00">EqualizerComponent</text>
</g>
<!-- EqualizerComponent&#45;&gt;PlayerModule -->
<g id="edge3" class="edge">
<title>EqualizerComponent&#45;&gt;PlayerModule</title>
<path fill="none" stroke="black" d="M922,-84.91C922,-84.91 922,-103.79 922,-103.79"/>
<polygon fill="black" stroke="black" points="918.5,-103.79 922,-113.79 925.5,-103.79 918.5,-103.79"/>
</g>
<!-- EqualizerShellComponent -->
<g id="node4" class="node">
<title>EqualizerShellComponent</title>
<polygon fill="#ffffb3" stroke="black" points="836.75,-84.8 673.25,-84.8 673.25,-48.8 836.75,-48.8 836.75,-84.8"/>
<text text-anchor="middle" x="755" y="-62.6" font-family="Times,serif" font-size="14.00">EqualizerShellComponent</text>
</g>
<!-- EqualizerShellComponent&#45;&gt;PlayerModule -->
<g id="edge4" class="edge">
<title>EqualizerShellComponent&#45;&gt;PlayerModule</title>
<path fill="none" stroke="black" d="M755,-85.04C755,-100.37 755,-119.8 755,-119.8 755,-119.8 864.14,-119.8 864.14,-119.8"/>
<polygon fill="black" stroke="black" points="864.14,-123.3 874.14,-119.8 864.14,-116.3 864.14,-123.3"/>
</g>
<!-- PlayerComponent -->
<g id="node5" class="node">
<title>PlayerComponent</title>
<polygon fill="#ffffb3" stroke="black" points="655.6,-84.8 538.4,-84.8 538.4,-48.8 655.6,-48.8 655.6,-84.8"/>
<text text-anchor="middle" x="597" y="-62.6" font-family="Times,serif" font-size="14.00">PlayerComponent</text>
</g>
<!-- PlayerComponent&#45;&gt;PlayerModule -->
<g id="edge5" class="edge">
<title>PlayerComponent&#45;&gt;PlayerModule</title>
<path fill="none" stroke="black" d="M597,-84.83C597,-101.86 597,-124.8 597,-124.8 597,-124.8 864.05,-124.8 864.05,-124.8"/>
<polygon fill="black" stroke="black" points="864.05,-128.3 874.05,-124.8 864.05,-121.3 864.05,-128.3"/>
</g>
<!-- PlaylistComponent -->
<g id="node6" class="node">
<title>PlaylistComponent</title>
<polygon fill="#ffffb3" stroke="black" points="520.84,-84.8 397.16,-84.8 397.16,-48.8 520.84,-48.8 520.84,-84.8"/>
<text text-anchor="middle" x="459" y="-62.6" font-family="Times,serif" font-size="14.00">PlaylistComponent</text>
</g>
<!-- PlaylistComponent&#45;&gt;PlayerModule -->
<g id="edge6" class="edge">
<title>PlaylistComponent&#45;&gt;PlayerModule</title>
<path fill="none" stroke="black" d="M459,-85.02C459,-103.63 459,-129.8 459,-129.8 459,-129.8 864.19,-129.8 864.19,-129.8"/>
<polygon fill="black" stroke="black" points="864.19,-133.3 874.19,-129.8 864.19,-126.3 864.19,-133.3"/>
</g>
<!-- TimePipe -->
<g id="node7" class="node">
<title>TimePipe</title>
<polygon fill="#ffffb3" stroke="black" points="379.44,-84.8 308.56,-84.8 308.56,-48.8 379.44,-48.8 379.44,-84.8"/>
<text text-anchor="middle" x="344" y="-62.6" font-family="Times,serif" font-size="14.00">TimePipe</text>
</g>
<!-- TimePipe&#45;&gt;PlayerModule -->
<g id="edge7" class="edge">
<title>TimePipe&#45;&gt;PlayerModule</title>
<path fill="none" stroke="black" d="M344,-85.02C344,-105.17 344,-134.8 344,-134.8 344,-134.8 864.21,-134.8 864.21,-134.8"/>
<polygon fill="black" stroke="black" points="864.21,-138.3 874.21,-134.8 864.21,-131.3 864.21,-138.3"/>
</g>
<!-- VisualizerComponent -->
<g id="node8" class="node">
<title>VisualizerComponent</title>
<polygon fill="#ffffb3" stroke="black" points="290.36,-84.8 151.64,-84.8 151.64,-48.8 290.36,-48.8 290.36,-84.8"/>
<text text-anchor="middle" x="221" y="-62.6" font-family="Times,serif" font-size="14.00">VisualizerComponent</text>
</g>
<!-- VisualizerComponent&#45;&gt;PlayerModule -->
<g id="edge8" class="edge">
<title>VisualizerComponent&#45;&gt;PlayerModule</title>
<path fill="none" stroke="black" d="M221,-84.84C221,-106.46 221,-139.8 221,-139.8 221,-139.8 864.09,-139.8 864.09,-139.8"/>
<polygon fill="black" stroke="black" points="864.09,-143.3 874.09,-139.8 864.09,-136.3 864.09,-143.3"/>
</g>
<!-- VisualsDirective -->
<g id="node9" class="node">
<title>VisualsDirective</title>
<polygon fill="#ffffb3" stroke="black" points="134.08,-84.8 23.92,-84.8 23.92,-48.8 134.08,-48.8 134.08,-84.8"/>
<text text-anchor="middle" x="79" y="-62.6" font-family="Times,serif" font-size="14.00">VisualsDirective</text>
</g>
<!-- VisualsDirective&#45;&gt;PlayerModule -->
<g id="edge9" class="edge">
<title>VisualsDirective&#45;&gt;PlayerModule</title>
<path fill="none" stroke="black" d="M79,-84.89C79,-107.93 79,-144.8 79,-144.8 79,-144.8 864.26,-144.8 864.26,-144.8"/>
<polygon fill="black" stroke="black" points="864.26,-148.3 874.26,-144.8 864.26,-141.3 864.26,-148.3"/>
</g>
<!-- FileDropOverlayComponent -->
<g id="node11" class="node">
<title>FileDropOverlayComponent</title>
<polygon fill="#8dd3c7" stroke="black" points="1867.47,-84.8 1864.47,-88.8 1843.47,-88.8 1840.47,-84.8 1690.53,-84.8 1690.53,-48.8 1867.47,-48.8 1867.47,-84.8"/>
<text text-anchor="middle" x="1779" y="-62.6" font-family="Times,serif" font-size="14.00">FileDropOverlayComponent</text>
</g>
<!-- FileDropOverlayComponent&#45;&gt;PlayerModule -->
<g id="edge10" class="edge">
<title>FileDropOverlayComponent&#45;&gt;PlayerModule</title>
<path fill="none" stroke="black" d="M1779,-84.89C1779,-107.93 1779,-144.8 1779,-144.8 1779,-144.8 979.91,-144.8 979.91,-144.8"/>
<polygon fill="black" stroke="black" points="979.91,-141.3 969.91,-144.8 979.91,-148.3 979.91,-141.3"/>
</g>
<!-- HotkeysModule -->
<g id="node12" class="node">
<title>HotkeysModule</title>
<polygon fill="#8dd3c7" stroke="black" points="1672.21,-84.8 1669.21,-88.8 1648.21,-88.8 1645.21,-84.8 1565.79,-84.8 1565.79,-48.8 1672.21,-48.8 1672.21,-84.8"/>
<text text-anchor="middle" x="1619" y="-62.6" font-family="Times,serif" font-size="14.00">HotkeysModule</text>
</g>
<!-- HotkeysModule&#45;&gt;PlayerModule -->
<g id="edge11" class="edge">
<title>HotkeysModule&#45;&gt;PlayerModule</title>
<path fill="none" stroke="black" d="M1619,-84.84C1619,-106.46 1619,-139.8 1619,-139.8 1619,-139.8 979.91,-139.8 979.91,-139.8"/>
<polygon fill="black" stroke="black" points="979.91,-136.3 969.91,-139.8 979.91,-143.3 979.91,-136.3"/>
</g>
<!-- MatIconSizeModule -->
<g id="node13" class="node">
<title>MatIconSizeModule</title>
<polygon fill="#8dd3c7" stroke="black" points="1547.58,-84.8 1544.58,-88.8 1523.58,-88.8 1520.58,-84.8 1416.42,-84.8 1416.42,-48.8 1547.58,-48.8 1547.58,-84.8"/>
<text text-anchor="middle" x="1482" y="-62.6" font-family="Times,serif" font-size="14.00">MatIconSizeModule</text>
</g>
<!-- MatIconSizeModule&#45;&gt;PlayerModule -->
<g id="edge12" class="edge">
<title>MatIconSizeModule&#45;&gt;PlayerModule</title>
<path fill="none" stroke="black" d="M1482,-85.02C1482,-105.17 1482,-134.8 1482,-134.8 1482,-134.8 979.75,-134.8 979.75,-134.8"/>
<polygon fill="black" stroke="black" points="979.75,-131.3 969.75,-134.8 979.75,-138.3 979.75,-131.3"/>
</g>
<!-- SlidePanelModule -->
<g id="node14" class="node">
<title>SlidePanelModule</title>
<polygon fill="#8dd3c7" stroke="black" points="1398.94,-84.8 1395.94,-88.8 1374.94,-88.8 1371.94,-84.8 1279.06,-84.8 1279.06,-48.8 1398.94,-48.8 1398.94,-84.8"/>
<text text-anchor="middle" x="1339" y="-62.6" font-family="Times,serif" font-size="14.00">SlidePanelModule</text>
</g>
<!-- SlidePanelModule&#45;&gt;PlayerModule -->
<g id="edge13" class="edge">
<title>SlidePanelModule&#45;&gt;PlayerModule</title>
<path fill="none" stroke="black" d="M1339,-85.02C1339,-103.63 1339,-129.8 1339,-129.8 1339,-129.8 979.84,-129.8 979.84,-129.8"/>
<polygon fill="black" stroke="black" points="979.84,-126.3 969.84,-129.8 979.84,-133.3 979.84,-126.3"/>
</g>
</g>
</svg>
