<?xml version="1.0" encoding="UTF-8" standalone="no"?>
<!DOCTYPE svg PUBLIC "-//W3C//DTD SVG 1.1//EN"
 "http://www.w3.org/Graphics/SVG/1.1/DTD/svg11.dtd">
<!-- Generated by graphviz version 5.0.0 (20220707.1540)
 -->
<!-- Title: dependencies Pages: 1 -->
<svg width="1732pt" height="174pt"
 viewBox="0.00 0.00 1732.00 173.80" xmlns="http://www.w3.org/2000/svg" xmlns:xlink="http://www.w3.org/1999/xlink">
<g id="graph0" class="graph" transform="scale(1 1) rotate(0) translate(4 169.8)">
<title>dependencies</title>
<polygon fill="white" stroke="transparent" points="-4,4 -4,-169.8 1728,-169.8 1728,4 -4,4"/>
<text text-anchor="middle" x="862" y="-8.2" font-family="sans-serif" font-size="14.00">dependencies</text>
<g id="clust1" class="cluster">
<title>cluster_PlayerModule</title>
<polygon fill="none" stroke="black" stroke-dasharray="1,5" points="8,-32.8 8,-157.8 1716,-157.8 1716,-32.8 8,-32.8"/>
</g>
<g id="clust2" class="cluster">
<title>cluster_PlayerModule_declarations</title>
<polygon fill="none" stroke="black" points="501,-40.8 501,-92.8 1708,-92.8 1708,-40.8 501,-40.8"/>
</g>
<g id="clust12" class="cluster">
<title>cluster_PlayerModule_imports</title>
<polygon fill="none" stroke="black" points="16,-40.8 16,-92.8 493,-92.8 493,-40.8 16,-40.8"/>
</g>
<!-- BandPipe -->
<g id="node1" class="node">
<title>BandPipe</title>
<polygon fill="#ffffb3" stroke="black" points="1700.44,-84.8 1629.56,-84.8 1629.56,-48.8 1700.44,-48.8 1700.44,-84.8"/>
<text text-anchor="middle" x="1665" y="-62.6" font-family="Times,serif" font-size="14.00">BandPipe</text>
</g>
<!-- PlayerModule -->
<g id="node10" class="node">
<title>PlayerModule</title>
<polygon fill="#8dd3c7" stroke="black" points="933.82,-149.8 930.82,-153.8 909.82,-153.8 906.82,-149.8 838.18,-149.8 838.18,-113.8 933.82,-113.8 933.82,-149.8"/>
<text text-anchor="middle" x="886" y="-127.6" font-family="Times,serif" font-size="14.00">PlayerModule</text>
</g>
<!-- BandPipe&#45;&gt;PlayerModule -->
<g id="edge1" class="edge">
<title>BandPipe&#45;&gt;PlayerModule</title>
<path fill="none" stroke="black" d="M1665,-84.89C1665,-107.93 1665,-144.8 1665,-144.8 1665,-144.8 943.85,-144.8 943.85,-144.8"/>
<polygon fill="black" stroke="black" points="943.85,-141.3 933.85,-144.8 943.85,-148.3 943.85,-141.3"/>
</g>
<!-- CoverDisplayComponent -->
<g id="node2" class="node">
<title>CoverDisplayComponent</title>
<polygon fill="#ffffb3" stroke="black" points="1611.6,-84.8 1452.4,-84.8 1452.4,-48.8 1611.6,-48.8 1611.6,-84.8"/>
<text text-anchor="middle" x="1532" y="-62.6" font-family="Times,serif" font-size="14.00">CoverDisplayComponent</text>
</g>
<!-- CoverDisplayComponent&#45;&gt;PlayerModule -->
<g id="edge2" class="edge">
<title>CoverDisplayComponent&#45;&gt;PlayerModule</title>
<path fill="none" stroke="black" d="M1532,-85.08C1532,-106.12 1532,-137.8 1532,-137.8 1532,-137.8 943.76,-137.8 943.76,-137.8"/>
<polygon fill="black" stroke="black" points="943.76,-134.3 933.76,-137.8 943.76,-141.3 943.76,-134.3"/>
</g>
<!-- EqualizerComponent -->
<g id="node3" class="node">
<title>EqualizerComponent</title>
<polygon fill="#ffffb3" stroke="black" points="1434.47,-84.8 1299.53,-84.8 1299.53,-48.8 1434.47,-48.8 1434.47,-84.8"/>
<text text-anchor="middle" x="1367" y="-62.6" font-family="Times,serif" font-size="14.00">EqualizerComponent</text>
</g>
<!-- EqualizerComponent&#45;&gt;PlayerModule -->
<g id="edge3" class="edge">
<title>EqualizerComponent&#45;&gt;PlayerModule</title>
<path fill="none" stroke="black" d="M1367,-84.91C1367,-104.14 1367,-131.8 1367,-131.8 1367,-131.8 943.88,-131.8 943.88,-131.8"/>
<polygon fill="black" stroke="black" points="943.88,-128.3 933.88,-131.8 943.88,-135.3 943.88,-128.3"/>
</g>
<!-- LibraryComponent -->
<g id="node4" class="node">
<title>LibraryComponent</title>
<polygon fill="#ffffb3" stroke="black" points="1281.81,-84.8 1158.19,-84.8 1158.19,-48.8 1281.81,-48.8 1281.81,-84.8"/>
<text text-anchor="middle" x="1220" y="-62.6" font-family="Times,serif" font-size="14.00">LibraryComponent</text>
</g>
<!-- LibraryComponent&#45;&gt;PlayerModule -->
<g id="edge4" class="edge">
<title>LibraryComponent&#45;&gt;PlayerModule</title>
<path fill="none" stroke="black" d="M1220,-84.82C1220,-102.17 1220,-125.8 1220,-125.8 1220,-125.8 943.85,-125.8 943.85,-125.8"/>
<polygon fill="black" stroke="black" points="943.85,-122.3 933.85,-125.8 943.85,-129.3 943.85,-122.3"/>
</g>
<!-- PlayerComponent -->
<g id="node5" class="node">
<title>PlayerComponent</title>
<polygon fill="#ffffb3" stroke="black" points="1140.6,-84.8 1023.4,-84.8 1023.4,-48.8 1140.6,-48.8 1140.6,-84.8"/>
<text text-anchor="middle" x="1082" y="-62.6" font-family="Times,serif" font-size="14.00">PlayerComponent</text>
</g>
<!-- PlayerComponent&#45;&gt;PlayerModule -->
<g id="edge5" class="edge">
<title>PlayerComponent&#45;&gt;PlayerModule</title>
<path fill="none" stroke="black" d="M1082,-85.04C1082,-100.37 1082,-119.8 1082,-119.8 1082,-119.8 943.7,-119.8 943.7,-119.8"/>
<polygon fill="black" stroke="black" points="943.7,-116.3 933.7,-119.8 943.7,-123.3 943.7,-116.3"/>
</g>
<!-- PlaylistComponent -->
<g id="node6" class="node">
<title>PlaylistComponent</title>
<polygon fill="#ffffb3" stroke="black" points="1005.84,-84.8 882.16,-84.8 882.16,-48.8 1005.84,-48.8 1005.84,-84.8"/>
<text text-anchor="middle" x="944" y="-62.6" font-family="Times,serif" font-size="14.00">PlaylistComponent</text>
</g>
<!-- PlaylistComponent&#45;&gt;PlayerModule -->
<g id="edge6" class="edge">
<title>PlaylistComponent&#45;&gt;PlayerModule</title>
<path fill="none" stroke="black" d="M907.99,-84.91C907.99,-84.91 907.99,-103.79 907.99,-103.79"/>
<polygon fill="black" stroke="black" points="904.49,-103.79 907.99,-113.79 911.49,-103.79 904.49,-103.79"/>
</g>
<!-- TimePipe -->
<g id="node7" class="node">
<title>TimePipe</title>
<polygon fill="#ffffb3" stroke="black" points="864.44,-84.8 793.56,-84.8 793.56,-48.8 864.44,-48.8 864.44,-84.8"/>
<text text-anchor="middle" x="829" y="-62.6" font-family="Times,serif" font-size="14.00">TimePipe</text>
</g>
<!-- TimePipe&#45;&gt;PlayerModule -->
<g id="edge7" class="edge">
<title>TimePipe&#45;&gt;PlayerModule</title>
<path fill="none" stroke="black" d="M851.28,-84.91C851.28,-84.91 851.28,-103.79 851.28,-103.79"/>
<polygon fill="black" stroke="black" points="847.78,-103.79 851.28,-113.79 854.78,-103.79 847.78,-103.79"/>
</g>
<!-- VisualizerComponent -->
<g id="node8" class="node">
<title>VisualizerComponent</title>
<polygon fill="#ffffb3" stroke="black" points="775.36,-84.8 636.64,-84.8 636.64,-48.8 775.36,-48.8 775.36,-84.8"/>
<text text-anchor="middle" x="706" y="-62.6" font-family="Times,serif" font-size="14.00">VisualizerComponent</text>
</g>
<!-- VisualizerComponent&#45;&gt;PlayerModule -->
<g id="edge8" class="edge">
<title>VisualizerComponent&#45;&gt;PlayerModule</title>
<path fill="none" stroke="black" d="M706,-85.04C706,-100.37 706,-119.8 706,-119.8 706,-119.8 828.24,-119.8 828.24,-119.8"/>
<polygon fill="black" stroke="black" points="828.24,-123.3 838.24,-119.8 828.24,-116.3 828.24,-123.3"/>
</g>
<!-- VisualsDirective -->
<g id="node9" class="node">
<title>VisualsDirective</title>
<polygon fill="#ffffb3" stroke="black" points="619.08,-84.8 508.92,-84.8 508.92,-48.8 619.08,-48.8 619.08,-84.8"/>
<text text-anchor="middle" x="564" y="-62.6" font-family="Times,serif" font-size="14.00">VisualsDirective</text>
</g>
<!-- VisualsDirective&#45;&gt;PlayerModule -->
<g id="edge9" class="edge">
<title>VisualsDirective&#45;&gt;PlayerModule</title>
<path fill="none" stroke="black" d="M564,-84.82C564,-102.17 564,-125.8 564,-125.8 564,-125.8 828.14,-125.8 828.14,-125.8"/>
<polygon fill="black" stroke="black" points="828.14,-129.3 838.14,-125.8 828.14,-122.3 828.14,-129.3"/>
</g>
<!-- FileDropOverlayComponent -->
<g id="node11" class="node">
<title>FileDropOverlayComponent</title>
<polygon fill="#8dd3c7" stroke="black" points="485.47,-84.8 482.47,-88.8 461.47,-88.8 458.47,-84.8 308.53,-84.8 308.53,-48.8 485.47,-48.8 485.47,-84.8"/>
<text text-anchor="middle" x="397" y="-62.6" font-family="Times,serif" font-size="14.00">FileDropOverlayComponent</text>
</g>
<!-- FileDropOverlayComponent&#45;&gt;PlayerModule -->
<g id="edge10" class="edge">
<title>FileDropOverlayComponent&#45;&gt;PlayerModule</title>
<path fill="none" stroke="black" d="M397,-84.91C397,-104.14 397,-131.8 397,-131.8 397,-131.8 828.22,-131.8 828.22,-131.8"/>
<polygon fill="black" stroke="black" points="828.22,-135.3 838.22,-131.8 828.22,-128.3 828.22,-135.3"/>
</g>
<!-- HotkeysModule -->
<g id="node12" class="node">
<title>HotkeysModule</title>
<polygon fill="#8dd3c7" stroke="black" points="290.21,-84.8 287.21,-88.8 266.21,-88.8 263.21,-84.8 183.79,-84.8 183.79,-48.8 290.21,-48.8 290.21,-84.8"/>
<text text-anchor="middle" x="237" y="-62.6" font-family="Times,serif" font-size="14.00">HotkeysModule</text>
</g>
<!-- HotkeysModule&#45;&gt;PlayerModule -->
<g id="edge11" class="edge">
<title>HotkeysModule&#45;&gt;PlayerModule</title>
<path fill="none" stroke="black" d="M237,-85.08C237,-106.12 237,-137.8 237,-137.8 237,-137.8 828.28,-137.8 828.28,-137.8"/>
<polygon fill="black" stroke="black" points="828.28,-141.3 838.28,-137.8 828.28,-134.3 828.28,-141.3"/>
</g>
<!-- SlidePanelComponent -->
<g id="node13" class="node">
<title>SlidePanelComponent</title>
<polygon fill="#8dd3c7" stroke="black" points="165.71,-84.8 162.71,-88.8 141.71,-88.8 138.71,-84.8 24.29,-84.8 24.29,-48.8 165.71,-48.8 165.71,-84.8"/>
<text text-anchor="middle" x="95" y="-62.6" font-family="Times,serif" font-size="14.00">SlidePanelComponent</text>
</g>
<!-- SlidePanelComponent&#45;&gt;PlayerModule -->
<g id="edge12" class="edge">
<title>SlidePanelComponent&#45;&gt;PlayerModule</title>
<path fill="none" stroke="black" d="M95,-84.89C95,-107.93 95,-144.8 95,-144.8 95,-144.8 828.3,-144.8 828.3,-144.8"/>
<polygon fill="black" stroke="black" points="828.3,-148.3 838.3,-144.8 828.3,-141.3 828.3,-148.3"/>
</g>
</g>
</svg>
