<?xml version="1.0" encoding="UTF-8" standalone="no"?>
<!DOCTYPE svg PUBLIC "-//W3C//DTD SVG 1.1//EN"
 "http://www.w3.org/Graphics/SVG/1.1/DTD/svg11.dtd">
<!-- Generated by graphviz version 5.0.0 (20220707.1540)
 -->
<!-- Title: dependencies Pages: 1 -->
<svg width="1859pt" height="174pt"
 viewBox="0.00 0.00 1859.00 173.80" xmlns="http://www.w3.org/2000/svg" xmlns:xlink="http://www.w3.org/1999/xlink">
<g id="graph0" class="graph" transform="scale(1 1) rotate(0) translate(4 169.8)">
<title>dependencies</title>
<polygon fill="white" stroke="transparent" points="-4,4 -4,-169.8 1855,-169.8 1855,4 -4,4"/>
<text text-anchor="middle" x="925.5" y="-8.2" font-family="sans-serif" font-size="14.00">dependencies</text>
<g id="clust1" class="cluster">
<title>cluster_PlayerModule</title>
<polygon fill="none" stroke="black" stroke-dasharray="1,5" points="8,-32.8 8,-157.8 1843,-157.8 1843,-32.8 8,-32.8"/>
</g>
<g id="clust2" class="cluster">
<title>cluster_PlayerModule_declarations</title>
<polygon fill="none" stroke="black" points="628,-40.8 628,-92.8 1835,-92.8 1835,-40.8 628,-40.8"/>
</g>
<g id="clust12" class="cluster">
<title>cluster_PlayerModule_imports</title>
<polygon fill="none" stroke="black" points="16,-40.8 16,-92.8 620,-92.8 620,-40.8 16,-40.8"/>
</g>
<!-- BandPipe -->
<g id="node1" class="node">
<title>BandPipe</title>
<polygon fill="#ffffb3" stroke="black" points="1827.44,-84.8 1756.56,-84.8 1756.56,-48.8 1827.44,-48.8 1827.44,-84.8"/>
<text text-anchor="middle" x="1792" y="-62.6" font-family="Times,serif" font-size="14.00">BandPipe</text>
</g>
<!-- PlayerModule -->
<g id="node10" class="node">
<title>PlayerModule</title>
<polygon fill="#8dd3c7" stroke="black" points="941.82,-149.8 938.82,-153.8 917.82,-153.8 914.82,-149.8 846.18,-149.8 846.18,-113.8 941.82,-113.8 941.82,-149.8"/>
<text text-anchor="middle" x="894" y="-127.6" font-family="Times,serif" font-size="14.00">PlayerModule</text>
</g>
<!-- BandPipe&#45;&gt;PlayerModule -->
<g id="edge1" class="edge">
<title>BandPipe&#45;&gt;PlayerModule</title>
<path fill="none" stroke="black" d="M1792,-84.89C1792,-107.93 1792,-144.8 1792,-144.8 1792,-144.8 951.96,-144.8 951.96,-144.8"/>
<polygon fill="black" stroke="black" points="951.96,-141.3 941.96,-144.8 951.96,-148.3 951.96,-141.3"/>
</g>
<!-- CoverDisplayComponent -->
<g id="node2" class="node">
<title>CoverDisplayComponent</title>
<polygon fill="#ffffb3" stroke="black" points="1738.6,-84.8 1579.4,-84.8 1579.4,-48.8 1738.6,-48.8 1738.6,-84.8"/>
<text text-anchor="middle" x="1659" y="-62.6" font-family="Times,serif" font-size="14.00">CoverDisplayComponent</text>
</g>
<!-- CoverDisplayComponent&#45;&gt;PlayerModule -->
<g id="edge2" class="edge">
<title>CoverDisplayComponent&#45;&gt;PlayerModule</title>
<path fill="none" stroke="black" d="M1659,-84.84C1659,-106.46 1659,-139.8 1659,-139.8 1659,-139.8 951.85,-139.8 951.85,-139.8"/>
<polygon fill="black" stroke="black" points="951.85,-136.3 941.85,-139.8 951.85,-143.3 951.85,-136.3"/>
</g>
<!-- EqualizerComponent -->
<g id="node3" class="node">
<title>EqualizerComponent</title>
<polygon fill="#ffffb3" stroke="black" points="1561.47,-84.8 1426.53,-84.8 1426.53,-48.8 1561.47,-48.8 1561.47,-84.8"/>
<text text-anchor="middle" x="1494" y="-62.6" font-family="Times,serif" font-size="14.00">EqualizerComponent</text>
</g>
<!-- EqualizerComponent&#45;&gt;PlayerModule -->
<g id="edge3" class="edge">
<title>EqualizerComponent&#45;&gt;PlayerModule</title>
<path fill="none" stroke="black" d="M1494,-85.02C1494,-105.17 1494,-134.8 1494,-134.8 1494,-134.8 951.83,-134.8 951.83,-134.8"/>
<polygon fill="black" stroke="black" points="951.83,-131.3 941.83,-134.8 951.83,-138.3 951.83,-131.3"/>
</g>
<!-- LibraryComponent -->
<g id="node4" class="node">
<title>LibraryComponent</title>
<polygon fill="#ffffb3" stroke="black" points="1408.81,-84.8 1285.19,-84.8 1285.19,-48.8 1408.81,-48.8 1408.81,-84.8"/>
<text text-anchor="middle" x="1347" y="-62.6" font-family="Times,serif" font-size="14.00">LibraryComponent</text>
</g>
<!-- LibraryComponent&#45;&gt;PlayerModule -->
<g id="edge4" class="edge">
<title>LibraryComponent&#45;&gt;PlayerModule</title>
<path fill="none" stroke="black" d="M1347,-85.02C1347,-103.63 1347,-129.8 1347,-129.8 1347,-129.8 952.05,-129.8 952.05,-129.8"/>
<polygon fill="black" stroke="black" points="952.05,-126.3 942.05,-129.8 952.05,-133.3 952.05,-126.3"/>
</g>
<!-- PlayerComponent -->
<g id="node5" class="node">
<title>PlayerComponent</title>
<polygon fill="#ffffb3" stroke="black" points="1267.6,-84.8 1150.4,-84.8 1150.4,-48.8 1267.6,-48.8 1267.6,-84.8"/>
<text text-anchor="middle" x="1209" y="-62.6" font-family="Times,serif" font-size="14.00">PlayerComponent</text>
</g>
<!-- PlayerComponent&#45;&gt;PlayerModule -->
<g id="edge5" class="edge">
<title>PlayerComponent&#45;&gt;PlayerModule</title>
<path fill="none" stroke="black" d="M1209,-84.83C1209,-101.86 1209,-124.8 1209,-124.8 1209,-124.8 951.84,-124.8 951.84,-124.8"/>
<polygon fill="black" stroke="black" points="951.84,-121.3 941.84,-124.8 951.84,-128.3 951.84,-121.3"/>
</g>
<!-- PlaylistComponent -->
<g id="node6" class="node">
<title>PlaylistComponent</title>
<polygon fill="#ffffb3" stroke="black" points="1132.84,-84.8 1009.16,-84.8 1009.16,-48.8 1132.84,-48.8 1132.84,-84.8"/>
<text text-anchor="middle" x="1071" y="-62.6" font-family="Times,serif" font-size="14.00">PlaylistComponent</text>
</g>
<!-- PlaylistComponent&#45;&gt;PlayerModule -->
<g id="edge6" class="edge">
<title>PlaylistComponent&#45;&gt;PlayerModule</title>
<path fill="none" stroke="black" d="M1071,-85.04C1071,-100.37 1071,-119.8 1071,-119.8 1071,-119.8 951.9,-119.8 951.9,-119.8"/>
<polygon fill="black" stroke="black" points="951.9,-116.3 941.9,-119.8 951.9,-123.3 951.9,-116.3"/>
</g>
<!-- TimePipe -->
<g id="node7" class="node">
<title>TimePipe</title>
<polygon fill="#ffffb3" stroke="black" points="991.44,-84.8 920.56,-84.8 920.56,-48.8 991.44,-48.8 991.44,-84.8"/>
<text text-anchor="middle" x="956" y="-62.6" font-family="Times,serif" font-size="14.00">TimePipe</text>
</g>
<!-- TimePipe&#45;&gt;PlayerModule -->
<g id="edge7" class="edge">
<title>TimePipe&#45;&gt;PlayerModule</title>
<path fill="none" stroke="black" d="M931.22,-84.91C931.22,-84.91 931.22,-103.79 931.22,-103.79"/>
<polygon fill="black" stroke="black" points="927.72,-103.79 931.22,-113.79 934.72,-103.79 927.72,-103.79"/>
</g>
<!-- VisualizerComponent -->
<g id="node8" class="node">
<title>VisualizerComponent</title>
<polygon fill="#ffffb3" stroke="black" points="902.36,-84.8 763.64,-84.8 763.64,-48.8 902.36,-48.8 902.36,-84.8"/>
<text text-anchor="middle" x="833" y="-62.6" font-family="Times,serif" font-size="14.00">VisualizerComponent</text>
</g>
<!-- VisualizerComponent&#45;&gt;PlayerModule -->
<g id="edge8" class="edge">
<title>VisualizerComponent&#45;&gt;PlayerModule</title>
<path fill="none" stroke="black" d="M874.39,-84.91C874.39,-84.91 874.39,-103.79 874.39,-103.79"/>
<polygon fill="black" stroke="black" points="870.89,-103.79 874.39,-113.79 877.89,-103.79 870.89,-103.79"/>
</g>
<!-- VisualsDirective -->
<g id="node9" class="node">
<title>VisualsDirective</title>
<polygon fill="#ffffb3" stroke="black" points="746.08,-84.8 635.92,-84.8 635.92,-48.8 746.08,-48.8 746.08,-84.8"/>
<text text-anchor="middle" x="691" y="-62.6" font-family="Times,serif" font-size="14.00">VisualsDirective</text>
</g>
<!-- VisualsDirective&#45;&gt;PlayerModule -->
<g id="edge9" class="edge">
<title>VisualsDirective&#45;&gt;PlayerModule</title>
<path fill="none" stroke="black" d="M691,-85.04C691,-100.37 691,-119.8 691,-119.8 691,-119.8 836.15,-119.8 836.15,-119.8"/>
<polygon fill="black" stroke="black" points="836.15,-123.3 846.15,-119.8 836.15,-116.3 836.15,-123.3"/>
</g>
<!-- FileDropOverlayComponent -->
<g id="node11" class="node">
<title>FileDropOverlayComponent</title>
<polygon fill="#8dd3c7" stroke="black" points="612.47,-84.8 609.47,-88.8 588.47,-88.8 585.47,-84.8 435.53,-84.8 435.53,-48.8 612.47,-48.8 612.47,-84.8"/>
<text text-anchor="middle" x="524" y="-62.6" font-family="Times,serif" font-size="14.00">FileDropOverlayComponent</text>
</g>
<!-- FileDropOverlayComponent&#45;&gt;PlayerModule -->
<g id="edge10" class="edge">
<title>FileDropOverlayComponent&#45;&gt;PlayerModule</title>
<path fill="none" stroke="black" d="M524,-84.83C524,-101.86 524,-124.8 524,-124.8 524,-124.8 836.01,-124.8 836.01,-124.8"/>
<polygon fill="black" stroke="black" points="836.01,-128.3 846.01,-124.8 836.01,-121.3 836.01,-128.3"/>
</g>
<!-- HotkeysModule -->
<g id="node12" class="node">
<title>HotkeysModule</title>
<polygon fill="#8dd3c7" stroke="black" points="417.21,-84.8 414.21,-88.8 393.21,-88.8 390.21,-84.8 310.79,-84.8 310.79,-48.8 417.21,-48.8 417.21,-84.8"/>
<text text-anchor="middle" x="364" y="-62.6" font-family="Times,serif" font-size="14.00">HotkeysModule</text>
</g>
<!-- HotkeysModule&#45;&gt;PlayerModule -->
<g id="edge11" class="edge">
<title>HotkeysModule&#45;&gt;PlayerModule</title>
<path fill="none" stroke="black" d="M364,-85.02C364,-103.63 364,-129.8 364,-129.8 364,-129.8 836.03,-129.8 836.03,-129.8"/>
<polygon fill="black" stroke="black" points="836.03,-133.3 846.03,-129.8 836.03,-126.3 836.03,-133.3"/>
</g>
<!-- MatIconSizeModule -->
<g id="node13" class="node">
<title>MatIconSizeModule</title>
<polygon fill="#8dd3c7" stroke="black" points="292.58,-84.8 289.58,-88.8 268.58,-88.8 265.58,-84.8 161.42,-84.8 161.42,-48.8 292.58,-48.8 292.58,-84.8"/>
<text text-anchor="middle" x="227" y="-62.6" font-family="Times,serif" font-size="14.00">MatIconSizeModule</text>
</g>
<!-- MatIconSizeModule&#45;&gt;PlayerModule -->
<g id="edge12" class="edge">
<title>MatIconSizeModule&#45;&gt;PlayerModule</title>
<path fill="none" stroke="black" d="M248.85,-85.02C248.85,-105.17 248.85,-134.8 248.85,-134.8 248.85,-134.8 836.3,-134.8 836.3,-134.8"/>
<polygon fill="black" stroke="black" points="836.3,-138.3 846.3,-134.8 836.3,-131.3 836.3,-138.3"/>
</g>
<!-- MatIconSizeModule&#45;&gt;PlayerModule -->
<g id="edge13" class="edge">
<title>MatIconSizeModule&#45;&gt;PlayerModule</title>
<path fill="none" stroke="black" d="M205.15,-84.84C205.15,-106.46 205.15,-139.8 205.15,-139.8 205.15,-139.8 836.11,-139.8 836.11,-139.8"/>
<polygon fill="black" stroke="black" points="836.11,-143.3 846.11,-139.8 836.11,-136.3 836.11,-143.3"/>
</g>
<!-- SlidePanelModule -->
<g id="node14" class="node">
<title>SlidePanelModule</title>
<polygon fill="#8dd3c7" stroke="black" points="143.94,-84.8 140.94,-88.8 119.94,-88.8 116.94,-84.8 24.06,-84.8 24.06,-48.8 143.94,-48.8 143.94,-84.8"/>
<text text-anchor="middle" x="84" y="-62.6" font-family="Times,serif" font-size="14.00">SlidePanelModule</text>
</g>
<!-- SlidePanelModule&#45;&gt;PlayerModule -->
<g id="edge14" class="edge">
<title>SlidePanelModule&#45;&gt;PlayerModule</title>
<path fill="none" stroke="black" d="M84,-84.89C84,-107.93 84,-144.8 84,-144.8 84,-144.8 836.06,-144.8 836.06,-144.8"/>
<polygon fill="black" stroke="black" points="836.06,-148.3 846.06,-144.8 836.06,-141.3 836.06,-148.3"/>
</g>
</g>
</svg>
