<?xml version="1.0" encoding="UTF-8" standalone="no"?>
<!DOCTYPE svg PUBLIC "-//W3C//DTD SVG 1.1//EN"
 "http://www.w3.org/Graphics/SVG/1.1/DTD/svg11.dtd">
<!-- Generated by graphviz version 2.47.0 (20210316.0004)
 -->
<!-- Title: dependencies Pages: 1 -->
<svg width="1726pt" height="211pt"
 viewBox="0.00 0.00 1726.00 211.00" xmlns="http://www.w3.org/2000/svg" xmlns:xlink="http://www.w3.org/1999/xlink">
<g id="graph0" class="graph" transform="scale(1 1) rotate(0) translate(4 207)">
<title>dependencies</title>
<polygon fill="white" stroke="transparent" points="-4,4 -4,-207 1722,-207 1722,4 -4,4"/>
<text text-anchor="start" x="838.01" y="-42.4" font-family="Times-12" font-weight="bold" font-size="14.00">Legend</text>
<polygon fill="#ffffb3" stroke="transparent" points="625,-10 625,-30 645,-30 645,-10 625,-10"/>
<text text-anchor="start" x="648.63" y="-15.4" font-family="Times-12" font-size="14.00"> &#160;Declarations</text>
<polygon fill="#8dd3c7" stroke="transparent" points="738,-10 738,-30 758,-30 758,-10 738,-10"/>
<text text-anchor="start" x="761.73" y="-15.4" font-family="Times-12" font-size="14.00"> &#160;Module</text>
<polygon fill="#80b1d3" stroke="transparent" points="824,-10 824,-30 844,-30 844,-10 824,-10"/>
<text text-anchor="start" x="847.78" y="-15.4" font-family="Times-12" font-size="14.00"> &#160;Bootstrap</text>
<polygon fill="#fdb462" stroke="transparent" points="921,-10 921,-30 941,-30 941,-10 921,-10"/>
<text text-anchor="start" x="944.67" y="-15.4" font-family="Times-12" font-size="14.00"> &#160;Providers</text>
<polygon fill="#fb8072" stroke="transparent" points="1017,-10 1017,-30 1037,-30 1037,-10 1017,-10"/>
<text text-anchor="start" x="1040.73" y="-15.4" font-family="Times-12" font-size="14.00"> &#160;Exports</text>
<g id="clust1" class="cluster">
<title>cluster_PlayerModule</title>
<polygon fill="none" stroke="black" stroke-dasharray="1,5" points="8,-70 8,-195 1710,-195 1710,-70 8,-70"/>
</g>
<g id="clust3" class="cluster">
<title>cluster_PlayerModule_imports</title>
<polygon fill="none" stroke="black" points="16,-78 16,-130 1702,-130 1702,-78 16,-78"/>
</g>
<!-- BandPipe -->
<g id="node1" class="node">
<title>BandPipe</title>
<polygon fill="#8dd3c7" stroke="black" points="1694.44,-122 1691.44,-126 1670.44,-126 1667.44,-122 1623.56,-122 1623.56,-86 1694.44,-86 1694.44,-122"/>
<text text-anchor="middle" x="1659" y="-99.8" font-family="Times,serif" font-size="14.00">BandPipe</text>
</g>
<!-- PlayerModule -->
<g id="node13" class="node">
<title>PlayerModule</title>
<polygon fill="#8dd3c7" stroke="black" points="872.81,-187 869.81,-191 848.81,-191 845.81,-187 777.19,-187 777.19,-151 872.81,-151 872.81,-187"/>
<text text-anchor="middle" x="825" y="-164.8" font-family="Times,serif" font-size="14.00">PlayerModule</text>
</g>
<!-- BandPipe&#45;&gt;PlayerModule -->
<g id="edge1" class="edge">
<title>BandPipe&#45;&gt;PlayerModule</title>
<path fill="none" stroke="black" d="M1659,-122.09C1659,-145.13 1659,-182 1659,-182 1659,-182 882.83,-182 882.83,-182"/>
<polygon fill="black" stroke="black" points="882.83,-178.5 872.83,-182 882.83,-185.5 882.83,-178.5"/>
</g>
<!-- CoverDisplayComponent -->
<g id="node2" class="node">
<title>CoverDisplayComponent</title>
<polygon fill="#8dd3c7" stroke="black" points="1605.59,-122 1602.59,-126 1581.59,-126 1578.59,-122 1446.41,-122 1446.41,-86 1605.59,-86 1605.59,-122"/>
<text text-anchor="middle" x="1526" y="-99.8" font-family="Times,serif" font-size="14.00">CoverDisplayComponent</text>
</g>
<!-- CoverDisplayComponent&#45;&gt;PlayerModule -->
<g id="edge2" class="edge">
<title>CoverDisplayComponent&#45;&gt;PlayerModule</title>
<path fill="none" stroke="black" d="M1526,-122.28C1526,-143.32 1526,-175 1526,-175 1526,-175 882.91,-175 882.91,-175"/>
<polygon fill="black" stroke="black" points="882.91,-171.5 872.91,-175 882.91,-178.5 882.91,-171.5"/>
</g>
<!-- EqualizerComponent -->
<g id="node3" class="node">
<title>EqualizerComponent</title>
<polygon fill="#8dd3c7" stroke="black" points="1428.47,-122 1425.47,-126 1404.47,-126 1401.47,-122 1293.53,-122 1293.53,-86 1428.47,-86 1428.47,-122"/>
<text text-anchor="middle" x="1361" y="-99.8" font-family="Times,serif" font-size="14.00">EqualizerComponent</text>
</g>
<!-- EqualizerComponent&#45;&gt;PlayerModule -->
<g id="edge3" class="edge">
<title>EqualizerComponent&#45;&gt;PlayerModule</title>
<path fill="none" stroke="black" d="M1361,-122.11C1361,-141.34 1361,-169 1361,-169 1361,-169 883.04,-169 883.04,-169"/>
<polygon fill="black" stroke="black" points="883.04,-165.5 873.04,-169 883.04,-172.5 883.04,-165.5"/>
</g>
<!-- FileDropOverlayComponent -->
<g id="node4" class="node">
<title>FileDropOverlayComponent</title>
<polygon fill="#8dd3c7" stroke="black" points="1275.47,-122 1272.47,-126 1251.47,-126 1248.47,-122 1098.53,-122 1098.53,-86 1275.47,-86 1275.47,-122"/>
<text text-anchor="middle" x="1187" y="-99.8" font-family="Times,serif" font-size="14.00">FileDropOverlayComponent</text>
</g>
<!-- FileDropOverlayComponent&#45;&gt;PlayerModule -->
<g id="edge4" class="edge">
<title>FileDropOverlayComponent&#45;&gt;PlayerModule</title>
<path fill="none" stroke="black" d="M1187,-122.02C1187,-139.37 1187,-163 1187,-163 1187,-163 882.7,-163 882.7,-163"/>
<polygon fill="black" stroke="black" points="882.7,-159.5 872.7,-163 882.7,-166.5 882.7,-159.5"/>
</g>
<!-- HotkeysModule -->
<g id="node5" class="node">
<title>HotkeysModule</title>
<polygon fill="#8dd3c7" stroke="black" points="1080.21,-122 1077.21,-126 1056.21,-126 1053.21,-122 973.79,-122 973.79,-86 1080.21,-86 1080.21,-122"/>
<text text-anchor="middle" x="1027" y="-99.8" font-family="Times,serif" font-size="14.00">HotkeysModule</text>
</g>
<!-- HotkeysModule&#45;&gt;PlayerModule -->
<g id="edge5" class="edge">
<title>HotkeysModule&#45;&gt;PlayerModule</title>
<path fill="none" stroke="black" d="M1027,-122.24C1027,-137.57 1027,-157 1027,-157 1027,-157 882.87,-157 882.87,-157"/>
<polygon fill="black" stroke="black" points="882.87,-153.5 872.87,-157 882.87,-160.5 882.87,-153.5"/>
</g>
<!-- LibraryComponent -->
<g id="node6" class="node">
<title>LibraryComponent</title>
<polygon fill="#8dd3c7" stroke="black" points="955.81,-122 952.81,-126 931.81,-126 928.81,-122 832.19,-122 832.19,-86 955.81,-86 955.81,-122"/>
<text text-anchor="middle" x="894" y="-99.8" font-family="Times,serif" font-size="14.00">LibraryComponent</text>
</g>
<!-- LibraryComponent&#45;&gt;PlayerModule -->
<g id="edge6" class="edge">
<title>LibraryComponent&#45;&gt;PlayerModule</title>
<path fill="none" stroke="black" d="M852.5,-122.11C852.5,-122.11 852.5,-140.99 852.5,-140.99"/>
<polygon fill="black" stroke="black" points="849,-140.99 852.5,-150.99 856,-140.99 849,-140.99"/>
</g>
<!-- PlayerComponent -->
<g id="node7" class="node">
<title>PlayerComponent</title>
<polygon fill="#8dd3c7" stroke="black" points="814.6,-122 811.6,-126 790.6,-126 787.6,-122 697.4,-122 697.4,-86 814.6,-86 814.6,-122"/>
<text text-anchor="middle" x="756" y="-99.8" font-family="Times,serif" font-size="14.00">PlayerComponent</text>
</g>
<!-- PlayerComponent&#45;&gt;PlayerModule -->
<g id="edge7" class="edge">
<title>PlayerComponent&#45;&gt;PlayerModule</title>
<path fill="none" stroke="black" d="M795.95,-122.11C795.95,-122.11 795.95,-140.99 795.95,-140.99"/>
<polygon fill="black" stroke="black" points="792.45,-140.99 795.95,-150.99 799.45,-140.99 792.45,-140.99"/>
</g>
<!-- PlaylistComponent -->
<g id="node8" class="node">
<title>PlaylistComponent</title>
<polygon fill="#8dd3c7" stroke="black" points="679.84,-122 676.84,-126 655.84,-126 652.84,-122 556.16,-122 556.16,-86 679.84,-86 679.84,-122"/>
<text text-anchor="middle" x="618" y="-99.8" font-family="Times,serif" font-size="14.00">PlaylistComponent</text>
</g>
<!-- PlaylistComponent&#45;&gt;PlayerModule -->
<g id="edge8" class="edge">
<title>PlaylistComponent&#45;&gt;PlayerModule</title>
<path fill="none" stroke="black" d="M618,-122.24C618,-137.57 618,-157 618,-157 618,-157 767.25,-157 767.25,-157"/>
<polygon fill="black" stroke="black" points="767.25,-160.5 777.25,-157 767.25,-153.5 767.25,-160.5"/>
</g>
<!-- SlidePanelComponent -->
<g id="node9" class="node">
<title>SlidePanelComponent</title>
<polygon fill="#8dd3c7" stroke="black" points="538.71,-122 535.71,-126 514.71,-126 511.71,-122 397.29,-122 397.29,-86 538.71,-86 538.71,-122"/>
<text text-anchor="middle" x="468" y="-99.8" font-family="Times,serif" font-size="14.00">SlidePanelComponent</text>
</g>
<!-- SlidePanelComponent&#45;&gt;PlayerModule -->
<g id="edge9" class="edge">
<title>SlidePanelComponent&#45;&gt;PlayerModule</title>
<path fill="none" stroke="black" d="M468,-122.02C468,-139.37 468,-163 468,-163 468,-163 767.22,-163 767.22,-163"/>
<polygon fill="black" stroke="black" points="767.22,-166.5 777.22,-163 767.22,-159.5 767.22,-166.5"/>
</g>
<!-- TimePipe -->
<g id="node10" class="node">
<title>TimePipe</title>
<polygon fill="#8dd3c7" stroke="black" points="379.44,-122 376.44,-126 355.44,-126 352.44,-122 308.56,-122 308.56,-86 379.44,-86 379.44,-122"/>
<text text-anchor="middle" x="344" y="-99.8" font-family="Times,serif" font-size="14.00">TimePipe</text>
</g>
<!-- TimePipe&#45;&gt;PlayerModule -->
<g id="edge10" class="edge">
<title>TimePipe&#45;&gt;PlayerModule</title>
<path fill="none" stroke="black" d="M344,-122.11C344,-141.34 344,-169 344,-169 344,-169 767.12,-169 767.12,-169"/>
<polygon fill="black" stroke="black" points="767.12,-172.5 777.12,-169 767.12,-165.5 767.12,-172.5"/>
</g>
<!-- VisualizerComponent -->
<g id="node11" class="node">
<title>VisualizerComponent</title>
<polygon fill="#8dd3c7" stroke="black" points="290.36,-122 287.36,-126 266.36,-126 263.36,-122 151.64,-122 151.64,-86 290.36,-86 290.36,-122"/>
<text text-anchor="middle" x="221" y="-99.8" font-family="Times,serif" font-size="14.00">VisualizerComponent</text>
</g>
<!-- VisualizerComponent&#45;&gt;PlayerModule -->
<g id="edge11" class="edge">
<title>VisualizerComponent&#45;&gt;PlayerModule</title>
<path fill="none" stroke="black" d="M221,-122.28C221,-143.32 221,-175 221,-175 221,-175 767.1,-175 767.1,-175"/>
<polygon fill="black" stroke="black" points="767.1,-178.5 777.1,-175 767.1,-171.5 767.1,-178.5"/>
</g>
<!-- VisualsDirective -->
<g id="node12" class="node">
<title>VisualsDirective</title>
<polygon fill="#8dd3c7" stroke="black" points="134.07,-122 131.07,-126 110.07,-126 107.07,-122 23.93,-122 23.93,-86 134.07,-86 134.07,-122"/>
<text text-anchor="middle" x="79" y="-99.8" font-family="Times,serif" font-size="14.00">VisualsDirective</text>
</g>
<!-- VisualsDirective&#45;&gt;PlayerModule -->
<g id="edge12" class="edge">
<title>VisualsDirective&#45;&gt;PlayerModule</title>
<path fill="none" stroke="black" d="M79,-122.09C79,-145.13 79,-182 79,-182 79,-182 767.2,-182 767.2,-182"/>
<polygon fill="black" stroke="black" points="767.2,-185.5 777.2,-182 767.2,-178.5 767.2,-185.5"/>
</g>
</g>
</svg>
