<?xml version="1.0" encoding="UTF-8" standalone="no"?>
<!DOCTYPE svg PUBLIC "-//W3C//DTD SVG 1.1//EN"
 "http://www.w3.org/Graphics/SVG/1.1/DTD/svg11.dtd">
<!-- Generated by graphviz version 5.0.0 (20220707.1540)
 -->
<!-- Title: dependencies Pages: 1 -->
<svg width="1718pt" height="174pt"
 viewBox="0.00 0.00 1718.00 173.80" xmlns="http://www.w3.org/2000/svg" xmlns:xlink="http://www.w3.org/1999/xlink">
<g id="graph0" class="graph" transform="scale(1 1) rotate(0) translate(4 169.8)">
<title>dependencies</title>
<polygon fill="white" stroke="transparent" points="-4,4 -4,-169.8 1714,-169.8 1714,4 -4,4"/>
<text text-anchor="middle" x="855" y="-8.2" font-family="sans-serif" font-size="14.00">dependencies</text>
<g id="clust1" class="cluster">
<title>cluster_PlayerModule</title>
<polygon fill="none" stroke="black" stroke-dasharray="1,5" points="8,-32.8 8,-157.8 1702,-157.8 1702,-32.8 8,-32.8"/>
</g>
<g id="clust2" class="cluster">
<title>cluster_PlayerModule_declarations</title>
<polygon fill="none" stroke="black" points="628,-40.8 628,-92.8 1694,-92.8 1694,-40.8 628,-40.8"/>
</g>
<g id="clust11" class="cluster">
<title>cluster_PlayerModule_imports</title>
<polygon fill="none" stroke="black" points="16,-40.8 16,-92.8 620,-92.8 620,-40.8 16,-40.8"/>
</g>
<!-- BandPipe -->
<g id="node1" class="node">
<title>BandPipe</title>
<polygon fill="#ffffb3" stroke="black" points="1686.44,-84.8 1615.56,-84.8 1615.56,-48.8 1686.44,-48.8 1686.44,-84.8"/>
<text text-anchor="middle" x="1651" y="-62.6" font-family="Times,serif" font-size="14.00">BandPipe</text>
</g>
<!-- PlayerModule -->
<g id="node9" class="node">
<title>PlayerModule</title>
<polygon fill="#8dd3c7" stroke="black" points="880.82,-149.8 877.82,-153.8 856.82,-153.8 853.82,-149.8 785.18,-149.8 785.18,-113.8 880.82,-113.8 880.82,-149.8"/>
<text text-anchor="middle" x="833" y="-127.6" font-family="Times,serif" font-size="14.00">PlayerModule</text>
</g>
<!-- BandPipe&#45;&gt;PlayerModule -->
<g id="edge1" class="edge">
<title>BandPipe&#45;&gt;PlayerModule</title>
<path fill="none" stroke="black" d="M1651,-84.89C1651,-107.93 1651,-144.8 1651,-144.8 1651,-144.8 890.81,-144.8 890.81,-144.8"/>
<polygon fill="black" stroke="black" points="890.81,-141.3 880.81,-144.8 890.81,-148.3 890.81,-141.3"/>
</g>
<!-- CoverDisplayComponent -->
<g id="node2" class="node">
<title>CoverDisplayComponent</title>
<polygon fill="#ffffb3" stroke="black" points="1597.6,-84.8 1438.4,-84.8 1438.4,-48.8 1597.6,-48.8 1597.6,-84.8"/>
<text text-anchor="middle" x="1518" y="-62.6" font-family="Times,serif" font-size="14.00">CoverDisplayComponent</text>
</g>
<!-- CoverDisplayComponent&#45;&gt;PlayerModule -->
<g id="edge2" class="edge">
<title>CoverDisplayComponent&#45;&gt;PlayerModule</title>
<path fill="none" stroke="black" d="M1518,-84.84C1518,-106.46 1518,-139.8 1518,-139.8 1518,-139.8 890.9,-139.8 890.9,-139.8"/>
<polygon fill="black" stroke="black" points="890.9,-136.3 880.9,-139.8 890.9,-143.3 890.9,-136.3"/>
</g>
<!-- EqualizerComponent -->
<g id="node3" class="node">
<title>EqualizerComponent</title>
<polygon fill="#ffffb3" stroke="black" points="1420.47,-84.8 1285.53,-84.8 1285.53,-48.8 1420.47,-48.8 1420.47,-84.8"/>
<text text-anchor="middle" x="1353" y="-62.6" font-family="Times,serif" font-size="14.00">EqualizerComponent</text>
</g>
<!-- EqualizerComponent&#45;&gt;PlayerModule -->
<g id="edge3" class="edge">
<title>EqualizerComponent&#45;&gt;PlayerModule</title>
<path fill="none" stroke="black" d="M1353,-85.02C1353,-105.17 1353,-134.8 1353,-134.8 1353,-134.8 890.99,-134.8 890.99,-134.8"/>
<polygon fill="black" stroke="black" points="890.99,-131.3 880.99,-134.8 890.99,-138.3 890.99,-131.3"/>
</g>
<!-- PlayerComponent -->
<g id="node4" class="node">
<title>PlayerComponent</title>
<polygon fill="#ffffb3" stroke="black" points="1267.6,-84.8 1150.4,-84.8 1150.4,-48.8 1267.6,-48.8 1267.6,-84.8"/>
<text text-anchor="middle" x="1209" y="-62.6" font-family="Times,serif" font-size="14.00">PlayerComponent</text>
</g>
<!-- PlayerComponent&#45;&gt;PlayerModule -->
<g id="edge4" class="edge">
<title>PlayerComponent&#45;&gt;PlayerModule</title>
<path fill="none" stroke="black" d="M1209,-85.02C1209,-103.63 1209,-129.8 1209,-129.8 1209,-129.8 891,-129.8 891,-129.8"/>
<polygon fill="black" stroke="black" points="891,-126.3 881,-129.8 891,-133.3 891,-126.3"/>
</g>
<!-- PlaylistComponent -->
<g id="node5" class="node">
<title>PlaylistComponent</title>
<polygon fill="#ffffb3" stroke="black" points="1132.84,-84.8 1009.16,-84.8 1009.16,-48.8 1132.84,-48.8 1132.84,-84.8"/>
<text text-anchor="middle" x="1071" y="-62.6" font-family="Times,serif" font-size="14.00">PlaylistComponent</text>
</g>
<!-- PlaylistComponent&#45;&gt;PlayerModule -->
<g id="edge5" class="edge">
<title>PlaylistComponent&#45;&gt;PlayerModule</title>
<path fill="none" stroke="black" d="M1071,-84.83C1071,-101.86 1071,-124.8 1071,-124.8 1071,-124.8 890.88,-124.8 890.88,-124.8"/>
<polygon fill="black" stroke="black" points="890.88,-121.3 880.88,-124.8 890.88,-128.3 890.88,-121.3"/>
</g>
<!-- TimePipe -->
<g id="node6" class="node">
<title>TimePipe</title>
<polygon fill="#ffffb3" stroke="black" points="991.44,-84.8 920.56,-84.8 920.56,-48.8 991.44,-48.8 991.44,-84.8"/>
<text text-anchor="middle" x="956" y="-62.6" font-family="Times,serif" font-size="14.00">TimePipe</text>
</g>
<!-- TimePipe&#45;&gt;PlayerModule -->
<g id="edge6" class="edge">
<title>TimePipe&#45;&gt;PlayerModule</title>
<path fill="none" stroke="black" d="M956,-85.04C956,-100.37 956,-119.8 956,-119.8 956,-119.8 890.91,-119.8 890.91,-119.8"/>
<polygon fill="black" stroke="black" points="890.91,-116.3 880.91,-119.8 890.91,-123.3 890.91,-116.3"/>
</g>
<!-- VisualizerComponent -->
<g id="node7" class="node">
<title>VisualizerComponent</title>
<polygon fill="#ffffb3" stroke="black" points="902.36,-84.8 763.64,-84.8 763.64,-48.8 902.36,-48.8 902.36,-84.8"/>
<text text-anchor="middle" x="833" y="-62.6" font-family="Times,serif" font-size="14.00">VisualizerComponent</text>
</g>
<!-- VisualizerComponent&#45;&gt;PlayerModule -->
<g id="edge7" class="edge">
<title>VisualizerComponent&#45;&gt;PlayerModule</title>
<path fill="none" stroke="black" d="M833,-84.91C833,-84.91 833,-103.79 833,-103.79"/>
<polygon fill="black" stroke="black" points="829.5,-103.79 833,-113.79 836.5,-103.79 829.5,-103.79"/>
</g>
<!-- VisualsDirective -->
<g id="node8" class="node">
<title>VisualsDirective</title>
<polygon fill="#ffffb3" stroke="black" points="746.08,-84.8 635.92,-84.8 635.92,-48.8 746.08,-48.8 746.08,-84.8"/>
<text text-anchor="middle" x="691" y="-62.6" font-family="Times,serif" font-size="14.00">VisualsDirective</text>
</g>
<!-- VisualsDirective&#45;&gt;PlayerModule -->
<g id="edge8" class="edge">
<title>VisualsDirective&#45;&gt;PlayerModule</title>
<path fill="none" stroke="black" d="M691,-85.04C691,-100.37 691,-119.8 691,-119.8 691,-119.8 775.32,-119.8 775.32,-119.8"/>
<polygon fill="black" stroke="black" points="775.32,-123.3 785.32,-119.8 775.32,-116.3 775.32,-123.3"/>
</g>
<!-- FileDropOverlayComponent -->
<g id="node10" class="node">
<title>FileDropOverlayComponent</title>
<polygon fill="#8dd3c7" stroke="black" points="612.47,-84.8 609.47,-88.8 588.47,-88.8 585.47,-84.8 435.53,-84.8 435.53,-48.8 612.47,-48.8 612.47,-84.8"/>
<text text-anchor="middle" x="524" y="-62.6" font-family="Times,serif" font-size="14.00">FileDropOverlayComponent</text>
</g>
<!-- FileDropOverlayComponent&#45;&gt;PlayerModule -->
<g id="edge9" class="edge">
<title>FileDropOverlayComponent&#45;&gt;PlayerModule</title>
<path fill="none" stroke="black" d="M524,-84.83C524,-101.86 524,-124.8 524,-124.8 524,-124.8 775.06,-124.8 775.06,-124.8"/>
<polygon fill="black" stroke="black" points="775.06,-128.3 785.06,-124.8 775.06,-121.3 775.06,-128.3"/>
</g>
<!-- HotkeysModule -->
<g id="node11" class="node">
<title>HotkeysModule</title>
<polygon fill="#8dd3c7" stroke="black" points="417.21,-84.8 414.21,-88.8 393.21,-88.8 390.21,-84.8 310.79,-84.8 310.79,-48.8 417.21,-48.8 417.21,-84.8"/>
<text text-anchor="middle" x="364" y="-62.6" font-family="Times,serif" font-size="14.00">HotkeysModule</text>
</g>
<!-- HotkeysModule&#45;&gt;PlayerModule -->
<g id="edge10" class="edge">
<title>HotkeysModule&#45;&gt;PlayerModule</title>
<path fill="none" stroke="black" d="M364,-85.02C364,-103.63 364,-129.8 364,-129.8 364,-129.8 775.01,-129.8 775.01,-129.8"/>
<polygon fill="black" stroke="black" points="775.01,-133.3 785.01,-129.8 775.01,-126.3 775.01,-133.3"/>
</g>
<!-- MatIconSizeModule -->
<g id="node12" class="node">
<title>MatIconSizeModule</title>
<polygon fill="#8dd3c7" stroke="black" points="292.58,-84.8 289.58,-88.8 268.58,-88.8 265.58,-84.8 161.42,-84.8 161.42,-48.8 292.58,-48.8 292.58,-84.8"/>
<text text-anchor="middle" x="227" y="-62.6" font-family="Times,serif" font-size="14.00">MatIconSizeModule</text>
</g>
<!-- MatIconSizeModule&#45;&gt;PlayerModule -->
<g id="edge11" class="edge">
<title>MatIconSizeModule&#45;&gt;PlayerModule</title>
<path fill="none" stroke="black" d="M205.15,-84.84C205.15,-106.46 205.15,-139.8 205.15,-139.8 205.15,-139.8 775.29,-139.8 775.29,-139.8"/>
<polygon fill="black" stroke="black" points="775.29,-143.3 785.29,-139.8 775.29,-136.3 775.29,-143.3"/>
</g>
<!-- MatIconSizeModule&#45;&gt;PlayerModule -->
<g id="edge12" class="edge">
<title>MatIconSizeModule&#45;&gt;PlayerModule</title>
<path fill="none" stroke="black" d="M248.85,-85.02C248.85,-105.17 248.85,-134.8 248.85,-134.8 248.85,-134.8 775.2,-134.8 775.2,-134.8"/>
<polygon fill="black" stroke="black" points="775.2,-138.3 785.2,-134.8 775.2,-131.3 775.2,-138.3"/>
</g>
<!-- SlidePanelModule -->
<g id="node13" class="node">
<title>SlidePanelModule</title>
<polygon fill="#8dd3c7" stroke="black" points="143.94,-84.8 140.94,-88.8 119.94,-88.8 116.94,-84.8 24.06,-84.8 24.06,-48.8 143.94,-48.8 143.94,-84.8"/>
<text text-anchor="middle" x="84" y="-62.6" font-family="Times,serif" font-size="14.00">SlidePanelModule</text>
</g>
<!-- SlidePanelModule&#45;&gt;PlayerModule -->
<g id="edge13" class="edge">
<title>SlidePanelModule&#45;&gt;PlayerModule</title>
<path fill="none" stroke="black" d="M84,-84.89C84,-107.93 84,-144.8 84,-144.8 84,-144.8 775.29,-144.8 775.29,-144.8"/>
<polygon fill="black" stroke="black" points="775.29,-148.3 785.29,-144.8 775.29,-141.3 775.29,-148.3"/>
</g>
</g>
</svg>
